<svg width="30" height="31" viewBox="0 0 30 31" fill="none" xmlns="http://www.w3.org/2000/svg">
<path fill-rule="evenodd" clip-rule="evenodd" d="M20.8611 6.21853C19.7724 5.86218 18.2895 5.84643 15 5.84643C13.2356 5.84643 11.9749 5.8471 10.9814 5.91489C9.99914 5.9819 9.36967 6.11033 8.85822 6.32218C7.3268 6.95651 6.11009 8.17323 5.47575 9.70465C5.2639 10.2161 5.13549 10.8456 5.06846 11.8278C5.00067 12.8214 5 14.0821 5 15.8464C5 17.6108 5.00067 18.8716 5.06846 19.8651C5.13549 20.8473 5.2639 21.4768 5.47575 21.9882C6.11009 23.5197 7.3268 24.7363 8.85822 25.3707C9.36967 25.5826 9.99914 25.7109 10.9814 25.7779C11.9749 25.8458 13.2356 25.8464 15 25.8464C16.7644 25.8464 18.0251 25.8458 19.0186 25.7779C20.0009 25.7109 20.6304 25.5826 21.1418 25.3707C22.6733 24.7363 23.8899 23.5197 24.5243 21.9882C24.7361 21.4768 24.8645 20.8473 24.9315 19.8651C24.9994 18.8716 25 17.6108 25 15.8464C25 14.8892 25 14.0762 24.9885 13.3666C24.9774 12.6763 25.528 12.1077 26.2183 12.0966C26.9085 12.0855 27.4771 12.636 27.4883 13.3263C27.5 14.0582 27.5 14.8906 27.5 15.8384V15.8924C27.5 17.6008 27.5 18.9466 27.4257 20.0352C27.35 21.1448 27.193 22.0781 26.834 22.9449C25.9459 25.0889 24.2425 26.7923 22.0985 27.6804C21.2316 28.0394 20.2984 28.1964 19.1887 28.2722C18.1001 28.3464 16.7544 28.3464 15.0461 28.3464H14.9539C13.2456 28.3464 11.8998 28.3464 10.8113 28.2722C9.70168 28.1964 8.76836 28.0394 7.90153 27.6804C5.75752 26.7923 4.05413 25.0889 3.16605 22.9449C2.807 22.0781 2.64996 21.1448 2.57426 20.0352C2.49999 18.9466 2.5 17.6008 2.5 15.8924V15.8004C2.5 14.0921 2.49999 12.7462 2.57426 11.6577C2.64996 10.5481 2.807 9.61478 3.16605 8.74794C4.05413 6.60395 5.75752 4.90055 7.90153 4.01248C8.76836 3.65341 9.70167 3.49639 10.8112 3.42069C11.8998 3.34641 13.2456 3.34641 14.954 3.34643H15C15.0905 3.34643 15.1801 3.34641 15.2688 3.3464C18.2058 3.34595 20.1206 3.34566 21.6389 3.84256C22.2949 4.0573 22.6528 4.76326 22.438 5.41938C22.2232 6.07548 21.5173 6.43328 20.8611 6.21853ZM27.3296 7.09145C27.6775 7.68778 27.4761 8.45316 26.8797 8.80101L26.6027 8.96264C22.1091 11.5839 18.4988 15.4851 16.2327 20.1678C16.0565 20.5319 15.715 20.7883 15.3161 20.8558C14.9173 20.9233 14.5104 20.7937 14.2241 20.5077L9.2073 15.4962C8.71889 15.0083 8.71846 14.2169 9.20636 13.7284C9.69425 13.24 10.4857 13.2396 10.9741 13.7276L14.7872 17.5367C17.2816 13.0916 20.9221 9.38201 25.343 6.80319L25.6201 6.64158C26.2164 6.29373 26.9818 6.49514 27.3296 7.09145Z" fill="#007AB6"/>
</svg>
