<svg width="57" height="64" viewBox="0 0 57 64" fill="none" xmlns="http://www.w3.org/2000/svg">
<path d="M14.9993 15.3333H28.3327M14.9993 42H24.9993M14.9993 28.6667H34.9993M48.3327 28.6667V22C48.3327 12.5733 48.3327 7.85667 45.4027 4.93C42.476 2 37.7593 2 28.3327 2H21.666C12.2393 2 7.52268 2 4.59602 4.93C1.66602 7.85667 1.66602 12.5733 1.66602 22V42C1.66602 51.4267 1.66602 56.1433 4.59602 59.07C7.52268 62 12.2393 62 21.666 62H24.9993" stroke="#111111" stroke-width="3.33333" stroke-linecap="round"/>
<path d="M43.3333 58.6667C47.9357 58.6667 51.6667 54.9357 51.6667 50.3333C51.6667 45.731 47.9357 42 43.3333 42C38.731 42 35 45.731 35 50.3333C35 54.9357 38.731 58.6667 43.3333 58.6667Z" stroke="#111111" stroke-width="3.33333" stroke-linecap="round"/>
<path d="M55 62L50 57" stroke="#111111" stroke-width="3.33333" stroke-linecap="round"/>
</svg>
