<svg width="19" height="20" viewBox="0 0 19 20" fill="none" xmlns="http://www.w3.org/2000/svg">
<path d="M1.05322 9.31971C1.05322 8.79068 1.05322 8.52616 1.12141 8.28256C1.18181 8.06677 1.28107 7.86382 1.41432 7.68367C1.56474 7.48029 1.77354 7.31789 2.19114 6.99309L8.43829 2.13419C8.76189 1.8825 8.92369 1.75666 9.10236 1.70828C9.26 1.6656 9.42616 1.6656 9.58381 1.70828C9.76247 1.75666 9.92428 1.8825 10.2479 2.1342L16.495 6.99309C16.9126 7.31789 17.1214 7.48029 17.2719 7.68367C17.4051 7.86382 17.5044 8.06677 17.5648 8.28256C17.6329 8.52616 17.6329 8.79068 17.6329 9.31971V15.9838C17.6329 17.0155 17.6329 17.5314 17.4322 17.9254C17.2555 18.2721 16.9737 18.5539 16.6271 18.7305C16.233 18.9313 15.7172 18.9313 14.6854 18.9313H4.00073C2.969 18.9313 2.45314 18.9313 2.05908 18.7305C1.71245 18.5539 1.43063 18.2721 1.25401 17.9254C1.05322 17.5314 1.05322 17.0155 1.05322 15.9838V9.31971Z" stroke="#333E4F" stroke-width="1.84219" stroke-linecap="round" stroke-linejoin="round"/>
</svg>
