<svg width="21" height="21" viewBox="0 0 21 21" fill="none" xmlns="http://www.w3.org/2000/svg">
<path d="M7.66289 7.76847C7.87945 7.15287 8.30688 6.63378 8.86949 6.30313C9.43209 5.97248 10.0936 5.85161 10.7368 5.96194C11.3799 6.07226 11.9633 6.40665 12.3836 6.90589C12.8038 7.40513 13.0339 8.03699 13.0329 8.68957C13.0329 10.5318 10.2696 11.4529 10.2696 11.4529M10.3433 15.1372H10.3525M19.5542 10.5318C19.5542 15.6188 15.4304 19.7427 10.3433 19.7427C5.25621 19.7427 1.13232 15.6188 1.13232 10.5318C1.13232 5.44469 5.25621 1.3208 10.3433 1.3208C15.4304 1.3208 19.5542 5.44469 19.5542 10.5318Z" stroke="#333E4F" stroke-width="1.84219" stroke-linecap="round" stroke-linejoin="round"/>
</svg>
