<svg width="17" height="10" viewBox="0 0 17 10" fill="none" xmlns="http://www.w3.org/2000/svg">
<path fill-rule="evenodd" clip-rule="evenodd" d="M12.0893 0.715545C12.1634 0.784058 12.2232 0.866492 12.2653 0.958135C12.3075 1.04978 12.3312 1.14883 12.335 1.24963C12.3389 1.35043 12.3228 1.45101 12.2878 1.5456C12.2527 1.64019 12.1994 1.72694 12.1308 1.8009L5.21718 9.26408C5.08555 9.40838 4.92527 9.52365 4.74658 9.60251C4.5679 9.68138 4.37473 9.72211 4.17941 9.72211C3.98409 9.72211 3.79092 9.68138 3.61223 9.60251C3.43355 9.52365 3.27327 9.40838 3.14164 9.26408L0.257843 6.15155C0.119412 6.00212 0.0460094 5.80383 0.0537827 5.60028C0.061556 5.39674 0.149868 5.20462 0.299292 5.06619C0.448716 4.92776 0.647012 4.85435 0.850556 4.86213C1.0541 4.8699 1.24622 4.95821 1.38465 5.10764L4.04425 7.9798C4.11716 8.05854 4.24166 8.05854 4.31458 7.97981L11.004 0.756995C11.0725 0.682956 11.1549 0.623147 11.2466 0.580989C11.3382 0.538831 11.4372 0.515151 11.538 0.511301C11.6389 0.507452 11.7394 0.523509 11.834 0.558555C11.9286 0.593601 12.0154 0.646947 12.0893 0.715545ZM15.9272 0.715545C16.0013 0.784058 16.0611 0.866492 16.1032 0.958135C16.1454 1.04978 16.1691 1.14883 16.1729 1.24963C16.1768 1.35043 16.1607 1.45101 16.1257 1.5456C16.0906 1.64019 16.0373 1.72694 15.9687 1.8009L9.05584 9.26408C8.91741 9.41351 8.72529 9.50182 8.52175 9.50959C8.31821 9.51737 8.11991 9.44396 7.97049 9.30553C7.82106 9.1671 7.73275 8.97498 7.72498 8.77144C7.7172 8.56789 7.79061 8.3696 7.92904 8.22017L14.8426 0.756995C14.981 0.607696 15.1729 0.519458 15.3763 0.511685C15.5797 0.503912 15.7779 0.577241 15.9272 0.715545Z" fill="#333E4F"/>
</svg>
