<svg width="124" height="33" viewBox="0 0 124 33" fill="none" xmlns="http://www.w3.org/2000/svg">
<path d="M4.54235 23.9651C5.14286 25.3834 5.89291 26.4746 6.79251 27.234C7.69211 27.9958 8.68283 28.3743 9.76702 28.3743C10.8512 28.3743 11.7929 28.0448 12.5102 27.3859C13.2275 26.727 13.5851 25.9022 13.5851 24.9068C13.5851 24.103 13.314 23.3739 12.7719 22.722C12.2298 22.0724 11.3466 21.4088 10.1175 20.7359L8.95388 20.1003C6.29014 18.682 4.68955 17.738 4.14746 17.2684C3.03523 16.3033 2.25012 15.3406 1.78747 14.3826C1.32716 13.4246 1.09584 12.3007 1.09584 11.0132C1.09584 8.1906 2.04217 5.88202 3.93716 4.08984C5.83216 2.29765 8.29962 1.40039 11.3442 1.40039C13.4799 1.40039 15.3515 1.88641 16.9615 2.86078C18.5714 3.83514 19.8285 5.23479 20.7351 7.06436L17.3984 9.39162C16.8119 7.98731 16.0712 6.93351 15.1716 6.23019C14.272 5.52686 13.1995 5.17637 11.9564 5.17637C10.9166 5.17637 10.0591 5.49882 9.37681 6.14139C8.69685 6.7863 8.3557 7.5901 8.3557 8.55512C8.3557 9.37527 8.6361 10.0903 9.20156 10.7048C9.76468 11.3193 10.8512 12.0367 12.4611 12.8545L13.0102 13.1396C16.0105 14.6327 17.8167 15.6351 18.4312 16.1468C19.513 17.0394 20.2935 17.9787 20.7678 18.9671C21.2421 19.9555 21.4805 21.1074 21.4805 22.4229C21.4805 25.3063 20.4757 27.6546 18.4639 29.4678C16.4521 31.2834 13.8374 32.19 10.6175 32.19C8.32065 32.19 6.29014 31.6853 4.52833 30.6759C2.76418 29.6664 1.42296 28.2388 0.5 26.3952L4.53767 23.9604L4.54235 23.9651Z" fill="white"/>
<path d="M41.0806 26.5758C40.2605 28.3913 39.1576 29.7723 37.7673 30.7233C36.377 31.6743 34.7601 32.1486 32.9165 32.1486C30.0775 32.1486 27.7619 31.1906 25.9697 29.2746C24.1775 27.3585 23.2803 24.87 23.2803 21.8138C23.2803 18.7575 24.2056 16.2292 26.0562 14.2758C27.9068 12.3224 30.2504 11.3457 33.0894 11.3457C35.0498 11.3457 36.6878 11.7663 38.0056 12.6075C39.3235 13.4487 40.2745 14.6894 40.8586 16.3274L38.1155 17.9069C37.8094 16.6919 37.3444 15.7829 36.7228 15.1754C36.1013 14.5679 35.3372 14.2641 34.4306 14.2641C33.0707 14.2641 32.0286 14.8974 31.3042 16.1638C30.5799 17.4302 30.2177 19.2692 30.2177 21.6829C30.2177 24.2719 30.5238 26.1575 31.1383 27.3328C31.7528 28.5105 32.7319 29.0993 34.0801 29.0993C35.0755 29.0993 35.9821 28.7418 36.8023 28.0245C37.6224 27.3071 38.2136 26.3421 38.5804 25.1271L41.083 26.5758H41.0806Z" fill="white"/>
<path d="M43.9053 31.4275V0H50.2469V18.6555H54.9224V11.9611H61.264V31.4275H54.9224V21.8147H50.2469V31.4275H43.9053Z" fill="white"/>
<path d="M70.0591 31.4279C68.552 31.4279 67.4888 31.0961 66.8649 30.4301C66.2434 29.7642 65.9326 28.6123 65.9326 26.9743V16.4175C65.9326 14.7795 66.2434 13.6275 66.8649 12.9616C67.4865 12.2957 68.552 11.9639 70.0591 11.9639H79.1018V14.8823H74.2954C73.4916 14.8823 72.9518 15.0295 72.6831 15.3216C72.4121 15.6137 72.2765 16.1931 72.2765 17.0553V20.2378H78.3774V23.1563H72.2765V26.4042C72.2765 27.2523 72.4074 27.8155 72.6714 28.0935C72.9354 28.3716 73.4752 28.5094 74.2954 28.5094H79.4079V31.4279H70.0591Z" fill="white"/>
<path d="M82.608 31.4279V28.5094H87.7859C88.9846 28.5094 89.8235 28.3459 90.3001 28.0164C90.7745 27.687 91.0128 27.1355 91.0128 26.3598C91.0128 25.3644 90.0384 24.5746 88.0944 23.9904C87.5079 23.8152 87.0476 23.6773 86.7111 23.5745C84.7951 22.946 83.4819 22.2356 82.7716 21.4459C82.0612 20.6561 81.7061 19.5812 81.7061 18.219C81.7061 16.1861 82.3767 14.6346 83.7132 13.5668C85.0521 12.4989 86.9938 11.9639 89.5407 11.9639H94.6112V14.8823H90.2207C89.5033 14.8823 88.9402 15.0108 88.5313 15.2655C88.1224 15.5225 87.9168 15.8777 87.9168 16.331C87.9168 17.1348 88.765 17.8007 90.4637 18.3288C90.8446 18.4597 91.1296 18.5555 91.3189 18.6139C93.3961 19.2868 94.8004 20.0556 95.5318 20.9178C96.2632 21.7823 96.63 22.995 96.63 24.5606C96.63 26.6962 95.9617 28.3763 94.6229 29.5983C93.284 30.8204 91.4357 31.4302 89.0804 31.4302H82.6056L82.608 31.4279Z" fill="white"/>
<path d="M102.708 31.4273V15.2976H97.4854V11.9609H114.274V15.2976H109.052V31.4273H102.71H102.708Z" fill="white"/>
<path d="M116.688 31.4273V11.9609H123.029V31.4273H116.688Z" fill="white"/>
<path d="M116.593 5.69117C116.593 4.77055 116.918 3.98311 117.57 3.3312C118.222 2.67928 119 2.35449 119.906 2.35449C120.813 2.35449 121.633 2.67695 122.276 3.31952C122.918 3.96442 123.241 4.75419 123.241 5.68883C123.241 6.62348 122.916 7.39457 122.264 8.03714C121.612 8.68205 120.827 9.00217 119.904 9.00217C118.981 9.00217 118.217 8.67737 117.568 8.02545C116.916 7.37353 116.591 6.59544 116.591 5.68883L116.593 5.69117Z" fill="#EF9F28"/>
</svg>
