<svg width="17" height="18" viewBox="0 0 17 18" fill="none" xmlns="http://www.w3.org/2000/svg">
<path fill-rule="evenodd" clip-rule="evenodd" d="M1.27461 0H16.1246C16.4959 0 16.7996 0.3375 16.7996 0.75V17.25C16.7996 17.6625 16.4959 18 16.1246 18H1.27461C0.903359 18 0.599609 17.6625 0.599609 17.25V0.75C0.599609 0.3375 0.903359 0 1.27461 0ZM2.99586 15.3375H5.39211V6.75H2.99586V15.3375ZM4.21085 5.58749C3.4346 5.58749 2.8271 4.91249 2.8271 4.05C2.8271 3.1875 3.4346 2.5125 4.21085 2.5125C4.9871 2.5125 5.5946 3.1875 5.5946 4.05C5.5946 4.87499 4.9871 5.58749 4.21085 5.58749ZM12.0071 15.3375H14.3696V10.6125C14.3696 8.28749 13.9309 6.52499 11.5009 6.52499C10.3534 6.52499 9.54336 7.23749 9.23961 7.91249H9.20586V6.74999H6.91086V15.3375H9.30711V11.1C9.30711 9.97499 9.50961 8.88749 10.7584 8.88749C12.0071 8.88749 12.0071 10.1625 12.0071 11.175V15.3375Z" fill="white"/>
</svg>
