<svg width="17" height="18" viewBox="0 0 17 18" fill="none" xmlns="http://www.w3.org/2000/svg">
<path fill-rule="evenodd" clip-rule="evenodd" d="M5.56024 0.054C6.42424 0.0105 6.69998 0 8.8998 0C11.0996 0 11.3754 0.0105 12.2394 0.054C13.5563 0.12075 14.7122 0.47925 15.6404 1.5105C16.5688 2.54212 16.8911 3.82687 16.9512 5.28937C16.9904 6.24937 16.9998 6.55575 16.9998 9C16.9998 11.4443 16.9904 11.7506 16.9512 12.7106C16.8911 14.1739 16.5685 15.4583 15.6404 16.4895C14.7119 17.5211 13.5553 17.8792 12.2394 17.946C11.3754 17.9895 11.0996 18 8.8998 18C6.69998 18 6.42424 17.9895 5.56024 17.946C4.24332 17.8792 3.08738 17.5208 2.15925 16.4895C1.23079 15.4579 0.90848 14.1731 0.848405 12.7106C0.809255 11.7506 0.799805 11.4443 0.799805 9C0.799805 6.55575 0.809255 6.24937 0.848405 5.28937C0.90848 3.82612 1.23113 2.54175 2.15925 1.5105C3.08772 0.478875 4.24399 0.12075 5.56024 0.054ZM12.1729 1.67401C11.3187 1.63051 11.0625 1.62151 8.8998 1.62151C6.7371 1.62151 6.48094 1.63088 5.62673 1.67401C4.70502 1.72088 3.84945 1.92601 3.19133 2.65725C2.53321 3.3885 2.34859 4.33913 2.30641 5.36325C2.26726 6.31238 2.25916 6.597 2.25916 9C2.25916 11.403 2.26759 11.6876 2.30641 12.6367C2.34859 13.6609 2.53321 14.6115 3.19133 15.3427C3.84945 16.074 4.70502 16.2791 5.62673 16.326C6.4806 16.3695 6.73677 16.3785 8.8998 16.3785C11.0628 16.3785 11.319 16.3691 12.1729 16.326C13.0946 16.2791 13.9502 16.074 14.6083 15.3427C15.2664 14.6115 15.451 13.6609 15.4932 12.6367C15.5324 11.6876 15.5405 11.403 15.5405 9C15.5405 6.597 15.532 6.31238 15.4932 5.36325C15.451 4.33913 15.2664 3.3885 14.6083 2.65725C13.9502 1.92601 13.0946 1.72088 12.1729 1.67401Z" fill="white"/>
<path fill-rule="evenodd" clip-rule="evenodd" d="M5.21777 9.40918C5.21777 6.92403 7.03081 4.90918 9.26777 4.90918C11.5047 4.90918 13.3178 6.92366 13.3178 9.40918C13.3178 11.8947 11.5047 13.9092 9.26777 13.9092C7.03081 13.9092 5.21777 11.8943 5.21777 9.40918ZM6.63876 9.40918C6.63876 11.0224 7.8159 12.3303 9.26777 12.3303C10.7196 12.3303 11.8968 11.0224 11.8968 9.40918C11.8968 7.79599 10.7196 6.48805 9.26777 6.48805C7.8159 6.48805 6.63876 7.79599 6.63876 9.40918Z" fill="white"/>
<ellipse cx="12.9502" cy="4.49974" rx="1.10455" ry="1.22728" fill="white"/>
</svg>
