<svg width="123" height="34" viewBox="0 0 123 34" fill="none" xmlns="http://www.w3.org/2000/svg">
<path d="M4.04235 24.8699C4.64286 26.2882 5.39291 27.3794 6.29251 28.1388C7.19211 28.9005 8.18283 29.2791 9.26702 29.2791C10.3512 29.2791 11.2929 28.9496 12.0102 28.2907C12.7275 27.6318 13.0851 26.8069 13.0851 25.8115C13.0851 25.0077 12.814 24.2787 12.2719 23.6268C11.7298 22.9772 10.8466 22.3136 9.61751 21.6407L8.45388 21.0051C5.79014 19.5868 4.18955 18.6428 3.64746 18.1731C2.53523 17.2081 1.75012 16.2454 1.28747 15.2874C0.827161 14.3294 0.595838 13.2055 0.595838 11.918C0.595838 9.09539 1.54217 6.78681 3.43716 4.99462C5.33216 3.20244 7.79962 2.30518 10.8442 2.30518C12.9799 2.30518 14.8515 2.79119 16.4615 3.76556C18.0714 4.73993 19.3285 6.13957 20.2351 7.96914L16.8984 10.2964C16.3119 8.8921 15.5712 7.83829 14.6716 7.13497C13.772 6.43165 12.6995 6.08116 11.4564 6.08116C10.4166 6.08116 9.5591 6.40361 8.87681 7.04618C8.19685 7.69108 7.8557 8.49488 7.8557 9.45991C7.8557 10.2801 8.1361 10.9951 8.70156 11.6096C9.26468 12.2241 10.3512 12.9415 11.9611 13.7593L12.5102 14.0443C15.5105 15.5374 17.3167 16.5399 17.9312 17.0516C19.013 17.9442 19.7935 18.8835 20.2678 19.8719C20.7421 20.8603 20.9805 22.0122 20.9805 23.3277C20.9805 26.2111 19.9757 28.5594 17.9639 30.3726C15.9521 32.1882 13.3374 33.0948 10.1175 33.0948C7.82065 33.0948 5.79014 32.5901 4.02833 31.5806C2.26418 30.5712 0.922963 29.1436 0 27.3L4.03767 24.8652L4.04235 24.8699Z" fill="black"/>
<path d="M40.5801 27.481C39.76 29.2966 38.6571 30.6775 37.2668 31.6285C35.8765 32.5795 34.2596 33.0539 32.416 33.0539C29.577 33.0539 27.2614 32.0959 25.4692 30.1798C23.677 28.2638 22.7798 25.7753 22.7798 22.719C22.7798 19.6627 23.7051 17.1345 25.5557 15.1811C27.4063 13.2277 29.7499 12.251 32.5889 12.251C34.5493 12.251 36.1873 12.6716 37.5051 13.5128C38.823 14.3539 39.774 15.5947 40.3581 17.2326L37.615 18.8122C37.3089 17.5972 36.8439 16.6882 36.2223 16.0807C35.6008 15.4732 34.8367 15.1694 33.9301 15.1694C32.5702 15.1694 31.5281 15.8026 30.8037 17.0691C30.0794 18.3355 29.7172 20.1744 29.7172 22.5882C29.7172 25.1771 30.0233 27.0628 30.6378 28.2381C31.2524 29.4158 32.2314 30.0046 33.5796 30.0046C34.575 30.0046 35.4816 29.6471 36.3018 28.9297C37.1219 28.2124 37.7131 27.2474 38.0799 26.0323L40.5825 27.481H40.5801Z" fill="black"/>
<path d="M43.4053 32.3323V0.904785H49.7469V19.5603H54.4224V12.8659H60.764V32.3323H54.4224V22.7194H49.7469V32.3323H43.4053Z" fill="black"/>
<path d="M69.5596 32.3322C68.0524 32.3322 66.9893 32.0004 66.3654 31.3344C65.7439 30.6685 65.4331 29.5166 65.4331 27.8786V17.3218C65.4331 15.6838 65.7439 14.5318 66.3654 13.8659C66.987 13.2 68.0524 12.8682 69.5596 12.8682H78.6023V15.7866H73.7958C72.9921 15.7866 72.4523 15.9338 72.1836 16.2259C71.9125 16.518 71.777 17.0974 71.777 17.9596V21.1421H77.8779V24.0606H71.777V27.3084C71.777 28.1566 71.9079 28.7198 72.1719 28.9978C72.4359 29.2759 72.9757 29.4137 73.7958 29.4137H78.9084V32.3322H69.5596Z" fill="black"/>
<path d="M82.108 32.3322V29.4137H87.2859C88.4846 29.4137 89.3235 29.2502 89.8001 28.9207C90.2745 28.5913 90.5128 28.0398 90.5128 27.2641C90.5128 26.2687 89.5384 25.4789 87.5944 24.8947C87.0079 24.7195 86.5476 24.5816 86.2111 24.4788C84.2951 23.8503 82.9819 23.1399 82.2716 22.3502C81.5612 21.5604 81.2061 20.4855 81.2061 19.1233C81.2061 17.0904 81.8767 15.5389 83.2132 14.4711C84.5521 13.4032 86.4938 12.8682 89.0407 12.8682H94.1112V15.7866H89.7207C89.0033 15.7866 88.4402 15.9151 88.0313 16.1698C87.6224 16.4268 87.4168 16.782 87.4168 17.2353C87.4168 18.0391 88.265 18.705 89.9637 19.2331C90.3446 19.364 90.6296 19.4598 90.8189 19.5182C92.8961 20.1911 94.3004 20.9599 95.0318 21.8221C95.7632 22.6866 96.13 23.8993 96.13 25.4649C96.13 27.6005 95.4617 29.2806 94.1229 30.5026C92.784 31.7247 90.9357 32.3345 88.5804 32.3345H82.1056L82.108 32.3322Z" fill="black"/>
<path d="M102.208 32.3316V16.2019H96.9858V12.8652H113.774V16.2019H108.552V32.3316H102.211H102.208Z" fill="black"/>
<path d="M116.188 32.3316V12.8652H122.53V32.3316H116.188Z" fill="black"/>
<path d="M116.093 6.59645C116.093 5.67582 116.418 4.88839 117.07 4.23647C117.722 3.58455 118.5 3.25977 119.406 3.25977C120.313 3.25977 121.133 3.58222 121.776 4.22479C122.418 4.8697 122.741 5.65946 122.741 6.59411C122.741 7.52875 122.416 8.29985 121.764 8.94242C121.112 9.58732 120.327 9.90744 119.404 9.90744C118.481 9.90744 117.717 9.58264 117.068 8.93072C116.416 8.27881 116.091 7.50071 116.091 6.59411L116.093 6.59645Z" fill="#EF9F28"/>
</svg>
