<svg width="18" height="18" viewBox="0 0 18 18" fill="none" xmlns="http://www.w3.org/2000/svg">
<path d="M16.4254 0H1.57539C1.2026 0 0.900391 0.335786 0.900391 0.75V17.25C0.900391 17.6642 1.2026 18 1.57539 18H9.55331V11.0295H7.44215V8.3129H9.55331V6.30952C9.55331 3.9846 10.8313 2.71865 12.6979 2.71865C13.592 2.71865 14.3604 2.79261 14.5844 2.82567V5.25534L13.2898 5.25599C12.2747 5.25599 12.0781 5.79198 12.0781 6.5785V8.3129H14.4991L14.1839 11.0295H12.0781V18H16.4254C16.7982 18 17.1004 17.6642 17.1004 17.25V0.75C17.1004 0.335786 16.7982 0 16.4254 0Z" fill="white"/>
</svg>
