<svg width="16" height="15" viewBox="0 0 16 15" fill="none" xmlns="http://www.w3.org/2000/svg">
<path fill-rule="evenodd" clip-rule="evenodd" d="M15.3 1.73969C14.7263 2.04897 14.1206 2.24227 13.4831 2.35825C14.1206 1.89433 14.6306 1.15979 14.8538 0.270619C14.2481 0.695876 13.5788 1.00515 12.8456 1.19845C12.2719 0.463918 11.4431 0 10.5506 0C8.82938 0 7.42688 1.70103 7.42688 3.78866C7.42688 4.09794 7.45875 4.36856 7.5225 4.63918C4.94063 4.48454 2.61375 2.9768 1.05188 0.657216C0.796875 1.23711 0.6375 1.85567 0.6375 2.55155C0.6375 3.86598 1.17938 5.02577 2.04 5.72165C1.53 5.68299 1.05187 5.52835 0.605625 5.25773V5.29639C0.605625 7.15206 1.68938 8.69845 3.12375 9.04639C2.86875 9.12371 2.58188 9.16237 2.295 9.16237C2.10375 9.16237 1.88063 9.12371 1.68938 9.08505C2.10375 10.5928 3.25125 11.7139 4.62187 11.7139C3.53813 12.7191 2.19938 13.3376 0.733125 13.3376C0.478125 13.3376 0.223125 13.3376 0 13.299C1.4025 14.3814 3.02813 15 4.81313 15C10.5825 15 13.7381 9.20103 13.7381 4.17526C13.7381 4.02062 13.7381 3.82732 13.7381 3.67268C14.3438 3.1701 14.8856 2.51289 15.3 1.73969Z" fill="white"/>
</svg>
