<svg width="25" height="24" viewBox="0 0 25 24" fill="none" xmlns="http://www.w3.org/2000/svg">
<path d="M15.8706 14H15.0806L14.8006 13.73C15.4255 13.0039 15.8823 12.1487 16.1381 11.2256C16.394 10.3024 16.4426 9.33413 16.2806 8.38998C15.8106 5.60998 13.4906 3.38997 10.6906 3.04997C9.7062 2.92544 8.70637 3.02775 7.76761 3.34906C6.82884 3.67038 5.97602 4.20219 5.27441 4.90381C4.5728 5.60542 4.04099 6.45824 3.71967 7.397C3.39835 8.33576 3.29605 9.33559 3.42058 10.32C3.76058 13.12 5.98058 15.44 8.76058 15.91C9.70473 16.072 10.673 16.0234 11.5962 15.7675C12.5194 15.5117 13.3745 15.0549 14.1006 14.43L14.3706 14.71V15.5L18.6206 19.75C19.0306 20.16 19.7006 20.16 20.1106 19.75C20.5206 19.34 20.5206 18.67 20.1106 18.26L15.8706 14ZM9.87058 14C7.38058 14 5.37058 11.99 5.37058 9.49997C5.37058 7.00997 7.38058 4.99997 9.87058 4.99997C12.3606 4.99997 14.3706 7.00997 14.3706 9.49997C14.3706 11.99 12.3606 14 9.87058 14Z" fill="#111111"/>
</svg>
