<svg width="24" height="24" viewBox="0 0 24 24" fill="none" xmlns="http://www.w3.org/2000/svg">
<path d="M11.1222 5.102C10.9742 4.69922 10.6778 4.36832 10.2936 4.17716C9.90944 3.98601 9.46669 3.9491 9.05618 4.074C7.11018 4.674 5.75018 6.344 6.04218 8.276C6.37077 10.4198 7.09725 12.4832 8.18418 14.36C9.26109 16.2318 10.6733 17.8894 12.3502 19.25C13.8582 20.47 15.9742 20.134 17.4662 18.734C17.78 18.4394 17.9704 18.0368 17.999 17.6073C18.0276 17.1779 17.8922 16.7536 17.6202 16.42L16.5522 15.114C16.3383 14.8514 16.0504 14.6591 15.7258 14.5621C15.4013 14.4651 15.0551 14.4679 14.7322 14.57L12.2682 15.35L11.8382 14.906C11.2966 14.3439 10.8227 13.7203 10.4262 13.048C10.0421 12.3676 9.74259 11.643 9.53418 10.89L9.36818 10.3L11.2682 8.55C11.5196 8.31767 11.6959 8.01561 11.7747 7.68248C11.8534 7.34935 11.8309 7.0003 11.7102 6.68L11.1222 5.102ZM8.46818 2.162C9.36648 1.88716 10.3359 1.96626 11.1778 2.3831C12.0196 2.79995 12.6702 3.52296 12.9962 4.404L13.5822 5.98C13.8415 6.67228 13.8887 7.42613 13.7177 8.14534C13.5467 8.86454 13.1653 9.5165 12.6222 10.018L11.6422 10.92C11.7682 11.268 11.9382 11.666 12.1582 12.052C12.3782 12.432 12.6342 12.778 12.8682 13.06L14.1282 12.66C14.8326 12.4376 15.5876 12.4317 16.2954 12.6432C17.0031 12.8546 17.6312 13.2737 18.0982 13.846L19.1662 15.152C19.7597 15.8778 20.0556 16.8019 19.9939 17.7375C19.9323 18.673 19.5178 19.5503 18.8342 20.192C16.8462 22.058 13.6002 22.832 11.0942 20.804C9.22667 19.2893 7.65381 17.4439 6.45418 15.36C5.24137 13.2668 4.43077 10.9652 4.06418 8.574C3.58418 5.388 5.87018 2.962 8.46818 2.164" fill="#007AB6"/>
</svg>
