<svg width="41" height="41" viewBox="0 0 41 41" fill="none" xmlns="http://www.w3.org/2000/svg">
<g clip-path="url(#clip0_199_1996)">
<path d="M20.5 0.128906C9.45437 0.128906 0.5 9.08328 0.5 20.1289C0.5 31.1752 9.45437 40.1289 20.5 40.1289C31.5462 40.1289 40.5007 31.1752 40.5007 20.1289C40.5007 9.08328 31.5463 0.128906 20.5 0.128906ZM20.5 37.6683C10.8506 37.6683 3 29.7783 3 20.1288C3 10.4795 10.8506 2.62883 20.5 2.62883C30.1494 2.62883 38.0007 10.4795 38.0007 20.1288C38.0007 29.7782 30.1494 37.6683 20.5 37.6683ZM18.6619 31.3976H21.8069V28.2239H18.6619V31.3976ZM20.4631 8.86074C18.6319 8.86074 17.1232 9.35449 15.9382 10.3408C14.7532 11.3276 14.1769 13.3039 14.2063 14.9414L14.2525 15.0326H17.1213C17.1213 14.0557 17.4469 12.652 18.0982 12.1482C18.7488 11.6451 19.5375 11.3932 20.4638 11.3932C21.5313 11.3932 22.3519 11.6832 22.9276 12.2632C23.5026 12.8432 23.7894 13.6726 23.7894 14.7501C23.7894 15.6557 23.5769 16.4288 23.15 17.0695C22.7219 17.7101 22.0044 18.6257 20.9982 19.8164C19.96 20.7526 19.3188 21.5051 19.075 22.0745C18.8307 22.6445 18.7038 23.667 18.6944 25.1414H21.7007C21.7007 24.2164 21.7594 23.5345 21.8763 23.097C21.9925 22.6601 22.3257 22.1664 22.875 21.617C24.0557 20.4782 25.0038 19.3645 25.7219 18.2752C26.4382 17.187 26.7969 15.9864 26.7969 14.6739C26.7969 12.8426 26.2432 11.4157 25.1338 10.3939C24.0238 9.37137 22.4669 8.86074 20.4631 8.86074Z" fill="#007AB6"/>
</g>
<defs>
<clipPath id="clip0_199_1996">
<rect width="40" height="40" fill="white" transform="translate(0.5 0.128906)"/>
</clipPath>
</defs>
</svg>
