<svg width="167" height="112" viewBox="0 0 167 112" fill="none" xmlns="http://www.w3.org/2000/svg">
<path opacity="0.2" d="M37.15 17.4286C37.15 17.4286 46.9242 38.8743 58.9492 46.28C70.9742 53.6394 94.5 52.6057 94.5 52.6057C94.5 52.6057 73.0708 62.372 65.6708 74.4063C58.3017 86.4406 59.35 110 59.35 110C59.35 110 49.5758 88.5543 37.5508 81.1486C25.5412 73.8046 2 74.8228 2 74.8228C2 74.8228 23.4292 65.0566 30.8292 53.0223C38.1983 40.988 37.15 17.4286 37.15 17.4286ZM163.567 2C163.567 2 157.061 16.3023 149.044 21.224C141.028 26.1457 125.333 25.4514 125.333 25.4514C125.333 25.4514 139.625 31.9623 144.543 39.9851C149.46 48.008 148.767 63.7143 148.767 63.7143C148.767 63.7143 155.273 49.412 163.289 44.4903C171.306 39.5686 187 40.2629 187 40.2629C187 40.2629 172.709 33.752 167.791 25.7291C162.873 17.7063 163.567 2 163.567 2Z" stroke="#68D585" stroke-width="2.33333" stroke-linejoin="round"/>
</svg>
