<svg width="33" height="32" viewBox="0 0 33 32" fill="none" xmlns="http://www.w3.org/2000/svg">
<path d="M19.0581 29.088C22.5441 26.02 28.7461 19.752 28.7461 14C28.7461 10.8174 27.4818 7.76515 25.2314 5.51472C22.9809 3.26428 19.9287 2 16.7461 2C13.5635 2 10.5112 3.26428 8.26081 5.51472C6.01038 7.76515 4.74609 10.8174 4.74609 14C4.74609 19.752 10.9461 26.02 14.4341 29.088C15.0703 29.6559 15.8933 29.9697 16.7461 29.9697C17.5989 29.9697 18.4219 29.6559 19.0581 29.088ZM12.7461 14C12.7461 12.9391 13.1675 11.9217 13.9177 11.1716C14.6678 10.4214 15.6852 10 16.7461 10C17.807 10 18.8244 10.4214 19.5745 11.1716C20.3247 11.9217 20.7461 12.9391 20.7461 14C20.7461 15.0609 20.3247 16.0783 19.5745 16.8284C18.8244 17.5786 17.807 18 16.7461 18C15.6852 18 14.6678 17.5786 13.9177 16.8284C13.1675 16.0783 12.7461 15.0609 12.7461 14Z" fill="#007AB6"/>
</svg>
