<svg width="33" height="32" viewBox="0 0 33 32" fill="none" xmlns="http://www.w3.org/2000/svg">
<path d="M27.0371 5.33331H5.70378C4.23711 5.33331 3.05044 6.53331 3.05044 7.99998L3.03711 24C3.03711 25.4666 4.23711 26.6666 5.70378 26.6666H27.0371C28.5038 26.6666 29.7038 25.4666 29.7038 24V7.99998C29.7038 6.53331 28.5038 5.33331 27.0371 5.33331ZM26.5038 11L17.0771 16.8933C16.6504 17.16 16.0904 17.16 15.6638 16.8933L6.23711 11C6.10341 10.9249 5.98633 10.8235 5.89296 10.7019C5.79959 10.5803 5.73186 10.441 5.69388 10.2925C5.65589 10.1439 5.64845 9.98923 5.67198 9.83772C5.69552 9.68622 5.74956 9.54106 5.83082 9.41105C5.91208 9.28103 6.01887 9.16885 6.14474 9.08131C6.27061 8.99376 6.41294 8.93266 6.5631 8.90171C6.71327 8.87076 6.86815 8.8706 7.01838 8.90124C7.16861 8.93189 7.31106 8.99269 7.43711 9.07998L16.3704 14.6666L25.3038 9.07998C25.4298 8.99269 25.5723 8.93189 25.7225 8.90124C25.8727 8.8706 26.0276 8.87076 26.1778 8.90171C26.3279 8.93266 26.4703 8.99376 26.5961 9.08131C26.722 9.16885 26.8288 9.28103 26.9101 9.41105C26.9913 9.54106 27.0454 9.68622 27.0689 9.83772C27.0924 9.98923 27.085 10.1439 27.047 10.2925C27.009 10.441 26.9413 10.5803 26.8479 10.7019C26.7546 10.8235 26.6375 10.9249 26.5038 11Z" fill="#007AB6"/>
</svg>
