<svg width="32" height="32" viewBox="0 0 32 32" fill="none" xmlns="http://www.w3.org/2000/svg">
<path d="M24.4372 30C23.2172 30 21.5035 29.5588 18.9372 28.125C15.8166 26.375 13.4028 24.7594 10.2991 21.6638C7.3066 18.6732 5.85035 16.7369 3.81222 13.0282C1.50972 8.84066 1.90222 6.64566 2.34097 5.70753C2.86347 4.58628 3.63472 3.91566 4.6316 3.25003C5.19782 2.87905 5.79702 2.56104 6.4216 2.30003C6.4841 2.27316 6.54222 2.24753 6.5941 2.22441C6.90347 2.08503 7.37222 1.87441 7.96597 2.09941C8.36222 2.24816 8.71597 2.55253 9.26972 3.09941C10.4053 4.21941 11.9572 6.71378 12.5297 7.93878C12.9141 8.76441 13.1685 9.30941 13.1691 9.92066C13.1691 10.6363 12.8091 11.1882 12.3722 11.7838C12.2903 11.8957 12.2091 12.0025 12.1303 12.1063C11.6547 12.7313 11.5503 12.9119 11.6191 13.2344C11.7585 13.8825 12.7978 15.8119 14.506 17.5163C16.2141 19.2207 18.0878 20.1944 18.7385 20.3332C19.0747 20.405 19.2591 20.2963 19.9041 19.8038C19.9966 19.7332 20.0916 19.66 20.191 19.5869C20.8572 19.0913 21.3835 18.7407 22.0822 18.7407H22.086C22.6941 18.7407 23.2147 19.0044 24.0772 19.4394C25.2022 20.0069 27.7716 21.5388 28.8985 22.6757C29.4466 23.2282 29.7522 23.5807 29.9016 23.9763C30.1266 24.5719 29.9147 25.0388 29.7766 25.3513C29.7535 25.4032 29.7278 25.46 29.701 25.5232C29.4379 26.1466 29.118 26.7446 28.7453 27.3094C28.081 28.3032 27.4078 29.0725 26.2841 29.5957C25.7071 29.8686 25.0755 30.0069 24.4372 30Z" fill="#007AB6"/>
</svg>
