<svg width="13" height="13" viewBox="0 0 13 13" fill="none" xmlns="http://www.w3.org/2000/svg">
<path d="M3 2.14453L1.5 3.64453M11.5 3.64453L10 2.14453M3.5 10.1445L2.5 11.1445M9.5 10.1445L10.5 11.1445M5 7.39453L6 8.39453L8.25 6.14453M6.5 11.1445C7.56087 11.1445 8.57828 10.7231 9.32843 9.97296C10.0786 9.22281 10.5 8.2054 10.5 7.14453C10.5 6.08367 10.0786 5.06625 9.32843 4.3161C8.57828 3.56596 7.56087 3.14453 6.5 3.14453C5.43913 3.14453 4.42172 3.56596 3.67157 4.3161C2.92143 5.06625 2.5 6.08367 2.5 7.14453C2.5 8.2054 2.92143 9.22281 3.67157 9.97296C4.42172 10.7231 5.43913 11.1445 6.5 11.1445Z" stroke="#FCFCFD" stroke-width="0.8" stroke-linecap="round" stroke-linejoin="round"/>
</svg>
