<svg width="24" height="24" viewBox="0 0 24 24" fill="none" xmlns="http://www.w3.org/2000/svg">
<rect x="0.5" y="0.5" width="23" height="23" rx="3.5" stroke="#D0D5DD"/>
<path d="M12 9C11.8565 9 11.7177 9.02672 11.5835 9.08015C11.4486 9.13359 11.3363 9.20484 11.2466 9.29389L6.29596 14.2099C6.09865 14.4059 6 14.6552 6 14.958C6 15.2608 6.09865 15.5102 6.29596 15.7061C6.49327 15.902 6.74439 16 7.04933 16C7.35426 16 7.60538 15.902 7.80269 15.7061L12 11.5382L16.1973 15.7061C16.3946 15.902 16.6457 16 16.9507 16C17.2556 16 17.5067 15.902 17.704 15.7061C17.9013 15.5102 18 15.2608 18 14.958C18 14.6552 17.9013 14.4059 17.704 14.2099L12.7534 9.29389C12.6457 9.18702 12.5291 9.1115 12.4036 9.06733C12.278 9.02244 12.1435 9 12 9Z" fill="#344054"/>
</svg>
