<svg width="16" height="16" viewBox="0 0 16 16" fill="none" xmlns="http://www.w3.org/2000/svg">
<path d="M7.50027 0.958043C7.81019 0.778611 8.19241 0.778611 8.50234 0.958042L13.8357 4.04576C14.1445 4.22455 14.3346 4.55435 14.3346 4.91119V11.0914C14.3346 11.4483 14.1445 11.7781 13.8357 11.9568L8.50234 15.0446C8.19241 15.224 7.81019 15.224 7.50027 15.0446L2.16693 11.9568C1.85812 11.7781 1.66797 11.4483 1.66797 11.0914V4.91119C1.66797 4.55435 1.85812 4.22455 2.16693 4.04576L7.50027 0.958043ZM5.15851 3.85439C4.49332 4.23964 4.49343 5.2001 5.15871 5.5852L7.50033 6.94065C7.81022 7.12003 8.19238 7.12003 8.50228 6.94065L10.8439 5.5852C11.5092 5.2001 11.5093 4.23964 10.8441 3.85439L8.50247 2.49823C8.19248 2.31869 7.81013 2.31869 7.50013 2.49823L5.15851 3.85439ZM4.50232 6.74561C3.83566 6.35966 3.0013 6.84072 3.0013 7.61105V10.3227C3.0013 10.6796 3.19146 11.0094 3.50028 11.1882L5.83361 12.539C6.50028 12.9249 7.33464 12.4439 7.33464 11.6736V8.96187C7.33464 8.60502 7.14448 8.27522 6.83566 8.09643L4.50232 6.74561ZM8.66797 11.6736C8.66797 12.4439 9.50232 12.9249 10.169 12.539L12.5023 11.1882C12.8111 11.0094 13.0013 10.6796 13.0013 10.3227V7.61105C13.0013 6.84072 12.1669 6.35966 11.5003 6.74561L9.16695 8.09643C8.85812 8.27522 8.66797 8.60502 8.66797 8.96187V11.6736Z" fill="#0B003A"/>
</svg>
