<svg width="15" height="15" viewBox="0 0 15 15" fill="none" xmlns="http://www.w3.org/2000/svg">
<path d="M4.5 4.20573H6.33333M4.5 6.8724H6.33333M4.5 9.53906H6.33333M8.66667 4.20573H10.5M8.66667 6.8724H10.5M8.66667 9.53906H10.5M12.8333 13.5391V3.6724C12.8333 2.92566 12.8333 2.55229 12.688 2.26708C12.5602 2.01619 12.3562 1.81222 12.1053 1.68439C11.8201 1.53906 11.4467 1.53906 10.7 1.53906H4.3C3.55326 1.53906 3.17989 1.53906 2.89468 1.68439C2.6438 1.81222 2.43982 2.01619 2.31199 2.26708C2.16667 2.55229 2.16667 2.92566 2.16667 3.6724V13.5391M14.1667 13.5391H0.833333" stroke="#344054" stroke-width="1.33" stroke-linecap="round" stroke-linejoin="round"/>
</svg>
