<svg width="41" height="40" viewBox="0 0 41 40" fill="none" xmlns="http://www.w3.org/2000/svg">
<rect width="40" height="40" transform="translate(0.711914)" fill="white"/>
<path d="M28.7981 8H12.6255C11.4624 8 10.5161 8.94627 10.5161 10.1094V29.8906C10.5161 31.0537 11.4624 32 12.6255 32H28.7981C29.9612 32 30.9074 31.0537 30.9074 29.8906V10.1094C30.9074 8.94627 29.9612 8 28.7981 8ZM17.3552 27.7194C17.3552 28.1077 17.0404 28.4225 16.6521 28.4225H14.1207C13.7324 28.4225 13.4176 28.1077 13.4176 27.7194V25.4896C13.4176 25.1013 13.7323 24.7865 14.1207 24.7865H16.6521C17.0405 24.7865 17.3553 25.1013 17.3553 25.4896V27.7194H17.3552ZM17.3552 22.3175C17.3552 22.7058 17.0404 23.0206 16.6521 23.0206H14.1207C13.7323 23.0206 13.4176 22.7058 13.4176 22.3175V20.0877C13.4176 19.6993 13.7324 19.3845 14.1207 19.3845H16.6521C17.0405 19.3845 17.3553 19.6993 17.3553 20.0877V22.3175H17.3552ZM22.6806 27.7194C22.6806 28.1077 22.3658 28.4225 21.9775 28.4225H19.4461C19.0578 28.4225 18.743 28.1077 18.743 27.7194V25.4896C18.743 25.1013 19.0578 24.7865 19.4461 24.7865H21.9775C22.3658 24.7865 22.6806 25.1013 22.6806 25.4896V27.7194ZM22.6806 22.3175C22.6806 22.7058 22.3658 23.0206 21.9775 23.0206H19.4461C19.0578 23.0206 18.743 22.7058 18.743 22.3175V20.0877C18.743 19.6993 19.0578 19.3845 19.4461 19.3845H21.9775C22.3658 19.3845 22.6806 19.6993 22.6806 20.0877V22.3175ZM28.006 27.7194C28.006 28.1077 27.6912 28.4225 27.3028 28.4225H24.7714C24.3831 28.4225 24.0683 28.1077 24.0683 27.7194V25.4896C24.0683 25.1013 24.3831 24.7865 24.7714 24.7865H27.3028C27.6912 24.7865 28.006 25.1013 28.006 25.4896V27.7194ZM28.006 22.3175C28.006 22.7058 27.6912 23.0206 27.3028 23.0206H24.7714C24.3831 23.0206 24.0683 22.7058 24.0683 22.3175V20.0877C24.0683 19.6993 24.3831 19.3845 24.7714 19.3845H27.3028C27.6912 19.3845 28.006 19.6993 28.006 20.0877V22.3175ZM28.006 15.5526C28.006 15.941 27.6912 16.2558 27.3028 16.2558H14.1207C13.7324 16.2558 13.4176 15.941 13.4176 15.5526V12.5434C13.4176 12.1551 13.7324 11.8403 14.1207 11.8403H27.3029C27.6912 11.8403 28.006 12.1551 28.006 12.5434V15.5526H28.006Z" fill="#0B003A"/>
</svg>
