<svg width="13" height="12" viewBox="0 0 13 12" fill="none" xmlns="http://www.w3.org/2000/svg">
<g id="calendar">
<path id="Icon" d="M10.8906 5H1.89062M8.39062 1V3M4.39062 1V3M4.29062 11H8.49062C9.3307 11 9.75074 11 10.0716 10.8365C10.3539 10.6927 10.5833 10.4632 10.7271 10.181C10.8906 9.86012 10.8906 9.44008 10.8906 8.6V4.4C10.8906 3.55992 10.8906 3.13988 10.7271 2.81901C10.5833 2.53677 10.3539 2.3073 10.0716 2.16349C9.75074 2 9.3307 2 8.49063 2H4.29063C3.45055 2 3.03051 2 2.70964 2.16349C2.4274 2.3073 2.19793 2.53677 2.05412 2.81901C1.89062 3.13988 1.89062 3.55992 1.89062 4.4V8.6C1.89062 9.44008 1.89062 9.86012 2.05412 10.181C2.19793 10.4632 2.4274 10.6927 2.70964 10.8365C3.03051 11 3.45055 11 4.29062 11Z" stroke="#7138DF" stroke-linecap="round" stroke-linejoin="round"/>
</g>
</svg>
