<svg width="18" height="19" viewBox="0 0 18 19" fill="none" xmlns="http://www.w3.org/2000/svg">
<path d="M16.5 7.71354H1.5M12.3333 1.04688V4.38021M5.66667 1.04688V4.38021M5.5 17.7135H12.5C13.9001 17.7135 14.6002 17.7135 15.135 17.4411C15.6054 17.2014 15.9878 16.8189 16.2275 16.3485C16.5 15.8137 16.5 15.1137 16.5 13.7135V6.71354C16.5 5.31341 16.5 4.61334 16.2275 4.07857C15.9878 3.60816 15.6054 3.22571 15.135 2.98603C14.6002 2.71354 13.9001 2.71354 12.5 2.71354H5.5C4.09987 2.71354 3.3998 2.71354 2.86502 2.98603C2.39462 3.22571 2.01217 3.60816 1.77248 4.07857C1.5 4.61334 1.5 5.31341 1.5 6.71354V13.7135C1.5 15.1137 1.5 15.8137 1.77248 16.3485C2.01217 16.8189 2.39462 17.2014 2.86502 17.4411C3.3998 17.7135 4.09987 17.7135 5.5 17.7135Z" stroke="#007AB6" stroke-width="1.5" stroke-linecap="round" stroke-linejoin="round"/>
</svg>
