<svg width="16" height="16" viewBox="0 0 16 16" fill="none" xmlns="http://www.w3.org/2000/svg">
<path d="M9.24449 3.7806C9.9311 3.91456 10.5621 4.25036 11.0568 4.74502C11.5514 5.23968 11.8872 5.87069 12.0212 6.5573M9.24449 0.96875C10.671 1.12722 12.0012 1.76603 13.0168 2.78029C14.0323 3.79455 14.6728 5.12397 14.833 6.55027M6.55705 9.30804C5.71239 8.46338 5.04543 7.5083 4.55617 6.48927C4.51408 6.40162 4.49304 6.3578 4.47688 6.30234C4.41943 6.10526 4.46069 5.86326 4.5802 5.69635C4.61383 5.64939 4.65401 5.60921 4.73437 5.52885C4.98013 5.28309 5.10301 5.16021 5.18335 5.03665C5.48632 4.57066 5.48632 3.96992 5.18335 3.50394C5.10301 3.38037 4.98013 3.25749 4.73437 3.01173L4.59738 2.87474C4.2238 2.50116 4.03701 2.31437 3.8364 2.2129C3.43742 2.0111 2.96625 2.0111 2.56728 2.2129C2.36666 2.31437 2.17987 2.50116 1.80629 2.87474L1.69548 2.98556C1.32317 3.35786 1.13702 3.54401 0.994847 3.7971C0.837088 4.07794 0.723657 4.51412 0.724615 4.83623C0.725479 5.12652 0.781789 5.32491 0.894409 5.7217C1.49964 7.85406 2.64158 9.86619 4.32024 11.5449C5.9989 13.2235 8.01103 14.3655 10.1434 14.9707C10.5402 15.0833 10.7386 15.1396 11.0289 15.1405C11.351 15.1414 11.7872 15.028 12.068 14.8702C12.3211 14.7281 12.5072 14.5419 12.8795 14.1696L12.9903 14.0588C13.3639 13.6852 13.5507 13.4984 13.6522 13.2978C13.854 12.8988 13.854 12.4277 13.6522 12.0287C13.5507 11.8281 13.3639 11.6413 12.9903 11.2677L12.8534 11.1307C12.6076 10.885 12.4847 10.7621 12.3612 10.6817C11.8952 10.3788 11.2944 10.3788 10.8284 10.6817C10.7049 10.7621 10.582 10.885 10.3362 11.1307C10.2559 11.2111 10.2157 11.2513 10.1687 11.2849C10.0018 11.4044 9.75983 11.4457 9.56276 11.3882C9.5073 11.3721 9.46347 11.351 9.37582 11.3089C8.35679 10.8197 7.40172 10.1527 6.55705 9.30804Z" stroke="#007AB6" stroke-width="1.01227" stroke-linecap="round" stroke-linejoin="round"/>
</svg>
