<svg width="21" height="22" viewBox="0 0 21 22" fill="none" xmlns="http://www.w3.org/2000/svg">
<g clip-path="url(#clip0_1_24020)">
<path d="M21 17.0901C21 17.3586 20.9503 17.7091 20.8508 18.1416C20.7514 18.5741 20.647 18.9147 20.5377 19.1633C20.3288 19.6604 19.7223 20.1874 18.718 20.7442C17.7834 21.2513 16.8587 21.5049 15.9439 21.5049C15.6754 21.5049 15.4144 21.4875 15.1609 21.4527C14.9073 21.4179 14.6215 21.3557 14.3033 21.2663C13.9851 21.1768 13.749 21.1047 13.5948 21.05C13.4407 20.9953 13.1648 20.8934 12.767 20.7442C12.3693 20.5951 12.1257 20.5056 12.0362 20.4758C11.0618 20.1278 10.1917 19.7151 9.42613 19.2378C8.15341 18.4523 6.83843 17.3809 5.48118 16.0237C4.12394 14.6664 3.05255 13.3515 2.26704 12.0788C1.78978 11.3131 1.37714 10.4431 1.02912 9.46864C0.999284 9.37915 0.909809 9.13553 0.760655 8.73783C0.611502 8.3401 0.509578 8.06417 0.454884 7.91005C0.40021 7.75593 0.328125 7.51979 0.238629 7.20159C0.149153 6.88341 0.0869941 6.59755 0.0522129 6.34399C0.0173701 6.09047 0 5.82947 0 5.56098C0 4.64621 0.253559 3.72149 0.760635 2.78685C1.31746 1.78258 1.84447 1.17604 2.34162 0.967231C2.5902 0.857863 2.93075 0.753458 3.36328 0.654036C3.79579 0.554594 4.14631 0.504883 4.41478 0.504883C4.55399 0.504883 4.65839 0.519792 4.72797 0.549631C4.90697 0.609288 5.17045 0.987124 5.51847 1.68316C5.62784 1.87208 5.77699 2.14054 5.96591 2.48854C6.15483 2.83656 6.32883 3.15226 6.48793 3.43563C6.64701 3.71901 6.80113 3.985 6.95028 4.23359C6.98012 4.27336 7.06711 4.39766 7.21128 4.60645C7.35545 4.81526 7.46236 4.99175 7.53197 5.13592C7.60157 5.28009 7.63635 5.42179 7.63635 5.56098C7.63635 5.75985 7.49468 6.00844 7.21128 6.30673C6.92791 6.60503 6.61968 6.87846 6.28659 7.12704C5.95348 7.37562 5.64525 7.63912 5.36187 7.91753C5.07847 8.19593 4.93678 8.42463 4.93678 8.6036C4.93678 8.6931 4.96164 8.80495 5.01137 8.93919C5.06108 9.07342 5.10333 9.17534 5.13813 9.24494C5.17293 9.31455 5.24254 9.43386 5.34694 9.60289C5.45135 9.77193 5.50854 9.86639 5.51847 9.88628C6.27414 11.2485 7.1392 12.4168 8.11363 13.3913C9.08808 14.3657 10.2564 15.2307 11.6186 15.9864C11.6385 15.9964 11.733 16.0535 11.902 16.1579C12.071 16.2623 12.1903 16.332 12.2599 16.3668C12.3295 16.4016 12.4315 16.4438 12.5657 16.4935C12.6999 16.5432 12.8118 16.5681 12.9013 16.5681C13.0803 16.5681 13.309 16.4264 13.5873 16.143C13.8658 15.8596 14.1293 15.5514 14.3778 15.2183C14.6264 14.8852 14.8998 14.577 15.1982 14.2936C15.4964 14.0102 15.745 13.8685 15.9439 13.8685C16.0831 13.8685 16.2248 13.9033 16.369 13.9729C16.5131 14.0425 16.6896 14.1494 16.8984 14.2936C17.1072 14.4378 17.2315 14.5248 17.2713 14.5546C17.5199 14.7038 17.7859 14.8579 18.0692 15.0169C18.3526 15.176 18.6683 15.3501 19.0163 15.539C19.3644 15.7279 19.6328 15.877 19.8217 15.9864C20.5178 16.3344 20.8956 16.5979 20.9553 16.7769C20.9851 16.8465 21 16.9509 21 17.0901Z" fill="url(#paint0_linear_1_24020)"/>
</g>
<defs>
<linearGradient id="paint0_linear_1_24020" x1="10.5" y1="0.504883" x2="10.5" y2="21.5049" gradientUnits="userSpaceOnUse">
<stop stop-color="#8449EB"/>
<stop offset="1" stop-color="#6A56F6"/>
</linearGradient>
<clipPath id="clip0_1_24020">
<rect width="21" height="21" fill="white" transform="translate(0 0.504883)"/>
</clipPath>
</defs>
</svg>
