<svg width="20" height="20" viewBox="0 0 20 20" fill="none" xmlns="http://www.w3.org/2000/svg">
<path d="M1.66675 6.4175C1.66675 5.17404 2.67477 4.16602 3.91823 4.16602C4.5643 4.16602 5.13789 3.7526 5.34219 3.13968L5.41675 2.91602C5.45191 2.81054 5.46949 2.7578 5.48829 2.71102C5.72846 2.11362 6.29124 1.70799 6.93393 1.66906C6.98426 1.66602 7.03985 1.66602 7.15103 1.66602H12.8491C12.9603 1.66602 13.0159 1.66602 13.0662 1.66906C13.7089 1.70799 14.2717 2.11362 14.5119 2.71102C14.5307 2.7578 14.5483 2.81054 14.5834 2.91602L14.658 3.13968C14.8623 3.7526 15.4359 4.16602 16.0819 4.16602C17.3254 4.16602 18.3334 5.17404 18.3334 6.4175V13.4993C18.3334 14.8995 18.3334 15.5995 18.0609 16.1343C17.8212 16.6047 17.4388 16.9872 16.9684 17.2269C16.4336 17.4993 15.7335 17.4993 14.3334 17.4993H5.66675C4.26662 17.4993 3.56655 17.4993 3.03177 17.2269C2.56137 16.9872 2.17892 16.6047 1.93923 16.1343C1.66675 15.5995 1.66675 14.8995 1.66675 13.4993V6.4175Z" stroke="#03A01C" stroke-width="1.66667" stroke-linecap="round" stroke-linejoin="round"/>
<path d="M10.0001 13.7493C12.0711 13.7493 13.7501 12.0704 13.7501 9.99935C13.7501 7.92828 12.0711 6.24935 10.0001 6.24935C7.92901 6.24935 6.25008 7.92828 6.25008 9.99935C6.25008 12.0704 7.92901 13.7493 10.0001 13.7493Z" stroke="#03A01C" stroke-width="1.66667" stroke-linecap="round" stroke-linejoin="round"/>
</svg>
