<svg width="19" height="22" viewBox="0 0 19 22" fill="none" xmlns="http://www.w3.org/2000/svg">
<path d="M6.84906 10.4559L6.84906 10.4559C6.65485 11.6145 6.09093 12.8537 5.45422 13.8501L3.44726 13.8502C1.88043 13.8502 0.601589 15.1328 0.601569 16.7022C0.601569 16.7022 0.601569 16.7022 0.601569 16.7023L0.600684 19.0613V19.0614C0.600684 19.1892 0.634167 19.2921 0.697447 19.3708C0.759965 19.4484 0.84382 19.4927 0.927522 19.5182C1.04497 19.554 1.17946 19.5568 1.28336 19.5557V19.9441C1.28336 20.7018 1.89993 21.3199 2.65662 21.3199L16.3447 21.3208C16.7232 21.3208 17.0671 21.1656 17.3151 20.9171C17.7292 20.5022 17.7244 20.0763 17.7192 19.6134C17.719 19.5945 17.7188 19.5756 17.7186 19.5567C17.8224 19.5578 17.9566 19.5551 18.0738 19.5195C18.1575 19.494 18.2414 19.4498 18.3039 19.372C18.3672 19.2933 18.4007 19.1902 18.4007 19.0623V16.7031C18.4007 15.1337 17.121 13.8511 15.5541 13.8511H13.5473C13.2292 13.3543 12.9304 12.7975 12.687 12.222L12.687 12.222C12.2459 11.1803 12.0951 10.4154 12.111 9.8048C12.1268 9.19628 12.3083 8.73257 12.5478 8.29154C12.6399 8.1219 12.7413 7.9549 12.8451 7.78407C13.2811 7.06631 13.7583 6.28067 13.7583 4.94516C13.7583 3.76778 13.2822 2.7011 12.5116 1.92897C9.83547 -0.752503 5.24327 1.15691 5.24327 4.94516C5.24327 6.25107 5.72325 7.05841 6.16209 7.79654C6.17708 7.82176 6.19203 7.8469 6.2069 7.87198C6.65507 8.62738 7.03939 9.32202 6.84906 10.4559ZM16.3442 20.3327H16.3441H2.65687C2.53134 20.3327 2.45358 20.2975 2.40211 20.2501C2.34869 20.2009 2.3129 20.1286 2.29094 20.0369C2.25628 19.892 2.26113 19.7291 2.26545 19.5841C2.26576 19.5737 2.26606 19.5634 2.26635 19.5533H16.7345C16.7348 19.5636 16.7351 19.574 16.7354 19.5845C16.7397 19.7298 16.7446 19.8927 16.71 20.0375C16.688 20.1293 16.6523 20.2014 16.5989 20.2505C16.5475 20.2978 16.4698 20.3329 16.3442 20.3327ZM10.3213 4.12112L10.3214 4.12118C10.7754 4.57533 10.7756 5.31231 10.3213 5.76843C9.59214 6.49903 8.33868 5.97931 8.33868 4.94477C8.33868 3.91023 9.59214 3.39052 10.3213 4.12112ZM11.1815 10.6163L11.1815 10.6163C11.3658 11.7142 11.8355 12.8551 12.3902 13.8339H6.60998C6.83158 13.4434 7.03839 13.0285 7.2187 12.6022C7.70407 11.4552 7.88704 10.5736 7.8836 9.8504C7.88014 9.12539 7.68936 8.56659 7.43902 8.06673C7.31607 7.82124 7.17845 7.58941 7.04289 7.36105L7.03747 7.35193C6.89958 7.11965 6.76398 6.8907 6.64374 6.6487C6.40441 6.16703 6.22692 5.63546 6.22692 4.94398C6.22692 4.03829 6.59375 3.2179 7.18586 2.62461L7.18587 2.62461C9.24128 0.564902 12.773 2.03122 12.773 4.94398C12.773 5.98795 12.3678 6.67096 11.9509 7.37353C11.9073 7.44699 11.8636 7.52066 11.8202 7.59498C11.3602 8.38292 10.9492 9.22902 11.1815 10.6163ZM3.44758 14.8359H15.5533C16.5763 14.8359 17.4146 15.6764 17.4146 16.702V18.568H1.58545V16.702C1.58545 15.6764 2.42453 14.8359 3.44758 14.8359ZM9.50043 2.79356C8.31519 2.79356 7.35419 3.75678 7.35419 4.94386C7.35419 6.85304 9.66907 7.8159 11.018 6.46418C12.3663 5.11319 11.4068 2.79356 9.50043 2.79356Z" fill="#007AB6" stroke="#007AB6" stroke-width="0.2"/>
</svg>
