<svg width="20" height="21" viewBox="0 0 20 21" fill="none" xmlns="http://www.w3.org/2000/svg">
<path d="M17.4996 10.0521C17.4996 13.9641 14.3283 17.1354 10.4163 17.1354C9.51896 17.1354 8.66061 16.9686 7.87057 16.6642C7.72612 16.6085 7.6539 16.5807 7.59647 16.5675C7.53998 16.5545 7.49908 16.549 7.44116 16.5468C7.38226 16.5446 7.31764 16.5512 7.18841 16.5646L2.92089 17.0057C2.51402 17.0478 2.31059 17.0688 2.19058 16.9956C2.08606 16.9319 2.01487 16.8254 1.99592 16.7044C1.97416 16.5655 2.07138 16.3856 2.2658 16.0257L3.62885 13.5028C3.7411 13.295 3.79723 13.1911 3.82265 13.0912C3.84776 12.9926 3.85383 12.9214 3.8458 12.8199C3.83766 12.7172 3.79258 12.5834 3.70241 12.3159C3.46281 11.6051 3.33294 10.8437 3.33294 10.0521C3.33294 6.14007 6.50426 2.96875 10.4163 2.96875C14.3283 2.96875 17.4996 6.14007 17.4996 10.0521Z" stroke="#475467" stroke-width="1.66667" stroke-linecap="round" stroke-linejoin="round"/>
</svg>
