<svg width="41" height="40" viewBox="0 0 41 40" fill="none" xmlns="http://www.w3.org/2000/svg">
<rect width="40" height="40" transform="translate(0.711914)" fill="white"/>
<path d="M29.7119 9.5H11.7119C10.4714 9.5 9.46191 10.5095 9.46191 11.75V23.75C9.46191 24.9905 10.4714 26 11.7119 26H13.9619V29.75C13.9619 30.0387 14.1277 30.3005 14.3864 30.4257C14.4907 30.4753 14.6017 30.5 14.7119 30.5C14.8792 30.5 15.0449 30.4445 15.1807 30.3358L20.6002 26H29.7119C30.9524 26 31.9619 24.9905 31.9619 23.75V11.75C31.9619 10.5095 30.9524 9.5 29.7119 9.5ZM20.7119 20H14.7119C14.2972 20 13.9619 19.664 13.9619 19.25C13.9619 18.836 14.2972 18.5 14.7119 18.5H20.7119C21.1267 18.5 21.4619 18.836 21.4619 19.25C21.4619 19.664 21.1267 20 20.7119 20ZM26.7119 17H14.7119C14.2972 17 13.9619 16.664 13.9619 16.25C13.9619 15.836 14.2972 15.5 14.7119 15.5H26.7119C27.1267 15.5 27.4619 15.836 27.4619 16.25C27.4619 16.664 27.1267 17 26.7119 17Z" fill="#0B003A"/>
</svg>
