<svg width="221" height="207" viewBox="0 0 221 207" fill="none" xmlns="http://www.w3.org/2000/svg">
<circle opacity="0.05" cx="115.469" cy="114.305" r="92" fill="#36B37E"/>
<path fill-rule="evenodd" clip-rule="evenodd" d="M115.875 72.6637C118.114 94.0552 105.282 102.977 101.646 105.053C101.676 105.274 101.691 105.509 101.691 105.745V136.264L107.671 139.488H139.121C139.181 139.488 139.256 139.488 139.316 139.503C146.559 140.475 146.844 132.083 146.844 131.038C146.799 130.508 147.1 129.978 147.626 129.757C152.163 127.843 150.24 121.836 150.06 121.321C149.819 120.717 150.105 120.025 150.706 119.731C156.596 116.934 152.885 111.899 152.404 111.266C152.013 110.853 151.953 110.22 152.269 109.72C162.937 93.6871 129.609 97.6474 127.475 97.9124C127.31 97.9419 127.13 97.9566 126.95 97.9124C126.243 97.7799 125.793 97.1174 125.928 96.4255C130.901 71.7362 119.436 72.0012 115.845 72.6343L115.875 72.6637Z" fill="#36B37E"/>
<path fill-rule="evenodd" clip-rule="evenodd" d="M99.5572 136.631V105.744C99.5572 105.008 99.2567 104.345 98.7608 103.874C98.2649 103.388 97.5888 103.094 96.8525 103.094H80.1735C79.4221 103.094 78.746 103.388 78.2651 103.874C77.7693 104.36 77.4688 105.022 77.4688 105.744V136.631C77.4688 137.367 77.7693 138.03 78.2651 138.501C78.761 138.987 79.4372 139.281 80.1735 139.281H96.8525C97.6038 139.281 98.28 138.987 98.7608 138.501C99.1665 138.103 99.437 137.588 99.5271 137.014C99.5271 136.926 99.5271 136.823 99.5572 136.734C99.5572 136.705 99.5572 136.661 99.5572 136.631Z" fill="#36B37E"/>
<path opacity="0.1" d="M139.234 7.84339C138.373 7.61242 137.516 7.62155 136.536 7.63198C136.291 7.63459 136.046 7.6372 135.801 7.63981C137.013 6.5463 138.226 5.4528 139.068 4.1231C139.309 3.76034 138.815 3.4054 138.573 3.64811C137.115 4.74423 135.781 5.95909 134.447 7.17395C134.429 5.61328 134.411 4.05261 134.393 2.49194C134.385 1.77163 133.283 1.78337 133.291 2.50368C133.309 4.06435 133.328 5.74507 133.346 7.30574C132.231 6.23702 131.118 5.28834 130.004 4.33967C129.51 3.98473 128.904 4.59151 129.398 4.94645C130.267 5.89773 131.136 6.84901 132.127 7.79899C130.902 7.81203 129.676 7.82508 128.453 7.95817C127.963 7.96339 127.971 8.6837 128.461 8.67848C129.933 8.78288 131.28 8.76853 132.628 8.75419C131.536 9.72634 130.446 10.8185 129.479 11.9094C128.994 12.3949 129.736 12.9873 130.222 12.6219C131.313 11.6498 132.406 10.7977 133.375 9.82682C133.391 11.1474 133.407 12.588 133.667 13.906C133.67 14.1461 134.16 14.1409 134.28 13.8994C134.511 12.6963 134.496 11.3758 134.481 10.0552C134.851 10.2914 135.1 10.6489 135.471 10.8851C136.213 11.4775 136.955 12.07 137.695 12.5424C137.943 12.7799 138.306 12.4158 138.059 12.1783C137.438 11.4645 136.939 10.7494 136.318 10.0356C135.945 9.55933 135.451 9.20439 135.079 8.84815C135.692 8.84163 136.182 8.83641 136.795 8.82989C137.775 8.81946 138.51 8.81163 139.487 8.56109C139.608 8.43974 139.603 7.95953 139.234 7.84339Z" fill="#030229"/>
<path opacity="0.1" d="M12.4793 68.4124C11.6189 68.1814 10.7614 68.1906 9.78127 68.201C9.53624 68.2036 9.29122 68.2062 9.0462 68.2088C10.2588 67.1153 11.4715 66.0218 12.3138 64.6921C12.5547 64.3293 12.0605 63.9744 11.8182 64.2171C10.2367 65.1945 8.90429 66.5294 7.57052 67.7443C7.5525 66.1836 7.53449 64.6229 7.51648 63.0623C7.50816 62.3419 6.40556 62.3537 6.41387 63.074C6.43189 64.6347 6.45129 66.3154 6.4693 67.876C5.35423 66.8073 4.24054 65.8587 3.12685 64.91C2.63265 64.555 2.02702 65.1618 2.52122 65.5168C3.38989 66.468 4.25855 67.4193 5.24973 68.3693C4.02461 68.3823 2.7995 68.3954 1.57577 68.5285C1.08573 68.5337 1.09404 69.254 1.58409 69.2488C3.05561 69.3532 4.40323 69.3388 5.75086 69.3245C4.65934 70.2966 3.56921 71.3888 2.60159 72.4797C2.11709 72.9652 2.85908 73.5576 3.34497 73.1922C4.43649 72.2201 5.52939 71.368 6.4984 70.3971C6.51364 71.7177 6.53027 73.1583 6.79053 74.4763C6.79331 74.7164 7.28335 74.7112 7.40309 74.4697C7.63426 73.2666 7.61901 71.9461 7.60377 70.6255C7.97408 70.8617 8.22326 71.2192 8.59356 71.4554C9.33556 72.0478 10.0776 72.6403 10.8182 73.1127C11.066 73.3502 11.4293 72.9861 11.1815 72.7486C10.5607 72.0348 10.0623 71.3197 9.44144 70.6059C9.06837 70.1296 8.57416 69.7747 8.20247 69.4185C8.81503 69.4119 9.30508 69.4067 9.91763 69.4002C10.8977 69.3898 11.6328 69.3819 12.6101 69.1314C12.7312 69.01 12.7257 68.5298 12.4793 68.4124Z" fill="#030229"/>
<path d="M33.1084 28.6937C31.7526 27.9878 30.5193 27.2806 29.5254 26.0906C28.4076 24.7818 27.8996 23.2264 27.1466 21.6737C27.1466 21.6737 27.1452 21.5536 27.0227 21.5549L26.9002 21.5562C26.9002 21.5562 26.9002 21.5562 26.7791 21.6776C26.7791 21.6776 26.7791 21.6776 26.7804 21.7976C26.4503 25.0428 24.5166 27.3445 22.0901 29.4114C21.969 29.5327 21.9718 29.7728 22.0957 29.8915C24.8046 31.0633 26.6795 34.285 27.5675 36.9168C27.6928 37.1556 28.0603 37.1517 28.18 36.9103C28.652 35.3445 29.0029 33.9 29.8438 32.4504C30.6847 31.0007 31.7748 29.9085 33.1126 29.0539C33.2337 28.9325 33.2309 28.6924 33.1084 28.6937Z" fill="#36B37E"/>
<path d="M220.361 64.7029C219.005 63.9969 217.772 63.2897 216.9 62.0984C215.783 60.7896 215.275 59.2342 214.522 57.6815C214.522 57.6815 214.52 57.5614 214.398 57.5627L214.275 57.564C214.275 57.564 214.275 57.564 214.154 57.6854C214.154 57.6854 214.154 57.6854 214.155 57.8054C213.825 61.0506 211.892 63.3523 209.465 65.4192C209.344 65.5405 209.347 65.7806 209.471 65.8993C212.18 67.0711 214.055 70.2928 214.943 72.9246C215.068 73.1634 215.435 73.1595 215.555 72.9181C216.027 71.3523 216.378 69.9079 217.219 68.4582C218.06 67.0085 219.15 65.9164 220.488 65.0617C220.488 65.0617 220.485 64.8216 220.361 64.7029Z" fill="#36B37E"/>
<path d="M130.562 35.1864C129.576 34.7167 128.836 34.2443 128.091 33.4118C127.345 32.4593 126.965 31.3827 126.34 30.3089C126.34 30.3089 126.34 30.3089 126.217 30.3102L126.095 30.3115C126.095 30.3115 126.095 30.3115 126.096 30.4315C125.878 32.715 124.548 34.2899 122.85 35.7488C122.728 35.8701 122.73 35.9901 122.852 35.9888C124.822 36.8083 126.073 39.0761 126.707 40.8703C126.71 41.1104 127.077 41.1065 127.074 40.8664C127.307 39.7834 127.662 38.699 128.263 37.7321C128.865 36.7653 129.591 36.0372 130.565 35.4265C130.687 35.4252 130.684 35.1851 130.562 35.1864Z" fill="#36B37E"/>
<path d="M99.3046 56.5927C97.5799 55.7707 96.2226 54.9447 95.1035 53.5159C93.7366 51.8496 93.1033 50.0554 92.2236 48.1438C92.2236 48.1438 92.2222 48.0238 92.0997 48.0251L91.9772 48.0264C91.9772 48.0264 91.8547 48.0277 91.8561 48.1477L91.8575 48.2678C91.4118 52.1145 89.1175 55.0203 86.2051 57.4526C86.084 57.5739 86.0882 57.934 86.3332 57.9314C89.6574 59.3368 91.9068 63.1548 92.9242 66.3856C93.0509 66.7444 93.5409 66.7392 93.6592 66.3777C94.1285 64.5718 94.7202 62.7646 95.6808 61.0736C96.6414 59.3825 97.9737 58.0476 99.6777 57.069C99.4327 57.0716 99.551 56.7102 99.3046 56.5927Z" fill="#36B37E"/>
<path d="M69.9204 26.3649C68.1773 23.9811 66.4355 21.7174 64.2081 19.8191C62.9718 18.8712 61.7356 17.9233 60.3797 17.2169C59.6405 16.8643 58.9028 16.6318 58.1636 16.2792C57.7947 16.163 57.4258 16.0467 57.0555 15.8104C56.6866 15.6941 56.4388 15.4565 56.0727 15.5805C55.8277 15.583 55.7067 15.7044 55.832 15.9433C55.9615 16.5424 56.7007 16.895 57.1949 17.2501C57.813 17.7241 58.4297 18.0779 59.0479 18.5519C60.2827 19.3797 61.5189 20.3276 62.6326 21.2767C64.7376 23.1763 66.4765 25.1999 68.0958 27.4649C68.8434 28.5379 70.6695 27.5581 69.9204 26.3649Z" fill="#FF8F6B"/>
<path d="M69.0416 74.5248C68.0346 72.2525 65.6927 71.0755 63.3536 70.1388C61.0146 69.202 58.3093 68.3892 55.8633 68.7752C53.5383 69.0398 50.9825 70.5083 50.1503 72.6796C49.5561 74.2478 48.9704 76.5367 50.4547 77.7227C51.1983 78.4358 52.5474 78.5419 53.274 77.8134C54.4864 76.7194 53.364 75.049 52.374 74.2183C48.2886 70.6565 41.4348 71.3289 36.9258 73.4185C34.1221 74.6492 31.6958 76.7171 30.2581 79.4955C29.0584 81.6707 27.756 85.5291 29.3755 87.795C29.6248 88.1528 30.1149 88.1477 30.3557 87.7848C31.6821 85.9687 31.651 83.3257 32.6085 81.3934C33.5646 79.3409 35.1375 77.6424 36.9625 76.542C40.7322 74.0996 47.2114 72.8305 51.1629 75.4325C51.6572 75.7878 53.0148 76.6146 52.2882 77.3431C51.6827 77.9502 50.6955 77.3597 50.3223 76.883C48.821 74.2554 52.34 71.3351 54.5382 70.7114C56.7364 70.0877 59.3163 70.6615 61.409 71.4807C63.7452 72.1772 66.4561 73.4705 67.8264 75.3786C68.4418 75.6125 69.2937 75.123 69.0416 74.5248Z" fill="#EF37FF"/>
<path d="M176.628 55.4512C176.751 55.4499 176.75 55.3297 176.627 55.3311C176.505 55.3324 176.506 55.4525 176.628 55.4512Z" fill="#3F3937"/>
<path d="M177.717 53.3998C179.755 49.5346 183.995 45.4061 188.789 46.7975C190.51 47.2601 192.733 48.7985 192.514 50.963C192.408 52.4056 190.682 51.4626 190.062 50.8685C188.574 49.3224 189.276 46.5522 189.745 44.7455C190.452 42.3356 192.018 40.0369 194.083 38.5739C195.783 37.2347 198.104 36.6099 200.183 36.3479C202.508 36.0834 204.599 36.7823 206.81 37.2397C207.669 37.3509 208.27 36.3836 207.651 35.7895C206.038 34.1246 203.218 33.9138 201.015 34.177C198.691 34.4415 196.248 35.0677 194.303 36.4093C190.412 38.9726 187.536 44.4082 187.957 48.9685C188.226 51.0077 190.967 54.8231 193.269 52.6368C194.36 51.6644 193.971 49.8666 193.467 48.6707C192.588 46.878 190.614 45.6974 188.771 45.2361C183.241 43.8524 179.007 48.4613 176.978 53.0472C176.86 53.4088 177.477 53.7627 177.717 53.3998Z" fill="#EF37FF"/>
<path d="M71.694 48.4477C69.9506 46.0633 67.7242 44.2845 65.1374 43.1102C63.7827 42.5237 62.4294 42.0573 61.079 41.8311C59.851 41.6037 58.012 41.5027 56.9164 42.1148C56.6728 42.2375 56.6771 42.5979 56.9249 42.8355C57.9121 43.4259 59.3836 43.5307 60.489 43.7594C61.8409 44.1057 62.9477 44.4545 64.1799 45.0423C66.5203 46.0991 68.7439 47.6376 70.3591 49.5429C70.9802 50.2572 72.3165 49.2822 71.694 48.4477Z" fill="#FF8F6B"/>
<path d="M43.7243 56.7875C44.8242 56.5355 46.048 56.4025 47.1508 56.391C47.7634 56.3846 48.3761 56.3782 48.9887 56.3718C49.3563 56.3679 49.7239 56.3641 49.9675 56.2413C50.2112 56.1185 50.4562 56.1159 50.6999 55.9931C50.9435 55.8704 50.9393 55.5097 50.6928 55.392C50.4463 55.2743 50.1999 55.1567 50.0759 55.0377C49.8294 54.9201 49.3393 54.9252 49.0929 54.8075C48.4802 54.8139 47.8676 54.8203 47.1338 54.9482C45.91 55.0813 44.6875 55.3346 43.4665 55.708C42.7327 55.836 42.9905 56.9154 43.7243 56.7875Z" fill="#FF8F6B"/>
<path d="M174.274 85.3678C177.681 83.2889 181.337 81.5679 185.245 80.4453C187.077 79.9454 189.032 79.4442 190.989 79.1833C192.09 79.0516 193.069 78.9212 194.17 78.7895C195.028 78.7806 195.886 78.7716 196.617 78.4034C196.86 78.2806 196.856 77.9201 196.61 77.8025C195.748 77.4509 194.891 77.58 193.911 77.5903C192.809 77.6018 191.83 77.7322 190.727 77.7437C188.646 77.8857 186.567 78.268 184.49 78.7705C180.335 79.7755 176.681 81.6166 173.281 84.2964C172.797 84.7823 173.543 85.736 174.274 85.3678Z" fill="#FF8F6B"/>
<path d="M167.474 79.8019C170.379 76.7683 174.152 74.6867 177.804 72.6064C179.63 71.6263 181.577 70.5247 183.528 69.6635C184.625 69.1715 185.599 68.6808 186.573 68.1901C187.548 67.6994 188.648 67.4477 189.621 66.8368C189.864 66.7142 189.86 66.3538 189.491 66.2375C188.508 66.0075 187.41 66.3794 186.431 66.5098C185.208 66.6427 184.109 67.0145 183.012 67.5065C180.818 68.4905 178.626 69.5945 176.557 70.8174C172.54 73.0217 169.014 75.341 166.239 78.9739C165.756 79.5796 166.867 80.2888 167.474 79.8019Z" fill="#FF8F6B"/>
<path d="M147.338 22.9976C147.211 22.6387 147.207 22.2786 147.079 21.7997C147.076 21.5596 146.953 21.4409 146.951 21.3208C146.95 21.2008 146.949 21.0807 146.825 20.962C146.823 20.8419 146.701 20.8432 146.7 20.7232C146.576 20.6044 146.452 20.4857 146.33 20.487C146.207 20.4883 146.086 20.6096 145.965 20.731C145.966 20.851 145.844 20.8523 145.845 20.9724C145.847 21.0924 145.848 21.2125 145.85 21.3325C145.852 21.5726 145.855 21.8127 145.98 22.0515C145.984 22.4117 146.111 22.7705 146.238 23.1294L146.236 23.0093L146.238 23.1294C146.239 23.2494 146.364 23.4882 146.488 23.607C146.612 23.7257 146.858 23.8431 146.979 23.7218C147.101 23.7205 147.345 23.5978 147.343 23.4778C147.343 23.4778 147.341 23.2377 147.338 22.9976Z" fill="#030229"/>
<path d="M152.442 40.2289C152.528 37.1064 153.475 34.3351 154.543 31.4424C155.138 29.9955 155.734 28.6686 156.453 27.3404C157.172 26.0122 157.894 24.9241 158.244 23.4797C158.241 23.2396 157.992 22.882 157.75 23.1247C157.144 23.6113 156.781 23.9752 156.298 24.5806C155.938 25.1847 155.579 25.9088 155.219 26.5129C154.502 27.9611 153.784 29.4093 153.19 30.9763C152.123 33.869 151.549 37.1166 151.463 40.2391C151.593 40.8381 152.449 40.8291 152.442 40.2289Z" fill="#FF8F6B"/>
<path d="M162.747 19.9517C162.867 19.7102 162.988 19.5889 163.108 19.3474C163.108 19.3474 163.109 19.4675 162.987 19.4688C162.987 19.4688 162.985 19.3487 163.108 19.3474L163.229 19.2261C163.35 19.1047 163.35 19.1047 163.471 18.9834C163.712 18.6206 164.076 18.3766 164.317 18.0138C164.558 17.651 164.922 17.407 165.163 17.0442C165.283 16.8028 165.526 16.6801 165.646 16.4387C165.645 16.3186 165.767 16.3173 165.766 16.1973C165.887 16.0759 165.885 15.9558 165.884 15.8357C166.004 15.5943 165.754 15.2366 165.387 15.2405C165.264 15.2417 165.142 15.243 164.897 15.2456C164.774 15.2469 164.776 15.3669 164.653 15.3682C164.653 15.3682 164.653 15.3682 164.531 15.3695C164.653 15.3682 164.653 15.3682 164.531 15.3695C164.286 15.3721 164.044 15.6148 163.8 15.7374C163.313 15.9827 162.95 16.3468 162.587 16.7108C162.223 17.0749 161.86 17.439 161.621 17.9218C161.38 18.2846 161.018 18.7688 160.9 19.1303C160.659 19.4931 160.789 20.0922 161.282 20.3272C162.018 20.4396 162.507 20.3145 162.747 19.9517Z" fill="#FF8F6B"/>
<path d="M158.715 42.4427C159.071 41.4784 159.551 40.6329 159.907 39.6687C160.263 38.7044 160.62 37.8602 161.099 36.8946C161.579 36.0492 161.935 35.0849 162.414 34.2394C162.894 33.3939 163.619 32.5458 163.73 31.5841C163.726 31.224 163.357 31.1077 163.112 31.1103C162.136 31.3606 161.659 32.4462 161.055 33.173C160.33 34.021 159.852 34.9866 159.373 35.9521C158.895 36.9177 158.539 37.8819 158.184 38.9663C158.067 39.4478 157.828 39.9305 157.835 40.5308C157.719 41.0123 157.726 41.6126 157.731 42.0928C157.616 42.6943 158.476 42.9255 158.715 42.4427Z" fill="#FF8F6B"/>
<path d="M165.432 29.2867C165.67 28.6837 166.032 28.1995 166.393 27.7153C166.875 26.9897 167.11 26.1465 167.593 25.541C168.076 24.9354 168.686 24.6888 169.292 24.2021C169.899 23.7153 170.506 23.2286 171.111 22.6218C173.413 20.4359 176.086 18.4864 178.885 16.8958C179.615 16.5279 180.346 16.16 181.077 15.792C181.564 15.5467 182.293 15.0587 181.919 14.4621C181.292 13.2676 178.86 14.8543 178.13 15.2223C175.331 16.8128 173.03 19.1188 170.482 21.1871C169.753 21.6751 169.147 22.282 168.542 22.8888C167.936 23.4956 167.456 24.3414 166.851 24.9482C166.246 25.555 165.515 25.923 164.909 26.5298C164.425 27.0152 164.066 27.7396 163.83 28.4627C163.351 29.4285 164.832 30.3739 165.432 29.2867Z" fill="#FF8F6B"/>
<path opacity="0.5" d="M107.413 36.2793C107.891 35.3138 107.999 34.1121 107.864 33.0331C107.85 31.8327 107.714 30.6336 107.457 29.5559C107.455 29.3158 106.965 29.321 106.968 29.5611C106.858 30.6427 106.871 31.7231 106.885 32.9234C106.896 33.8837 106.908 34.9641 106.551 35.8082C106.314 36.411 107.175 36.8821 107.413 36.2793Z" fill="#EF37FF"/>
<g opacity="0.5">
<path d="M107.48 20.6712C107.467 19.5908 107.577 18.5092 107.444 17.5502C107.309 16.4711 106.931 15.5147 106.308 14.5609C106.183 14.3221 105.695 14.4474 105.822 14.8062C106.333 16.7216 106.357 18.7623 106.38 20.803C106.265 21.4045 107.488 21.3914 107.48 20.6712Z" fill="#EF37FF"/>
</g>
<path opacity="0.5" d="M101.971 10.4087C101.715 9.45083 101.337 8.49429 100.837 7.6591C100.588 7.30154 100.46 6.82261 100.211 6.46505C99.9624 6.10749 99.7091 5.38975 99.2194 5.39497C98.9745 5.39757 98.7296 5.40018 98.6099 5.6416C98.3705 6.12443 98.7434 6.60075 98.9939 7.07837C99.2429 7.43594 99.4934 7.91356 99.62 8.27242C100.119 9.10761 100.496 9.9441 100.751 10.7819C101.004 11.4996 102.225 11.1264 101.971 10.4087Z" fill="#EF37FF"/>
<path opacity="0.5" d="M107.59 8.66566C107.823 7.70276 107.933 6.62112 108.043 5.53948C108.037 5.05933 108.03 4.45915 108.025 3.979C108.019 3.49885 108.012 2.89866 107.762 2.42112C107.636 2.06231 107.147 2.06752 107.028 2.42894C106.789 2.91169 106.796 3.51188 106.802 3.99203C106.807 4.47218 106.813 4.95232 106.818 5.43247C106.83 6.39277 106.718 7.35437 106.607 8.31597C106.61 8.55605 106.736 8.91486 106.981 8.91225C107.228 9.14972 107.594 9.02578 107.59 8.66566Z" fill="#EF37FF"/>
<path opacity="0.5" d="M112.287 12.0979C112.518 10.8947 112.996 9.8089 113.597 8.8419C114.198 7.87489 115.046 7.02534 115.769 6.05704C115.889 5.81561 115.762 5.45673 115.519 5.5794C114.176 5.95392 113.209 7.0449 112.609 8.13196C111.887 9.22033 111.535 10.5449 111.304 11.7481C111.067 12.4711 112.173 12.8195 112.287 12.0979Z" fill="#EF37FF"/>
<path d="M193.338 59.2321C193.46 59.1107 193.458 58.9906 193.579 58.8692C193.699 58.6278 193.819 58.3864 193.816 58.1462C193.813 57.9061 193.812 57.786 193.931 57.5446L193.93 57.4245C193.929 57.3044 193.927 57.1843 193.926 57.0643C193.923 56.8241 193.92 56.584 193.795 56.3452C193.792 56.105 193.668 55.9862 193.545 55.8675C193.294 55.3898 192.8 55.0348 192.186 54.9213C192.433 55.0387 192.679 55.1562 192.927 55.3937C192.679 55.1562 192.433 55.0387 192.188 55.0413C191.941 54.9239 191.696 54.9265 191.575 55.0478C191.33 55.0504 191.209 55.1718 190.966 55.2945C190.722 55.4172 190.48 55.6599 190.36 55.9014C190.725 55.6573 190.967 55.4146 191.332 55.1705C191.209 55.1718 191.088 55.2932 190.966 55.2945C190.722 55.4172 190.479 55.5399 190.357 55.6612C190.236 55.7826 190.115 55.904 189.994 56.0254C189.996 56.1454 189.873 56.1467 189.874 56.2668C189.876 56.3869 189.755 56.5083 189.756 56.6283C189.877 56.5069 189.874 56.2668 189.996 56.1454C189.997 56.2655 189.874 56.2668 189.876 56.3869C189.877 56.5069 189.755 56.5083 189.756 56.6283C189.635 56.7497 189.638 56.9898 189.517 57.1112C189.397 57.3527 189.277 57.5941 189.281 57.9543C189.162 58.1958 189.288 58.5547 189.291 58.7948C189.416 59.0337 189.542 59.2725 189.667 59.5113C189.792 59.7502 190.04 59.9877 190.286 60.1052C190.41 60.2239 190.655 60.2213 190.779 60.3401C191.148 60.4562 191.638 60.451 192.004 60.3271C192.125 60.2057 192.37 60.2031 192.491 60.0817C192.978 59.8363 193.219 59.4735 193.338 59.2321Z" fill="#FF8F6B"/>
<path d="M188.455 17.633C188.454 17.5129 188.331 17.5142 188.33 17.3941C188.206 17.2754 188.082 17.1566 188.081 17.0365C188.081 17.0365 187.957 16.9178 187.834 16.9191C187.588 16.8016 187.587 16.6815 187.218 16.5654C187.095 16.5667 186.849 16.4492 186.726 16.4505C186.604 16.4518 186.359 16.4544 186.359 16.4544L185.993 16.5784C185.749 16.7011 185.628 16.8225 185.509 17.0639C185.387 17.1853 185.387 17.1853 185.389 17.3054C185.39 17.4254 185.268 17.4267 185.269 17.5468C185.149 17.7883 185.031 18.1498 185.035 18.51C185.039 18.8702 185.165 19.1091 185.291 19.468C185.666 20.0644 186.282 20.4182 186.895 20.4116C187.507 20.4051 188.238 20.0371 188.476 19.4341C188.596 19.1926 188.714 18.8311 188.71 18.4709C188.707 18.2307 188.582 17.9919 188.455 17.633Z" fill="#FF8F6B"/>
<path d="M98.3048 33.0151C97.29 29.7846 97.7386 26.2984 98.3121 23.0509C98.3094 22.8109 98.0636 22.6934 97.9442 22.9348C96.7598 26.1887 96.4361 29.9137 97.4523 33.2643C97.4593 33.8644 98.4339 33.6139 98.3048 33.0151Z" fill="#030229"/>
</svg>
