<svg width="22" height="23" viewBox="0 0 22 23" fill="none" xmlns="http://www.w3.org/2000/svg">
<rect y="0.503906" width="22" height="22" rx="11" fill="#F2F4F7"/>
<path d="M8.5625 6.62891H12.4083C13.6218 6.62891 14.2285 6.62891 14.692 6.86506C15.0997 7.07278 15.4311 7.40424 15.6388 7.81193C15.875 8.2754 15.875 8.88213 15.875 10.0956V13.9414M7.85833 16.3789H12.2458C12.8526 16.3789 13.1559 16.3789 13.3877 16.2608C13.5915 16.157 13.7572 15.9912 13.8611 15.7874C13.9792 15.5557 13.9792 15.2523 13.9792 14.6456V10.2581C13.9792 9.65135 13.9792 9.34799 13.8611 9.11625C13.7572 8.91241 13.5915 8.74668 13.3877 8.64282C13.1559 8.52474 12.8526 8.52474 12.2458 8.52474H7.85833C7.25161 8.52474 6.94825 8.52474 6.71651 8.64282C6.51267 8.74668 6.34694 8.91241 6.24308 9.11625C6.125 9.34799 6.125 9.65135 6.125 10.2581V14.6456C6.125 15.2523 6.125 15.5557 6.24308 15.7874C6.34694 15.9912 6.51267 16.157 6.71651 16.2608C6.94825 16.3789 7.25161 16.3789 7.85833 16.3789Z" stroke="#7F56D9" stroke-linecap="round" stroke-linejoin="round"/>
</svg>
