<svg width="20" height="20" viewBox="0 0 20 20" fill="none" xmlns="http://www.w3.org/2000/svg">
<path d="M1.76927 3.00781H0.875781C0.765324 3.00781 0.675781 3.09736 0.675781 3.20781V5.26544C0.675781 5.37589 0.765324 5.46544 0.875781 5.46544H1.76927C1.87972 5.46544 1.96927 5.37589 1.96927 5.26544V3.20781C1.96927 3.09736 1.87972 3.00781 1.76927 3.00781Z" fill="#767676"/>
<path d="M18.801 15.0898H16.6141C16.5036 15.0898 16.4141 15.1794 16.4141 15.2898V16.1187C16.4141 16.2291 16.5036 16.3187 16.6141 16.3187H18.801C18.9115 16.3187 19.001 16.2291 19.001 16.1187V15.2898C19.001 15.1794 18.9115 15.0898 18.801 15.0898Z" fill="#767676"/>
<path d="M14.0398 16.5312C14.0398 16.6416 13.9503 16.7312 13.8398 16.7312H2.59844C2.48798 16.7312 2.39844 16.6416 2.39844 16.5312V5.87187C2.39844 5.76142 2.48798 5.67188 2.59844 5.67188H13.8398C13.9503 5.67188 14.0398 5.76142 14.0398 5.87188V16.5312ZM3.69192 15.3024C3.69192 15.4128 3.78147 15.5024 3.89192 15.5024H12.5463C12.6568 15.5024 12.7463 15.4128 12.7463 15.3024V7.10069C12.7463 6.99023 12.6568 6.90069 12.5463 6.90069H3.89192C3.78147 6.90069 3.69192 6.99023 3.69192 7.10069V15.3024Z" fill="#767676"/>
<path d="M14.9214 3.625H1.52422C1.41376 3.625 1.32422 3.71454 1.32422 3.825V4.65381C1.32422 4.76427 1.41376 4.85381 1.52422 4.85381H14.9214C15.0319 4.85381 15.1214 4.76427 15.1214 4.65381V3.825C15.1214 3.71454 15.0319 3.625 14.9214 3.625Z" fill="#767676"/>
<path d="M15.5661 3.00781H14.6727C14.5622 3.00781 14.4727 3.09736 14.4727 3.20781V5.26544C14.4727 5.37589 14.5622 5.46544 14.6727 5.46544H15.5661C15.6766 5.46544 15.7661 5.37589 15.7661 5.26544V3.20781C15.7661 3.09736 15.6766 3.00781 15.5661 3.00781Z" fill="#767676"/>
<path d="M18.1521 6.69531H17.2586C17.1481 6.69531 17.0586 6.78486 17.0586 6.89531V15.5066C17.0586 15.6171 17.1481 15.7066 17.2586 15.7066H18.1521C18.2625 15.7066 18.3521 15.6171 18.3521 15.5066V6.89531C18.3521 6.78486 18.2625 6.69531 18.1521 6.69531Z" fill="#767676"/>
<path d="M18.801 6.07812H16.6141C16.5036 6.07812 16.4141 6.16767 16.4141 6.27812V7.10694C16.4141 7.21739 16.5036 7.30694 16.6141 7.30694H18.801C18.9115 7.30694 19.001 7.21739 19.001 7.10694V6.27812C19.001 6.16767 18.9115 6.07812 18.801 6.07812Z" fill="#767676"/>
</svg>
