<svg width="20" height="19" viewBox="0 0 20 19" fill="none" xmlns="http://www.w3.org/2000/svg">
<path d="M15.5 13H17.5C18.0523 13 18.5 12.5523 18.5 12V2C18.5 1.44772 18.0523 1 17.5 1H2.5C1.94772 1 1.5 1.44772 1.5 2V17C1.5 17.5523 1.94772 18 2.5 18H7.5C8.05228 18 8.5 17.5523 8.5 17V14C8.5 13.4477 8.05228 13 7.5 13H5.5H11.5" stroke="#767676" stroke-width="1.6" stroke-linecap="round" stroke-linejoin="round"/>
<path d="M8.5 8H10.5C11.0523 8 11.5 7.55228 11.5 7V2C11.5 1.44772 11.0523 1 10.5 1H2.5C1.94772 1 1.5 1.44772 1.5 2V7C1.5 7.55228 1.94772 8 2.5 8H4.5" stroke="#767676" stroke-width="1.6" stroke-linecap="round"/>
</svg>
