<svg width="20" height="21" viewBox="0 0 20 21" fill="none" xmlns="http://www.w3.org/2000/svg">
<path d="M12.4993 19.4596H7.49935C2.97435 19.4596 1.04102 17.5263 1.04102 13.0013V8.0013C1.04102 3.4763 2.97435 1.54297 7.49935 1.54297H11.666C12.0077 1.54297 12.291 1.8263 12.291 2.16797C12.291 2.50964 12.0077 2.79297 11.666 2.79297H7.49935C3.65768 2.79297 2.29102 4.15964 2.29102 8.0013V13.0013C2.29102 16.843 3.65768 18.2096 7.49935 18.2096H12.4993C16.341 18.2096 17.7077 16.843 17.7077 13.0013V8.83464C17.7077 8.49297 17.991 8.20964 18.3327 8.20964C18.6743 8.20964 18.9577 8.49297 18.9577 8.83464V13.0013C18.9577 17.5263 17.0243 19.4596 12.4993 19.4596Z" fill="#353535"/>
<path d="M18.3327 9.4584H14.9993C12.1493 9.4584 11.041 8.35007 11.041 5.50007V2.16674C11.041 1.91674 11.191 1.68341 11.4243 1.59174C11.6577 1.49174 11.9243 1.55007 12.1077 1.72507L18.7743 8.39174C18.9493 8.56674 19.0077 8.84174 18.9077 9.07507C18.8077 9.3084 18.5827 9.4584 18.3327 9.4584ZM12.291 3.67507V5.50007C12.291 7.65007 12.8493 8.20841 14.9993 8.20841H16.8243L12.291 3.67507Z" fill="#353535"/>
<path d="M10.834 11.957H5.83398C5.49232 11.957 5.20898 11.6737 5.20898 11.332C5.20898 10.9904 5.49232 10.707 5.83398 10.707H10.834C11.1757 10.707 11.459 10.9904 11.459 11.332C11.459 11.6737 11.1757 11.957 10.834 11.957Z" fill="#353535"/>
<path d="M9.16732 15.293H5.83398C5.49232 15.293 5.20898 15.0096 5.20898 14.668C5.20898 14.3263 5.49232 14.043 5.83398 14.043H9.16732C9.50898 14.043 9.79232 14.3263 9.79232 14.668C9.79232 15.0096 9.50898 15.293 9.16732 15.293Z" fill="#353535"/>
</svg>
