<svg width="17" height="18" viewBox="0 0 17 18" fill="none" xmlns="http://www.w3.org/2000/svg">
<path d="M4.33333 8.16667C3.55836 8.16667 3.17087 8.16667 2.85295 8.25185C1.99022 8.48302 1.31635 9.15689 1.08519 10.0196C1 10.3375 1 10.725 1 11.5V12.5C1 13.9001 1 14.6002 1.27248 15.135C1.51217 15.6054 1.89462 15.9878 2.36502 16.2275C2.8998 16.5 3.59987 16.5 5 16.5H12C13.4001 16.5 14.1002 16.5 14.635 16.2275C15.1054 15.9878 15.4878 15.6054 15.7275 15.135C16 14.6002 16 13.9001 16 12.5V11.5C16 10.725 16 10.3375 15.9148 10.0196C15.6836 9.15689 15.0098 8.48302 14.147 8.25185C13.8291 8.16667 13.4416 8.16667 12.6667 8.16667M11.8333 4.83333L8.5 1.5M8.5 1.5L5.16667 4.83333M8.5 1.5V11.5" stroke="#93989A" stroke-width="1.6" stroke-linecap="round" stroke-linejoin="round"/>
</svg>
