<svg width="20" height="20" viewBox="0 0 20 20" fill="none" xmlns="http://www.w3.org/2000/svg">
<path d="M4.55556 10.1778C4.55556 10.5091 4.28693 10.7778 3.95556 10.7778H3.6C3.26863 10.7778 3 10.5091 3 10.1778V9.82222C3 9.49085 3.26863 9.22222 3.6 9.22222H3.95556C4.28693 9.22222 4.55556 9.49085 4.55556 9.82222V10.1778ZM10.7778 3.95556C10.7778 4.28693 10.5091 4.55556 10.1778 4.55556H9.82222C9.49085 4.55556 9.22222 4.28693 9.22222 3.95556V3.6C9.22222 3.26863 9.49085 3 9.82222 3H10.1778C10.5091 3 10.7778 3.26863 10.7778 3.6V3.95556ZM13.8889 3.95556C13.8889 4.28693 13.6203 4.55556 13.2889 4.55556H12.9333C12.602 4.55556 12.3333 4.28693 12.3333 3.95556V3.6C12.3333 3.26863 12.602 3 12.9333 3H13.2889C13.6203 3 13.8889 3.26863 13.8889 3.6V3.95556ZM4.55556 13.2889C4.55556 13.6203 4.28693 13.8889 3.95556 13.8889H3.6C3.26863 13.8889 3 13.6203 3 13.2889V12.9333C3 12.602 3.26863 12.3333 3.6 12.3333H3.95556C4.28693 12.3333 4.55556 12.602 4.55556 12.9333V13.2889ZM7.66667 3.95556C7.66667 4.28693 7.39804 4.55556 7.06667 4.55556H6.71111C6.37974 4.55556 6.11111 4.28693 6.11111 3.95556V3.6C6.11111 3.26863 6.37974 3 6.71111 3H7.06667C7.39804 3 7.66667 3.26863 7.66667 3.6V3.95556ZM4.55556 3.95556C4.55556 4.28693 4.28693 4.55556 3.95556 4.55556H3.6C3.26863 4.55556 3 4.28693 3 3.95556V3.6C3 3.26863 3.26863 3 3.6 3H3.95556C4.28693 3 4.55556 3.26863 4.55556 3.6V3.95556ZM4.55556 7.06667C4.55556 7.39804 4.28693 7.66667 3.95556 7.66667H3.6C3.26863 7.66667 3 7.39804 3 7.06667V6.71111C3 6.37974 3.26863 6.11111 3.6 6.11111H3.95556C4.28693 6.11111 4.55556 6.37974 4.55556 6.71111V7.06667ZM17 16.4C17 16.7314 16.7314 17 16.4 17H3.6C3.26863 17 3 16.7314 3 16.4V16.0444C3 15.7131 3.26863 15.4444 3.6 15.4444H14.8444C15.1758 15.4444 15.4444 15.1758 15.4444 14.8444V3.6C15.4444 3.26863 15.7131 3 16.0444 3H16.4C16.7314 3 17 3.26863 17 3.6V16.4Z" fill="#767676"/>
</svg>
