<svg width="20" height="19" viewBox="0 0 20 19" fill="none" xmlns="http://www.w3.org/2000/svg">
<path d="M17.2919 12.2972C17.1227 12.112 16.8792 12.1142 16.7127 12.3019C16.1572 12.9279 15.0001 14.3965 15.0001 15.5C15.0001 16.994 15.9491 17.948 17.0001 18C17.9061 18.044 19.0001 17.109 19.0001 15.5C19.0001 14.335 17.8491 12.9069 17.2919 12.2972ZM6.58606 18C6.96406 18.378 7.46606 18.586 8.00006 18.586C8.53406 18.586 9.03606 18.378 9.41406 18L15.9898 11.4243C16.2241 11.1899 16.2241 10.8101 15.9898 10.5757L15.7071 10.293L8.00006 2.586L6.13133 0.717264C5.89701 0.482949 5.51711 0.482949 5.2828 0.717263L4.71733 1.28274C4.48301 1.51705 4.48301 1.89695 4.71733 2.13126L6.1618 3.57573C6.39611 3.81005 6.39611 4.18995 6.1618 4.42426L1.00006 9.586C0.622062 9.964 0.414062 10.466 0.414062 11C0.414062 11.534 0.622062 12.036 1.00006 12.414L6.58606 18ZM7.5758 5.83826C7.81011 5.60395 8.19001 5.60395 8.42433 5.83826L12.5618 9.97573C12.9398 10.3537 12.6721 11 12.1375 11H3.86259C3.32805 11 3.06035 10.3537 3.43833 9.97573L7.5758 5.83826Z" fill="#767676" stroke="white" stroke-width="0.4"/>
</svg>
