<svg width="20" height="20" viewBox="0 0 20 20" fill="none" xmlns="http://www.w3.org/2000/svg">
<path d="M7.4987 4.16871C7.27768 4.16871 7.06572 4.25651 6.90944 4.41279C6.75316 4.56907 6.66536 4.78103 6.66536 5.00204C6.66536 5.22306 6.75316 5.43502 6.90944 5.5913C7.06572 5.74758 7.27768 5.83538 7.4987 5.83538C7.71971 5.83538 7.93167 5.74758 8.08795 5.5913C8.24423 5.43502 8.33203 5.22306 8.33203 5.00204C8.33203 4.78103 8.24423 4.56907 8.08795 4.41279C7.93167 4.25651 7.71971 4.16871 7.4987 4.16871ZM5.14036 4.16871C5.31253 3.68076 5.63181 3.25824 6.0542 2.95937C6.47658 2.6605 6.98127 2.5 7.4987 2.5C8.01613 2.5 8.52081 2.6605 8.9432 2.95937C9.36558 3.25824 9.68486 3.68076 9.85703 4.16871H15.832C16.053 4.16871 16.265 4.25651 16.4213 4.41279C16.5776 4.56907 16.6654 4.78103 16.6654 5.00204C16.6654 5.22306 16.5776 5.43502 16.4213 5.5913C16.265 5.74758 16.053 5.83538 15.832 5.83538H9.85703C9.68486 6.32332 9.36558 6.74585 8.9432 7.04472C8.52081 7.34359 8.01613 7.50408 7.4987 7.50408C6.98127 7.50408 6.47658 7.34359 6.0542 7.04472C5.63181 6.74585 5.31253 6.32332 5.14036 5.83538H4.16536C3.94435 5.83538 3.73239 5.74758 3.57611 5.5913C3.41983 5.43502 3.33203 5.22306 3.33203 5.00204C3.33203 4.78103 3.41983 4.56907 3.57611 4.41279C3.73239 4.25651 3.94435 4.16871 4.16536 4.16871H5.14036ZM12.4987 9.16871C12.2777 9.16871 12.0657 9.25651 11.9094 9.41279C11.7532 9.56907 11.6654 9.78103 11.6654 10.002C11.6654 10.2231 11.7532 10.435 11.9094 10.5913C12.0657 10.7476 12.2777 10.8354 12.4987 10.8354C12.7197 10.8354 12.9317 10.7476 13.088 10.5913C13.2442 10.435 13.332 10.2231 13.332 10.002C13.332 9.78103 13.2442 9.56907 13.088 9.41279C12.9317 9.25651 12.7197 9.16871 12.4987 9.16871ZM10.1404 9.16871C10.3125 8.68077 10.6318 8.25824 11.0542 7.95937C11.4766 7.6605 11.9813 7.5 12.4987 7.5C13.0161 7.5 13.5208 7.6605 13.9432 7.95937C14.3656 8.25824 14.6849 8.68077 14.857 9.16871H15.832C16.053 9.16871 16.265 9.25651 16.4213 9.41279C16.5776 9.56907 16.6654 9.78103 16.6654 10.002C16.6654 10.2231 16.5776 10.435 16.4213 10.5913C16.265 10.7476 16.053 10.8354 15.832 10.8354H14.857C14.6849 11.3233 14.3656 11.7458 13.9432 12.0447C13.5208 12.3436 13.0161 12.5041 12.4987 12.5041C11.9813 12.5041 11.4766 12.3436 11.0542 12.0447C10.6318 11.7458 10.3125 11.3233 10.1404 10.8354H4.16536C3.94435 10.8354 3.73239 10.7476 3.57611 10.5913C3.41983 10.435 3.33203 10.2231 3.33203 10.002C3.33203 9.78103 3.41983 9.56907 3.57611 9.41279C3.73239 9.25651 3.94435 9.16871 4.16536 9.16871H10.1404ZM7.4987 14.1687C7.27768 14.1687 7.06572 14.2565 6.90944 14.4128C6.75316 14.5691 6.66536 14.781 6.66536 15.002C6.66536 15.2231 6.75316 15.435 6.90944 15.5913C7.06572 15.7476 7.27768 15.8354 7.4987 15.8354C7.71971 15.8354 7.93167 15.7476 8.08795 15.5913C8.24423 15.435 8.33203 15.2231 8.33203 15.002C8.33203 14.781 8.24423 14.5691 8.08795 14.4128C7.93167 14.2565 7.71971 14.1687 7.4987 14.1687ZM5.14036 14.1687C5.31253 13.6808 5.63181 13.2582 6.0542 12.9594C6.47658 12.6605 6.98127 12.5 7.4987 12.5C8.01613 12.5 8.52081 12.6605 8.9432 12.9594C9.36558 13.2582 9.68486 13.6808 9.85703 14.1687H15.832C16.053 14.1687 16.265 14.2565 16.4213 14.4128C16.5776 14.5691 16.6654 14.781 16.6654 15.002C16.6654 15.2231 16.5776 15.435 16.4213 15.5913C16.265 15.7476 16.053 15.8354 15.832 15.8354H9.85703C9.68486 16.3233 9.36558 16.7458 8.9432 17.0447C8.52081 17.3436 8.01613 17.5041 7.4987 17.5041C6.98127 17.5041 6.47658 17.3436 6.0542 17.0447C5.63181 16.7458 5.31253 16.3233 5.14036 15.8354H4.16536C3.94435 15.8354 3.73239 15.7476 3.57611 15.5913C3.41983 15.435 3.33203 15.2231 3.33203 15.002C3.33203 14.781 3.41983 14.5691 3.57611 14.4128C3.73239 14.2565 3.94435 14.1687 4.16536 14.1687H5.14036Z" fill="#767676" stroke="white" stroke-width="0.2"/>
</svg>
