<svg width="23" height="23" viewBox="0 0 23 23" fill="none" xmlns="http://www.w3.org/2000/svg">
<g filter="url(#filter0_d_318_21810)">
<path fill-rule="evenodd" clip-rule="evenodd" d="M18.9899 0.698549C18.9719 0.639479 18.9337 0.587859 18.8815 0.551915C18.839 0.522684 18.7892 0.505188 18.7375 0.500989C18.7138 0.499067 18.6904 0.504876 18.6684 0.513974L18.4868 0.589333C18.462 0.599601 18.4355 0.604791 18.4087 0.604593L4.2876 0.500218C4.22631 0.500356 4.16667 0.519154 4.11732 0.553883C4.06797 0.588612 4.03149 0.637464 4.01318 0.693349C3.99486 0.749234 3.99566 0.809242 4.01546 0.864664C4.03526 0.920085 4.07302 0.968035 4.12328 1.00155L5.16357 1.68875C5.21962 1.72577 5.25334 1.78846 5.25334 1.85563V14.2245C5.25334 14.2976 5.28371 14.3677 5.33777 14.4193C5.39184 14.471 5.46516 14.5 5.54162 14.5H17.4476C17.524 14.5 17.5974 14.471 17.6514 14.4193C17.7055 14.3677 17.7359 14.2976 17.7359 14.2245V1.81531C17.7359 1.74609 17.7716 1.68179 17.8305 1.64532L18.8601 1.00706C18.914 0.976162 18.9558 0.929305 18.9792 0.873616C19.0026 0.817928 19.0064 0.756456 18.9899 0.698549ZM17.1947 1.42613C17.2179 1.38571 17.2513 1.35148 17.2919 1.32659C17.4186 1.24694 17.3622 1.05114 17.2125 1.05114H14.4668H5.80586C5.63002 1.05114 5.56176 1.27977 5.70882 1.37618C5.74701 1.40149 5.77822 1.43525 5.79981 1.47458C5.82139 1.51391 5.8327 1.55764 5.83278 1.60205V7.13708C5.83278 7.23172 5.8996 7.31213 5.98983 7.34071C6.20959 7.4103 6.41115 7.52583 6.57942 7.67964C6.66417 7.76718 6.76695 7.83703 6.8813 7.8848C6.99565 7.93257 7.11911 7.95723 7.24391 7.95723C7.36871 7.95723 7.49217 7.93257 7.60652 7.8848C7.72087 7.83703 7.82365 7.76718 7.90839 7.67964C8.18494 7.42006 8.5571 7.27461 8.94476 7.27461C9.33242 7.27461 9.70458 7.42006 9.98113 7.67964C10.0637 7.76558 10.1639 7.83438 10.2755 7.88177C10.3871 7.92915 10.5077 7.95411 10.6298 7.9551C10.7547 7.95573 10.8783 7.93157 10.993 7.88415C11.1016 7.83923 11.1998 7.77438 11.2821 7.69332C11.2912 7.68432 11.301 7.67595 11.3115 7.66863L11.3908 7.61353C11.6517 7.38945 11.9914 7.26749 12.3421 7.27196C12.7295 7.2714 13.1014 7.41692 13.3771 7.67688C13.4621 7.76449 13.5651 7.83439 13.6797 7.88219C13.7943 7.92999 13.918 7.95466 14.043 7.95466C14.168 7.95466 14.2917 7.92999 14.4063 7.88219C14.5209 7.83439 14.6239 7.76449 14.7089 7.67688C14.9855 7.4173 15.3576 7.27186 15.7453 7.27186C16.1329 7.27186 16.5051 7.4173 16.7816 7.67688C16.8196 7.71242 16.86 7.74537 16.9024 7.77553C17.0171 7.857 17.1593 7.76204 17.1593 7.62135V1.55798C17.1594 1.51189 17.1716 1.46656 17.1947 1.42613Z" fill="#767676"/>
</g>
<defs>
<filter id="filter0_d_318_21810" x="0" y="0.5" width="23" height="22" filterUnits="userSpaceOnUse" color-interpolation-filters="sRGB">
<feFlood flood-opacity="0" result="BackgroundImageFix"/>
<feColorMatrix in="SourceAlpha" type="matrix" values="0 0 0 0 0 0 0 0 0 0 0 0 0 0 0 0 0 0 127 0" result="hardAlpha"/>
<feOffset dy="4"/>
<feGaussianBlur stdDeviation="2"/>
<feComposite in2="hardAlpha" operator="out"/>
<feColorMatrix type="matrix" values="0 0 0 0 0 0 0 0 0 0 0 0 0 0 0 0 0 0 0.25 0"/>
<feBlend mode="normal" in2="BackgroundImageFix" result="effect1_dropShadow_318_21810"/>
<feBlend mode="normal" in="SourceGraphic" in2="effect1_dropShadow_318_21810" result="shape"/>
</filter>
</defs>
</svg>
