<svg width="20" height="20" viewBox="0 0 20 20" fill="none" xmlns="http://www.w3.org/2000/svg">
<g clip-path="url(#clip0_3238_23469)">
<path d="M14.168 2.49993C14.3868 2.28106 14.6467 2.10744 14.9326 1.98899C15.2186 1.87054 15.5251 1.80957 15.8346 1.80957C16.1442 1.80957 16.4507 1.87054 16.7366 1.98899C17.0226 2.10744 17.2824 2.28106 17.5013 2.49993C17.7202 2.7188 17.8938 2.97863 18.0122 3.2646C18.1307 3.55057 18.1917 3.85706 18.1917 4.16659C18.1917 4.47612 18.1307 4.78262 18.0122 5.06859C17.8938 5.35455 17.7202 5.61439 17.5013 5.83326L6.2513 17.0833L1.66797 18.3333L2.91797 13.7499L14.168 2.49993Z" stroke="#667085" stroke-width="1.66667" stroke-linecap="round" stroke-linejoin="round"/>
</g>
<defs>
<clipPath id="clip0_3238_23469">
<rect width="20" height="20" fill="white"/>
</clipPath>
</defs>
</svg>
