<svg width="20" height="20" viewBox="0 0 20 20" fill="none" xmlns="http://www.w3.org/2000/svg">
<path d="M13.6641 2.50286C13.8829 2.28399 14.1428 2.11037 14.4287 1.99192C14.7147 1.87347 15.0212 1.8125 15.3307 1.8125C15.6403 1.8125 15.9468 1.87347 16.2327 1.99192C16.5187 2.11037 16.7785 2.28399 16.9974 2.50286C17.2163 2.72173 17.3899 2.98156 17.5083 3.26753C17.6268 3.5535 17.6878 3.85999 17.6878 4.16952C17.6878 4.47905 17.6268 4.78555 17.5083 5.07152C17.3899 5.35748 17.2163 5.61732 16.9974 5.83619L5.7474 17.0862L1.16406 18.3362L2.41406 13.7529L13.6641 2.50286Z" stroke="#2FA1F8" stroke-width="1.66667" stroke-linecap="round" stroke-linejoin="round"/>
</svg>
