<svg width="17" height="16" viewBox="0 0 17 16" fill="none" xmlns="http://www.w3.org/2000/svg">
<g clip-path="url(#clip0_2410_11759)">
<path d="M8.2793 2.66812H5.4793C4.35919 2.66812 3.79914 2.66812 3.37132 2.88611C2.99499 3.07785 2.68903 3.38382 2.49728 3.76014C2.2793 4.18796 2.2793 4.74802 2.2793 5.86812V11.4681C2.2793 12.5882 2.2793 13.1483 2.49728 13.5761C2.68903 13.9524 2.99499 14.2584 3.37132 14.4501C3.79914 14.6681 4.35919 14.6681 5.4793 14.6681H11.0793C12.1994 14.6681 12.7595 14.6681 13.1873 14.4501C13.5636 14.2584 13.8696 13.9524 14.0613 13.5761C14.2793 13.1483 14.2793 12.5882 14.2793 11.4681V8.66812M6.27928 10.6681H7.39564C7.72176 10.6681 7.88482 10.6681 8.03827 10.6313C8.17432 10.5986 8.30438 10.5447 8.42368 10.4716C8.55823 10.3892 8.67353 10.2739 8.90414 10.0433L15.2793 3.66812C15.8316 3.11584 15.8316 2.2204 15.2793 1.66812C14.727 1.11584 13.8316 1.11583 13.2793 1.66812L6.90412 8.04328C6.67352 8.27388 6.55822 8.38919 6.47576 8.52374C6.40265 8.64304 6.34878 8.7731 6.31612 8.90915C6.27928 9.0626 6.27928 9.22566 6.27928 9.55178V10.6681Z" stroke="#344054" stroke-width="1.5" stroke-linecap="round" stroke-linejoin="round"/>
</g>
<defs>
<clipPath id="clip0_2410_11759">
<rect width="16" height="16" fill="white" transform="translate(0.946289)"/>
</clipPath>
</defs>
</svg>
