<svg width="21" height="20" viewBox="0 0 21 20" fill="none" xmlns="http://www.w3.org/2000/svg">
<g id="edit-01">
<path id="Icon" d="M2.89637 15.0963C2.93466 14.7517 2.9538 14.5794 3.00594 14.4184C3.05219 14.2755 3.11753 14.1396 3.20021 14.0142C3.29339 13.8729 3.41596 13.7503 3.66112 13.5052L14.6664 2.49992C15.5868 1.57945 17.0792 1.57945 17.9997 2.49993C18.9202 3.4204 18.9202 4.91279 17.9997 5.83326L6.99445 16.8385C6.7493 17.0836 6.62672 17.2062 6.48541 17.2994C6.36005 17.3821 6.22408 17.4474 6.08121 17.4937C5.92018 17.5458 5.74789 17.5649 5.40331 17.6032L2.58301 17.9166L2.89637 15.0963Z" stroke="#475467" stroke-width="1.66667" stroke-linecap="round" stroke-linejoin="round"/>
</g>
</svg>
