<svg width="236" height="181" viewBox="0 0 236 181" fill="none" xmlns="http://www.w3.org/2000/svg">
<circle cx="139.951" cy="90.2329" r="90.2329" fill="#F93E3E"/>
<path fill-rule="evenodd" clip-rule="evenodd" d="M160.985 178.001C154.236 179.613 147.193 180.466 139.951 180.466C132.709 180.466 125.666 179.613 118.917 178.001H132.117V159.903C119.357 140.73 117.783 138.366 116.21 136C115.623 135.116 115.036 134.232 113.866 132.472C113.835 132.451 113.803 132.434 113.77 132.416C113.736 132.398 113.702 132.38 113.67 132.358C98.769 134.802 86.4135 144.906 80.9679 158.521C61.8288 141.975 49.7183 117.518 49.7183 90.2329C49.7183 40.3987 90.1169 0 139.951 0C189.785 0 230.184 40.3987 230.184 90.2329C230.184 120.403 215.377 147.114 192.634 163.497C188.436 147.403 174.929 135.108 158.245 132.393C158.21 132.416 158.174 132.436 158.137 132.455C158.101 132.475 158.065 132.494 158.031 132.517L154.778 137.396C154.778 137.567 141.377 157.619 139.97 159.725L139.851 159.903V178.001H160.985ZM194.378 108.587V68.2365C194.378 67.6316 194.213 67.0781 193.966 66.5687C194.012 66.4412 194.069 66.3183 194.126 66.1959L194.126 66.1957C194.253 65.9224 194.378 65.6514 194.378 65.3361C194.378 64.4954 194.104 63.6776 193.598 63.0065C193.092 62.3353 192.381 61.8473 191.572 61.6161L137.432 46.1473C136.738 45.9509 136.003 45.9509 135.309 46.1473L81.1688 61.6161C80.3605 61.8473 79.6495 62.3353 79.1433 63.0065C78.637 63.6776 78.363 64.4954 78.3628 65.3361C78.363 66.1768 78.637 66.9945 79.1433 67.6656C79.6495 68.3368 80.3605 68.8249 81.1688 69.056L101.566 74.8836V79.4603C101.566 83.8599 104.009 87.9047 107.79 89.7628C125.124 98.2827 147.61 98.2788 164.952 89.7666C168.732 87.9086 171.176 83.8638 171.176 79.4603V74.8836L186.644 70.4642V108.587C182.153 110.189 178.91 114.442 178.91 119.477V127.211C178.91 129.349 180.64 131.078 182.777 131.078H198.246C200.383 131.078 202.113 129.349 202.113 127.211V119.477C202.113 114.442 198.87 110.19 194.378 108.587ZM135.984 104.525C147.189 104.525 158.25 102.002 167.971 97.2247C168.683 96.8753 169.303 96.4007 169.924 95.9255C170.134 95.7644 170.345 95.6033 170.559 95.4469C169.732 109.371 162.238 121.186 151.648 127.235C151.648 127.235 148.229 128.989 146.446 129.624C142.576 131.053 138.703 131.595 135.984 131.595C133.014 131.595 130.186 131.044 127.439 130.261L127.432 130.274C125.736 129.792 120.307 127.227 120.307 127.227C109.723 121.176 102.234 109.365 101.408 95.4453C101.623 95.6021 101.834 95.7637 102.045 95.9253C102.663 96.3993 103.28 96.8727 103.989 97.2209C113.714 101.998 124.779 104.525 135.984 104.525ZM126.943 138.143C129.866 138.848 132.866 139.329 135.984 139.329C139.084 139.329 142.066 138.853 144.974 138.156L135.984 151.704L126.943 138.143ZM159.187 162.533H166.921C169.059 162.533 170.789 160.803 170.789 158.665C170.789 156.528 169.059 154.798 166.921 154.798H159.187C157.049 154.798 155.32 156.528 155.32 158.665C155.32 160.803 157.049 162.533 159.187 162.533Z" fill="#F4F5F6"/>
<g filter="url(#filter0_d_5889_27920)">
<g opacity="0.5" filter="url(#filter1_d_5889_27920)">
<rect x="37.1187" y="108.158" width="50.9109" height="27.9651" rx="4" fill="white"/>
</g>
<rect x="32.8159" y="90.2324" width="59.5155" height="38.0039" rx="4" fill="white"/>
<rect x="41.4204" y="98.8379" width="42.3062" height="2.15116" rx="1.07558" fill="#646464"/>
<rect x="41.4204" y="108.158" width="42.3062" height="2.15116" rx="1.07558" fill="#EDEAFB"/>
<rect x="47.8745" y="117.48" width="29.3992" height="2.15116" rx="1.07558" fill="#EDEAFB"/>
</g>
<g filter="url(#filter2_d_5889_27920)">
<circle cx="215.925" cy="44.8828" r="13.8828" fill="#FFC107"/>
</g>
<path d="M215.898 36.5059C220.527 36.5059 224.28 40.2584 224.28 44.8875C224.28 49.5165 220.527 53.2691 215.898 53.2691" stroke="white" stroke-width="2" stroke-miterlimit="10" stroke-linecap="round" stroke-linejoin="round"/>
<path d="M215.898 39.6504V44.8889L220.089 49.0797" stroke="white" stroke-width="2" stroke-miterlimit="10" stroke-linecap="round" stroke-linejoin="round"/>
<path d="M212.868 37.073C212.868 37.073 213.07 36.9921 213.293 36.9223C213.516 36.8525 213.776 36.7793 213.776 36.7793M210.322 38.6296C210.322 38.6296 210.483 38.483 210.668 38.3394C210.853 38.1958 211.07 38.0365 211.07 38.0365M208.483 40.979C208.483 40.979 208.583 40.7852 208.705 40.586C208.828 40.3868 208.976 40.1616 208.976 40.1616M207.583 43.8236C207.583 43.8236 207.609 43.6073 207.654 43.3777C207.699 43.1481 207.758 42.8854 207.758 42.8854M207.737 46.8032C207.737 46.8032 207.685 46.5918 207.647 46.3608C207.609 46.1299 207.572 45.8632 207.572 45.8632M208.924 49.5404C208.924 49.5404 208.801 49.3606 208.685 49.1576C208.568 48.9546 208.441 48.7175 208.441 48.7175M210.994 51.6886C210.994 51.6886 210.816 51.5631 210.636 51.4137C210.456 51.2644 210.254 51.087 210.254 51.087M213.686 52.9755C213.686 52.9755 213.476 52.9203 213.254 52.8435C213.033 52.7667 212.782 52.6715 212.782 52.6715" stroke="white" stroke-width="2" stroke-miterlimit="10" stroke-linecap="round" stroke-linejoin="round" stroke-dasharray="30 57"/>
<defs>
<filter id="filter0_d_5889_27920" x="0.815918" y="66.2324" width="123.516" height="109.891" filterUnits="userSpaceOnUse" color-interpolation-filters="sRGB">
<feFlood flood-opacity="0" result="BackgroundImageFix"/>
<feColorMatrix in="SourceAlpha" type="matrix" values="0 0 0 0 0 0 0 0 0 0 0 0 0 0 0 0 0 0 127 0" result="hardAlpha"/>
<feOffset dy="8"/>
<feGaussianBlur stdDeviation="16"/>
<feColorMatrix type="matrix" values="0 0 0 0 0.0117647 0 0 0 0 0.160784 0 0 0 0 0.396078 0 0 0 0.18 0"/>
<feBlend mode="normal" in2="BackgroundImageFix" result="effect1_dropShadow_5889_27920"/>
<feBlend mode="normal" in="SourceGraphic" in2="effect1_dropShadow_5889_27920" result="shape"/>
</filter>
<filter id="filter1_d_5889_27920" x="13.1187" y="88.1582" width="98.9106" height="75.9648" filterUnits="userSpaceOnUse" color-interpolation-filters="sRGB">
<feFlood flood-opacity="0" result="BackgroundImageFix"/>
<feColorMatrix in="SourceAlpha" type="matrix" values="0 0 0 0 0 0 0 0 0 0 0 0 0 0 0 0 0 0 127 0" result="hardAlpha"/>
<feOffset dy="4"/>
<feGaussianBlur stdDeviation="12"/>
<feColorMatrix type="matrix" values="0 0 0 0 0.0117647 0 0 0 0 0.160784 0 0 0 0 0.396078 0 0 0 0.12 0"/>
<feBlend mode="normal" in2="BackgroundImageFix" result="effect1_dropShadow_5889_27920"/>
<feBlend mode="normal" in="SourceGraphic" in2="effect1_dropShadow_5889_27920" result="shape"/>
</filter>
<filter id="filter2_d_5889_27920" x="196.042" y="29" width="39.7656" height="39.7656" filterUnits="userSpaceOnUse" color-interpolation-filters="sRGB">
<feFlood flood-opacity="0" result="BackgroundImageFix"/>
<feColorMatrix in="SourceAlpha" type="matrix" values="0 0 0 0 0 0 0 0 0 0 0 0 0 0 0 0 0 0 127 0" result="hardAlpha"/>
<feOffset dy="4"/>
<feGaussianBlur stdDeviation="3"/>
<feColorMatrix type="matrix" values="0 0 0 0 1 0 0 0 0 0.596078 0 0 0 0 0.160784 0 0 0 0.24 0"/>
<feBlend mode="normal" in2="BackgroundImageFix" result="effect1_dropShadow_5889_27920"/>
<feBlend mode="normal" in="SourceGraphic" in2="effect1_dropShadow_5889_27920" result="shape"/>
</filter>
</defs>
</svg>
