<svg width="120" height="121" viewBox="0 0 120 121" fill="none" xmlns="http://www.w3.org/2000/svg">
<g id="svgexport-6 1">
<g id="Group">
<path id="Vector" d="M26.6993 71.6758C23.0134 71.6757 19.4102 72.7687 16.3454 74.8164C13.2806 76.8642 10.8919 79.7748 9.48127 83.1801C8.07065 86.5855 7.70151 90.3326 8.42052 93.9478C9.13954 97.5629 10.9144 100.884 13.5207 103.49C16.127 106.096 19.4476 107.872 23.0627 108.591C26.6778 109.31 30.425 108.941 33.8304 107.531C37.2358 106.12 40.1465 103.731 42.1945 100.667C44.2424 97.6021 45.3355 93.999 45.3356 90.313C45.3302 85.372 43.365 80.6348 39.8712 77.1409C36.3774 73.6469 31.6404 71.6815 26.6993 71.6758ZM26.6993 106.136C23.5696 106.136 20.5101 105.208 17.9078 103.47C15.3055 101.731 13.2772 99.2595 12.0795 96.3679C10.8818 93.4764 10.5685 90.2947 11.1791 87.2251C11.7897 84.1555 13.2968 81.3359 15.5099 79.1229C17.723 76.9098 20.5427 75.4028 23.6123 74.7923C26.6819 74.1818 29.8636 74.4952 32.7551 75.693C35.6466 76.8908 38.1179 78.9191 39.8566 81.5215C41.5953 84.1238 42.5233 87.1833 42.5231 90.313C42.5182 94.5082 40.8494 98.5301 37.8829 101.497C34.9164 104.463 30.8945 106.132 26.6993 106.136Z" fill="#9747FF"/>
<path id="Vector_2" d="M26.6992 83.8634C27.3559 83.8641 27.9855 84.1253 28.4498 84.5896C28.9142 85.0539 29.1754 85.6834 29.1761 86.3401C29.1761 86.7142 29.3248 87.073 29.5893 87.3376C29.8539 87.6022 30.2127 87.7508 30.5868 87.7508C30.961 87.7508 31.3198 87.6022 31.5843 87.3376C31.8489 87.073 31.9975 86.7142 31.9975 86.3401C31.9975 83.9105 30.2329 81.8595 28.1235 81.2422V80.3234C28.1235 79.9505 27.9754 79.5928 27.7117 79.3291C27.4479 79.0653 27.0903 78.9172 26.7173 78.9172C26.3443 78.9172 25.9867 79.0653 25.7229 79.3291C25.4592 79.5928 25.311 79.9505 25.311 80.3234V81.2422C24.1844 81.532 23.1879 82.1923 22.4819 83.1169C21.7759 84.0416 21.4015 85.1768 21.4188 86.3401C21.4193 87.742 21.9762 89.0864 22.967 90.0781C23.9579 91.0699 25.3018 91.6279 26.7037 91.6297C27.0289 91.6282 27.3512 91.6907 27.6522 91.8137C27.9532 91.9367 28.227 92.1178 28.4581 92.3467C28.6891 92.5755 28.8728 92.8476 28.9986 93.1474C29.1245 93.4473 29.1901 93.769 29.1916 94.0941C29.1931 94.4193 29.1306 94.7416 29.0076 95.0426C28.8846 95.3436 28.7035 95.6175 28.4746 95.8485C28.2458 96.0795 27.9737 96.2632 27.6738 96.3891C27.374 96.5149 27.0523 96.5805 26.7271 96.582C26.718 96.582 26.7084 96.5806 26.6992 96.5806C26.6901 96.5806 26.681 96.5806 26.6718 96.582C26.02 96.5744 25.3974 96.3103 24.9389 95.847C24.4804 95.3837 24.2228 94.7584 24.2219 94.1066C24.2243 93.921 24.1898 93.7367 24.1205 93.5646C24.0511 93.3924 23.9482 93.2357 23.8178 93.1036C23.6874 92.9716 23.5321 92.8667 23.3609 92.7951C23.1896 92.7235 23.0058 92.6866 22.8202 92.6866C22.6346 92.6866 22.4509 92.7235 22.2796 92.7951C22.1083 92.8667 21.953 92.9716 21.8226 93.1036C21.6922 93.2357 21.5894 93.3924 21.52 93.5646C21.4506 93.7367 21.4161 93.921 21.4185 94.1066C21.4012 95.2699 21.7757 96.4052 22.4817 97.3299C23.1877 98.2546 24.1843 98.9149 25.311 99.2047V100.3C25.311 100.673 25.4592 101.031 25.7229 101.294C25.9867 101.558 26.3443 101.706 26.7173 101.706C27.0903 101.706 27.4479 101.558 27.7117 101.294C27.9754 101.031 28.1235 100.673 28.1235 100.3V99.2047C30.2329 98.5871 31.9975 96.5363 31.9975 94.1066C31.995 92.7037 31.4363 91.3592 30.4439 90.3676C29.4516 89.3761 28.1065 88.8186 26.7037 88.8172C26.0468 88.8178 25.4166 88.5574 24.9516 88.0933C24.4867 87.6292 24.2252 86.9994 24.2246 86.3425C24.224 85.6856 24.4844 85.0554 24.9485 84.5905C25.4126 84.1255 26.0423 83.864 26.6992 83.8634ZM86.6772 41.75H88.2154C88.5884 41.75 88.9461 41.6018 89.2098 41.3381C89.4735 41.0744 89.6217 40.7167 89.6217 40.3438C89.6217 39.9708 89.4735 39.6131 89.2098 39.3494C88.9461 39.0857 88.5884 38.9375 88.2154 38.9375H86.6772C86.3043 38.9375 85.9466 39.0857 85.6829 39.3494C85.4191 39.6131 85.271 39.9708 85.271 40.3438C85.271 40.7167 85.4191 41.0744 85.6829 41.3381C85.9466 41.6018 86.3043 41.75 86.6772 41.75ZM59.3346 41.75H81.8861C82.2591 41.75 82.6168 41.6018 82.8805 41.3381C83.1442 41.0744 83.2924 40.7167 83.2924 40.3438C83.2924 39.9708 83.1442 39.6131 82.8805 39.3494C82.6168 39.0857 82.2591 38.9375 81.8861 38.9375H59.3346C58.9616 38.9375 58.6039 39.0857 58.3402 39.3494C58.0765 39.6131 57.9283 39.9708 57.9283 40.3438C57.9283 40.7167 58.0765 41.0744 58.3402 41.3381C58.6039 41.6018 58.9616 41.75 59.3346 41.75ZM46.4751 41.75H54.4476C54.8206 41.75 55.1783 41.6018 55.442 41.3381C55.7057 41.0744 55.8539 40.7167 55.8539 40.3438C55.8539 39.9708 55.7057 39.6131 55.442 39.3494C55.1783 39.0857 54.8206 38.9375 54.4476 38.9375H46.4751C46.1021 38.9375 45.7445 39.0857 45.4807 39.3494C45.217 39.6131 45.0689 39.9708 45.0689 40.3438C45.0689 40.7167 45.217 41.0744 45.4807 41.3381C45.7445 41.6018 46.1021 41.75 46.4751 41.75ZM82.4986 51.3594C82.4986 51.7323 82.6467 52.09 82.9104 52.3537C83.1742 52.6175 83.5318 52.7656 83.9048 52.7656H88.2157C88.5886 52.7656 88.9463 52.6175 89.21 52.3537C89.4738 52.09 89.6219 51.7323 89.6219 51.3594C89.6219 50.9864 89.4738 50.6287 89.21 50.365C88.9463 50.1013 88.5886 49.9531 88.2157 49.9531H83.9048C83.5318 49.9531 83.1742 50.1013 82.9104 50.365C82.6467 50.6287 82.4986 50.9864 82.4986 51.3594ZM79.237 49.9531H73.3624C72.9894 49.9531 72.6317 50.1013 72.368 50.365C72.1043 50.6287 71.9561 50.9864 71.9561 51.3594C71.9561 51.7323 72.1043 52.09 72.368 52.3537C72.6317 52.6175 72.9894 52.7656 73.3624 52.7656H79.237C79.6099 52.7656 79.9676 52.6175 80.2313 52.3537C80.4951 52.09 80.6432 51.7323 80.6432 51.3594C80.6432 50.9864 80.4951 50.6287 80.2313 50.365C79.9676 50.1013 79.6099 49.9531 79.237 49.9531ZM46.4751 52.7656H69.2608C69.6338 52.7656 69.9915 52.6175 70.2552 52.3537C70.5189 52.09 70.6671 51.7323 70.6671 51.3594C70.6671 50.9864 70.5189 50.6287 70.2552 50.365C69.9915 50.1013 69.6338 49.9531 69.2608 49.9531H46.4751C46.1021 49.9531 45.7445 50.1013 45.4807 50.365C45.217 50.6287 45.0689 50.9864 45.0689 51.3594C45.0689 51.7323 45.217 52.09 45.4807 52.3537C45.7445 52.6175 46.1021 52.7656 46.4751 52.7656ZM75.7928 63.0781C75.7928 62.7052 75.6447 62.3475 75.381 62.0838C75.1172 61.82 74.7596 61.6719 74.3866 61.6719H46.4751C46.1021 61.6719 45.7445 61.82 45.4807 62.0838C45.217 62.3475 45.0689 62.7052 45.0689 63.0781C45.0689 63.4511 45.217 63.8088 45.4807 64.0725C45.7445 64.3362 46.1021 64.4844 46.4751 64.4844H74.3866C74.7596 64.4844 75.1172 64.3362 75.381 64.0725C75.6447 63.8088 75.7928 63.4511 75.7928 63.0781ZM57.7031 72.4531H50.6678C50.2949 72.4531 49.9372 72.6013 49.6735 72.865C49.4098 73.1287 49.2616 73.4864 49.2616 73.8594C49.2616 74.2323 49.4098 74.59 49.6735 74.8537C49.9372 75.1175 50.2949 75.2656 50.6678 75.2656H57.7031C58.076 75.2656 58.4337 75.1175 58.6974 74.8537C58.9612 74.59 59.1093 74.2323 59.1093 73.8594C59.1093 73.4864 58.9612 73.1287 58.6974 72.865C58.4337 72.6013 58.076 72.4531 57.7031 72.4531Z" fill="#9747FF"/>
<path id="Vector_3" d="M112.938 47.4774C111.279 47.1222 109.547 47.3613 108.045 48.1529V15.5691C108.043 14.8489 107.898 14.1361 107.62 13.4718C107.342 12.8074 106.935 12.2045 106.423 11.6974C105.912 11.1904 105.305 10.7891 104.639 10.5167C103.972 10.2443 103.258 10.106 102.538 10.1098H75.2191C73.7894 7.06297 70.7969 5.19922 67.3441 5.19922C63.8913 5.19922 60.9016 7.06297 59.4707 10.1098H32.1517C31.4353 10.1075 30.7255 10.2473 30.0635 10.5211C29.4015 10.795 28.8004 11.1974 28.2949 11.7051C27.7895 12.2129 27.3898 12.8158 27.119 13.4791C26.8482 14.1423 26.7117 14.8527 26.7173 15.5691V64.7192H26.6992C12.5479 64.7192 1.03516 76.1966 1.03516 90.3477C1.03493 95.6798 2.69679 100.879 5.78951 105.223C8.88223 109.567 13.252 112.838 18.2908 114.583C23.3295 116.327 28.7868 116.457 33.9031 114.956C39.0194 113.454 43.5404 110.395 46.837 106.204H102.538C103.998 106.198 105.397 105.615 106.429 104.582C107.461 103.548 108.042 102.148 108.045 100.688V65.7861L115.499 60.8877C116.72 60.0849 117.675 58.9382 118.245 57.5924C118.814 56.2466 118.972 54.7622 118.698 53.3267C118.424 51.8913 117.731 50.5694 116.705 49.528C115.68 48.4867 114.369 47.7727 112.938 47.4762L112.938 47.4774ZM107.249 51.9889L108.989 54.6373L73.0968 78.2075L71.3556 75.5591L107.249 51.9889ZM89.2998 80.4223C88.5875 80.4165 87.8812 80.553 87.2222 80.8237C86.5633 81.0945 85.9651 81.494 85.4626 81.999C84.9601 82.5039 84.5635 83.1041 84.296 83.7644C84.0285 84.4246 83.8955 85.1316 83.9048 85.8439V92.1411H52.2972C52.3398 91.5369 52.363 90.9273 52.363 90.313C52.3599 85.6874 51.1077 81.1486 48.7389 77.1757C46.3701 73.2027 42.9725 69.9431 38.9048 67.741V24.7932C38.9176 24.6205 38.9967 24.4594 39.1256 24.3437C39.2545 24.228 39.4231 24.1666 39.5962 24.1723H44.9985V27.4367C45.0137 27.8185 45.1758 28.1797 45.4509 28.4449C45.726 28.7101 46.093 28.8588 46.4751 28.8598H88.2154C88.9919 28.8598 89.5298 28.2132 89.5298 27.4367V24.1723H95.0936C95.4463 24.1723 95.6235 24.4405 95.6235 24.7932V56.1854L68.5811 73.9794C68.3911 74.1107 68.2384 74.2892 68.1381 74.4973H68.1513L62.6987 84.8129C62.5842 85.0398 62.5289 85.292 62.5378 85.546C62.5467 85.8 62.6197 86.0477 62.7498 86.266C62.873 86.4756 63.0465 86.6511 63.2547 86.7767C63.4628 86.9022 63.699 86.9738 63.9419 86.9848H63.9447L75.936 86.5606V86.5588C76.1927 86.5502 76.4421 86.4713 76.657 86.3305L95.6235 73.8655V80.4223H89.2998ZM93.7954 83.2348L86.7173 90.3397V85.8439C86.7075 85.5009 86.7674 85.1594 86.8934 84.8402C87.0194 84.521 87.2089 84.2307 87.4503 83.9868C87.6917 83.7429 87.9801 83.5505 88.298 83.4212C88.6159 83.292 88.9567 83.2286 89.2998 83.2348H93.7954ZM66.3168 84.0015L69.5376 77.9145L73.4155 83.8159L66.3168 84.0015ZM102.538 12.9223C102.889 12.9181 103.237 12.9833 103.563 13.1142C103.889 13.2451 104.185 13.4392 104.436 13.6852C104.686 13.9311 104.886 14.2242 105.022 14.5476C105.159 14.8709 105.231 15.2181 105.233 15.5691V49.9536L98.436 54.339V24.7932C98.436 22.8896 96.9972 21.3598 95.0936 21.3598H89.5298V17.6152C89.5298 16.8388 88.9907 16.2036 88.2154 16.2036H76.1704V13.9323C76.1589 13.593 76.1197 13.2552 76.0532 12.9223H102.538ZM59.9788 19.0161C60.3533 19.018 60.7133 18.8719 60.9804 18.6095C61.2475 18.347 61.4001 17.9897 61.4048 17.6152V13.9323C61.4048 12.3472 62.0344 10.827 63.1553 9.7062C64.2761 8.58538 65.7962 7.9557 67.3813 7.9557C68.9664 7.9557 70.4866 8.58538 71.6074 9.7062C72.7282 10.827 73.3579 12.3472 73.3579 13.9323V17.6152C73.3521 17.7968 73.3827 17.9776 73.448 18.1471C73.5134 18.3165 73.612 18.4711 73.7382 18.6018C73.8644 18.7324 74.0155 18.8364 74.1826 18.9075C74.3497 18.9787 74.5293 19.0156 74.7109 19.0161H86.7173V26.0473H47.811V19.0161H59.9788ZM29.5298 15.5691C29.5237 15.222 29.5872 14.8771 29.7165 14.5549C29.8458 14.2327 30.0383 13.9396 30.2827 13.6929C30.527 13.4463 30.8183 13.251 31.1393 13.1187C31.4603 12.9863 31.8045 12.9196 32.1517 12.9223H58.6375C58.5991 13.2575 58.584 13.595 58.5923 13.9323V16.2036H46.4751C46.0941 16.2021 45.7275 16.3484 45.4521 16.6116C45.1767 16.8749 45.0142 17.2346 44.9985 17.6152V21.3598H39.5962C38.6775 21.3547 37.7939 21.7125 37.1377 22.3555C36.4815 22.9985 36.1058 23.8746 36.0923 24.7932V66.4283C33.9867 65.5978 31.7797 65.0519 29.5298 64.805V15.5691ZM43.8032 105.404L42.9794 104.591C42.714 104.33 42.356 104.185 41.9837 104.187C41.6114 104.188 41.2549 104.338 40.9922 104.601C40.7295 104.865 40.5819 105.222 40.5816 105.595C40.5813 105.967 40.7284 106.324 40.9907 106.589L41.8239 107.414C38.0138 110.776 33.1947 112.778 28.1235 113.104V111.928C28.1235 111.555 27.9754 111.198 27.7116 110.934C27.4479 110.67 27.0902 110.522 26.7173 110.522C26.3443 110.522 25.9866 110.67 25.7229 110.934C25.4592 111.198 25.311 111.555 25.311 111.928V113.104C20.235 112.778 15.4106 110.778 11.5938 107.416L12.4141 106.591C12.6778 106.327 12.8257 105.969 12.8254 105.596C12.8251 105.223 12.6765 104.865 12.4123 104.601C12.1481 104.337 11.79 104.189 11.4167 104.19C11.0434 104.19 10.6856 104.339 10.4219 104.603L9.59711 105.404C6.19509 101.606 4.18815 96.7631 3.90695 91.6723H5.08281C5.45577 91.6723 5.81346 91.5242 6.07718 91.2605C6.3409 90.9967 6.48906 90.6391 6.48906 90.2661C6.48906 89.8931 6.3409 89.5354 6.07718 89.2717C5.81346 89.008 5.45577 88.8598 5.08281 88.8598H3.90695C4.23308 83.7934 6.23436 78.9791 9.59594 75.1745L10.42 76.01C10.5499 76.1406 10.7043 76.2443 10.8743 76.3152C11.0443 76.3861 11.2266 76.4228 11.4107 76.4233C11.5949 76.4237 11.7774 76.3879 11.9477 76.3178C12.1181 76.2478 12.273 76.1448 12.4035 76.0149C12.5341 75.885 12.6378 75.7306 12.7087 75.5607C12.7796 75.3907 12.8163 75.2084 12.8168 75.0242C12.8172 74.84 12.7814 74.6575 12.7113 74.4872C12.6413 74.3168 12.5384 74.162 12.4084 74.0314L11.5938 73.2083C15.4106 69.8463 20.2351 67.8457 25.311 67.5202V68.6961C25.311 69.069 25.4592 69.4267 25.7229 69.6905C25.9866 69.9542 26.3443 70.1023 26.7173 70.1023C27.0902 70.1023 27.4479 69.9542 27.7116 69.6905C27.9754 69.4267 28.1235 69.069 28.1235 68.6961V67.5202C33.1942 67.8462 38.0129 69.8472 41.823 73.209L40.9945 74.0328C40.8621 74.1627 40.7567 74.3175 40.6845 74.4884C40.6123 74.6592 40.5746 74.8426 40.5736 75.0281C40.5726 75.2136 40.6084 75.3974 40.6788 75.5689C40.7493 75.7405 40.853 75.8965 40.984 76.0277C41.115 76.159 41.2706 76.2631 41.4421 76.3339C41.6135 76.4047 41.7972 76.4409 41.9827 76.4403C42.1682 76.4398 42.3517 76.4025 42.5227 76.3306C42.6936 76.2588 42.8487 76.1538 42.9789 76.0217L43.8025 75.1747C47.164 78.9792 49.1652 83.7935 49.4912 88.8598H48.3152C47.9422 88.8598 47.5845 89.008 47.3208 89.2717C47.0571 89.5354 46.9089 89.8931 46.9089 90.2661C46.9089 90.6391 47.0571 90.9967 47.3208 91.2605C47.5845 91.5242 47.9422 91.6723 48.3152 91.6723H49.4912C49.2106 96.7628 47.2044 101.606 43.8032 105.404ZM105.233 100.688C105.231 101.403 104.947 102.088 104.442 102.594C103.937 103.1 103.253 103.387 102.538 103.391H48.772C50.3212 100.789 51.3945 97.932 51.9414 94.9536H84.4155C84.924 94.9515 85.427 94.8489 85.8957 94.6515C86.3644 94.4542 86.7893 94.166 87.1462 93.8037L97.3598 83.5255C97.7121 83.1631 97.9888 82.7341 98.1735 82.2637C98.3583 81.7932 98.4475 81.2907 98.436 80.7854V72.0198L105.233 67.6341V100.688ZM76.3827 83.2079L74.6416 80.558L110.532 56.9879L112.274 59.6387L76.3827 83.2079ZM114.584 58.0313L109.641 50.5079C110.628 50.0848 111.732 50.0223 112.76 50.3316C113.788 50.6408 114.675 51.302 115.264 52.1992C115.854 53.0964 116.109 54.1725 115.984 55.2388C115.86 56.3051 115.364 57.2937 114.584 58.0313Z" fill="#9747FF"/>
<path id="Vector_4" d="M42.4219 27.2578C42.0489 27.2578 41.6912 27.406 41.4275 27.6697C41.1638 27.9334 41.0156 28.2911 41.0156 28.6641V29.3637C41.0156 29.7366 41.1638 30.0943 41.4275 30.358C41.6912 30.6218 42.0489 30.7699 42.4219 30.7699C42.7948 30.7699 43.1525 30.6218 43.4162 30.358C43.68 30.0943 43.8281 29.7366 43.8281 29.3637V28.6641C43.8281 28.2911 43.68 27.9334 43.4162 27.6697C43.1525 27.406 42.7948 27.2578 42.4219 27.2578ZM42.4219 32.4832C42.0489 32.4832 41.6912 32.6314 41.4275 32.8951C41.1638 33.1588 41.0156 33.5165 41.0156 33.8895V54.2023C41.0156 54.5752 41.1638 54.9329 41.4275 55.1966C41.6912 55.4604 42.0489 55.6085 42.4219 55.6085C42.7948 55.6085 43.1525 55.4604 43.4162 55.1966C43.68 54.9329 43.8281 54.5752 43.8281 54.2023V33.8895C43.8281 33.5165 43.68 33.1588 43.4162 32.8951C43.1525 32.6314 42.7948 32.4832 42.4219 32.4832Z" fill="#9747FF"/>
</g>
</g>
</svg>
