<svg width="16" height="12" viewBox="0 0 16 12" fill="none" xmlns="http://www.w3.org/2000/svg">
<path d="M1.61342 6.47806C1.52262 6.3343 1.47723 6.26242 1.45182 6.15155C1.43273 6.06827 1.43273 5.93694 1.45182 5.85366C1.47723 5.74279 1.52262 5.67091 1.61341 5.52715C2.36369 4.33916 4.59693 1.33594 8.00027 1.33594C11.4036 1.33594 13.6369 4.33916 14.3871 5.52715C14.4779 5.67091 14.5233 5.74279 14.5487 5.85366C14.5678 5.93694 14.5678 6.06827 14.5487 6.15155C14.5233 6.26242 14.4779 6.3343 14.3871 6.47806C13.6369 7.66604 11.4036 10.6693 8.00027 10.6693C4.59693 10.6693 2.36369 7.66604 1.61342 6.47806Z" stroke="#344054" stroke-width="1.5" stroke-linecap="round" stroke-linejoin="round"/>
<path d="M8.00027 8.0026C9.10484 8.0026 10.0003 7.10717 10.0003 6.0026C10.0003 4.89803 9.10484 4.0026 8.00027 4.0026C6.8957 4.0026 6.00027 4.89803 6.00027 6.0026C6.00027 7.10717 6.8957 8.0026 8.00027 8.0026Z" stroke="#344054" stroke-width="1.5" stroke-linecap="round" stroke-linejoin="round"/>
</svg>
