<svg width="19" height="18" viewBox="0 0 19 18" fill="none" xmlns="http://www.w3.org/2000/svg">
<g clip-path="url(#clip0_182_13120)">
<path d="M18.4008 9.0002C18.4008 4.14009 14.4609 0.200195 9.60078 0.200195C4.74067 0.200195 0.800781 4.14009 0.800781 9.0002C0.800781 13.3925 4.0188 17.0331 8.22578 17.6933V11.5439H5.99141V9.0002H8.22578V7.06145C8.22578 4.85595 9.53959 3.6377 11.5497 3.6377C12.5122 3.6377 13.5195 3.80957 13.5195 3.80957V5.9752H12.4099C11.3168 5.9752 10.9758 6.65359 10.9758 7.3502V9.0002H13.4164L13.0262 11.5439H10.9758V17.6933C15.1828 17.0331 18.4008 13.3925 18.4008 9.0002Z" fill="white"/>
</g>
<defs>
<clipPath id="clip0_182_13120">
<rect width="17.6" height="17.6" fill="white" transform="translate(0.800781 0.200195)"/>
</clipPath>
</defs>
</svg>
