<svg width="15" height="14" viewBox="0 0 15 14" fill="none" xmlns="http://www.w3.org/2000/svg">
<path d="M2.11692 3.04179C1.6442 2.51347 1.40785 2.2493 1.39893 2.0248C1.39119 1.82977 1.475 1.64233 1.6255 1.51805C1.79876 1.375 2.15322 1.375 2.86216 1.375H12.139C12.8479 1.375 13.2024 1.375 13.3756 1.51805C13.5262 1.64233 13.61 1.82977 13.6022 2.0248C13.5933 2.2493 13.3569 2.51347 12.8842 3.0418L9.31783 7.02777C9.2236 7.13309 9.17649 7.18574 9.14289 7.24567C9.1131 7.29882 9.09123 7.35605 9.078 7.41553C9.06307 7.48259 9.06307 7.55325 9.06307 7.69456V11.0365C9.06307 11.1587 9.06307 11.2198 9.04336 11.2727C9.02594 11.3193 8.99761 11.3612 8.96073 11.3947C8.919 11.4326 8.86225 11.4553 8.74877 11.5007L6.62377 12.3507C6.39405 12.4426 6.2792 12.4886 6.18699 12.4694C6.10636 12.4526 6.03561 12.4047 5.99011 12.3361C5.93807 12.2576 5.93807 12.1339 5.93807 11.8865V7.69456C5.93807 7.55325 5.93807 7.48259 5.92315 7.41553C5.90991 7.35605 5.88805 7.29882 5.85825 7.24567C5.82466 7.18574 5.77754 7.13309 5.68331 7.02777L2.11692 3.04179Z" stroke="#93989A" stroke-width="1.4" stroke-linecap="round" stroke-linejoin="round"/>
</svg>
