<svg width="16" height="16" viewBox="0 0 16 16" fill="none" xmlns="http://www.w3.org/2000/svg">
<path d="M3.22229 9.09132H12.9421C13.2305 9.09132 13.3747 9.09132 13.4571 9.03084C13.5289 8.97811 13.5747 8.89717 13.583 8.80846C13.5925 8.70673 13.5183 8.58307 13.3699 8.33578L12.1065 6.23006C12.0505 6.13674 12.0225 6.09008 12.0115 6.04027C12.0019 5.99621 12.0019 5.95058 12.0115 5.90652C12.0225 5.85671 12.0505 5.81005 12.1065 5.71673L13.3699 3.611C13.5183 3.36371 13.5925 3.24006 13.583 3.13832C13.5747 3.04961 13.5289 2.96868 13.4571 2.91594C13.3747 2.85547 13.2305 2.85547 12.9421 2.85547H3.22229L3.22229 14.08" stroke="#384250" stroke-width="1.4966" stroke-linecap="round" stroke-linejoin="round"/>
</svg>
