<svg width="24" height="25" viewBox="0 0 24 25" fill="none" xmlns="http://www.w3.org/2000/svg">
<path d="M7.77204 3.39609L8.84904 3.05209C9.85704 2.73009 10.935 3.25109 11.367 4.26909L12.227 6.29709C12.602 7.18009 12.394 8.21909 11.713 8.86509L9.82004 10.6631C9.93671 11.7391 10.298 12.7981 10.904 13.8401C11.4803 14.8479 12.2525 15.7303 13.175 16.4351L15.451 15.6751C16.313 15.3881 17.252 15.7191 17.781 16.4961L19.013 18.3061C19.629 19.2101 19.518 20.4561 18.755 21.2221L17.937 22.0431C17.123 22.8601 15.961 23.1571 14.885 22.8211C12.3464 22.0291 10.012 19.6781 7.88204 15.7681C5.74937 11.8514 4.99671 8.52875 5.62404 5.80009C5.88804 4.65209 6.70604 3.73709 7.77404 3.39609" fill="#FFC107"/>
</svg>
