<svg width="22" height="21" viewBox="0 0 22 21" fill="none" xmlns="http://www.w3.org/2000/svg">
<path d="M8.86515 5.74218V8.81834H10.0956C10.5487 8.81834 10.9159 9.1856 10.9159 9.63866C10.9159 10.0917 10.5487 10.459 10.0956 10.459H8.86515V16.8574C8.86515 17.3105 8.49789 17.6777 8.04483 17.6777C7.59178 17.6777 7.22452 17.3105 7.22452 16.8574V10.459H5.95304C5.49998 10.459 5.13273 10.0917 5.13273 9.63866C5.13273 9.1856 5.49998 8.81834 5.95304 8.81834H7.22452V5.74218C7.22452 4.38522 8.3285 3.28124 9.68546 3.28124C11.0424 3.28124 12.1464 4.38522 12.1464 5.74218C12.1464 6.19524 11.7791 6.56249 11.3261 6.56249C10.873 6.56249 10.5058 6.19524 10.5058 5.74218C10.5058 5.28986 10.1378 4.92187 9.68546 4.92187C9.23314 4.92187 8.86515 5.28986 8.86515 5.74218ZM20.3896 14.3965C20.8427 14.3965 21.2099 14.0292 21.2099 13.5761V3.28124C21.2099 1.47197 19.738 0 17.9287 0H3.49121C1.68193 0 0.209961 1.47197 0.209961 3.28124V17.7187C0.209961 19.528 1.68193 21 3.49121 21H17.9287C19.738 21 21.2099 19.528 21.2099 17.7187C21.2099 17.2657 20.8427 16.8984 20.3896 16.8984C19.9366 16.8984 19.5693 17.2657 19.5693 17.7187C19.5693 18.6234 18.8333 19.3593 17.9287 19.3593H3.49121C2.58657 19.3593 1.85058 18.6234 1.85058 17.7187V3.28124C1.85058 2.37661 2.58657 1.64062 3.49121 1.64062H17.9287C18.8333 1.64062 19.5693 2.37661 19.5693 3.28124V13.5761C19.5693 14.0292 19.9366 14.3965 20.3896 14.3965ZM15.9386 12.0295C15.5828 11.7491 15.0671 11.8103 14.7866 12.1661L13.7663 13.4609L12.746 12.1661C12.4656 11.8103 11.9498 11.7491 11.594 12.0295C11.2381 12.31 11.177 12.8257 11.4574 13.1816L12.7219 14.7861L11.4574 16.3907C11.177 16.7466 11.2381 17.2623 11.594 17.5428C11.7444 17.6613 11.9234 17.7188 12.1011 17.7188C12.3438 17.7188 12.5841 17.6116 12.746 17.4062L13.7663 16.1114L14.7866 17.4062C14.9485 17.6116 15.1888 17.7188 15.4315 17.7188C15.6092 17.7188 15.7882 17.6613 15.9386 17.5428C16.2945 17.2623 16.3556 16.7466 16.0752 16.3907L14.8107 14.7861L16.0752 13.1816C16.3556 12.8257 16.2945 12.3099 15.9386 12.0295Z" fill="#0B003A"/>
</svg>
