<svg width="25" height="25" viewBox="0 0 25 25" fill="none" xmlns="http://www.w3.org/2000/svg">
<path d="M12.7285 12.5H24.7285C24.7285 10.25 24.1285 8.3 23.0785 6.5L12.7285 12.5Z" fill="#F5AC43"/>
<path d="M12.7289 12.5L2.37891 18.5C3.42891 20.3 4.92891 21.8 6.72891 22.85L12.7289 12.5Z" fill="#515EBB"/>
<path d="M12.7285 12.5V24.5C14.9785 24.5 16.9285 23.9 18.7285 22.85L12.7285 12.5Z" fill="#D0449A"/>
<path d="M6.72852 22.85C8.52852 23.9 10.4785 24.5 12.7285 24.5V12.5L6.72852 22.85Z" fill="#7C39B1"/>
<path d="M23.0785 6.50039C22.0285 4.70039 20.5285 3.20039 18.7285 2.15039L12.7285 12.5004L23.0785 6.50039Z" fill="#F8CE33"/>
<path d="M12.7285 12.5H0.728516C0.728516 14.75 1.32852 16.7 2.37852 18.5L12.7285 12.5Z" fill="#177AC3"/>
<path d="M12.7285 12.5L18.7285 22.85C20.5285 21.8 22.0285 20.3 23.0785 18.5L12.7285 12.5Z" fill="#FE4A29"/>
<path d="M12.7285 12.5L23.0785 18.5C24.1285 16.7 24.7285 14.75 24.7285 12.5H12.7285Z" fill="#F97932"/>
<path d="M12.7285 12.5L2.37852 6.5C1.32852 8.3 0.728516 10.25 0.728516 12.5H12.7285Z" fill="#1AB3D0"/>
<path d="M12.7285 12.5L18.7285 2.15C16.9285 1.1 14.9785 0.5 12.7285 0.5V12.5Z" fill="#FCF222"/>
<path d="M12.7285 0.5C10.4785 0.5 8.52852 1.1 6.72852 2.15L12.7285 12.5V0.5Z" fill="#89D31C"/>
<path d="M12.7289 12.5004L6.72891 2.15039C4.92891 3.20039 3.42891 4.70039 2.37891 6.50039L12.7289 12.5004Z" fill="#33B634"/>
</svg>
