<svg width="18" height="18" viewBox="0 0 18 18" fill="none" xmlns="http://www.w3.org/2000/svg">
<g clip-path="url(#clip0_1_51371)">
<path d="M9.30467 15.6245C9.06262 15.6245 8.82934 15.5368 8.64748 15.3776C7.96071 14.7771 7.29861 14.2127 6.71443 13.715L6.71144 13.7124C4.99876 12.2529 3.5198 10.9924 2.49077 9.7508C1.34049 8.36282 0.804688 7.04671 0.804688 5.60899C0.804688 4.21214 1.28367 2.92342 2.1533 1.98013C3.03331 1.02567 4.24081 0.5 5.55375 0.5C6.53507 0.5 7.43374 0.810249 8.22481 1.42205C8.62401 1.73084 8.98585 2.10879 9.30467 2.54962C9.62359 2.10879 9.98533 1.73084 10.3847 1.42205C11.1757 0.810249 12.0744 0.5 13.0557 0.5C14.3685 0.5 15.5762 1.02567 16.4562 1.98013C17.3258 2.92342 17.8047 4.21214 17.8047 5.60899C17.8047 7.04668 17.269 8.36278 16.1187 9.75067C15.0896 10.9924 13.6108 12.2527 11.8984 13.7121C11.3132 14.2107 10.6501 14.7759 9.96173 15.3778C9.77982 15.5369 9.54634 15.6246 9.30467 15.6245ZM5.55375 1.49583C4.52227 1.49583 3.57469 1.90751 2.88532 2.65508C2.18574 3.41397 1.80038 4.46298 1.80038 5.60899C1.80038 6.81818 2.24978 7.8996 3.25743 9.11543C4.23134 10.2906 5.67996 11.5251 7.35724 12.9545L7.36033 12.9571C7.9467 13.4568 8.61142 14.0234 9.30324 14.6283C9.99921 14.0222 10.665 13.4548 11.2525 12.9543C12.9296 11.5248 14.3781 10.2906 15.352 9.11543C16.3596 7.8996 16.809 6.81818 16.809 5.60899C16.809 4.46295 16.4236 3.41393 15.724 2.65508C15.0348 1.90751 14.0871 1.49583 13.0557 1.49583C12.3001 1.49583 11.6063 1.73605 10.9937 2.20969C10.4479 2.632 10.0676 3.16584 9.84458 3.53938C9.72997 3.73145 9.52816 3.8461 9.30467 3.8461C9.08118 3.8461 8.87937 3.73145 8.76472 3.53938C8.54193 3.16584 8.16162 2.632 7.61556 2.20969C7.00303 1.73605 6.30926 1.49583 5.55375 1.49583Z" fill="black"/>
</g>
<defs>
<clipPath id="clip0_1_51371">
<rect width="17" height="17" fill="white" transform="translate(0.804688 0.5)"/>
</clipPath>
</defs>
</svg>
