<svg width="18" height="18" viewBox="0 0 18 18" fill="none" xmlns="http://www.w3.org/2000/svg">
<g clip-path="url(#clip0_182_13121)">
<path d="M9.19844 1.78488C11.5497 1.78488 11.8281 1.7952 12.7528 1.83645C13.6122 1.87426 14.0763 2.01863 14.3856 2.13895C14.7947 2.29707 15.0903 2.48957 15.3963 2.79551C15.7056 3.10488 15.8947 3.39707 16.0528 3.80613C16.1731 4.11551 16.3175 4.58301 16.3553 5.43894C16.3966 6.36707 16.4069 6.64551 16.4069 8.99332C16.4069 11.3446 16.3966 11.623 16.3553 12.5477C16.3175 13.4071 16.1731 13.8711 16.0528 14.1805C15.8947 14.5896 15.7022 14.8852 15.3963 15.1911C15.0869 15.5005 14.7947 15.6896 14.3856 15.8477C14.0763 15.968 13.6088 16.1124 12.7528 16.1502C11.8247 16.1914 11.5463 16.2018 9.19844 16.2018C6.84719 16.2018 6.56875 16.1914 5.64406 16.1502C4.78469 16.1124 4.32063 15.968 4.01125 15.8477C3.60219 15.6896 3.30656 15.4971 3.00063 15.1911C2.69125 14.8818 2.50219 14.5896 2.34406 14.1805C2.22375 13.8711 2.07938 13.4036 2.04156 12.5477C2.00031 11.6196 1.99 11.3411 1.99 8.99332C1.99 6.64207 2.00031 6.36363 2.04156 5.43894C2.07938 4.57957 2.22375 4.11551 2.34406 3.80613C2.50219 3.39707 2.69469 3.10145 3.00063 2.79551C3.31 2.48613 3.60219 2.29707 4.01125 2.13895C4.32063 2.01863 4.78813 1.87426 5.64406 1.83645C6.56875 1.7952 6.84719 1.78488 9.19844 1.78488ZM9.19844 0.200195C6.80938 0.200195 6.51031 0.210508 5.57188 0.251758C4.63688 0.293008 3.99406 0.444258 3.43719 0.66082C2.85625 0.887695 2.36469 1.18676 1.87656 1.67832C1.385 2.16645 1.08594 2.65801 0.859063 3.23551C0.6425 3.79582 0.49125 4.43519 0.45 5.37019C0.40875 6.31207 0.398438 6.61113 0.398438 9.00019C0.398438 11.3893 0.40875 11.6883 0.45 12.6268C0.49125 13.5618 0.6425 14.2046 0.859063 14.7614C1.08594 15.3424 1.385 15.8339 1.87656 16.3221C2.36469 16.8102 2.85625 17.1127 3.43375 17.3361C3.99406 17.5527 4.63344 17.7039 5.56844 17.7452C6.50688 17.7864 6.80594 17.7968 9.195 17.7968C11.5841 17.7968 11.8831 17.7864 12.8216 17.7452C13.7566 17.7039 14.3994 17.5527 14.9563 17.3361C15.5338 17.1127 16.0253 16.8102 16.5134 16.3221C17.0016 15.8339 17.3041 15.3424 17.5275 14.7649C17.7441 14.2046 17.8953 13.5652 17.9366 12.6302C17.9778 11.6918 17.9881 11.3927 17.9881 9.00363C17.9881 6.61457 17.9778 6.31551 17.9366 5.37707C17.8953 4.44207 17.7441 3.79926 17.5275 3.24238C17.3109 2.65801 17.0119 2.16645 16.5203 1.67832C16.0322 1.1902 15.5406 0.887695 14.9631 0.664258C14.4028 0.447695 13.7634 0.296445 12.8284 0.255195C11.8866 0.210508 11.5875 0.200195 9.19844 0.200195Z" fill="white"/>
<path d="M9.2 4.47998C6.70438 4.47998 4.67969 6.50467 4.67969 9.00029C4.67969 11.4959 6.70438 13.5206 9.2 13.5206C11.6956 13.5206 13.7203 11.4959 13.7203 9.00029C13.7203 6.50467 11.6956 4.47998 9.2 4.47998ZM9.2 11.9325C7.58094 11.9325 6.26781 10.6194 6.26781 9.00029C6.26781 7.38123 7.58094 6.06811 9.2 6.06811C10.8191 6.06811 12.1322 7.38123 12.1322 9.00029C12.1322 10.6194 10.8191 11.9325 9.2 11.9325Z" fill="white"/>
<path d="M14.9544 4.30092C14.9544 4.88529 14.48 5.35623 13.8991 5.35623C13.3147 5.35623 12.8438 4.88186 12.8438 4.30092C12.8438 3.71654 13.3181 3.24561 13.8991 3.24561C14.48 3.24561 14.9544 3.71998 14.9544 4.30092Z" fill="white"/>
</g>
<defs>
<clipPath id="clip0_182_13121">
<rect width="17.6" height="17.6" fill="white" transform="translate(0.398438 0.200195)"/>
</clipPath>
</defs>
</svg>
