<svg width="20" height="20" viewBox="0 0 20 20" fill="none" xmlns="http://www.w3.org/2000/svg">
<path d="M3.56016 17.2733L9.05727 11.7761C9.38729 11.4461 9.55229 11.2811 9.74257 11.2193C9.90994 11.1649 10.0902 11.1649 10.2576 11.2193C10.4479 11.2811 10.6129 11.4461 10.9429 11.7761L16.4033 17.2366M11.6667 12.5L14.0573 10.1095C14.3873 9.77946 14.5523 9.61445 14.7426 9.55263C14.9099 9.49825 15.0902 9.49825 15.2576 9.55263C15.4479 9.61445 15.6129 9.77946 15.9429 10.1095L18.3334 12.5M8.33342 7.5C8.33342 8.42047 7.58722 9.16667 6.66675 9.16667C5.74627 9.16667 5.00008 8.42047 5.00008 7.5C5.00008 6.57953 5.74627 5.83333 6.66675 5.83333C7.58722 5.83333 8.33342 6.57953 8.33342 7.5ZM5.66675 17.5H14.3334C15.7335 17.5 16.4336 17.5 16.9684 17.2275C17.4388 16.9878 17.8212 16.6054 18.0609 16.135C18.3334 15.6002 18.3334 14.9001 18.3334 13.5V6.5C18.3334 5.09987 18.3334 4.3998 18.0609 3.86502C17.8212 3.39462 17.4388 3.01217 16.9684 2.77248C16.4336 2.5 15.7335 2.5 14.3334 2.5H5.66675C4.26662 2.5 3.56655 2.5 3.03177 2.77248C2.56137 3.01217 2.17892 3.39462 1.93923 3.86502C1.66675 4.3998 1.66675 5.09987 1.66675 6.5V13.5C1.66675 14.9001 1.66675 15.6002 1.93923 16.135C2.17892 16.6054 2.56137 16.9878 3.03177 17.2275C3.56655 17.5 4.26662 17.5 5.66675 17.5Z" stroke="#F68500" stroke-width="1.66667" stroke-linecap="round" stroke-linejoin="round"/>
</svg>
