<svg width="15" height="16" viewBox="0 0 15 16" fill="none" xmlns="http://www.w3.org/2000/svg">
<path d="M4.375 7.49609V5.62109C4.375 3.8952 5.77411 2.49609 7.5 2.49609C9.01185 2.49609 10.2729 3.56969 10.5625 4.99609M4.875 13.7461H10.125C11.1751 13.7461 11.7001 13.7461 12.1012 13.5417C12.454 13.362 12.7409 13.0751 12.9206 12.7223C13.125 12.3212 13.125 11.7962 13.125 10.7461V10.4961C13.125 9.446 13.125 8.92095 12.9206 8.51986C12.7409 8.16706 12.454 7.88022 12.1012 7.70046C11.7001 7.49609 11.1751 7.49609 10.125 7.49609H4.875C3.8249 7.49609 3.29985 7.49609 2.89877 7.70046C2.54596 7.88022 2.25913 8.16706 2.07936 8.51986C1.875 8.92095 1.875 9.446 1.875 10.4961V10.7461C1.875 11.7962 1.875 12.3212 2.07936 12.7223C2.25913 13.0751 2.54596 13.362 2.89877 13.5417C3.29985 13.7461 3.8249 13.7461 4.875 13.7461Z" stroke="#EF9F28" stroke-linecap="round" stroke-linejoin="round"/>
</svg>
