<svg width="79" height="22" viewBox="0 0 79 22" fill="none" xmlns="http://www.w3.org/2000/svg">
<path d="M2.60182 16.0651C2.98833 16.9779 3.47109 17.6803 4.05011 18.1691C4.62913 18.6593 5.26679 18.903 5.96462 18.903C6.66245 18.903 7.26854 18.6909 7.73025 18.2668C8.19196 17.8427 8.42206 17.3118 8.42206 16.6711C8.42206 16.1538 8.24761 15.6846 7.89869 15.265C7.54978 14.8469 6.98129 14.4197 6.19021 13.9866L5.44125 13.5775C3.72676 12.6646 2.69656 12.0571 2.34765 11.7548C1.63177 11.1336 1.12645 10.514 0.82867 9.89739C0.532394 9.28078 0.383505 8.55738 0.383505 7.72871C0.383505 5.91195 0.992601 4.42606 2.2123 3.27254C3.43199 2.11902 5.02015 1.5415 6.97978 1.5415C8.35438 1.5415 9.55904 1.85432 10.5953 2.48147C11.6315 3.10861 12.4406 4.00948 13.0241 5.18706L10.8765 6.68498C10.499 5.78111 10.0223 5.10284 9.44324 4.65015C8.86422 4.19747 8.17391 3.97188 7.37382 3.97188C6.70457 3.97188 6.15262 4.17942 5.71347 4.593C5.27582 5.00809 5.05624 5.52545 5.05624 6.14658C5.05624 6.67446 5.23672 7.13466 5.60067 7.53019C5.96312 7.92573 6.66245 8.38744 7.69867 8.91382L8.05209 9.0973C9.98315 10.0583 11.1457 10.7035 11.5412 11.0329C12.2376 11.6074 12.7399 12.212 13.0452 12.8481C13.3505 13.4843 13.5039 14.2257 13.5039 15.0725C13.5039 16.9283 12.8572 18.4398 11.5623 19.6068C10.2674 20.7754 8.58449 21.3589 6.51206 21.3589C5.03369 21.3589 3.72676 21.0341 2.59279 20.3844C1.45732 19.7347 0.594056 18.8158 0 17.6292L2.59881 16.062L2.60182 16.0651Z" fill="white"/>
<path d="M26.1172 17.7465C25.5893 18.9151 24.8794 19.8039 23.9846 20.416C23.0897 21.0281 22.049 21.3334 20.8624 21.3334C19.0351 21.3334 17.5447 20.7168 16.3912 19.4836C15.2377 18.2504 14.6602 16.6487 14.6602 14.6815C14.6602 12.7144 15.2557 11.0871 16.4468 9.82979C17.638 8.5725 19.1464 7.94385 20.9737 7.94385C22.2355 7.94385 23.2898 8.21456 24.138 8.75598C24.9862 9.2974 25.5983 10.096 25.9743 11.1502L24.2087 12.1669C24.0117 11.3849 23.7124 10.7998 23.3123 10.4088C22.9123 10.0178 22.4205 9.82227 21.837 9.82227C20.9617 9.82227 20.2909 10.2298 19.8247 11.045C19.3585 11.8601 19.1254 13.0437 19.1254 14.5973C19.1254 16.2636 19.3224 17.4773 19.7179 18.2338C20.1134 18.9918 20.7436 19.3708 21.6114 19.3708C22.252 19.3708 22.8356 19.1407 23.3635 18.679C23.8913 18.2173 24.2718 17.5961 24.508 16.8141L26.1187 17.7465H26.1172Z" fill="white"/>
<path d="M27.9375 20.8686V0.640625H32.0192V12.6481H35.0286V8.33929H39.1103V20.8686H35.0286V14.6814H32.0192V20.8686H27.9375Z" fill="white"/>
<path d="M44.7731 20.8686C43.8031 20.8686 43.1188 20.6551 42.7173 20.2265C42.3172 19.7978 42.1172 19.0564 42.1172 18.0021V11.2073C42.1172 10.1531 42.3172 9.41163 42.7173 8.98301C43.1173 8.55438 43.8031 8.34082 44.7731 8.34082H50.5934V10.2192H47.4998C46.9824 10.2192 46.635 10.314 46.4621 10.502C46.2876 10.69 46.2004 11.0629 46.2004 11.6179V13.6663H50.1272V15.5447H46.2004V17.6352C46.2004 18.1811 46.2846 18.5436 46.4545 18.7225C46.6245 18.9015 46.9719 18.9902 47.4998 18.9902H50.7904V20.8686H44.7731Z" fill="white"/>
<path d="M52.85 20.8686V18.9902H56.1828C56.9543 18.9902 57.4942 18.8849 57.801 18.6729C58.1063 18.4608 58.2597 18.1059 58.2597 17.6066C58.2597 16.9659 57.6326 16.4576 56.3813 16.0816C56.0038 15.9688 55.7075 15.8801 55.491 15.8139C54.2577 15.4093 53.4125 14.9521 52.9553 14.4438C52.4981 13.9355 52.2695 13.2437 52.2695 12.3669C52.2695 11.0584 52.7012 10.0598 53.5614 9.37252C54.4232 8.68522 55.6729 8.34082 57.3122 8.34082H60.5758V10.2192H57.7499C57.2882 10.2192 56.9257 10.302 56.6625 10.4659C56.3993 10.6313 56.267 10.8599 56.267 11.1517C56.267 11.669 56.8129 12.0977 57.9063 12.4376C58.1514 12.5218 58.3349 12.5834 58.4567 12.621C59.7937 13.0542 60.6976 13.549 61.1683 14.1039C61.6391 14.6604 61.8752 15.4409 61.8752 16.4486C61.8752 17.8232 61.4451 18.9045 60.5833 19.6911C59.7215 20.4776 58.5319 20.8701 57.016 20.8701H52.8485L52.85 20.8686Z" fill="white"/>
<path d="M65.7832 20.8687V10.487H62.4219V8.33936H73.2277V10.487H69.8664V20.8687H65.7847H65.7832Z" fill="white"/>
<path d="M74.7812 20.8687V8.33936H78.8629V20.8687H74.7812Z" fill="white"/>
<path d="M74.7202 4.30387C74.7202 3.71132 74.9293 3.20449 75.3489 2.7849C75.7685 2.3653 76.2693 2.15625 76.8528 2.15625C77.4364 2.15625 77.9642 2.36379 78.3778 2.77738C78.7914 3.19247 78.999 3.70079 78.999 4.30237C78.999 4.90394 78.7899 5.40025 78.3703 5.81383C77.9507 6.22892 77.4454 6.43496 76.8513 6.43496C76.2573 6.43496 75.7655 6.2259 75.3474 5.80631C74.9278 5.38671 74.7188 4.88589 74.7188 4.30237L74.7202 4.30387Z" fill="#EF9F28"/>
</svg>
