<svg width="119" height="32" viewBox="0 0 119 32" fill="none" xmlns="http://www.w3.org/2000/svg">
<path d="M3.893 23.5787C4.47133 24.9446 5.19367 25.9955 6.06003 26.7269C6.92639 27.4605 7.88051 27.825 8.92465 27.825C9.96878 27.825 10.8757 27.5077 11.5665 26.8731C12.2573 26.2386 12.6016 25.4442 12.6016 24.4856C12.6016 23.7115 12.3406 23.0094 11.8185 22.3816C11.2965 21.756 10.4458 21.1169 9.26219 20.4688L8.14155 19.8567C5.57622 18.4908 4.03477 17.5817 3.5127 17.1294C2.44157 16.2 1.68547 15.2729 1.23991 14.3503C0.796601 13.4276 0.573825 12.3453 0.573825 11.1054C0.573825 8.387 1.48519 6.16372 3.31018 4.43774C5.13516 2.71177 7.51147 1.84766 10.4436 1.84766C12.5004 1.84766 14.3028 2.31572 15.8533 3.25409C17.4037 4.19246 18.6144 5.54039 19.4875 7.30237L16.2741 9.54365C15.7093 8.19123 14.9959 7.17635 14.1296 6.49902C13.2632 5.82168 12.2303 5.48413 11.0332 5.48413C10.0318 5.48413 9.20594 5.79467 8.54885 6.4135C7.89402 7.03458 7.56547 7.80869 7.56547 8.73806C7.56547 9.52791 7.83551 10.2165 8.38008 10.8083C8.9224 11.4001 9.96878 12.091 11.5192 12.8786L12.0481 13.1531C14.9374 14.5911 16.6769 15.5564 17.2687 16.0492C18.3106 16.9089 19.0622 17.8135 19.519 18.7654C19.9758 19.7172 20.2054 20.8266 20.2054 22.0935C20.2054 24.8704 19.2377 27.1319 17.3002 28.8782C15.3627 30.6266 12.8447 31.4997 9.74376 31.4997C7.53172 31.4997 5.57622 31.0137 3.8795 30.0416C2.18053 29.0694 0.888865 27.6945 0 25.919L3.8885 23.5742L3.893 23.5787Z" fill="#007AB6"/>
<path d="M39.0783 26.0932C38.2884 27.8416 37.2263 29.1716 35.8873 30.0874C34.5484 31.0033 32.9912 31.4601 31.2157 31.4601C28.4816 31.4601 26.2516 30.5375 24.5256 28.6923C22.7997 26.847 21.9355 24.4505 21.9355 21.5071C21.9355 18.5637 22.8267 16.1289 24.6089 14.2477C26.3911 12.3664 28.6482 11.4258 31.3823 11.4258C33.2703 11.4258 34.8477 11.8308 36.1169 12.6409C37.386 13.451 38.3019 14.6459 38.8645 16.2234L36.2226 17.7446C35.9279 16.5744 35.48 15.6991 34.8815 15.114C34.2829 14.5289 33.547 14.2364 32.6739 14.2364C31.3643 14.2364 30.3606 14.8462 29.663 16.0659C28.9655 17.2855 28.6167 19.0565 28.6167 21.3811C28.6167 23.8744 28.9114 25.6904 29.5033 26.8223C30.0951 27.9564 31.038 28.5235 32.3364 28.5235C33.295 28.5235 34.1681 28.1792 34.958 27.4884C35.7478 26.7975 36.3172 25.8682 36.6705 24.698L39.0805 26.0932H39.0783Z" fill="#007AB6"/>
<path d="M41.8008 30.7664V0.5H47.9081V18.4663H52.4109V12.0192H58.5182V30.7664H52.4109V21.5087H47.9081V30.7664H41.8008Z" fill="#007AB6"/>
<path d="M66.9887 30.7644C65.5372 30.7644 64.5133 30.4449 63.9125 29.8036C63.3139 29.1622 63.0146 28.0528 63.0146 26.4754V16.3086C63.0146 14.7311 63.3139 13.6217 63.9125 12.9804C64.5111 12.3391 65.5372 12.0195 66.9887 12.0195H75.6973V14.8301H71.0684C70.2943 14.8301 69.7745 14.9719 69.5157 15.2532C69.2547 15.5345 69.1242 16.0926 69.1242 16.9229V19.9878H74.9997V22.7984H69.1242V25.9263C69.1242 26.7432 69.2502 27.2855 69.5045 27.5533C69.7588 27.8211 70.2786 27.9538 71.0684 27.9538H75.9921V30.7644H66.9887Z" fill="#007AB6"/>
<path d="M79.0747 30.7644V27.9538H84.0613C85.2157 27.9538 86.0236 27.7963 86.4826 27.479C86.9394 27.1617 87.169 26.6307 87.169 25.8836C87.169 24.9249 86.2306 24.1644 84.3583 23.6018C83.7935 23.433 83.3502 23.3002 83.0262 23.2012C81.1809 22.5959 79.9163 21.9118 79.2322 21.1512C78.5481 20.3906 78.2061 19.3555 78.2061 18.0436C78.2061 16.0858 78.8519 14.5916 80.139 13.5632C81.4285 12.5348 83.2985 12.0195 85.7513 12.0195H90.6344V14.8301H86.4061C85.7153 14.8301 85.1729 14.9539 84.7791 15.1992C84.3853 15.4467 84.1873 15.7888 84.1873 16.2253C84.1873 16.9994 85.0042 17.6408 86.6401 18.1493C87.0069 18.2753 87.2815 18.3676 87.4637 18.4239C89.4642 19.0719 90.8167 19.8123 91.521 20.6426C92.2254 21.4753 92.5787 22.6432 92.5787 24.1509C92.5787 26.2076 91.9351 27.8256 90.6457 29.0025C89.3562 30.1794 87.5763 30.7667 85.308 30.7667H79.0724L79.0747 30.7644Z" fill="#007AB6"/>
<path d="M98.4327 30.7667V15.233H93.4033V12.0195H109.572V15.233H104.542V30.7667H98.435H98.4327Z" fill="#007AB6"/>
<path d="M111.893 30.7667V12.0195H118V30.7667H111.893Z" fill="#007AB6"/>
<path d="M111.803 5.98294C111.803 5.09632 112.116 4.33798 112.744 3.71015C113.371 3.08232 114.121 2.76953 114.994 2.76953C115.867 2.76953 116.657 3.08007 117.276 3.6989C117.895 4.31998 118.205 5.08057 118.205 5.98069C118.205 6.8808 117.892 7.62341 117.264 8.24224C116.637 8.86332 115.881 9.17161 114.992 9.17161C114.103 9.17161 113.367 8.85881 112.741 8.23098C112.114 7.60315 111.801 6.8538 111.801 5.98069L111.803 5.98294Z" fill="#FFC107"/>
</svg>
