<svg width="83" height="83" viewBox="0 0 83 83" fill="none" xmlns="http://www.w3.org/2000/svg">
<circle cx="41.5" cy="41.5" r="41.5" fill="#EC4134"/>
<path d="M44.0394 46.2297C43.0571 46.8846 41.9162 47.2307 40.7399 47.2307C39.5637 47.2307 38.4228 46.8846 37.4406 46.2297L21.2629 35.4443C21.1736 35.3846 21.0859 35.3224 21 35.2579V52.9311C21 54.9573 22.6444 56.5654 24.6344 56.5654H56.8454C58.8717 56.5654 60.4798 54.9211 60.4798 52.9311V35.2578C60.3937 35.3225 60.3059 35.3848 60.2164 35.4446L44.0394 46.2297Z" fill="white"/>
<path d="M22.546 33.5228L38.7238 44.3084C39.3362 44.7167 40.038 44.9208 40.7399 44.9208C41.4418 44.9208 42.1437 44.7166 42.7561 44.3084L58.9338 33.5228C59.9019 32.8778 60.4799 31.7983 60.4799 30.6331C60.4799 28.6298 58.85 27 56.8467 27H24.6332C22.6299 27.0001 21 28.6299 21 30.6351C20.9994 31.2066 21.1403 31.7694 21.41 32.2733C21.6798 32.7772 22.0701 33.2064 22.546 33.5228Z" fill="white"/>
</svg>
