<svg width="80" height="76" viewBox="0 0 80 76" fill="none" xmlns="http://www.w3.org/2000/svg">
<path opacity="0.25" d="M74.9174 41.9426C74.9174 54.0604 68.3802 64.7135 58.6411 70.4395C58.6411 70.4395 58.5744 70.5061 58.5077 70.5061C57.8407 70.9056 57.1736 71.2385 56.5066 71.5714C56.173 71.7711 55.8395 71.9043 55.506 72.0374C55.3726 72.104 55.2391 72.1706 55.1057 72.2372H55.039C54.9056 72.3038 54.7055 72.3703 54.5721 72.4369C53.5715 72.903 52.5042 73.2359 51.4369 73.5688C51.3035 73.6354 51.1034 73.702 50.97 73.702C50.9033 73.702 50.8366 73.7686 50.7699 73.7686C50.7032 73.7686 50.6365 73.7686 50.6365 73.8351C50.5697 73.8351 50.503 73.8351 50.4363 73.9017C49.0355 74.3012 47.568 74.5675 46.0338 74.7673C44.6329 74.967 43.2321 75.0336 41.8313 75.0336C39.5633 75.0336 37.362 74.8339 35.2274 74.3678C35.094 74.3678 34.9606 74.3012 34.8272 74.3012C34.3602 74.2346 33.8933 74.1015 33.4264 73.9683C32.9594 73.8351 32.4925 73.702 32.0255 73.5688C30.1578 72.9696 28.29 72.2372 26.5557 71.3716C15.8827 65.8454 8.61182 54.7262 8.61182 41.9426C8.61182 23.6327 23.4872 8.85156 41.7646 8.85156C60.1087 8.85156 74.9174 23.6327 74.9174 41.9426Z" fill="url(#paint0_linear_5889_20094)"/>
<path d="M38.8926 26.8943C35.6907 24.2976 34.023 19.9698 34.6234 15.9084C35.2904 11.3142 38.559 10.4487 40.2267 11.1811C41.4274 11.7137 42.1611 13.3117 41.4941 14.5101C40.3601 16.6407 36.0242 15.7752 35.157 12.1132C34.8235 10.7816 35.157 9.31678 35.9575 8.1849C37.2916 6.38719 39.7597 5.72138 41.961 5.38847C42.4947 5.38847 43.0283 5.32189 43.4953 5.25531C44.696 5.12215 46.1635 4.9224 47.6977 4.72266" stroke="#D8E2EE" stroke-width="0.625" stroke-miterlimit="10" stroke-linecap="round" stroke-linejoin="round"/>
<path d="M51.0303 5.52637L48.9624 6.45851L49.2959 2.92969" fill="#D8E2EE"/>
<path d="M64.3068 1.19847L63.373 1.73112L52.5666 7.79004L49.765 3.66198L49.298 2.92959L47.2969 0L62.5725 1.0653L64.3068 1.19847Z" fill="#EDF2F8"/>
<path d="M64.3057 1.19566L63.3718 1.72832L49.7638 3.65918L49.2969 2.92678L62.5713 1.0625L64.3057 1.19566Z" fill="#D8E2EE"/>
<path opacity="0.42" d="M9.79315 22.546C10.669 22.2618 11.1483 21.3227 10.8636 20.4485C10.5789 19.5742 9.63809 19.0959 8.7622 19.38C7.88632 19.6642 7.40705 20.6033 7.69174 21.4775C7.97643 22.3518 8.91726 22.8301 9.79315 22.546Z" fill="url(#paint1_linear_5889_20094)"/>
<path opacity="0.42" d="M13.423 17.1194C14.0186 16.9262 14.3445 16.2876 14.1509 15.6931C13.9574 15.0986 13.3176 14.7733 12.722 14.9665C12.1264 15.1598 11.8005 15.7983 11.9941 16.3928C12.1877 16.9873 12.8274 17.3126 13.423 17.1194Z" fill="url(#paint2_linear_5889_20094)"/>
<path opacity="0.5" d="M27.1291 9.30207C28.1625 8.35943 28.2347 6.75906 27.2903 5.72755C26.3459 4.69603 24.7425 4.62399 23.7091 5.56663C22.6757 6.50928 22.6035 8.10964 23.5479 9.14116C24.4923 10.1727 26.0956 10.2447 27.1291 9.30207Z" fill="#007AB6"/>
<path d="M79.2122 22.2839C79.6473 21.8869 79.6777 21.2131 79.2801 20.7788C78.8825 20.3445 78.2074 20.3141 77.7722 20.711C77.3371 21.1079 77.3067 21.7818 77.7044 22.2161C78.102 22.6504 78.7771 22.6808 79.2122 22.2839Z" fill="#EDF2F8"/>
<path d="M51.7692 55.4688V73.7787C51.6357 73.8453 51.5023 73.8452 51.3689 73.9118C49.8347 74.3113 48.2338 74.6442 46.6328 74.844V55.4688H51.7692Z" fill="#007AB6"/>
<path d="M51.7692 55.4688V73.7787C51.6357 73.8453 51.5023 73.8452 51.3689 73.9118C49.8347 74.3113 48.2338 74.6442 46.6328 74.844V55.4688H51.7692Z" fill="white"/>
<path d="M56.5027 55.4688V71.6481C56.1692 71.8478 55.8357 71.981 55.5022 72.1141C55.3687 72.1807 55.2353 72.2473 55.1019 72.3139H55.0352C54.9018 72.3805 54.7017 72.447 54.5683 72.5136C53.5677 72.9797 52.5004 73.3126 51.4331 73.6455V55.4688H56.5027Z" fill="#2C2E3E"/>
<path d="M56.5027 55.4688V71.6481C56.1692 71.8478 55.8357 71.981 55.5022 72.1141C55.3687 72.1807 55.2353 72.2473 55.1019 72.3139H55.0352C54.9018 72.3805 54.7017 72.447 54.5683 72.5136C53.5677 72.9797 52.5004 73.3126 51.4331 73.6455V55.4688H56.5027Z" fill="#EDF2F8"/>
<path opacity="0.1" d="M56.5027 62.457V70.5134C56.2359 70.6466 55.9691 70.7797 55.7023 70.9129C55.5689 70.9795 55.4355 71.046 55.302 71.1126H55.2353C55.1019 71.1792 54.9018 71.2458 54.7684 71.3124C53.7678 71.7784 52.7005 72.1114 51.6332 72.4443C51.5665 72.4443 51.4998 72.5108 51.4331 72.5108V70.7797C51.4998 70.58 51.5665 70.3802 51.6332 70.1805C52.6338 67.5838 53.9012 65.5198 55.3687 63.7887C55.7023 63.3226 56.1025 62.8565 56.5027 62.457Z" fill="#344050"/>
<path opacity="0.1" d="M56.5053 55.4688H46.6328V61.1948H56.5053V55.4688Z" fill="#1C4F93"/>
<path d="M77.4498 35.2265V55.7336H61.4405V55.8002H29.355V18.9806H59.8395C60.2397 18.9141 60.64 18.9141 61.1069 18.9141C61.6406 18.9141 62.1075 18.9141 62.6412 18.9806C63.3082 19.0472 63.9086 19.1138 64.5089 19.247C67.6441 19.9128 70.4457 21.5107 72.647 23.6414C75.6488 26.6375 77.4498 30.7656 77.4498 35.2265Z" fill="#007AB6"/>
<path d="M64.503 19.3095V34.5566C64.503 35.0893 64.1028 35.4888 63.5691 35.4888C63.0355 35.4888 62.6353 35.0893 62.6353 34.5566V18.9766C63.2356 19.0431 63.9027 19.1763 64.503 19.3095Z" fill="url(#paint3_linear_5889_20094)"/>
<path d="M63.9134 40.0193C65.9397 40.0193 67.5823 38.3798 67.5823 36.3573C67.5823 34.3348 65.9397 32.6953 63.9134 32.6953C61.8872 32.6953 60.2446 34.3348 60.2446 36.3573C60.2446 38.3798 61.8872 40.0193 63.9134 40.0193Z" fill="#2C2E3E"/>
<path d="M64.5044 39.5505C66.6043 39.5505 68.3066 37.911 68.3066 35.8885C68.3066 33.8661 66.6043 32.2266 64.5044 32.2266C62.4045 32.2266 60.7021 33.8661 60.7021 35.8885C60.7021 37.911 62.4045 39.5505 64.5044 39.5505Z" fill="#D5DAE8"/>
<path d="M64.7045 39.5505C66.7307 39.5505 68.3733 37.911 68.3733 35.8885C68.3733 33.8661 66.7307 32.2266 64.7045 32.2266C62.6782 32.2266 61.0356 33.8661 61.0356 35.8885C61.0356 37.911 62.6782 39.5505 64.7045 39.5505Z" fill="#EAEEF9"/>
<path d="M64.705 37.2847C65.4787 37.2847 66.1058 36.6587 66.1058 35.8865C66.1058 35.1143 65.4787 34.4883 64.705 34.4883C63.9314 34.4883 63.3042 35.1143 63.3042 35.8865C63.3042 36.6587 63.9314 37.2847 64.705 37.2847Z" fill="#D5DAE8"/>
<path d="M45.2981 33.6245V55.7961H12.6123V33.6245C12.6123 26.6334 17.5485 20.7743 24.0857 19.3095C25.153 19.0431 26.2203 18.9766 27.3543 18.9766H30.6896C38.0272 18.9766 44.0974 24.3031 45.2314 31.3607C45.2314 32.0265 45.2981 32.8255 45.2981 33.6245Z" fill="#FFC107"/>
<path d="M65.776 18.1133V35.7574C65.776 36.29 65.3757 36.6895 64.8421 36.6895C64.3084 36.6895 63.9082 36.29 63.9082 35.7574V18.1133H65.776Z" fill="white"/>
<path d="M40.0862 46.4162C40.0862 47.8144 38.9522 48.9463 37.5513 48.9463C11.4027 48.9463 13.0703 49.0795 12.2031 48.5468C11.4694 48.0807 11.0024 47.2818 11.0024 46.4162C12.5367 29.0384 12.2699 29.2382 13.3371 28.2394C14.3377 27.3739 12.9369 27.6402 38.9522 27.6402C39.7526 27.6402 40.4864 28.0397 40.9533 28.5724C41.8205 29.7042 41.6204 29.3047 40.0862 46.4162Z" fill="white"/>
<path d="M41.2189 28.9685C28.0112 40.1542 28.3447 40.3539 26.4102 40.3539C24.3423 40.3539 24.5425 40.0876 12.8022 28.9685C13.8028 27.1042 13.2025 27.6368 39.0176 27.6368C39.9515 27.6368 40.8187 28.1695 41.2189 28.9685Z" fill="#EAEEF9"/>
<path d="M9.40551 32.6328H0.733764C0.333529 32.6328 0 32.2999 0 31.9004C0 31.5009 0.333529 31.168 0.733764 31.168H9.40551C9.80575 31.168 10.1393 31.5009 10.1393 31.9004C10.1393 32.2999 9.80575 32.6328 9.40551 32.6328Z" fill="#007AB6"/>
<path d="M9.00183 36.7656H3.9989C3.59867 36.7656 3.26514 36.4327 3.26514 36.0332C3.26514 35.6337 3.59867 35.3008 3.9989 35.3008H9.00183C9.40207 35.3008 9.7356 35.6337 9.7356 36.0332C9.7356 36.4327 9.40207 36.7656 9.00183 36.7656Z" fill="#007AB6"/>
<path d="M8.53541 40.6914H5.73376C5.33353 40.6914 5 40.3584 5 39.959C5 39.5595 5.33353 39.2266 5.73376 39.2266H8.60211C9.00235 39.2266 9.33587 39.5595 9.33587 39.959C9.33587 40.3584 9.00235 40.6914 8.53541 40.6914Z" fill="#007AB6"/>
<path d="M36.2887 40.4883H33.287C33.0869 40.4883 32.9535 40.6214 32.9535 40.8212L32.8868 41.2207L32.7533 42.286L32.6866 43.0184L32.5532 43.8174C32.5532 43.8839 32.5532 43.9505 32.5532 44.0171C32.6199 44.1503 32.7533 44.2834 32.8868 44.2834H35.8885C36.0886 44.2834 36.222 44.1503 36.222 43.9505L36.6223 40.9544C36.689 40.688 36.5556 40.4883 36.2887 40.4883ZM35.555 43.2181C35.555 43.2847 35.4883 43.4179 35.3549 43.4179H33.8873H33.6872C33.5538 43.4179 33.4871 43.2847 33.4871 43.2181L33.5538 42.6855L33.6205 41.9531L33.6872 41.6202C33.6872 41.5536 33.7539 41.4204 33.8873 41.4204H35.555C35.6884 41.4204 35.7551 41.5536 35.7551 41.6202L35.555 43.2181Z" fill="#FFC107"/>
<path d="M33.8878 41.3487C33.7544 41.3487 33.6877 41.4153 33.6877 41.5485L33.621 41.8814C33.2874 42.0811 33.0206 42.2143 32.7538 42.2809C32.5537 42.3474 32.3536 42.3474 32.1534 42.3474C31.5531 42.3474 31.0862 42.1477 30.6859 41.948C30.0856 41.6816 29.9522 41.6816 29.752 41.8814C29.5519 42.0811 29.2851 42.0811 29.085 41.948C28.8849 41.7482 28.8849 41.4819 29.0183 41.2821C29.6853 40.4832 30.4858 40.8161 31.0862 41.0824C31.6865 41.3487 32.1534 41.615 32.8872 41.2156C32.9539 41.149 33.0873 41.149 33.154 41.0824C33.3541 40.9492 33.6877 41.0158 33.8211 41.2156C33.8878 41.2156 33.8878 41.2821 33.8878 41.3487Z" fill="#FFC107"/>
<path d="M33.8877 43.3459L33.821 43.4124C33.354 43.7454 32.9538 43.8785 32.6203 43.9451C32.4869 43.9451 32.3535 43.9451 32.2867 43.9451C31.6864 43.9451 31.2195 43.7454 30.8192 43.5456C30.2189 43.2793 30.0855 43.2793 29.8853 43.479C29.6852 43.6788 29.4184 43.6788 29.2183 43.5456C29.0182 43.3459 29.0182 43.0795 29.1516 42.8798C29.8186 42.0808 30.6191 42.4137 31.1527 42.68C31.6197 42.8798 32.0866 43.0795 32.6203 42.9464C32.8204 42.8798 32.9538 42.8132 33.2206 42.68C33.2873 42.6135 33.4207 42.6135 33.5542 42.6135L33.4874 43.1461C33.4874 43.2793 33.5542 43.3459 33.6876 43.3459H33.8877Z" fill="#FFC107"/>
<path opacity="0.5" d="M45.7461 36.7773L45.546 31.3842C44.412 24.3931 38.3417 19 31.0041 19H27.6688C26.5348 19 25.4675 19.1332 24.4002 19.3329L24 19.6658L32.2715 53.6224L45.6794 54.3548V36.7773H45.7461Z" fill="#FFC107"/>
<path d="M74.783 17.5134C75.0498 17.7132 74.9164 18.1793 74.5162 18.1793H65.8444H63.8433V10.9219H74.5162C74.8497 10.9219 75.0498 11.3214 74.783 11.5877L71.9814 13.918C71.5811 14.251 71.5811 14.8502 71.9814 15.1831L74.783 17.5134Z" fill="#FFC107"/>
<path d="M37.6247 68.3125C36.6908 69.7107 35.5568 71.9745 34.8898 73.9053C34.8231 74.0385 34.7564 74.2383 34.7564 74.3714C34.2894 74.3048 33.8225 74.1717 33.3555 74.0385C32.9553 73.1064 32.6885 72.1076 32.6885 72.1076C32.9553 71.7747 33.1554 71.5084 33.4222 71.2421C34.6896 69.6441 36.0238 68.5788 37.6247 68.3125Z" fill="#B6C2D2"/>
<path d="M35.1579 74.4356C35.0245 74.4356 34.8911 74.369 34.7577 74.369C34.2907 74.3024 33.8238 74.1693 33.3568 74.0361C33.0233 73.9695 32.7565 73.8364 32.423 73.7698C32.2896 73.7032 32.1561 73.7032 32.0227 73.6366C31.8893 73.57 31.7559 73.57 31.5558 73.5035C29.8214 72.9708 28.1538 72.2384 26.5529 71.4394C24.8852 68.643 23.9513 65.1808 22.3504 60.4535C22.3504 60.3869 22.3504 60.3869 22.2837 60.3203C22.2837 60.3203 22.4171 60.3203 22.7506 60.4535C22.9507 60.5866 23.2843 60.7198 23.6845 60.9861C24.485 61.5188 25.7524 62.4509 27.6202 63.9823C29.9549 65.9132 31.956 68.7762 33.3568 71.1731C33.9572 72.2384 34.4908 73.1705 34.8911 73.9029C35.0245 74.0361 35.0912 74.2359 35.1579 74.4356Z" fill="#EDF2F8"/>
<path d="M32.423 73.6995C32.2896 73.6329 32.1561 73.6329 32.0227 73.5663C31.8893 73.4997 31.7559 73.4997 31.5558 73.4331C28.4873 67.2411 25.0186 63.3127 22.9507 61.049C22.7506 60.7827 22.5505 60.5829 22.3504 60.3832C22.3504 60.3166 22.3504 60.3166 22.2837 60.25C22.2837 60.25 22.4171 60.25 22.7506 60.3832C22.9507 60.5163 23.2843 60.6495 23.6845 60.9158C25.8191 63.3127 29.3545 67.3742 32.423 73.6995Z" fill="#D8E2EE"/>
<path d="M51.7692 73.7695C51.8359 73.7695 51.8359 73.7695 51.9026 73.7695C51.8359 73.7695 51.7024 73.8362 51.6357 73.8362C51.6357 73.7695 51.7024 73.7695 51.7692 73.7695Z" fill="#D5DAE8"/>
<path d="M51.9684 73.6995C52.0351 73.6995 52.0351 73.6995 52.1018 73.6328C52.0351 73.6328 51.9017 73.6995 51.835 73.6995C51.9017 73.6995 51.9017 73.6995 51.9684 73.6995Z" fill="#D5DAE8"/>
<path d="M63.6468 59.125C63.6468 59.125 63.5801 59.2582 63.4467 59.5245C62.6462 60.9893 59.9113 66.0495 58.6439 70.3773C58.6439 70.3773 58.5771 70.4439 58.5104 70.4439C57.8434 70.8433 57.1763 71.1763 56.5093 71.5092C56.1757 71.7089 55.8422 71.8421 55.5087 71.9752C55.3753 72.0418 55.2419 72.1084 55.1084 72.175H55.0417C54.9083 72.2416 54.7082 72.3081 54.5748 72.3747C53.5742 72.8408 52.5069 73.1737 51.4396 73.5066C51.3062 73.5732 51.1061 73.6398 50.9727 73.6398C50.906 73.6398 50.8393 73.7064 50.7726 73.7064C50.7059 73.7064 50.6392 73.7064 50.6392 73.7729C50.906 72.9074 51.1728 72.0418 51.5063 71.3094C52.5069 68.7127 53.7743 66.6487 55.2419 64.9176C55.7088 64.3849 56.1757 63.8523 56.6427 63.3862C58.5771 61.4553 60.645 60.1903 62.5795 59.5245C62.8463 59.3913 63.2466 59.2582 63.6468 59.125Z" fill="#EDF2F8"/>
<path d="M63.6394 59.125C63.6394 59.125 63.5727 59.2582 63.4392 59.5245C60.9044 61.7217 58.5697 65.1839 56.5018 69.6449C56.1683 70.4439 55.8348 71.1763 55.5013 72.0418C55.3678 72.1084 55.2344 72.175 55.101 72.2416H55.0343C54.9009 72.3081 54.7008 72.3747 54.5674 72.4413C54.6341 72.3081 54.7008 72.2416 54.7008 72.2416C55.3011 70.7768 55.9015 69.3786 56.5018 68.1135C58.3029 64.4515 60.3041 61.5219 62.4387 59.5245C62.8389 59.3913 63.2391 59.2582 63.6394 59.125Z" fill="#D8E2EE"/>
<path d="M54.4361 73.8398C54.3027 74.1728 54.236 74.5057 54.1025 74.8386" stroke="white" stroke-width="0.625" stroke-miterlimit="10"/>
<defs>
<linearGradient id="paint0_linear_5889_20094" x1="41.7646" y1="8.85156" x2="41.7646" y2="75.0336" gradientUnits="userSpaceOnUse">
<stop stop-color="#192942"/>
<stop offset="1" stop-color="#192942" stop-opacity="0.58"/>
</linearGradient>
<linearGradient id="paint1_linear_5889_20094" x1="8.7622" y1="19.38" x2="9.78966" y2="22.5471" gradientUnits="userSpaceOnUse">
<stop stop-color="#192942"/>
<stop offset="1" stop-color="#192942" stop-opacity="0.58"/>
</linearGradient>
<linearGradient id="paint2_linear_5889_20094" x1="12.722" y1="14.9665" x2="13.4207" y2="17.1202" gradientUnits="userSpaceOnUse">
<stop stop-color="#192942"/>
<stop offset="1" stop-color="#192942" stop-opacity="0.58"/>
</linearGradient>
<linearGradient id="paint3_linear_5889_20094" x1="63.5691" y1="18.9766" x2="63.5691" y2="35.4888" gradientUnits="userSpaceOnUse">
<stop stop-color="#192942"/>
<stop offset="1" stop-color="#192942" stop-opacity="0.58"/>
</linearGradient>
</defs>
</svg>
