<svg width="22" height="20" viewBox="0 0 22 20" fill="none" xmlns="http://www.w3.org/2000/svg">
<path d="M19.3125 15.0041L13.5 10.0041M8.5 10.0041L2.68753 15.0041M2.25 5.8374L9.3943 10.6003C9.97283 10.986 10.2621 11.1788 10.5767 11.2535C10.8547 11.3195 11.1453 11.3195 11.4233 11.2535C11.7379 11.1788 12.0272 10.986 12.6057 10.6003L19.75 5.8374M6.45 16.6707H15.55C17.0201 16.6707 17.7552 16.6707 18.3167 16.3983C18.8106 16.1586 19.2122 15.7761 19.4639 15.3057C19.75 14.7709 19.75 14.0709 19.75 12.6707V7.3374C19.75 5.93727 19.75 5.23721 19.4639 4.70243C19.2122 4.23202 18.8106 3.84957 18.3167 3.60989C17.7552 3.3374 17.0201 3.3374 15.55 3.3374H6.45C4.97986 3.3374 4.24479 3.3374 3.68327 3.60989C3.18935 3.84957 2.78778 4.23202 2.53611 4.70243C2.25 5.23721 2.25 5.93727 2.25 7.3374V12.6707C2.25 14.0709 2.25 14.7709 2.53611 15.3057C2.78778 15.7761 3.18935 16.1586 3.68327 16.3983C4.24479 16.6707 4.97986 16.6707 6.45 16.6707Z" stroke="#384250" stroke-linecap="round" stroke-linejoin="round"/>
</svg>
