<svg width="16" height="14" viewBox="0 0 16 14" fill="none" xmlns="http://www.w3.org/2000/svg">
<path d="M0.902344 3.48389L6.64197 7.50163C7.10675 7.82697 7.33914 7.98965 7.59192 8.05265C7.8152 8.10831 8.04873 8.10831 8.27201 8.05265C8.52479 7.98965 8.75718 7.82697 9.22196 7.50163L14.9616 3.48389M4.27656 12.6224H11.5874C12.7685 12.6224 13.359 12.6224 13.8101 12.3925C14.2069 12.1904 14.5295 11.8677 14.7317 11.4709C14.9616 11.0198 14.9616 10.4293 14.9616 9.24818V4.74922C14.9616 3.56813 14.9616 2.97759 14.7317 2.52647C14.5295 2.12966 14.2069 1.80704 13.8101 1.60485C13.359 1.375 12.7685 1.375 11.5874 1.375H4.27656C3.09548 1.375 2.50493 1.375 2.05382 1.60485C1.657 1.80704 1.33438 2.12966 1.1322 2.52647C0.902344 2.97759 0.902344 3.56813 0.902344 4.74922V9.24818C0.902344 10.4293 0.902344 11.0198 1.1322 11.4709C1.33438 11.8677 1.657 12.1904 2.05382 12.3925C2.50493 12.6224 3.09548 12.6224 4.27656 12.6224Z" stroke="#007AB6" stroke-width="1.01227" stroke-linecap="round" stroke-linejoin="round"/>
</svg>
