<svg width="21" height="17" viewBox="0 0 21 17" fill="none" xmlns="http://www.w3.org/2000/svg">
<path d="M1 0.57312C0.91935 0.57312 0.84065 0.588922 0.765625 0.610389L10.0469 10.5238C10.2597 10.751 10.7403 10.751 10.9531 10.5238L20.2344 0.610389C20.1593 0.588922 20.0807 0.57312 20 0.57312H1ZM0.0390501 1.44893C0.0160501 1.54976 0 1.6559 0 1.76571V15.4805C0 15.5871 0.0172501 15.6898 0.0390501 15.788L6.71875 8.57655L0.0390501 1.44893ZM20.961 1.44893L14.2812 8.57655L20.961 15.788C20.9827 15.6898 21 15.5871 21 15.4805V1.76571C21 1.6559 20.984 1.54976 20.961 1.44893ZM7.46875 9.37779L0.7578 16.6266C0.83575 16.6495 0.9159 16.6731 1 16.6731H20C20.0841 16.6731 20.1643 16.6496 20.2422 16.6266L13.5312 9.37779L11.625 11.409C10.9891 12.0878 10.0109 12.0878 9.375 11.409L7.46875 9.37779Z" fill="url(#paint0_linear_1_24028)"/>
<defs>
<linearGradient id="paint0_linear_1_24028" x1="10.5" y1="0.57312" x2="10.5" y2="16.6731" gradientUnits="userSpaceOnUse">
<stop stop-color="#8449EB"/>
<stop offset="1" stop-color="#6A56F6"/>
</linearGradient>
</defs>
</svg>
