<svg width="20" height="21" viewBox="0 0 20 21" fill="none" xmlns="http://www.w3.org/2000/svg">
<path d="M1.66699 6.27734L5.99519 9.16281C6.2449 9.32928 6.36975 9.41251 6.50482 9.47148C6.62471 9.52382 6.75035 9.56186 6.87914 9.58481C7.02424 9.61068 7.17429 9.61068 7.47439 9.61068H12.5263C12.8264 9.61068 12.9764 9.61068 13.1215 9.58481C13.2503 9.56186 13.3759 9.52382 13.4958 9.47148C13.6309 9.41252 13.7558 9.32928 14.0055 9.16281L18.3337 6.27734M5.66699 17.1107H14.3337C15.7338 17.1107 16.4339 17.1107 16.9686 16.8382C17.439 16.5985 17.8215 16.2161 18.0612 15.7457C18.3337 15.2109 18.3337 14.5108 18.3337 13.1107V7.77734C18.3337 6.37721 18.3337 5.67715 18.0612 5.14237C17.8215 4.67196 17.439 4.28951 16.9686 4.04983C16.4339 3.77734 15.7338 3.77734 14.3337 3.77734H5.66699C4.26686 3.77734 3.5668 3.77734 3.03202 4.04983C2.56161 4.28951 2.17916 4.67196 1.93948 5.14237C1.66699 5.67715 1.66699 6.37721 1.66699 7.77734V13.1107C1.66699 14.5108 1.66699 15.2109 1.93948 15.7457C2.17916 16.2161 2.56161 16.5985 3.03202 16.8382C3.5668 17.1107 4.26686 17.1107 5.66699 17.1107Z" stroke="#007AB6" stroke-width="0.789342" stroke-linecap="round" stroke-linejoin="round"/>
</svg>
