<svg width="80" height="76" viewBox="0 0 80 76" fill="none" xmlns="http://www.w3.org/2000/svg">
<path opacity="0.25" d="M74.9188 41.9411C74.9188 54.059 68.3816 64.712 58.6426 70.438C58.6426 70.438 58.5759 70.5046 58.5092 70.5046C57.8421 70.9041 57.1751 71.237 56.508 71.5699C56.1745 71.7696 55.841 71.9028 55.5074 72.036C55.374 72.1026 55.2406 72.1691 55.1072 72.2357H55.0405C54.9071 72.3023 54.707 72.3689 54.5736 72.4355C53.573 72.9015 52.5057 73.2344 51.4384 73.5673C51.305 73.6339 51.1049 73.7005 50.9714 73.7005C50.9047 73.7005 50.838 73.7671 50.7713 73.7671C50.7046 73.7671 50.6379 73.7671 50.6379 73.8337C50.5712 73.8337 50.5045 73.8337 50.4378 73.9003C49.037 74.2997 47.5695 74.5661 46.0352 74.7658C44.6344 74.9656 43.2336 75.0321 41.8328 75.0321C39.5648 75.0321 37.3635 74.8324 35.2289 74.3663C35.0955 74.3663 34.9621 74.2997 34.8286 74.2997C34.3617 74.2332 33.8948 74.1 33.4278 73.9668C32.9609 73.8337 32.4939 73.7005 32.027 73.5673C30.1592 72.9681 28.2915 72.2357 26.5571 71.3702C15.8842 65.8439 8.61328 54.7248 8.61328 41.9411C8.61328 23.6312 23.4887 8.8501 41.766 8.8501C60.1101 8.8501 74.9188 23.6312 74.9188 41.9411Z" fill="url(#paint0_linear_186_47670)"/>
<path d="M38.894 26.8948C35.6921 24.2981 34.0245 19.9703 34.6249 15.9088C35.2919 11.3147 38.5605 10.4492 40.2281 11.1816C41.4288 11.7142 42.1626 13.3122 41.4955 14.5106C40.3615 16.6412 36.0257 15.7757 35.1585 12.1137C34.825 10.7821 35.1585 9.31727 35.959 8.18538C37.2931 6.38768 39.7612 5.72187 41.9625 5.38896C42.4961 5.38896 43.0298 5.32238 43.4967 5.2558C44.6974 5.12263 46.1649 4.92289 47.6992 4.72314" stroke="#D8E2EE" stroke-width="0.625" stroke-miterlimit="10" stroke-linecap="round" stroke-linejoin="round"/>
<path d="M51.0288 5.52783L48.9609 6.45997L49.2945 2.93115" fill="#D8E2EE"/>
<path d="M64.3068 1.19847L63.373 1.73112L52.5666 7.79004L49.765 3.66198L49.298 2.92959L47.2969 0L62.5725 1.0653L64.3068 1.19847Z" fill="#EDF2F8"/>
<path d="M64.3057 1.19371L63.3718 1.72636L49.7638 3.65723L49.2969 2.92483L62.5713 1.06055L64.3057 1.19371Z" fill="#D8E2EE"/>
<path opacity="0.42" d="M9.79266 22.546C10.6685 22.2618 11.1478 21.3227 10.8631 20.4485C10.5784 19.5742 9.6376 19.0959 8.76171 19.38C7.88583 19.6642 7.40657 20.6033 7.69125 21.4775C7.97594 22.3518 8.91677 22.8301 9.79266 22.546Z" fill="url(#paint1_linear_186_47670)"/>
<path opacity="0.42" d="M13.424 17.1189C14.0196 16.9257 14.3455 16.2871 14.1519 15.6926C13.9583 15.0981 13.3186 14.7728 12.723 14.9661C12.1274 15.1593 11.8015 15.7978 11.9951 16.3923C12.1886 16.9868 12.8284 17.3121 13.424 17.1189Z" fill="url(#paint2_linear_186_47670)"/>
<path opacity="0.5" d="M27.131 9.30158C28.1645 8.35894 28.2366 6.75857 27.2922 5.72706C26.3478 4.69555 24.7445 4.6235 23.711 5.56615C22.6776 6.50879 22.6054 8.10916 23.5498 9.14067C24.4942 10.1722 26.0976 10.2442 27.131 9.30158Z" fill="#9747FF"/>
<path d="M79.2122 22.2848C79.6473 21.8879 79.6777 21.2141 79.2801 20.7798C78.8825 20.3454 78.2074 20.3151 77.7722 20.712C77.3371 21.1089 77.3067 21.7828 77.7044 22.2171C78.102 22.6514 78.7771 22.6817 79.2122 22.2848Z" fill="#EDF2F8"/>
<path d="M51.7692 55.4683V73.7782C51.6357 73.8448 51.5023 73.8448 51.3689 73.9113C49.8347 74.3108 48.2338 74.6437 46.6328 74.8435V55.4683H51.7692Z" fill="#9747FF"/>
<path d="M51.7692 55.4683V73.7782C51.6357 73.8448 51.5023 73.8448 51.3689 73.9113C49.8347 74.3108 48.2338 74.6437 46.6328 74.8435V55.4683H51.7692Z" fill="white"/>
<path d="M56.5032 55.4683V71.6476C56.1697 71.8473 55.8362 71.9805 55.5026 72.1136C55.3692 72.1802 55.2358 72.2468 55.1024 72.3134H55.0357C54.9023 72.38 54.7022 72.4465 54.5688 72.5131C53.5682 72.9792 52.5009 73.3121 51.4336 73.645V55.4683H56.5032Z" fill="#2C2E3E"/>
<path d="M56.5032 55.4683V71.6476C56.1697 71.8473 55.8362 71.9805 55.5026 72.1136C55.3692 72.1802 55.2358 72.2468 55.1024 72.3134H55.0357C54.9023 72.38 54.7022 72.4465 54.5688 72.5131C53.5682 72.9792 52.5009 73.3121 51.4336 73.645V55.4683H56.5032Z" fill="#EDF2F8"/>
<path opacity="0.1" d="M56.5032 62.4565V70.5129C56.2364 70.6461 55.9696 70.7792 55.7028 70.9124C55.5694 70.979 55.4359 71.0456 55.3025 71.1121H55.2358C55.1024 71.1787 54.9023 71.2453 54.7689 71.3119C53.7683 71.778 52.701 72.1109 51.6337 72.4438C51.567 72.4438 51.5003 72.5104 51.4336 72.5104V70.7792C51.5003 70.5795 51.567 70.3797 51.6337 70.18C52.6343 67.5833 53.9017 65.5193 55.3692 63.7882C55.7028 63.3221 56.103 62.856 56.5032 62.4565Z" fill="#344050"/>
<path opacity="0.1" d="M56.5053 55.4683H46.6328V61.1943H56.5053V55.4683Z" fill="#1C4F93"/>
<path d="M77.4503 35.2236V55.7307H61.4409V55.7973H29.3555V18.9777H59.84C60.2402 18.9111 60.6405 18.9111 61.1074 18.9111C61.6411 18.9111 62.108 18.9111 62.6416 18.9777C63.3087 19.0443 63.9091 19.1109 64.5094 19.244C67.6446 19.9099 70.4462 21.5078 72.6475 23.6384C75.6493 26.6346 77.4503 30.7626 77.4503 35.2236Z" fill="#7138DF"/>
<path d="M64.5045 19.3085V34.5557C64.5045 35.0883 64.1042 35.4878 63.5706 35.4878C63.037 35.4878 62.6367 35.0883 62.6367 34.5557V18.9756C63.2371 19.0422 63.9041 19.1753 64.5045 19.3085Z" fill="url(#paint3_linear_186_47670)"/>
<path d="M63.9149 40.0173C65.9411 40.0173 67.5837 38.3778 67.5837 36.3553C67.5837 34.3329 65.9411 32.6934 63.9149 32.6934C61.8887 32.6934 60.2461 34.3329 60.2461 36.3553C60.2461 38.3778 61.8887 40.0173 63.9149 40.0173Z" fill="#2C2E3E"/>
<path d="M64.5054 39.5486C66.6053 39.5486 68.3076 37.9091 68.3076 35.8866C68.3076 33.8641 66.6053 32.2246 64.5054 32.2246C62.4054 32.2246 60.7031 33.8641 60.7031 35.8866C60.7031 37.9091 62.4054 39.5486 64.5054 39.5486Z" fill="#D5DAE8"/>
<path d="M64.704 39.5486C66.7302 39.5486 68.3728 37.9091 68.3728 35.8866C68.3728 33.8641 66.7302 32.2246 64.704 32.2246C62.6777 32.2246 61.0352 33.8641 61.0352 35.8866C61.0352 37.9091 62.6777 39.5486 64.704 39.5486Z" fill="#EAEEF9"/>
<path d="M64.7055 37.2832C65.4792 37.2832 66.1063 36.6572 66.1063 35.885C66.1063 35.1128 65.4792 34.4868 64.7055 34.4868C63.9319 34.4868 63.3047 35.1128 63.3047 35.885C63.3047 36.6572 63.9319 37.2832 64.7055 37.2832Z" fill="#D5DAE8"/>
<path d="M45.2991 33.6235V55.7952H12.6133V33.6235C12.6133 26.6325 17.5495 20.7733 24.0867 19.3085C25.154 19.0422 26.2213 18.9756 27.3553 18.9756H30.6905C38.0282 18.9756 44.0984 24.3021 45.2324 31.3597C45.2324 32.0256 45.2991 32.8245 45.2991 33.6235Z" fill="#EF9F28"/>
<path d="M65.7779 18.1133V35.7574C65.7779 36.29 65.3777 36.6895 64.844 36.6895C64.3104 36.6895 63.9102 36.29 63.9102 35.7574V18.1133H65.7779Z" fill="white"/>
<path d="M40.0876 46.4162C40.0876 47.8144 38.9536 48.9463 37.5528 48.9463C11.4041 48.9463 13.0718 49.0795 12.2046 48.5468C11.4708 48.0807 11.0039 47.2818 11.0039 46.4162C12.5381 29.0384 12.2713 29.2382 13.3386 28.2394C14.3392 27.3739 12.9384 27.6402 38.9536 27.6402C39.7541 27.6402 40.4879 28.0397 40.9548 28.5724C41.822 29.7042 41.6219 29.3047 40.0876 46.4162Z" fill="white"/>
<path d="M41.2174 28.9685C28.0097 40.1542 28.3432 40.3539 26.4088 40.3539C24.3409 40.3539 24.541 40.0876 12.8008 28.9685C13.8014 27.1042 13.201 27.6368 39.0161 27.6368C39.95 27.6368 40.8172 28.1695 41.2174 28.9685Z" fill="#EAEEF9"/>
<path d="M9.40551 32.6318H0.733764C0.333529 32.6318 0 32.2989 0 31.8994C0 31.4999 0.333529 31.167 0.733764 31.167H9.40551C9.80575 31.167 10.1393 31.4999 10.1393 31.8994C10.1393 32.2989 9.80575 32.6318 9.40551 32.6318Z" fill="#9747FF"/>
<path d="M9.00232 36.7641H3.99939C3.59915 36.7641 3.26562 36.4312 3.26562 36.0317C3.26562 35.6322 3.59915 35.2993 3.99939 35.2993H9.00232C9.40256 35.2993 9.73608 35.6322 9.73608 36.0317C9.73608 36.4312 9.40256 36.7641 9.00232 36.7641Z" fill="#9747FF"/>
<path d="M8.53541 40.6914H5.73376C5.33353 40.6914 5 40.3584 5 39.959C5 39.5595 5.33353 39.2266 5.73376 39.2266H8.60211C9.00235 39.2266 9.33587 39.5595 9.33587 39.959C9.33587 40.3584 9.00235 40.6914 8.53541 40.6914Z" fill="#9747FF"/>
<path d="M36.2902 40.4878H33.2885C33.0883 40.4878 32.9549 40.621 32.9549 40.8207L32.8882 41.2202L32.7548 42.2855L32.6881 43.0179L32.5547 43.8169C32.5547 43.8835 32.5547 43.95 32.5547 44.0166C32.6214 44.1498 32.7548 44.2829 32.8882 44.2829H35.89C36.0901 44.2829 36.2235 44.1498 36.2235 43.95L36.6237 40.9539C36.6904 40.6875 36.557 40.4878 36.2902 40.4878ZM35.5564 43.2176C35.5564 43.2842 35.4897 43.4174 35.3563 43.4174H33.8888H33.6887C33.5553 43.4174 33.4886 43.2842 33.4886 43.2176L33.5553 42.685L33.622 41.9526L33.6887 41.6197C33.6887 41.5531 33.7554 41.4199 33.8888 41.4199H35.5564C35.6899 41.4199 35.7566 41.5531 35.7566 41.6197L35.5564 43.2176Z" fill="#EF9F28"/>
<path d="M33.8883 41.3482C33.7549 41.3482 33.6882 41.4148 33.6882 41.548L33.6215 41.8809C33.2879 42.0806 33.0211 42.2138 32.7543 42.2804C32.5542 42.347 32.3541 42.347 32.1539 42.347C31.5536 42.347 31.0866 42.1472 30.6864 41.9475C30.0861 41.6811 29.9526 41.6811 29.7525 41.8809C29.5524 42.0806 29.2856 42.0806 29.0855 41.9475C28.8853 41.7477 28.8853 41.4814 29.0188 41.2816C29.6858 40.4827 30.4863 40.8156 31.0866 41.0819C31.687 41.3482 32.1539 41.6146 32.8877 41.2151C32.9544 41.1485 33.0878 41.1485 33.1545 41.0819C33.3546 40.9487 33.6882 41.0153 33.8216 41.2151C33.8883 41.2151 33.8883 41.2816 33.8883 41.3482Z" fill="#EF9F28"/>
<path d="M33.8877 43.3478L33.821 43.4144C33.354 43.7473 32.9538 43.8805 32.6203 43.9471C32.4869 43.9471 32.3535 43.9471 32.2867 43.9471C31.6864 43.9471 31.2195 43.7473 30.8192 43.5476C30.2189 43.2812 30.0855 43.2812 29.8853 43.481C29.6852 43.6807 29.4184 43.6807 29.2183 43.5476C29.0182 43.3478 29.0182 43.0815 29.1516 42.8817C29.8186 42.0828 30.6191 42.4157 31.1527 42.682C31.6197 42.8817 32.0866 43.0815 32.6203 42.9483C32.8204 42.8817 32.9538 42.8152 33.2206 42.682C33.2873 42.6154 33.4207 42.6154 33.5542 42.6154L33.4874 43.1481C33.4874 43.2812 33.5542 43.3478 33.6876 43.3478H33.8877Z" fill="#EF9F28"/>
<path opacity="0.5" d="M45.7461 36.7773L45.546 31.3842C44.412 24.3931 38.3417 19 31.0041 19H27.6688C26.5348 19 25.4675 19.1332 24.4002 19.3329L24 19.6658L32.2715 53.6224L45.6794 54.3548V36.7773H45.7461Z" fill="#EF9F28"/>
<path d="M74.7835 17.512C75.0503 17.7117 74.9169 18.1778 74.5167 18.1778H65.8449H63.8438V10.9204H74.5167C74.8502 10.9204 75.0503 11.3199 74.7835 11.5862L71.9819 13.9166C71.5816 14.2495 71.5816 14.8487 71.9819 15.1816L74.7835 17.512Z" fill="#EF9F28"/>
<path d="M37.6237 68.3115C36.6898 69.7097 35.5558 71.9735 34.8888 73.9044C34.8221 74.0375 34.7554 74.2373 34.7554 74.3704C34.2884 74.3039 33.8215 74.1707 33.3546 74.0375C32.9543 73.1054 32.6875 72.1067 32.6875 72.1067C32.9543 71.7738 33.1544 71.5074 33.4213 71.2411C34.6887 69.6432 36.0228 68.5778 37.6237 68.3115Z" fill="#B6C2D2"/>
<path d="M35.1594 74.4361C35.026 74.4361 34.8925 74.3695 34.7591 74.3695C34.2922 74.3029 33.8253 74.1698 33.3583 74.0366C33.0248 73.97 32.758 73.8369 32.4244 73.7703C32.291 73.7037 32.1576 73.7037 32.0242 73.6371C31.8908 73.5705 31.7574 73.5705 31.5573 73.5039C29.8229 72.9713 28.1553 72.2389 26.5543 71.4399C24.8867 68.6435 23.9528 65.1813 22.3519 60.454C22.3519 60.3874 22.3519 60.3874 22.2852 60.3208C22.2852 60.3208 22.4186 60.3208 22.7521 60.454C22.9522 60.5871 23.2857 60.7203 23.686 60.9866C24.4864 61.5193 25.7539 62.4514 27.6216 63.9828C29.9563 65.9136 31.9575 68.7767 33.3583 71.1736C33.9587 72.2389 34.4923 73.171 34.8925 73.9034C35.026 74.0366 35.0927 74.2363 35.1594 74.4361Z" fill="#EDF2F8"/>
<path d="M32.4244 73.7004C32.291 73.6339 32.1576 73.6339 32.0242 73.5673C31.8908 73.5007 31.7574 73.5007 31.5573 73.4341C28.4888 67.242 25.0201 63.3137 22.9522 61.05C22.7521 60.7836 22.552 60.5839 22.3519 60.3841C22.3519 60.3176 22.3519 60.3176 22.2852 60.251C22.2852 60.251 22.4186 60.251 22.7521 60.3841C22.9522 60.5173 23.2857 60.6505 23.686 60.9168C25.8206 63.3137 29.356 67.3752 32.4244 73.7004Z" fill="#D8E2EE"/>
<path d="M51.7701 73.7695C51.8368 73.7695 51.8368 73.7695 51.9035 73.7695C51.8368 73.7695 51.7034 73.8362 51.6367 73.8362C51.6367 73.7695 51.7034 73.7695 51.7701 73.7695Z" fill="#D5DAE8"/>
<path d="M51.9694 73.701C52.0361 73.701 52.0361 73.701 52.1028 73.6343C52.0361 73.6343 51.9026 73.701 51.8359 73.701C51.9026 73.701 51.9026 73.701 51.9694 73.701Z" fill="#D5DAE8"/>
<path d="M63.6483 59.126C63.6483 59.126 63.5815 59.2591 63.4481 59.5255C62.6477 60.9903 59.9127 66.0505 58.6453 70.3783C58.6453 70.3783 58.5786 70.4448 58.5119 70.4448C57.8448 70.8443 57.1778 71.1772 56.5107 71.5101C56.1772 71.7099 55.8437 71.843 55.5101 71.9762C55.3767 72.0428 55.2433 72.1094 55.1099 72.176H55.0432C54.9098 72.2425 54.7097 72.3091 54.5763 72.3757C53.5757 72.8418 52.5084 73.1747 51.4411 73.5076C51.3077 73.5742 51.1076 73.6407 50.9742 73.6407C50.9074 73.6407 50.8407 73.7073 50.774 73.7073C50.7073 73.7073 50.6406 73.7073 50.6406 73.7739C50.9074 72.9084 51.1743 72.0428 51.5078 71.3104C52.5084 68.7137 53.7758 66.6497 55.2433 64.9186C55.7103 64.3859 56.1772 63.8533 56.6441 63.3872C58.5786 61.4563 60.6465 60.1913 62.581 59.5255C62.8478 59.3923 63.248 59.2591 63.6483 59.126Z" fill="#EDF2F8"/>
<path d="M63.6384 59.126C63.6384 59.126 63.5717 59.2591 63.4383 59.5255C60.9035 61.7227 58.5687 65.1849 56.5009 69.6459C56.1673 70.4448 55.8338 71.1772 55.5003 72.0428C55.3669 72.1094 55.2335 72.176 55.1 72.2425H55.0333C54.8999 72.3091 54.6998 72.3757 54.5664 72.4423C54.6331 72.3091 54.6998 72.2425 54.6998 72.2425C55.3002 70.7777 55.9005 69.3795 56.5009 68.1145C58.3019 64.4525 60.3031 61.5229 62.4377 59.5255C62.8379 59.3923 63.2382 59.2591 63.6384 59.126Z" fill="#D8E2EE"/>
<path d="M54.4351 73.8398C54.3017 74.1728 54.235 74.5057 54.1016 74.8386" stroke="white" stroke-width="0.625" stroke-miterlimit="10"/>
<defs>
<linearGradient id="paint0_linear_186_47670" x1="41.766" y1="8.8501" x2="41.766" y2="75.0321" gradientUnits="userSpaceOnUse">
<stop stop-color="#192942"/>
<stop offset="1" stop-color="#192942" stop-opacity="0.58"/>
</linearGradient>
<linearGradient id="paint1_linear_186_47670" x1="8.76171" y1="19.38" x2="9.78917" y2="22.5471" gradientUnits="userSpaceOnUse">
<stop stop-color="#192942"/>
<stop offset="1" stop-color="#192942" stop-opacity="0.58"/>
</linearGradient>
<linearGradient id="paint2_linear_186_47670" x1="12.723" y1="14.9661" x2="13.4216" y2="17.1197" gradientUnits="userSpaceOnUse">
<stop stop-color="#192942"/>
<stop offset="1" stop-color="#192942" stop-opacity="0.58"/>
</linearGradient>
<linearGradient id="paint3_linear_186_47670" x1="63.5706" y1="18.9756" x2="63.5706" y2="35.4878" gradientUnits="userSpaceOnUse">
<stop stop-color="#192942"/>
<stop offset="1" stop-color="#192942" stop-opacity="0.58"/>
</linearGradient>
</defs>
</svg>
