<svg width="4" height="20" viewBox="0 0 4 20" fill="none" xmlns="http://www.w3.org/2000/svg">
<path d="M4 10C4 8.89543 3.10457 8 2 8C0.895431 8 0 8.89543 0 10C0 11.1046 0.895431 12 2 12C3.10457 12 4 11.1046 4 10Z" fill="#5C5F62"/>
<path d="M4 2C4 0.89543 3.10457 2.38419e-07 2 2.38419e-07C0.895431 2.38419e-07 0 0.89543 0 2C0 3.10457 0.895431 4 2 4C3.10457 4 4 3.10457 4 2Z" fill="#5C5F62"/>
<path d="M4 18C4 16.8954 3.10457 16 2 16C0.895431 16 0 16.8954 0 18C0 19.1046 0.895431 20 2 20C3.10457 20 4 19.1046 4 18Z" fill="#5C5F62"/>
</svg>
