<svg width="18" height="18" viewBox="0 0 18 18" fill="none" xmlns="http://www.w3.org/2000/svg">
<path d="M15.5 8.625C15.5 12.1458 12.8044 15 9.47919 15C8.71647 15 7.98687 14.8498 7.31534 14.5759C7.19256 14.5258 7.13117 14.5008 7.08235 14.4889C7.03433 14.4771 6.99958 14.4722 6.95034 14.4703C6.90027 14.4682 6.84535 14.4742 6.7355 14.4863L3.10811 14.8833C2.76227 14.9211 2.58935 14.9401 2.48735 14.8742C2.39851 14.8168 2.33799 14.7209 2.32189 14.6121C2.30339 14.4871 2.38602 14.3252 2.55129 14.0013L3.70988 11.7306C3.80529 11.5436 3.853 11.4501 3.87461 11.3602C3.89595 11.2714 3.90111 11.2074 3.89428 11.1161C3.88737 11.0236 3.84905 10.9032 3.77241 10.6625C3.56874 10.0227 3.45835 9.3375 3.45835 8.625C3.45835 5.10418 6.15397 2.25 9.47919 2.25C12.8044 2.25 15.5 5.10418 15.5 8.625Z" stroke="#475467" stroke-linecap="round" stroke-linejoin="round"/>
</svg>
