<svg width="33" height="33" viewBox="0 0 33 33" fill="none" xmlns="http://www.w3.org/2000/svg">
<g clip-path="url(#clip0_336_2813)">
<path d="M8.06987 27.8622L7.55857 24.2492C7.48578 23.735 7.0094 23.376 6.49565 23.4498C5.98134 23.5225 5.62346 23.9985 5.69625 24.5127L5.81074 25.3218C4.83434 24.1169 4.05689 22.7505 3.51831 21.2778C-0.294106 10.8543 8.91297 0.341828 19.6476 2.63169C20.1554 2.73978 20.6551 2.41613 20.7636 1.90815C20.872 1.40017 20.548 0.90053 20.0401 0.792126C7.91852 -1.79404 -2.59537 10.0385 1.75186 21.924C2.3609 23.5893 3.23968 25.1353 4.34367 26.4994L3.43492 26.3248C2.92468 26.227 2.43188 26.5609 2.33388 27.0709C2.23588 27.581 2.56994 28.074 3.07999 28.172L6.88099 28.9022C7.56553 29.0953 8.16066 28.5026 8.06987 27.8622Z" fill="#007AB6"/>
<path d="M31.7718 10.9325C31.1628 9.26721 30.284 7.7212 29.18 6.35714L30.0888 6.53169C30.5986 6.6295 31.0919 6.29564 31.1899 5.78559C31.2879 5.27548 30.9538 4.78255 30.4438 4.68455L26.642 3.95418C25.9662 3.76395 25.3617 4.34385 25.4539 4.99421L25.9652 8.60725C26.0316 9.07686 26.4341 9.41605 26.8952 9.41605C27.4701 9.41605 27.9074 8.90801 27.8275 8.34367L27.713 7.53455C28.6894 8.73954 29.4669 10.1059 30.0054 11.5785C32.6754 18.8786 28.9201 26.9938 21.6343 29.6685C19.1418 30.5835 16.459 30.7758 13.8762 30.2247C13.3684 30.1164 12.8686 30.4403 12.7602 30.9482C12.6518 31.4562 12.9757 31.9559 13.4837 32.0643C16.414 32.6895 19.4566 32.4716 22.2825 31.4342C30.5609 28.3952 34.805 19.2254 31.7718 10.9325Z" fill="#007AB6"/>
<path d="M26.5109 16.4776C26.5109 11.0929 22.1375 6.71214 16.7618 6.71214C11.3861 6.71214 7.0127 11.0929 7.0127 16.4776C7.0127 21.8623 11.3861 26.2431 16.7618 26.2431C22.1375 26.2431 26.5109 21.8623 26.5109 16.4776ZM8.89364 16.4776C8.89364 12.1301 12.4233 8.59308 16.7618 8.59308C21.1003 8.59308 24.63 12.1301 24.63 16.4776C24.63 20.8252 21.1003 24.3621 16.7618 24.3621C12.4233 24.3621 8.89364 20.8252 8.89364 16.4776Z" fill="#181D25"/>
<path d="M17.7022 21.7602V20.9751C19.3319 20.9751 20.4659 19.6961 20.4659 18.2562C20.4659 16.7569 19.2476 15.5371 17.7502 15.5371H15.7734C15.3131 15.5371 14.9386 15.1612 14.9386 14.6991C14.9386 14.253 15.2897 13.861 15.7865 13.861H17.6792C18.0113 13.8644 18.3399 14.014 18.5813 14.272C18.936 14.6513 19.5311 14.6711 19.9105 14.3163C20.2898 13.9615 20.3096 13.3664 19.9548 12.9871C19.365 12.3565 18.5445 11.9902 17.7022 11.9805V11.1951C17.7022 10.6757 17.2811 10.2546 16.7618 10.2546C16.2424 10.2546 15.8213 10.6757 15.8213 11.1951V11.9802C14.1916 11.9802 13.0576 13.2592 13.0576 14.6991C13.0576 16.1984 14.2759 17.4181 15.7733 17.4181H17.7501C18.2105 17.4181 18.5849 17.7941 18.5849 18.2562C18.5849 18.7215 18.2094 19.0943 17.7503 19.0943C17.7459 19.0943 17.7413 19.0942 17.737 19.0942H15.6718C15.4375 19.0919 15.1883 19.0069 14.9697 18.8551C14.5431 18.5586 13.9571 18.6641 13.6607 19.0906C13.3643 19.5171 13.4697 20.1031 13.8963 20.3996C14.5402 20.8472 15.1395 20.9752 15.8212 20.9752V21.7603C15.8212 22.2797 16.2423 22.7008 16.7617 22.7008C17.2811 22.7006 17.7022 22.2796 17.7022 21.7602Z" fill="#181D25"/>
</g>
<defs>
<clipPath id="clip0_336_2813">
<rect width="32" height="32" fill="white" transform="translate(0.751953 0.423218)"/>
</clipPath>
</defs>
</svg>
