<svg width="5" height="20" viewBox="0 0 5 20" fill="none" xmlns="http://www.w3.org/2000/svg">
<path d="M4.5 10C4.5 8.89543 3.60457 8 2.5 8C1.39543 8 0.5 8.89543 0.5 10C0.5 11.1046 1.39543 12 2.5 12C3.60457 12 4.5 11.1046 4.5 10Z" fill="#5C5F62"/>
<path d="M4.5 2C4.5 0.89543 3.60457 2.38419e-07 2.5 2.38419e-07C1.39543 2.38419e-07 0.5 0.89543 0.5 2C0.5 3.10457 1.39543 4 2.5 4C3.60457 4 4.5 3.10457 4.5 2Z" fill="#5C5F62"/>
<path d="M4.5 18C4.5 16.8954 3.60457 16 2.5 16C1.39543 16 0.5 16.8954 0.5 18C0.5 19.1046 1.39543 20 2.5 20C3.60457 20 4.5 19.1046 4.5 18Z" fill="#5C5F62"/>
</svg>
