<svg width="21" height="30" viewBox="0 0 21 30" fill="none" xmlns="http://www.w3.org/2000/svg">
<path d="M20.3785 10.4914C20.3785 5.03583 15.955 0.612305 10.4994 0.612305C5.04382 0.612305 0.617188 5.03583 0.617188 10.4914C0.617188 12.512 1.22336 14.374 2.26785 15.9594H2.24609L10.4901 28.6331L18.7309 15.9594H18.7278C19.7692 14.374 20.3785 12.5151 20.3785 10.4914ZM10.4963 13.4819C8.20526 13.4819 6.34943 11.626 6.34943 9.33501C6.34943 7.04398 8.20526 5.18815 10.4963 5.18815C12.7873 5.18815 14.6432 7.04398 14.6432 9.33501C14.6432 11.626 12.7842 13.4819 10.4963 13.4819Z" fill="url(#paint0_linear_1_24010)"/>
<path d="M21 10.4918C20.9938 7.98317 20.0861 5.55536 18.4634 3.64979C16.8998 1.81572 14.6709 0.541199 12.2959 0.146408C9.79664 -0.267035 7.20096 0.196145 5.03427 1.52351C2.95463 2.79493 1.36924 4.77199 0.567226 7.06924C-0.374677 9.77061 -0.125989 12.8015 1.18273 15.335C1.34748 15.6583 1.534 15.9691 1.72984 16.2738C1.91014 15.9629 2.08733 15.649 2.26763 15.3381C2.26141 15.3381 2.25208 15.3381 2.24587 15.3381C1.79201 15.3381 1.44696 15.8728 1.70808 16.2738C1.98164 16.6966 2.2583 17.1193 2.53186 17.5421C3.18777 18.5493 3.84057 19.5533 4.49649 20.5605C5.28918 21.7822 6.08498 23.0008 6.87767 24.2225C7.56467 25.2763 8.25167 26.3332 8.93556 27.387C9.26818 27.8999 9.59458 28.4191 9.93652 28.9258C9.94274 28.932 9.94585 28.9413 9.95207 28.9475C10.2132 29.3485 10.7665 29.3485 11.0245 28.9475C11.2981 28.5247 11.5748 28.102 11.8483 27.6792C12.5042 26.672 13.157 25.6679 13.8129 24.6608C14.6056 23.4391 15.4014 22.2205 16.1941 20.9988C16.8811 19.945 17.5681 18.8881 18.252 17.8343C18.5846 17.3214 18.9359 16.8178 19.253 16.2955C19.2561 16.2893 19.2623 16.28 19.2685 16.2738C19.5296 15.8728 19.1846 15.3381 18.7307 15.3381C18.7307 15.3381 18.7307 15.3381 18.7276 15.3381C18.9079 15.649 19.0851 15.9629 19.2654 16.2738C20.3845 14.5578 20.9938 12.5435 21 10.4918C21 10.1654 20.714 9.85454 20.3783 9.87008C20.0394 9.88563 19.7566 10.1436 19.7566 10.4918C19.7566 10.7467 19.7472 11.0016 19.7286 11.2565C19.7193 11.3715 19.7099 11.4897 19.6944 11.6047C19.6913 11.6358 19.6664 11.8285 19.6882 11.6793C19.682 11.7321 19.6726 11.785 19.6664 11.8378C19.5949 12.3072 19.4861 12.7704 19.3462 13.2243C19.2809 13.4387 19.2063 13.6532 19.1255 13.8646C19.1007 13.9299 19.0758 13.9921 19.0478 14.0574C18.9981 14.1817 19.0882 13.9672 19.0292 14.1009C18.9794 14.2128 18.9297 14.3216 18.8799 14.4304C18.6779 14.85 18.4478 15.2573 18.1929 15.6458C17.9318 16.0469 18.2769 16.5815 18.7307 16.5815C18.7307 16.5815 18.7307 16.5815 18.7338 16.5815C18.5535 16.2707 18.3763 15.9567 18.1961 15.6458C17.9225 16.0686 17.6458 16.4914 17.3723 16.9142C16.7164 17.9213 16.0636 18.9254 15.4076 19.9326C14.615 21.1543 13.8192 22.3728 13.0265 23.5945C12.3395 24.6483 11.6525 25.7052 10.9686 26.7591C10.636 27.2689 10.2816 27.7725 9.96761 28.2978C9.9645 28.304 9.95828 28.3134 9.95207 28.3196C10.3096 28.3196 10.667 28.3196 11.0245 28.3196C10.751 27.8968 10.4743 27.474 10.2008 27.0513C9.54484 26.0441 8.89204 25.04 8.23612 24.0328C7.44343 22.8112 6.64763 21.5926 5.85494 20.3709C5.16794 19.3171 4.48094 18.2602 3.79705 17.2064C3.46443 16.6966 3.15047 16.165 2.79609 15.6676C2.78987 15.6614 2.78676 15.6521 2.78054 15.6458C2.60025 15.9567 2.42306 16.2707 2.24276 16.5815C2.24897 16.5815 2.2583 16.5815 2.26452 16.5815C2.71837 16.5815 3.06343 16.0469 2.8023 15.6458C2.60335 15.3412 2.41995 15.0303 2.25519 14.7071C2.17748 14.5547 2.09976 14.3993 2.02826 14.2408C2.01272 14.2097 2.00029 14.1786 1.98474 14.1475C1.97542 14.1289 1.91014 13.9672 1.96609 14.104C1.9319 14.0232 1.90081 13.9423 1.86973 13.8615C1.6086 13.1838 1.42209 12.4751 1.3164 11.757C1.31018 11.7228 1.29775 11.6016 1.31329 11.7383C1.31018 11.7042 1.30396 11.6668 1.30085 11.6327C1.29153 11.5425 1.2822 11.4555 1.27288 11.3653C1.25423 11.1664 1.2449 10.9674 1.23868 10.7685C1.22936 10.4514 1.23557 10.1343 1.25733 9.82035C1.26666 9.68357 1.27909 9.5499 1.29464 9.41312C1.30085 9.34784 1.29775 9.26391 1.31951 9.20174C1.26977 9.35406 1.31329 9.24836 1.31951 9.19863C1.32572 9.15511 1.33194 9.1147 1.33816 9.07117C1.38479 8.77897 1.44696 8.48987 1.51846 8.20388C1.58684 7.93343 1.66767 7.6692 1.76093 7.40497C1.80755 7.27441 1.85418 7.14385 1.90703 7.0164C1.91946 6.98531 1.9319 6.95112 1.94433 6.92003C1.96609 6.86718 1.95988 6.8019 1.93812 6.93557C1.95055 6.86097 2.0065 6.77703 2.03759 6.70864C2.27073 6.19884 2.5474 5.71079 2.86137 5.24761C2.93908 5.1357 3.0168 5.02379 3.09762 4.91499C3.11316 4.89323 3.13181 4.87147 3.14736 4.84971C3.22818 4.7378 3.07897 4.93364 3.13803 4.86214C3.18466 4.80308 3.23129 4.74401 3.27792 4.68806C3.45822 4.46735 3.64784 4.25597 3.84679 4.0508C4.03642 3.85496 4.23226 3.66844 4.43742 3.49125C4.54001 3.4011 4.64259 3.31406 4.74828 3.23013C4.77937 3.20526 4.81356 3.18039 4.84465 3.15552C4.89128 3.11822 4.87263 3.09957 4.81667 3.17728C4.85708 3.12133 4.95656 3.07159 5.01251 3.03118C5.46637 2.70167 5.94509 2.41257 6.44868 2.16699C6.57303 2.10482 6.69737 2.04887 6.82171 1.99291C6.84658 1.98048 6.87145 1.97115 6.89632 1.95872C7.02999 1.89965 6.76576 2.01156 6.89943 1.95872C6.97093 1.93074 7.03931 1.90276 7.11081 1.87478C7.37504 1.7722 7.64549 1.68205 7.91905 1.60434C8.20193 1.52351 8.48792 1.45512 8.77702 1.39917C8.90758 1.3743 9.04125 1.34943 9.17492 1.33078C9.206 1.32767 9.24952 1.31213 9.28061 1.31524C9.18113 1.2997 9.18114 1.32767 9.24331 1.32146C9.32724 1.31213 9.41428 1.2997 9.49821 1.29348C10.0888 1.23441 10.6857 1.2282 11.2763 1.27483C11.4193 1.28726 11.5623 1.2997 11.7053 1.31835C11.7177 1.32146 11.8576 1.34322 11.7488 1.32456C11.64 1.30591 11.7799 1.33078 11.7924 1.33078C11.8763 1.34322 11.9602 1.35565 12.0441 1.37119C12.3208 1.42093 12.5944 1.47999 12.8679 1.55149C13.1508 1.6261 13.4275 1.71314 13.7041 1.81261C13.8347 1.85924 13.9621 1.91209 14.0896 1.96183C14.1362 1.98048 14.1704 1.96804 14.0554 1.94628C14.0927 1.9525 14.1362 1.98048 14.1704 1.99602C14.2326 2.024 14.2948 2.05197 14.3569 2.07995C14.8699 2.31931 15.3641 2.6053 15.8273 2.9286C15.933 3.0032 16.0356 3.08092 16.1413 3.15552C16.2563 3.24257 16.0325 3.06848 16.1444 3.15863C16.1661 3.17418 16.1879 3.19283 16.2097 3.20837C16.2718 3.25811 16.3371 3.31095 16.3993 3.3638C16.6138 3.54099 16.8189 3.73061 17.0148 3.92646C17.2106 4.1223 17.4003 4.32746 17.5805 4.53885C17.6676 4.64143 17.7546 4.74712 17.8386 4.85282C17.907 4.93986 17.8261 4.83106 17.8168 4.82484C17.8448 4.84349 17.8696 4.89634 17.8914 4.9212C17.9349 4.98027 17.9784 5.04244 18.022 5.1015C18.3484 5.56468 18.6375 6.05273 18.8831 6.56565C18.939 6.68378 18.9887 6.80501 19.0447 6.92314C19.082 7.00707 18.9856 6.77703 19.0385 6.90759C19.0509 6.93868 19.0633 6.97288 19.0758 7.00396C19.1038 7.07546 19.1317 7.14385 19.1566 7.21535C19.2592 7.4889 19.3493 7.76557 19.4239 8.04845C19.4986 8.3189 19.5607 8.59245 19.6105 8.86912C19.6353 9.009 19.6509 9.14889 19.6788 9.28878C19.6415 9.09915 19.6851 9.33851 19.6882 9.37893C19.6975 9.46286 19.7068 9.5499 19.713 9.63694C19.7379 9.92604 19.7503 10.2151 19.7503 10.5042C19.7503 10.8306 20.0363 11.1415 20.3721 11.126C20.714 11.098 21 10.84 21 10.4918Z" fill="url(#paint1_linear_1_24010)"/>
<path d="M10.4964 12.8609C10.3938 12.8609 10.2943 12.8578 10.1918 12.8484C10.142 12.8453 10.0923 12.8391 10.0425 12.836C10.0177 12.8329 9.92441 12.8205 10.0208 12.8329C10.1265 12.8484 9.98659 12.8267 9.97726 12.8267C9.77831 12.7925 9.57936 12.7459 9.38663 12.6837C9.29337 12.6526 9.20633 12.6153 9.11307 12.5842C9.03536 12.5593 9.22187 12.6371 9.14727 12.5998C9.12862 12.5904 9.10996 12.5842 9.09131 12.5749C9.04157 12.5531 8.99184 12.5283 8.9421 12.5034C8.75869 12.4101 8.58461 12.3075 8.41675 12.1894C8.39188 12.1708 8.27064 12.0993 8.34836 12.1428C8.42918 12.1863 8.30795 12.1086 8.28308 12.0899C8.19915 12.0216 8.11832 11.947 8.04061 11.8723C7.97222 11.8071 7.90694 11.7387 7.84477 11.6672C7.81368 11.633 7.7826 11.5957 7.75151 11.5584C7.73907 11.5428 7.72664 11.5273 7.71421 11.5117C7.70177 11.4962 7.64582 11.3998 7.68623 11.4776C7.72664 11.5553 7.65825 11.4371 7.6396 11.4092C7.61162 11.3719 7.58675 11.3315 7.55878 11.291C7.50282 11.2071 7.44998 11.117 7.40024 11.0299C7.35361 10.946 7.31009 10.8621 7.26968 10.775C7.25724 10.7501 7.24792 10.7253 7.23548 10.7004C7.19818 10.6227 7.22305 10.7222 7.25103 10.7346C7.22616 10.7191 7.20129 10.6071 7.19196 10.5792C7.12357 10.3895 7.06762 10.1937 7.02721 9.99787C7.01788 9.94813 7.00856 9.9015 6.99923 9.85176C6.99923 9.85176 6.98058 9.77405 6.9868 9.76783C6.98369 9.77094 7.00545 9.92637 6.99301 9.80513C6.98369 9.69944 6.97436 9.59064 6.96814 9.48184C6.96193 9.27356 6.97125 9.06218 6.99301 8.8539C7.00545 8.74199 6.97436 8.97825 6.99612 8.82903C7.00545 8.7793 7.01166 8.73267 7.02099 8.68293C7.04275 8.57413 7.06762 8.46533 7.09871 8.35653C7.12668 8.26327 7.15466 8.17001 7.18885 8.07986C7.2044 8.03324 7.22616 7.98972 7.2417 7.94619C7.26346 7.87781 7.21994 8.00526 7.21994 7.99904C7.21683 7.9835 7.25413 7.92443 7.26035 7.90578C7.34739 7.71927 7.44687 7.54208 7.55878 7.37111C7.58365 7.33069 7.61162 7.29339 7.6396 7.25298C7.65514 7.23122 7.73286 7.10066 7.68623 7.18459C7.64582 7.2623 7.71732 7.14729 7.73908 7.11931C7.77327 7.0789 7.80746 7.03538 7.84477 6.99497C7.98155 6.84264 8.12765 6.70276 8.28308 6.5722C8.30484 6.55355 8.42918 6.47583 8.34836 6.51935C8.26753 6.56287 8.39499 6.48516 8.41675 6.47272C8.50068 6.41366 8.58461 6.3577 8.67165 6.30486C8.75248 6.25512 8.83641 6.20849 8.92034 6.16497C8.96386 6.14321 9.00738 6.12145 9.04779 6.1028C9.07266 6.09037 9.09753 6.08104 9.1224 6.06861C9.20944 6.02819 9.09442 6.06861 9.0882 6.08415C9.11307 6.03752 9.32756 5.994 9.38041 5.97846C9.47989 5.94737 9.57936 5.91939 9.68194 5.89452C9.77831 5.87276 9.87468 5.851 9.97104 5.83546C9.99902 5.83235 10.0301 5.82924 10.055 5.82303C10.055 5.82303 9.92441 5.83857 9.99591 5.83235C10.0612 5.82613 10.1234 5.81992 10.1886 5.8137C10.3969 5.79816 10.6083 5.79816 10.8166 5.81681C10.8663 5.81992 10.9161 5.82613 10.9658 5.83235C11.0808 5.84168 10.8446 5.8137 10.9907 5.83546C11.0932 5.851 11.1989 5.87276 11.3015 5.89763C11.3948 5.91939 11.4911 5.94737 11.5813 5.97535C11.6372 5.994 11.8642 6.03752 11.8922 6.08726C11.8922 6.09037 11.774 6.03441 11.8393 6.0655C11.8642 6.07793 11.889 6.08726 11.9139 6.09969C11.9574 6.11834 12.001 6.1401 12.0445 6.16186C12.1346 6.20849 12.2248 6.25823 12.3118 6.31108C12.3989 6.36392 12.4859 6.41988 12.5667 6.47894C12.5823 6.49137 12.6631 6.53179 12.6662 6.55044C12.6631 6.52868 12.5698 6.47272 12.6382 6.52868C12.6631 6.55044 12.6911 6.5722 12.7159 6.59396C12.8651 6.72141 13.0081 6.85508 13.1387 7.00118C13.1884 7.05403 13.3003 7.15039 13.3221 7.21878C13.3035 7.15039 13.2599 7.13485 13.2972 7.19081C13.3128 7.21257 13.3283 7.23433 13.3439 7.25609C13.375 7.29961 13.406 7.34624 13.434 7.38976C13.5428 7.55451 13.6361 7.72859 13.72 7.90889C13.7324 7.93376 13.7418 7.95863 13.7542 7.9835C13.7853 8.04567 13.7293 7.92754 13.7324 7.93065C13.7573 7.94309 13.7729 8.03634 13.7853 8.06432C13.8226 8.1669 13.8568 8.2726 13.8879 8.3814C13.9127 8.47466 13.9376 8.57102 13.9563 8.66739C13.9656 8.71713 13.9749 8.76375 13.9842 8.81349C13.9873 8.83525 13.9905 8.85701 13.9936 8.87566C14.006 8.95338 13.9811 8.73889 13.9905 8.85701C14.0091 9.07461 14.0215 9.28911 14.0122 9.50671C14.0091 9.60618 13.9998 9.70566 13.9905 9.80824C13.978 9.92326 14.0122 9.67457 13.9873 9.83311C13.978 9.88906 13.9687 9.94502 13.9563 9.99787C13.9158 10.1968 13.8599 10.3895 13.7915 10.5792C13.7822 10.6009 13.7542 10.7222 13.7324 10.7346C13.7293 10.7346 13.7853 10.6165 13.7542 10.6818C13.7418 10.7066 13.7324 10.7315 13.72 10.7564C13.6765 10.8496 13.6299 10.9398 13.5801 11.0299C13.5335 11.1138 13.4838 11.1947 13.434 11.2755C13.4091 11.3159 13.3812 11.3532 13.3532 11.3936C13.3376 11.4154 13.3221 11.4371 13.3066 11.4589C13.2941 11.4776 13.2537 11.5522 13.2941 11.4776C13.3376 11.3967 13.2599 11.518 13.2413 11.5428C13.2071 11.5832 13.1729 11.6268 13.1356 11.6672C13.0672 11.7418 12.9957 11.8164 12.9242 11.8848C12.8558 11.9501 12.7843 12.0122 12.7128 12.0744C12.6817 12.0993 12.6382 12.1552 12.6009 12.1646C12.6071 12.1614 12.7221 12.0775 12.6289 12.1397C12.6071 12.1552 12.5854 12.1708 12.5636 12.1863C12.3957 12.3044 12.2217 12.4101 12.0383 12.5003C11.9947 12.522 11.9512 12.5438 11.9077 12.5625C11.889 12.5718 11.8704 12.578 11.8517 12.5873C11.746 12.6371 11.8859 12.578 11.8859 12.5718C11.8611 12.6153 11.6435 12.6619 11.5937 12.6775C11.3948 12.7428 11.1896 12.7925 10.9813 12.8236C10.8352 12.8484 11.0715 12.8174 10.9565 12.8267C10.9067 12.8329 10.857 12.836 10.8073 12.8422C10.7109 12.8578 10.6052 12.8609 10.4964 12.8609C10.17 12.864 9.85913 13.1469 9.87468 13.4826C9.89022 13.8183 10.1482 14.1074 10.4964 14.1043C11.4663 14.0981 12.4455 13.8059 13.232 13.237C14.0402 12.6526 14.6433 11.8692 14.9883 10.9304C15.6598 9.1057 15.0691 6.92347 13.5677 5.68936C12.7843 5.04588 11.8548 4.66352 10.8414 4.57959C9.87157 4.49877 8.86128 4.74434 8.03128 5.25105C7.23237 5.73599 6.56092 6.4665 6.17545 7.32137C5.74958 8.26638 5.62834 9.29222 5.8304 10.3087C6.20032 12.1863 7.79503 13.7406 9.68816 14.0328C9.9555 14.0732 10.2259 14.1043 10.4964 14.1043C10.8228 14.1074 11.1337 13.8183 11.1181 13.4826C11.1026 13.1469 10.8446 12.864 10.4964 12.8609Z" fill="url(#paint2_linear_1_24010)"/>
<defs>
<linearGradient id="paint0_linear_1_24010" x1="10.4978" y1="0.612305" x2="10.4978" y2="28.6331" gradientUnits="userSpaceOnUse">
<stop stop-color="#8449EB"/>
<stop offset="1" stop-color="#6A56F6"/>
</linearGradient>
<linearGradient id="paint1_linear_1_24010" x1="10.5" y1="0" x2="10.5" y2="29.2483" gradientUnits="userSpaceOnUse">
<stop stop-color="#8449EB"/>
<stop offset="1" stop-color="#6A56F6"/>
</linearGradient>
<linearGradient id="paint2_linear_1_24010" x1="10.4992" y1="4.56445" x2="10.4992" y2="14.1043" gradientUnits="userSpaceOnUse">
<stop stop-color="#8449EB"/>
<stop offset="1" stop-color="#6A56F6"/>
</linearGradient>
</defs>
</svg>
