<svg width="16" height="16" viewBox="0 0 16 16" fill="none" xmlns="http://www.w3.org/2000/svg">
<g clip-path="url(#clip0_1_20971)">
<path d="M10.6654 2C11.1755 1.99997 11.6664 2.19488 12.0375 2.54486C12.4087 2.89483 12.6321 3.3734 12.662 3.88267L12.6654 4V10.6667H13.1654C13.5967 10.6667 13.952 10.9947 13.9947 11.4147L13.9987 11.5V12.6667C13.9987 13.1768 13.8038 13.6677 13.4538 14.0388C13.1039 14.41 12.6253 14.6334 12.116 14.6633L11.9987 14.6667H5.33203C4.82189 14.6667 4.33102 14.4718 3.95986 14.1218C3.58869 13.7718 3.36529 13.2933 3.33536 12.784L3.33203 12.6667V6H2.16536C1.95906 6.00009 1.76005 5.92366 1.60685 5.78548C1.45366 5.64731 1.35716 5.45722 1.33603 5.252L1.33203 5.16667V4C1.332 3.48986 1.52691 2.99899 1.87689 2.62783C2.22686 2.25666 2.70544 2.03326 3.2147 2.00333L3.33203 2H10.6654ZM10.6654 3.33333H4.66536V12.6667C4.66536 12.8435 4.7356 13.013 4.86063 13.1381C4.98565 13.2631 5.15522 13.3333 5.33203 13.3333C5.50884 13.3333 5.67841 13.2631 5.80344 13.1381C5.92846 13.013 5.9987 12.8435 5.9987 12.6667V11.5C5.9987 11.04 6.37203 10.6667 6.83203 10.6667H11.332V4C11.332 3.82319 11.2618 3.65362 11.1368 3.5286C11.0117 3.40357 10.8422 3.33333 10.6654 3.33333ZM12.6654 12H7.33203V12.6667C7.33203 12.9 7.29203 13.1247 7.2187 13.3333H11.9987C12.1755 13.3333 12.3451 13.2631 12.4701 13.1381C12.5951 13.013 12.6654 12.8435 12.6654 12.6667V12ZM7.9987 8C8.17551 8 8.34508 8.07024 8.4701 8.19526C8.59513 8.32029 8.66536 8.48986 8.66536 8.66667C8.66536 8.84348 8.59513 9.01305 8.4701 9.13807C8.34508 9.2631 8.17551 9.33333 7.9987 9.33333H6.66536C6.48855 9.33333 6.31898 9.2631 6.19396 9.13807C6.06894 9.01305 5.9987 8.84348 5.9987 8.66667C5.9987 8.48986 6.06894 8.32029 6.19396 8.19526C6.31898 8.07024 6.48855 8 6.66536 8H7.9987ZM9.33203 5.33333C9.50884 5.33333 9.67841 5.40357 9.80344 5.5286C9.92846 5.65362 9.9987 5.82319 9.9987 6C9.9987 6.17681 9.92846 6.34638 9.80344 6.4714C9.67841 6.59643 9.50884 6.66667 9.33203 6.66667H6.66536C6.48855 6.66667 6.31898 6.59643 6.19396 6.4714C6.06894 6.34638 5.9987 6.17681 5.9987 6C5.9987 5.82319 6.06894 5.65362 6.19396 5.5286C6.31898 5.40357 6.48855 5.33333 6.66536 5.33333H9.33203ZM3.33203 3.33333C3.16874 3.33335 3.01114 3.3933 2.88912 3.50181C2.76709 3.61032 2.68914 3.75983 2.67003 3.922L2.66536 4V4.66667H3.33203V3.33333Z" fill="black"/>
</g>
<defs>
<clipPath id="clip0_1_20971">
<rect width="16" height="16" fill="white"/>
</clipPath>
</defs>
</svg>
