<svg width="33" height="33" viewBox="0 0 33 33" fill="none" xmlns="http://www.w3.org/2000/svg">
<path d="M21.752 19.4232C21.2 19.4232 20.752 19.8702 20.752 20.4232V28.4232H4.75195V4.42322H20.752V12.4232C20.752 12.9762 21.2 13.4232 21.752 13.4232C22.304 13.4232 22.752 12.9762 22.752 12.4232V3.42322C22.752 2.87022 22.304 2.42322 21.752 2.42322H3.75195C3.19995 2.42322 2.75195 2.87022 2.75195 3.42322V29.4232C2.75195 29.9762 3.19995 30.4232 3.75195 30.4232H21.752C22.304 30.4232 22.752 29.9762 22.752 29.4232V20.4232C22.752 19.8702 22.304 19.4232 21.752 19.4232Z" fill="#007AB6"/>
<path d="M8.75195 8.42322C9.30295 8.42322 9.75195 8.87122 9.75195 9.42322C9.75195 9.97622 10.2 10.4232 10.752 10.4232C11.304 10.4232 11.752 9.97622 11.752 9.42322C11.752 8.12122 10.913 7.02122 9.75195 6.60722V6.42322C9.75195 5.87022 9.30395 5.42322 8.75195 5.42322C8.19995 5.42322 7.75195 5.87022 7.75195 6.42322V6.60722C6.59095 7.02122 5.75195 8.12122 5.75195 9.42322C5.75195 11.0772 7.09795 12.4232 8.75195 12.4232C9.30295 12.4232 9.75195 12.8712 9.75195 13.4232C9.75195 13.9752 9.30295 14.4232 8.75195 14.4232C8.20095 14.4232 7.75195 13.9752 7.75195 13.4232C7.75195 12.8702 7.30395 12.4232 6.75195 12.4232C6.19995 12.4232 5.75195 12.8702 5.75195 13.4232C5.75195 14.7252 6.59095 15.8252 7.75195 16.2392V16.4232C7.75195 16.9762 8.19995 17.4232 8.75195 17.4232C9.30395 17.4232 9.75195 16.9762 9.75195 16.4232V16.2392C10.913 15.8252 11.752 14.7252 11.752 13.4232C11.752 11.7692 10.406 10.4232 8.75195 10.4232C8.20095 10.4232 7.75195 9.97522 7.75195 9.42322C7.75195 8.87122 8.20095 8.42322 8.75195 8.42322Z" fill="#181D25"/>
<path d="M17.752 7.42322H13.752C13.2 7.42322 12.752 7.87022 12.752 8.42322C12.752 8.97622 13.2 9.42322 13.752 9.42322H17.752C18.304 9.42322 18.752 8.97622 18.752 8.42322C18.752 7.87022 18.304 7.42322 17.752 7.42322Z" fill="#181D25"/>
<path d="M17.752 11.4232H13.752C13.2 11.4232 12.752 11.8702 12.752 12.4232C12.752 12.9762 13.2 13.4232 13.752 13.4232H17.752C18.304 13.4232 18.752 12.9762 18.752 12.4232C18.752 11.8702 18.304 11.4232 17.752 11.4232Z" fill="#181D25"/>
<path d="M17.752 19.4232H7.75195C7.19995 19.4232 6.75195 19.8702 6.75195 20.4232C6.75195 20.9762 7.19995 21.4232 7.75195 21.4232H17.752C18.304 21.4232 18.752 20.9762 18.752 20.4232C18.752 19.8702 18.304 19.4232 17.752 19.4232Z" fill="#181D25"/>
<path d="M17.752 23.4232H7.75195C7.19995 23.4232 6.75195 23.8702 6.75195 24.4232C6.75195 24.9762 7.19995 25.4232 7.75195 25.4232H17.752C18.304 25.4232 18.752 24.9762 18.752 24.4232C18.752 23.8702 18.304 23.4232 17.752 23.4232Z" fill="#181D25"/>
<path d="M30.459 15.7162L28.459 13.7162C28.068 13.3252 27.436 13.3252 27.045 13.7162C26.654 14.1072 26.654 14.7392 27.045 15.1302L27.338 15.4232H13.752C13.2 15.4232 12.752 15.8702 12.752 16.4232C12.752 16.9762 13.2 17.4232 13.752 17.4232H27.338L27.045 17.7162C26.654 18.1072 26.654 18.7392 27.045 19.1302C27.24 19.3252 27.496 19.4232 27.752 19.4232C28.008 19.4232 28.264 19.3252 28.459 19.1302L30.459 17.1302C30.85 16.7392 30.85 16.1072 30.459 15.7162Z" fill="#181D25"/>
</svg>
