<svg width="201" height="49" viewBox="0 0 201 49" fill="none" xmlns="http://www.w3.org/2000/svg">
<path d="M76.7995 20.9576C76.2821 24.8386 73.1773 24.8386 70.3313 24.8386H68.7789L70.0725 17.3354C70.0725 16.8179 70.59 16.5592 71.1074 16.5592H71.8837C73.9535 16.5592 75.7646 16.5592 76.7995 17.5941C76.7995 18.629 76.7995 19.664 76.7995 20.9576ZM75.5059 10.6084H64.3805C63.6043 10.6084 63.0869 11.1259 62.8281 11.902L58.4297 40.3624C58.4297 40.8798 58.6884 41.3973 59.4646 41.3973H64.6392C65.4154 41.3973 65.9329 40.8798 66.1916 40.1036L67.4852 32.3417C67.4852 31.5655 68.2614 31.0481 69.0376 31.0481H72.6598C79.9043 31.0481 84.044 27.4259 85.3376 20.4401C85.8551 17.3354 85.3376 15.0068 84.044 13.1957C81.9741 11.6433 79.1281 10.6084 75.5059 10.6084Z" fill="#263577"/>
<path d="M101.114 31.3061C100.597 34.4109 98.2683 36.4807 95.1635 36.4807C93.6111 36.4807 92.3175 35.9633 91.5413 34.9283C90.7651 33.8934 90.5063 32.5998 90.7651 31.3061C91.2825 28.2014 93.6111 26.1315 96.7159 26.1315C98.2683 26.1315 99.5619 26.649 100.338 27.6839C100.856 28.4601 101.373 29.7537 101.114 31.3061ZM108.359 20.9569H103.184C102.667 20.9569 102.408 21.2156 102.149 21.7331L101.891 23.2855L101.632 22.768C100.597 21.2156 98.0096 20.4395 95.4223 20.4395C89.4715 20.4395 84.5556 24.8379 83.5207 31.0474C83.0032 34.1522 83.7794 36.9982 85.5905 39.068C87.1428 40.8791 89.4714 41.6553 92.3175 41.6553C96.9746 41.6553 99.5619 38.5506 99.5619 38.5506L99.3032 40.103C99.3032 40.6204 99.5619 41.1379 100.338 41.1379H104.995C105.771 41.1379 106.289 40.6204 106.548 39.8442L109.394 21.7331C109.394 21.4744 109.135 20.9569 108.359 20.9569Z" fill="#263577"/>
<path d="M136.562 20.9575H131.129C130.611 20.9575 130.094 21.2162 129.835 21.7337L122.591 32.6004L119.486 22.2512C119.227 21.475 118.71 21.2162 117.934 21.2162H112.759C112.242 21.2162 111.724 21.7337 111.983 22.5099L117.934 39.5861L112.5 47.348C111.983 47.8654 112.5 48.9004 113.277 48.9004H118.71C119.227 48.9004 119.745 48.6416 120.004 48.1242L137.597 22.5099C137.856 21.7337 137.338 20.9575 136.562 20.9575Z" fill="#263577"/>
<path d="M155.448 20.9576C154.931 24.8386 151.826 24.8386 148.98 24.8386H147.427L148.721 17.3354C148.721 16.8179 149.239 16.5592 149.756 16.5592H150.532C152.602 16.5592 154.413 16.5592 155.448 17.5941C155.707 18.629 155.707 19.664 155.448 20.9576ZM154.154 10.6084H143.029C142.253 10.6084 141.735 11.1259 141.477 11.902L137.078 40.3624C137.078 40.8798 137.337 41.3973 138.113 41.3973H143.805C144.323 41.3973 144.84 41.1386 144.84 40.3624L146.134 32.3417C146.134 31.5655 146.91 31.0481 147.686 31.0481H151.308C158.553 31.0481 162.692 27.4259 163.986 20.4401C164.504 17.3354 163.986 15.0068 162.692 13.1957C160.881 11.6433 158.035 10.6084 154.154 10.6084Z" fill="#2199D6"/>
<path d="M180.024 31.3061C179.507 34.4109 177.178 36.4807 174.074 36.4807C172.521 36.4807 171.228 35.9633 170.451 34.9283C169.675 33.8934 169.416 32.5998 169.675 31.3061C170.193 28.2014 172.521 26.1315 175.626 26.1315C177.178 26.1315 178.472 26.649 179.248 27.6839C179.766 28.4601 180.283 29.7537 180.024 31.3061ZM187.269 20.9569H182.094C181.577 20.9569 181.318 21.2156 181.059 21.7331L180.801 23.2855L180.542 22.768C179.507 21.2156 176.92 20.4395 174.332 20.4395C168.382 20.4395 163.466 24.8379 162.431 31.0474C161.913 34.1522 162.69 36.9982 164.501 39.068C166.053 40.8791 168.382 41.6553 171.228 41.6553C175.885 41.6553 178.472 38.5506 178.472 38.5506L178.213 40.103C178.213 40.6204 178.472 41.1379 179.248 41.1379H183.905C184.682 41.1379 185.199 40.6204 185.458 39.8442L188.304 21.7331C188.304 21.4744 187.786 20.9569 187.269 20.9569Z" fill="#2199D6"/>
<path d="M193.481 11.3846L188.824 40.3624C188.824 40.8798 189.083 41.3973 189.859 41.3973H194.516C195.293 41.3973 195.81 40.8798 196.069 40.1036L200.467 11.6433C200.467 11.1259 200.208 10.6084 199.432 10.6084H194.258C193.999 10.6084 193.74 11.1259 193.481 11.3846Z" fill="#2199D6"/>
<path d="M12.3757 46.8305L13.1518 41.3972H11.3407H2.28516L8.4947 1.81146C8.4947 1.81146 8.49468 1.55273 8.75341 1.55273H9.01216H24.2772C29.1931 1.55273 32.8153 2.58766 34.6264 4.6575C35.4026 5.69242 35.9201 6.72734 36.1788 7.76226C36.4376 9.05591 36.4376 10.3496 36.1788 12.1607V13.1956L36.955 13.7131C37.7312 13.9718 38.2487 14.4892 38.7661 15.0067C39.5423 15.7829 40.0598 16.8178 40.0598 18.1115C40.3185 19.4051 40.3185 20.9575 39.801 22.7686C39.2836 24.8384 38.7661 26.3908 37.9899 27.9432C37.2137 29.2369 36.1788 30.2718 35.1439 31.3067C34.109 32.0829 32.5566 32.6003 31.2629 33.1178C29.7105 33.3765 28.1582 33.6353 26.3471 33.6353H25.0534C24.2772 33.6353 23.5011 33.894 22.7249 34.4115C22.2074 34.9289 21.6899 35.7051 21.4312 36.4813V36.9988L19.8788 46.5718V46.8305V47.0892C19.8788 47.0892 19.8788 47.0892 19.6201 47.0892H12.3757V46.8305Z" fill="#263577"/>
<path d="M37.9831 12.1606C37.9831 12.4194 37.9831 12.6781 37.7243 12.9368C35.6545 23.286 28.9275 26.6495 20.1307 26.6495H15.7323C14.6973 26.6495 13.6625 27.4257 13.6625 28.4607L11.3339 42.9495L10.8164 47.0892C10.8164 47.8654 11.3339 48.3829 11.8513 48.3829H19.872C20.9069 48.3829 21.6831 47.6067 21.6831 46.8305V46.313L23.2355 36.9987V36.4813C23.4942 35.4464 24.2704 34.9289 25.0466 34.9289H26.3402C34.1021 34.9289 40.0529 31.8241 41.6053 22.7686C42.3815 18.8876 41.864 15.7829 40.0529 13.713C39.5355 13.1956 38.7593 12.6781 37.9831 12.1606Z" fill="#2199D6"/>
<path d="M35.9187 11.3846C35.66 11.3846 35.4013 11.1259 34.8838 11.1259C34.6251 11.1259 34.1076 10.8671 33.8489 10.8671C32.5552 10.6084 31.2616 10.6084 29.9679 10.6084H18.0664C17.8076 10.6084 17.5489 10.6084 17.2902 10.8671C16.7727 11.1259 16.2553 11.6433 16.2553 12.1608L13.668 28.2021V28.7195C13.9267 27.6846 14.7029 26.9084 15.7378 26.9084H20.1362C28.933 26.9084 35.66 23.2862 37.7298 13.1957C37.7298 12.937 37.7299 12.6782 37.9886 12.4195C37.4711 12.1608 36.9537 11.9021 36.4362 11.6433C36.1775 11.3846 35.9187 11.3846 35.9187 11.3846Z" fill="#252C5E"/>
<path d="M16.2543 12.1603C16.2543 11.6428 16.7717 11.1254 17.2892 10.8667C17.5479 10.8667 17.8067 10.6079 18.0654 10.6079H29.9669C31.2606 10.6079 32.813 10.6079 33.8479 10.8667C34.1066 10.8667 34.6241 10.8667 34.8828 11.1254C35.1416 11.1254 35.4003 11.3841 35.9177 11.3841C36.1765 11.3841 36.1765 11.3841 36.4352 11.6429C36.9527 11.9016 37.4701 12.1603 37.9876 12.419C38.5051 8.53809 37.9876 5.95079 35.9177 3.62222C33.5892 1.03491 29.4495 0 24.2749 0H9.00983C7.97491 0 6.93998 0.776183 6.93998 1.8111L0.730469 41.6556C0.730469 42.4317 1.24793 43.2079 2.02412 43.2079H11.3384L13.667 28.2016L16.2543 12.1603Z" fill="#263577"/>
</svg>
