<svg width="41" height="40" viewBox="0 0 41 40" fill="none" xmlns="http://www.w3.org/2000/svg">
<rect width="40" height="40" transform="translate(0.711914)" fill="white"/>
<g clip-path="url(#clip0_1_21620)">
<path d="M23.5332 12.031L10.3281 25.2371C10.2616 25.3038 10.2137 25.3879 10.1908 25.4783L8.72716 31.3531C8.68338 31.53 8.73535 31.7181 8.86441 31.8471C8.96206 31.9448 9.09512 31.9988 9.23123 31.9988C9.27292 31.9988 9.31556 31.9937 9.35705 31.9832L15.2319 30.5194C15.3234 30.4965 15.4066 30.4488 15.4731 30.3823L28.6794 17.1772L23.5332 12.031Z" fill="#0B003A"/>
<path d="M31.9509 10.2304L30.481 8.76049C29.4986 7.77805 27.7863 7.779 26.805 8.76049L25.0044 10.5611L30.1503 15.707L31.9509 13.9064C32.4417 13.4159 32.712 12.763 32.712 12.0685C32.712 11.3741 32.4417 10.7212 31.9509 10.2304Z" fill="#0B003A"/>
</g>
<defs>
<clipPath id="clip0_1_21620">
<rect width="24" height="24" fill="white" transform="translate(8.71191 8)"/>
</clipPath>
</defs>
</svg>
