<svg width="12" height="13" viewBox="0 0 12 13" fill="none" xmlns="http://www.w3.org/2000/svg">
<g clip-path="url(#clip0_7533_12761)">
<path d="M7.02483 3.64453C7.5132 3.73981 7.96202 3.97866 8.31386 4.3305C8.6657 4.68234 8.90455 5.13116 8.99983 5.61953M7.02483 1.64453C8.03947 1.75725 8.98563 2.21162 9.70795 2.93304C10.4303 3.65445 10.8858 4.60004 10.9998 5.61453M5.11332 7.57607C4.51253 6.97528 4.03814 6.29596 3.69014 5.57115C3.6602 5.5088 3.64524 5.47763 3.63374 5.43818C3.59288 5.29801 3.62223 5.12588 3.70723 5.00716C3.73115 4.97376 3.75973 4.94518 3.81689 4.88802C3.99169 4.71322 4.07909 4.62582 4.13624 4.53793C4.35173 4.20648 4.35173 3.77919 4.13624 3.44775C4.07909 3.35986 3.99169 3.27246 3.81689 3.09765L3.71945 3.00022C3.45373 2.7345 3.32087 2.60164 3.17818 2.52946C2.8944 2.38593 2.55927 2.38593 2.27549 2.52946C2.1328 2.60164 1.99994 2.7345 1.73422 3.00022L1.6554 3.07904C1.39059 3.34385 1.25818 3.47625 1.15706 3.65627C1.04485 3.85602 0.964166 4.16627 0.964848 4.39538C0.965462 4.60185 1.00551 4.74296 1.08562 5.02519C1.5161 6.54189 2.32834 7.97307 3.52233 9.16706C4.71632 10.361 6.1475 11.1733 7.6642 11.6038C7.94642 11.6839 8.08753 11.7239 8.29401 11.7245C8.52312 11.7252 8.83336 11.6445 9.03312 11.5323C9.21313 11.4312 9.34554 11.2988 9.61035 11.034L9.68917 10.9552C9.95489 10.6894 10.0877 10.5566 10.1599 10.4139C10.3035 10.1301 10.3035 9.79498 10.1599 9.5112C10.0877 9.36851 9.95489 9.23565 9.68917 8.96993L9.59173 8.8725C9.41693 8.69769 9.32953 8.61029 9.24164 8.55315C8.91019 8.33765 8.4829 8.33765 8.15146 8.55315C8.06357 8.61029 7.97617 8.69769 7.80136 8.8725C7.74421 8.92965 7.71563 8.95823 7.68222 8.98215C7.56351 9.06716 7.39138 9.09651 7.2512 9.05565C7.21176 9.04415 7.18059 9.02918 7.11824 8.99925C6.39343 8.65125 5.71411 8.17685 5.11332 7.57607Z" stroke="#667085" stroke-linecap="round" stroke-linejoin="round"/>
</g>
<defs>
<clipPath id="clip0_7533_12761">
<rect width="12" height="12" fill="white" transform="translate(0 0.644531)"/>
</clipPath>
</defs>
</svg>
