<svg width="20" height="18" viewBox="0 0 20 18" fill="none" xmlns="http://www.w3.org/2000/svg">
<path d="M3.56016 16.2733L9.05727 10.7761C9.38729 10.4461 9.55229 10.2811 9.74257 10.2193C9.90994 10.1649 10.0902 10.1649 10.2576 10.2193C10.4479 10.2811 10.6129 10.4461 10.9429 10.7761L16.4033 16.2366M11.6667 11.5L14.0573 9.10948C14.3873 8.77946 14.5523 8.61445 14.7426 8.55263C14.9099 8.49825 15.0902 8.49825 15.2576 8.55263C15.4479 8.61445 15.6129 8.77946 15.9429 9.10947L18.3334 11.5M8.33342 6.5C8.33342 7.42047 7.58722 8.16667 6.66675 8.16667C5.74627 8.16667 5.00008 7.42047 5.00008 6.5C5.00008 5.57953 5.74627 4.83333 6.66675 4.83333C7.58722 4.83333 8.33342 5.57953 8.33342 6.5ZM5.66675 16.5H14.3334C15.7335 16.5 16.4336 16.5 16.9684 16.2275C17.4388 15.9878 17.8212 15.6054 18.0609 15.135C18.3334 14.6002 18.3334 13.9001 18.3334 12.5V5.5C18.3334 4.09987 18.3334 3.3998 18.0609 2.86502C17.8212 2.39462 17.4388 2.01217 16.9684 1.77248C16.4336 1.5 15.7335 1.5 14.3334 1.5H5.66675C4.26662 1.5 3.56655 1.5 3.03177 1.77248C2.56137 2.01217 2.17892 2.39462 1.93923 2.86502C1.66675 3.3998 1.66675 4.09987 1.66675 5.5V12.5C1.66675 13.9001 1.66675 14.6002 1.93923 15.135C2.17892 15.6054 2.56137 15.9878 3.03177 16.2275C3.56655 16.5 4.26662 16.5 5.66675 16.5Z" stroke="#F68500" stroke-width="1.66667" stroke-linecap="round" stroke-linejoin="round"/>
</svg>
