<svg width="19" height="18" viewBox="0 0 19 18" fill="none" xmlns="http://www.w3.org/2000/svg">
<path d="M14.241 3.81797C15.2209 3.81797 16.0152 3.02362 16.0152 2.04375C16.0152 1.06388 15.2209 0.269531 14.241 0.269531C13.2611 0.269531 12.4668 1.06388 12.4668 2.04375C12.4668 3.02362 13.2611 3.81797 14.241 3.81797Z" fill="url(#paint0_linear_52_1345)"/>
<path d="M15.8844 3.98047C15.4262 4.37085 14.8439 4.58525 14.2419 4.58525C13.6399 4.58525 13.0576 4.37085 12.5993 3.98047C11.9001 4.26601 11.3028 4.75497 10.8848 5.38397C11.4067 5.60342 11.8734 5.93597 12.2513 6.35765C12.6291 6.77932 12.9086 7.2796 13.0697 7.82239C13.5728 7.86271 14.0124 7.87229 14.2428 7.87229C15.0032 7.87229 18.0444 7.76093 18.0444 6.81629C18.0444 5.64701 17.1651 4.51997 15.8844 3.98047Z" fill="url(#paint1_linear_52_1345)"/>
<path d="M4.56523 13.4937C5.54511 13.4937 6.33945 12.6994 6.33945 11.7195C6.33945 10.7397 5.54511 9.94531 4.56523 9.94531C3.58536 9.94531 2.79102 10.7397 2.79102 11.7195C2.79102 12.6994 3.58536 13.4937 4.56523 13.4937Z" fill="url(#paint2_linear_52_1345)"/>
<path d="M4.56556 17.549C5.32593 17.549 8.36745 17.4373 8.36745 16.4931C8.36745 15.3222 7.48879 14.1955 6.20819 13.6562C5.75007 14.047 5.16766 14.2616 4.56554 14.2616C3.96341 14.2616 3.381 14.047 2.92286 13.6563C1.64229 14.1955 0.763672 15.3222 0.763672 16.4931C0.763672 17.4373 3.80517 17.549 4.56556 17.549Z" fill="url(#paint3_linear_52_1345)"/>
<path d="M17.9474 11.9451C17.9664 11.9451 17.9851 11.9395 18.0009 11.9289C18.0168 11.9183 18.0292 11.9032 18.0365 11.8856C18.0438 11.868 18.0457 11.8486 18.042 11.8299C18.0382 11.8112 18.0291 11.794 18.0156 11.7805L16.1155 9.88043C16.0795 9.84444 16.0307 9.82422 15.9798 9.82422C15.9289 9.82422 15.8801 9.84444 15.8441 9.88043L13.944 11.7805C13.9305 11.794 13.9213 11.8112 13.9176 11.8299C13.9139 11.8486 13.9158 11.868 13.9231 11.8856C13.9304 11.9032 13.9428 11.9183 13.9586 11.9289C13.9745 11.9395 13.9931 11.9451 14.0122 11.9451H15.1825C15.1747 12.8751 14.8844 13.7807 14.3503 14.542C13.8161 15.3033 13.0632 15.8844 12.1914 16.2082C13.3337 16.1487 14.4185 15.6888 15.2556 14.9093C16.0927 14.1297 16.6285 13.0803 16.769 11.9451H17.9474Z" fill="url(#paint4_linear_52_1345)"/>
<path d="M6.61607 1.61328C5.47378 1.67278 4.38892 2.13264 3.55186 2.91218C2.7148 3.69173 2.17899 4.74116 2.03846 5.87633H0.860097C0.841025 5.87633 0.822382 5.88198 0.806525 5.89258C0.790668 5.90318 0.778309 5.91824 0.771011 5.93586C0.763713 5.95348 0.761804 5.97287 0.765525 5.99157C0.769247 6.01027 0.778431 6.02746 0.791918 6.04094L2.69196 7.94102C2.72796 7.97701 2.77678 7.99723 2.82769 7.99723C2.87859 7.99723 2.92742 7.97701 2.96341 7.94102L4.86348 6.04095C4.87697 6.02746 4.88615 6.01028 4.88987 5.99158C4.89359 5.97287 4.89169 5.95348 4.88439 5.93586C4.87709 5.91824 4.86473 5.90318 4.84887 5.89259C4.83302 5.88199 4.81437 5.87634 4.7953 5.87634H3.62494C3.63281 4.94636 3.92305 4.04072 4.45721 3.27942C4.99138 2.51811 5.74424 1.93707 6.61607 1.61328Z" fill="url(#paint5_linear_52_1345)"/>
<path d="M9.40284 10.1107C9.07828 10.1107 8.81428 9.90594 8.81428 9.6543H8.23828C8.24948 9.89555 8.34232 10.1258 8.5016 10.3074C8.66087 10.4889 8.87711 10.6109 9.11484 10.6534V11.0386H9.69084V10.66C10.2122 10.5638 10.5674 10.2077 10.5674 9.74187C10.5674 9.1955 10.0198 8.90834 9.53663 8.65484C9.198 8.47728 8.81428 8.276 8.81428 8.078C8.81428 7.82459 9.11934 7.70919 9.40284 7.70919C9.72741 7.70919 9.99141 7.91394 9.99141 8.16557H10.5674C10.5562 7.92432 10.4634 7.69405 10.3041 7.5125C10.1448 7.33096 9.92858 7.20894 9.69084 7.16644V6.78125H9.11484V7.15989C8.59344 7.25607 8.23828 7.61218 8.23828 8.078C8.23828 8.62437 8.78586 8.91153 9.26906 9.16503C9.60769 9.34259 9.99141 9.54387 9.99141 9.74187C9.99141 9.99528 9.68634 10.1107 9.40284 10.1107Z" fill="url(#paint6_linear_52_1345)"/>
<path d="M9.40433 12.0782C10.0309 12.0782 10.6434 11.8924 11.1644 11.5443C11.6853 11.1962 12.0914 10.7014 12.3312 10.1225C12.571 9.54365 12.6337 8.90667 12.5115 8.29214C12.3892 7.67761 12.0875 7.11313 11.6444 6.67007C11.2014 6.22702 10.6369 5.9253 10.0224 5.80306C9.40784 5.68082 8.77086 5.74356 8.19199 5.98334C7.61311 6.22312 7.11834 6.62917 6.77023 7.15014C6.42213 7.67112 6.23633 8.28362 6.23633 8.91019C6.23728 9.7501 6.57135 10.5553 7.16526 11.1493C7.75917 11.7432 8.56441 12.0772 9.40433 12.0782ZM9.40433 6.31819C9.91698 6.31819 10.4181 6.47021 10.8444 6.75502C11.2706 7.03983 11.6028 7.44465 11.799 7.91827C11.9952 8.3919 12.0465 8.91306 11.9465 9.41586C11.8465 9.91866 11.5996 10.3805 11.2371 10.743C10.8747 11.1055 10.4128 11.3524 9.91 11.4524C9.4072 11.5524 8.88604 11.5011 8.41241 11.3049C7.93879 11.1087 7.53397 10.7765 7.24916 10.3502C6.96435 9.92397 6.81233 9.42284 6.81233 8.91019C6.81311 8.22299 7.08645 7.56416 7.57237 7.07823C8.0583 6.59231 8.71713 6.31897 9.40433 6.31819Z" fill="url(#paint7_linear_52_1345)"/>
<defs>
<linearGradient id="paint0_linear_52_1345" x1="14.241" y1="0.269531" x2="14.241" y2="3.81797" gradientUnits="userSpaceOnUse">
<stop stop-color="#8449EB"/>
<stop offset="1" stop-color="#6A56F6"/>
</linearGradient>
<linearGradient id="paint1_linear_52_1345" x1="14.4646" y1="3.98047" x2="14.4646" y2="7.87229" gradientUnits="userSpaceOnUse">
<stop stop-color="#8449EB"/>
<stop offset="1" stop-color="#6A56F6"/>
</linearGradient>
<linearGradient id="paint2_linear_52_1345" x1="4.56523" y1="9.94531" x2="4.56523" y2="13.4937" gradientUnits="userSpaceOnUse">
<stop stop-color="#8449EB"/>
<stop offset="1" stop-color="#6A56F6"/>
</linearGradient>
<linearGradient id="paint3_linear_52_1345" x1="4.56556" y1="13.6562" x2="4.56556" y2="17.549" gradientUnits="userSpaceOnUse">
<stop stop-color="#8449EB"/>
<stop offset="1" stop-color="#6A56F6"/>
</linearGradient>
<linearGradient id="paint4_linear_52_1345" x1="15.1176" y1="9.82422" x2="15.1176" y2="16.2082" gradientUnits="userSpaceOnUse">
<stop stop-color="#8449EB"/>
<stop offset="1" stop-color="#6A56F6"/>
</linearGradient>
<linearGradient id="paint5_linear_52_1345" x1="3.68987" y1="1.61328" x2="3.68987" y2="7.99723" gradientUnits="userSpaceOnUse">
<stop stop-color="#8449EB"/>
<stop offset="1" stop-color="#6A56F6"/>
</linearGradient>
<linearGradient id="paint6_linear_52_1345" x1="9.40284" y1="6.78125" x2="9.40284" y2="11.0386" gradientUnits="userSpaceOnUse">
<stop stop-color="#8449EB"/>
<stop offset="1" stop-color="#6A56F6"/>
</linearGradient>
<linearGradient id="paint7_linear_52_1345" x1="9.40433" y1="5.74219" x2="9.40433" y2="12.0782" gradientUnits="userSpaceOnUse">
<stop stop-color="#8449EB"/>
<stop offset="1" stop-color="#6A56F6"/>
</linearGradient>
</defs>
</svg>
