<svg width="17" height="14" viewBox="0 0 17 14" fill="none" xmlns="http://www.w3.org/2000/svg">
<g id="material-symbols:reply-all-rounded">
<path id="Vector" d="M5.41016 9.50785L2.24766 6.82452C2.17891 6.76619 2.13032 6.70299 2.10191 6.63494C2.07303 6.56688 2.05859 6.49396 2.05859 6.41619C2.05859 6.33841 2.07303 6.26549 2.10191 6.19744C2.13032 6.12938 2.17891 6.06619 2.24766 6.00785L5.41016 3.32452C5.5362 3.21757 5.69386 3.16157 5.88316 3.15652C6.07199 3.15185 6.23516 3.20785 6.37266 3.32452C6.51016 3.43146 6.58166 3.56505 6.58716 3.72527C6.59311 3.88588 6.52734 4.02452 6.38984 4.14119L3.70859 6.41619L6.38984 8.69119C6.51589 8.79813 6.58166 8.93424 6.58716 9.09952C6.59311 9.2648 6.52734 9.40091 6.38984 9.50785C6.2638 9.62452 6.10338 9.68285 5.90859 9.68285C5.7138 9.68285 5.54766 9.62452 5.41016 9.50785ZM14.8289 11.0829C14.6341 11.0829 14.4709 11.0269 14.3394 10.9149C14.2074 10.8032 14.1414 10.6648 14.1414 10.4995V8.74952C14.1414 8.26341 13.9409 7.85021 13.5398 7.50994C13.1388 7.16966 12.6518 6.99952 12.0789 6.99952H7.83359L9.82734 8.69119C9.95339 8.79813 10.0192 8.93424 10.0247 9.09952C10.0306 9.2648 9.96484 9.40091 9.82734 9.50785C9.7013 9.62452 9.54088 9.68285 9.34609 9.68285C9.1513 9.68285 8.98516 9.62452 8.84766 9.50785L5.68516 6.82452C5.61641 6.76619 5.56782 6.70299 5.53941 6.63494C5.51053 6.56688 5.49609 6.49396 5.49609 6.41619C5.49609 6.33841 5.51053 6.26549 5.53941 6.19744C5.56782 6.12938 5.61641 6.06619 5.68516 6.00785L8.84766 3.32452C8.9737 3.21757 9.13136 3.16157 9.32066 3.15652C9.50949 3.15185 9.67266 3.20785 9.81016 3.32452C9.94766 3.43146 10.0192 3.56505 10.0247 3.72527C10.0306 3.88588 9.96484 4.02452 9.82734 4.14119L7.83359 5.83285H12.0789C13.0299 5.83285 13.8407 6.11713 14.5113 6.68569C15.1814 7.25463 15.5164 7.94257 15.5164 8.74952V10.4995C15.5164 10.6648 15.4504 10.8032 15.3184 10.9149C15.1869 11.0269 15.0237 11.0829 14.8289 11.0829Z" fill="#475467"/>
</g>
</svg>
