<svg width="33" height="33" viewBox="0 0 33 33" fill="none" xmlns="http://www.w3.org/2000/svg">
<g clip-path="url(#clip0_336_2826)">
<path d="M26.627 2.17666H23.1066C22.1777 1.10378 20.8087 0.423218 19.2832 0.423218H14.2207C12.6952 0.423218 11.3262 1.10378 10.3973 2.17666H6.87695C5.32614 2.17666 4.06445 3.44084 4.06445 4.99466V29.6052C4.06445 31.159 5.32614 32.4232 6.87695 32.4232H26.627C28.1778 32.4232 29.4395 31.159 29.4395 29.6052V4.99466C29.4395 3.44078 28.1778 2.17666 26.627 2.17666ZM14.2207 2.30191H19.2832C20.7318 2.30191 21.9348 3.27159 22.3301 4.55628H11.1738C11.5685 3.27384 12.7699 2.30191 14.2207 2.30191ZM27.5645 29.6052C27.5645 30.1232 27.1439 30.5445 26.627 30.5445H6.87695C6.36002 30.5445 5.93945 30.1232 5.93945 29.6052V4.99466C5.93945 4.47672 6.36002 4.05534 6.87695 4.05534H9.36733C9.23202 4.51222 9.1582 4.99534 9.1582 5.49566C9.1582 6.01441 9.57795 6.43497 10.0957 6.43497H23.4082C23.926 6.43497 24.3457 6.01441 24.3457 5.49566C24.3457 4.99534 24.2719 4.51222 24.1366 4.05534H26.627C27.1439 4.05534 27.5645 4.47672 27.5645 4.99466V29.6052Z" fill="#007AB6"/>
<path d="M12.1307 19.0885L10.752 20.4698L10.4149 20.1321C10.0488 19.7652 9.45517 19.7652 9.08905 20.1321C8.72292 20.4989 8.72292 21.0937 9.08905 21.4605L10.089 22.4624C10.4551 22.8292 11.0487 22.8293 11.4149 22.4624L13.4565 20.4168C13.8226 20.05 13.8226 19.4552 13.4565 19.0884C13.0904 18.7216 12.4968 18.7216 12.1307 19.0885Z" fill="#181D25"/>
<path d="M23.6895 19.8362H16.127C15.6092 19.8362 15.1895 20.2567 15.1895 20.7755C15.1895 21.2942 15.6092 21.7148 16.127 21.7148H23.6895C24.2072 21.7148 24.627 21.2942 24.627 20.7755C24.627 20.2567 24.2072 19.8362 23.6895 19.8362Z" fill="#181D25"/>
<path d="M12.1307 24.474L10.752 25.8553L10.4149 25.5176C10.0488 25.1507 9.45517 25.1507 9.08905 25.5176C8.72292 25.8844 8.72292 26.4792 9.08905 26.846L10.089 27.8479C10.4551 28.2147 11.0487 28.2148 11.4149 27.8479L13.4565 25.8023C13.8226 25.4355 13.8226 24.8407 13.4565 24.4739C13.0904 24.1071 12.4968 24.1071 12.1307 24.474Z" fill="#181D25"/>
<path d="M23.6895 25.2217H16.127C15.6092 25.2217 15.1895 25.6422 15.1895 26.161C15.1895 26.6797 15.6092 27.1003 16.127 27.1003H23.6895C24.2072 27.1003 24.627 26.6797 24.627 26.161C24.627 25.6422 24.2072 25.2217 23.6895 25.2217Z" fill="#181D25"/>
<path d="M18.5399 15.4905L21.4395 12.5853V12.6972C21.4395 13.216 21.8592 13.6365 22.377 13.6365C22.8947 13.6365 23.3145 13.216 23.3145 12.6972C23.3145 10.0402 23.3189 10.2875 23.3037 10.1826C23.2374 9.72303 22.8442 9.37809 22.3767 9.37822H20.002C19.4842 9.37822 19.0645 9.79878 19.0645 10.3175C19.0645 10.8363 19.4842 11.2568 20.002 11.2568H20.1137L17.877 13.4979L15.0399 10.6553C14.6738 10.2884 14.0802 10.2884 13.714 10.6553L10.339 14.0369C9.97292 14.4037 9.97292 14.9985 10.339 15.3653C10.7051 15.7322 11.2987 15.7322 11.6649 15.3653L14.377 12.6479L17.2141 15.4905C17.5801 15.8573 18.1738 15.8574 18.5399 15.4905Z" fill="#181D25"/>
</g>
<defs>
<clipPath id="clip0_336_2826">
<rect width="32" height="32" fill="white" transform="translate(0.751953 0.423218)"/>
</clipPath>
</defs>
</svg>
