<svg width="278" height="309" viewBox="0 0 278 309" fill="none" xmlns="http://www.w3.org/2000/svg">
<path d="M248 31H64C57.3726 31 52 36.3726 52 43V289C52 295.627 57.3726 301 64 301H248C254.627 301 260 295.627 260 289V43C260 36.3726 254.627 31 248 31Z" fill="white" fill-opacity="0.05"/>
<path d="M259.721 308.81C259.721 306.807 259.647 197.133 259.532 31.2904L259.721 31.5207H52.1479L52.3614 31.2604C52.3614 133.404 52.3614 228.747 52.3614 308.78L52.1807 308.559L259.778 308.78L52.1807 309H52V308.78C52 228.747 52 133.384 52 31.2604V31H52.2382H259.811H260V31.2203C259.795 197.143 259.721 306.837 259.721 308.81Z" fill="#263238"/>
<path d="M237.533 273.26C237.533 273.4 205.393 273.52 165.753 273.52C126.113 273.52 93.9629 273.4 93.9629 273.26C93.9629 273.12 126.093 273 165.753 273C205.413 273 237.533 273.11 237.533 273.26Z" fill="#263238"/>
<path d="M259.992 281.94C259.992 282.08 217.792 282.2 165.752 282.2C113.712 282.2 71.502 282.08 71.502 281.94C71.502 281.8 113.692 281.68 165.752 281.68C217.812 281.68 259.992 281.8 259.992 281.94Z" fill="#263238"/>
<path d="M49.4929 42.0743C49.4929 42.4976 49.3674 42.9113 49.1322 43.2633C48.8971 43.6152 48.5629 43.8895 48.1719 44.0514C47.7808 44.2134 47.3505 44.2558 46.9354 44.1732C46.5203 44.0907 46.139 43.8868 45.8397 43.5876C45.5404 43.2883 45.3366 42.907 45.254 42.4918C45.1714 42.0767 45.2138 41.6464 45.3758 41.2554C45.5378 40.8644 45.8121 40.5301 46.164 40.295C46.5159 40.0599 46.9297 39.9343 47.3529 39.9343C47.6343 39.933 47.9132 39.9875 48.1734 40.0945C48.4336 40.2016 48.6701 40.3592 48.8691 40.5582C49.068 40.7572 49.2256 40.9936 49.3327 41.2538C49.4398 41.5141 49.4942 41.7929 49.4929 42.0743Z" fill="#E0E0E0"/>
<path d="M54.4935 44.2146C55.6754 44.2146 56.6335 43.2565 56.6335 42.0746C56.6335 40.8927 55.6754 39.9346 54.4935 39.9346C53.3116 39.9346 52.3535 40.8927 52.3535 42.0746C52.3535 43.2565 53.3116 44.2146 54.4935 44.2146Z" fill="#E0E0E0"/>
<path d="M63.7624 42.0746C63.7624 42.4978 63.6369 42.9116 63.4018 43.2635C63.1666 43.6154 62.8324 43.8897 62.4414 44.0517C62.0503 44.2136 61.62 44.256 61.2049 44.1734C60.7898 44.0909 60.4085 43.8871 60.1092 43.5878C59.8099 43.2885 59.6061 42.9072 59.5235 42.4921C59.441 42.0769 59.4833 41.6467 59.6453 41.2556C59.8073 40.8646 60.0816 40.5304 60.4335 40.2952C60.7854 40.0601 61.1992 39.9346 61.6224 39.9346C62.19 39.9346 62.7343 40.16 63.1356 40.5614C63.537 40.9627 63.7624 41.507 63.7624 42.0746Z" fill="#E0E0E0"/>
<path d="M271.543 127.894L275.703 112.894C275.703 112.894 277.193 106.804 277.553 105.384C278.023 103.504 276.703 102.914 275.933 104.194C275.633 104.674 272.343 110.874 272.343 110.874C272.343 110.874 274.963 100.724 275.063 100.354C275.913 97.0443 273.853 97.3543 273.253 98.5743C272.653 99.7943 268.923 109.784 268.923 109.784C272.413 96.7343 271.323 95.5843 270.333 95.3743C269.343 95.1643 266.333 107.104 266.333 107.104C265.541 105.746 264.466 104.573 263.183 103.664C260.033 101.494 254.773 103.664 254.523 105.144C254.273 106.624 256.143 107.044 256.143 107.044C260.093 104.494 264.143 107.584 263.733 111.344C263.323 115.104 258.543 114.594 257.953 111.914C256.643 106.024 254.623 107.914 254.623 107.914L256.623 120.914L254.473 127.434" fill="#FFBE9D"/>
<path d="M121.843 188.984L211.693 188.384L214.163 249.474L121.133 248.554L121.843 188.984Z" fill="#8449EB"/>
<path d="M121.844 188.984L167.484 152.104L211.694 188.384" fill="#263238"/>
<path d="M121.183 248.554C121.063 248.454 128.263 240.604 137.253 231.024C146.243 221.444 153.623 213.775 153.733 213.875C153.843 213.975 146.653 221.825 137.663 231.405C128.673 240.985 121.243 248.664 121.183 248.554Z" fill="#263238"/>
<path d="M214.182 249.474C214.072 249.574 207.072 241.874 198.552 232.274C190.032 222.674 183.182 214.814 183.312 214.714C183.442 214.614 190.422 222.314 198.942 231.914C207.462 241.514 214.282 249.374 214.182 249.474Z" fill="#263238"/>
<path d="M211.694 188.384L166.554 224.404L121.844 188.984" fill="#263238"/>
<path d="M61.8035 120.144H62.1035L60.9035 116.144L57.0535 100.784C56.882 100.101 56.9727 99.3779 57.3077 98.7579C57.6427 98.1378 58.1978 97.6657 58.8635 97.4345L61.6335 97.3345L71.1135 92.9045C71.5257 92.7512 71.9665 92.6904 72.4048 92.7264C72.8431 92.7624 73.2681 92.8943 73.6497 93.1128C74.0314 93.3313 74.3603 93.631 74.6133 93.9907C74.8662 94.3505 75.037 94.7614 75.1135 95.1945C75.4635 98.0245 77.3835 105.604 79.4235 102.944L79.5735 102.774C82.4435 98.8245 86.0235 96.6845 87.4935 96.7745C87.8106 96.8009 88.1133 96.9184 88.3651 97.113C88.6169 97.3075 88.8071 97.5706 88.9128 97.8708C89.0185 98.1709 89.0351 98.4952 88.9608 98.8046C88.8864 99.1139 88.7241 99.3952 88.4935 99.6145C88.3472 99.8061 88.1635 99.966 87.9535 100.084C87.8456 100.148 87.7421 100.218 87.6435 100.294C86.3737 101.416 85.2272 102.67 84.2235 104.034C83.3022 105.238 82.5952 106.591 82.1335 108.034C81.6235 109.634 81.2535 111.034 80.9635 112.214L81.7035 120.054" fill="#FFBE9D"/>
<path d="M87.1232 50.5545C87.1232 50.5545 76.0332 48.4345 60.1232 33.9645C44.2132 19.4945 36.3332 -0.105519 34.4332 0.0444814C32.5332 0.194481 24.1832 -3.41552 9.35316 31.3145C-5.47684 66.0445 1.00316 73.8345 4.13316 73.6845C7.26316 73.5345 28.3932 66.9945 41.7432 68.1245C55.0932 69.2545 72.3832 75.7045 72.3832 75.7045L87.1232 50.5545Z" fill="#8449EB"/>
<path d="M111.063 68.5846L107.503 75.8346L105.913 79.0846C104.86 81.2201 103.032 82.873 100.802 83.7057C98.5713 84.5384 96.1072 84.4879 93.9128 83.5646L70.0527 76.0046L82.8828 44.2446L106.833 56.1446C109.034 57.2431 110.713 59.1658 111.505 61.495C112.297 63.8243 112.138 66.3719 111.063 68.5846Z" fill="#263238"/>
<path d="M97.7632 80.4145L90.6632 95.4145L86.8632 94.4745L62.8632 115.165L55.6132 101.915C55.6132 101.915 69.9632 95.2445 72.5032 89.9945C75.0432 84.7445 71.9032 83.6445 71.9032 83.6445L78.5232 75.6445L97.7632 80.4145Z" fill="#263238"/>
<path d="M10.6441 31.9046C2.78406 50.7146 -0.235941 67.3646 3.89406 69.0946C8.02406 70.8246 17.754 56.9746 25.614 38.1646C33.474 19.3546 36.494 2.70456 32.364 0.974558C28.234 -0.755442 18.5041 13.0946 10.6441 31.9046Z" fill="#263238"/>
<path d="M113.384 78.8545L106.924 77.0245L110.674 69.3745L115.554 72.2245L113.384 78.8545Z" fill="#8449EB"/>
<path d="M76.2422 78.3745L93.7522 88.8545L95.7822 84.5945L76.2422 78.3745Z" fill="#8449EB"/>
<path d="M110.674 69.3745L106.924 77.0245L108.244 77.3945L111.254 69.7145L110.674 69.3745Z" fill="#8449EB"/>
<path d="M106.304 71.2443C106.224 71.4543 102.994 70.2443 99.0938 68.6643C95.1938 67.0843 92.0938 65.5443 92.1938 65.3343C92.2938 65.1243 95.5138 66.3343 99.4138 67.9143C103.314 69.4943 106.394 71.0343 106.304 71.2443Z" fill="#8449EB"/>
<path d="M108.184 66.6945C108.084 66.9045 105.184 65.7645 101.644 64.1645C98.1038 62.5645 95.3538 61.0845 95.4538 60.8745C95.5538 60.6645 98.4538 61.8045 101.984 63.4145C105.514 65.0245 108.244 66.4945 108.184 66.6945Z" fill="#8449EB"/>
<path d="M103.953 76.0145C103.953 76.1245 103.163 76.0145 101.953 75.6345C101.333 75.4645 100.613 75.2445 99.8132 74.9945C99.0132 74.7445 98.1831 74.3345 97.2931 73.9945C93.7431 72.4645 91.0232 70.9945 91.1032 70.7645C91.1832 70.5345 94.1031 71.7645 97.6131 73.2345C98.4931 73.6045 99.3131 74.0145 100.083 74.3145L102.133 75.1045C103.283 75.5545 103.983 75.9045 103.953 76.0145Z" fill="#8449EB"/>
<path d="M27.6337 27.2944C27.6337 27.2944 17.8837 21.6244 13.0137 34.7144C8.14366 47.8044 18.2737 49.6444 18.2737 49.6444C22.4283 42.6712 25.5793 35.1472 27.6337 27.2944Z" fill="#8449EB"/>
<path d="M37.3727 11.5845C37.3492 12.4186 37.2488 13.2488 37.0727 14.0645C36.8127 15.6545 36.4527 17.9645 35.9127 20.7945C35.5527 22.1945 35.1527 23.7245 34.7227 25.3645C34.5027 26.1845 34.2827 27.0345 34.0527 27.9045L33.6927 29.2445C33.5627 29.6945 33.3927 30.1245 33.2427 30.5845L31.2427 36.2245C31.0727 36.7145 30.8927 37.2245 30.7127 37.7045C30.5327 38.1845 30.2927 38.7045 30.0827 39.1745L28.7427 42.1745C28.2927 43.1745 27.8427 44.1745 27.3927 45.1745C27.1627 45.6545 26.9727 46.1745 26.7127 46.6145C26.4527 47.0545 26.2127 47.5345 25.9527 47.9945C24.9527 49.8045 23.9527 51.5645 23.0527 53.2345C22.8127 53.6445 22.6027 54.0645 22.3527 54.4545L21.5927 55.6045L20.1227 57.7945L17.4927 61.7145C15.7227 63.9845 14.2327 65.7845 13.2127 67.0245C12.7082 67.6926 12.1532 68.3211 11.5527 68.9045C11.9589 68.1731 12.4308 67.4802 12.9627 66.8345L17.0227 61.3645L19.5627 57.3645C20.0127 56.6545 20.4927 55.9245 20.9727 55.1745L21.7227 54.0245C21.9627 53.6345 22.1627 53.2145 22.4027 52.7945L25.2427 47.5745L25.9827 46.2445C26.2327 45.7845 26.4227 45.2445 26.6527 44.8045L27.9827 41.8045C28.4327 40.8045 28.8827 39.8045 29.3127 38.8045C29.5227 38.3145 29.7727 37.8045 29.9527 37.3545L30.4827 35.8845C31.1827 33.9445 31.8727 32.0745 32.4827 30.2945C32.6327 29.8445 32.8127 29.4145 32.9527 28.9745C33.0927 28.5345 33.1927 28.0845 33.3227 27.6545C33.5627 26.7945 33.7927 25.9545 34.0227 25.1445C34.4827 23.5245 34.9127 22.0045 35.3127 20.6245C35.8927 17.8445 36.3727 15.6245 36.7127 13.9745C36.8713 13.1621 37.0919 12.3631 37.3727 11.5845Z" fill="#263238"/>
<path d="M94.9637 154.514L85.0437 116.844L60.2637 117.504L67.9737 170.074C68.9737 181.514 75.6937 188.994 86.9737 190.814C93.7737 191.904 101.144 185.424 106.604 181.234C110.164 178.494 110.794 179.034 114.474 175.694L130.474 164.154L130.864 166.054H130.764L133.474 198.174L166.534 224.174L205.964 192.584L205.064 178.914C205.164 178.914 205.254 178.714 205.064 178.714L204.064 163.234L224.264 186.404C226.639 189.868 229.915 192.617 233.738 194.356C237.561 196.095 241.786 196.757 245.957 196.272C250.129 195.786 254.089 194.171 257.41 191.6C260.731 189.029 263.288 185.601 264.804 181.684L275.204 128.684L252.364 123.774L241.674 161.934L216.184 132.604C201.464 113.424 184.284 115.044 184.284 115.044L152.604 114.484H152.534C151.594 114.484 133.894 115.074 121.894 127.894L94.9637 154.514Z" fill="#EF9F28"/>
<path d="M217.413 134.694C217.413 134.694 217.073 134.534 216.413 134.324C215.423 134.021 214.384 133.912 213.353 134.004C211.725 134.18 210.138 134.633 208.663 135.344C206.913 136.124 205.103 137.344 202.993 138.574C200.738 140.054 198.119 140.884 195.423 140.974C193.924 140.889 192.45 140.551 191.063 139.974C189.643 139.414 188.233 138.724 186.753 138.134C183.67 136.882 180.287 136.562 177.023 137.214C173.623 137.864 170.503 139.774 167.313 141.624C165.733 142.565 164.085 143.388 162.383 144.084C160.715 144.738 158.966 145.162 157.183 145.344C153.787 145.725 150.349 145.25 147.183 143.964C144.389 142.723 141.754 141.152 139.333 139.284C137.023 137.614 134.893 136.024 132.803 134.814C130.927 133.718 128.908 132.886 126.803 132.344C125.216 131.943 123.574 131.808 121.943 131.944C120.557 132.099 119.205 132.481 117.943 133.074L118.173 132.934C118.333 132.844 118.573 132.714 118.903 132.554C119.86 132.145 120.87 131.873 121.903 131.744C123.559 131.572 125.233 131.68 126.853 132.064C128.994 132.583 131.051 133.401 132.963 134.494C135.083 135.694 137.233 137.284 139.553 138.934C141.953 140.768 144.565 142.306 147.333 143.514C152.09 145.424 157.396 145.453 162.173 143.594C163.853 142.906 165.478 142.09 167.033 141.154C170.203 139.314 173.383 137.364 176.903 136.704C180.263 136.053 183.739 136.401 186.903 137.704C189.903 138.914 192.573 140.474 195.403 140.564C198.233 140.654 200.693 139.424 202.783 138.274C204.873 137.124 206.723 135.864 208.513 135.104C210.025 134.399 211.65 133.965 213.313 133.824C214.365 133.744 215.421 133.887 216.413 134.244C216.766 134.346 217.103 134.498 217.413 134.694Z" fill="#FAFAFA"/>
<path d="M235.783 153.455C235.667 153.943 235.486 154.414 235.243 154.855C234.559 156.126 233.573 157.211 232.373 158.015C230.487 159.31 228.294 160.09 226.013 160.275C223.008 160.469 219.99 160.335 217.013 159.875C213.753 159.545 210.013 159.145 206.343 160.355C204.468 161.063 202.688 162 201.043 163.145C199.281 164.38 197.418 165.464 195.473 166.385C191.186 168.246 186.444 168.799 181.843 167.975C179.42 167.547 177.082 166.726 174.923 165.545C172.723 164.365 170.673 162.905 168.553 161.545C166.516 160.128 164.287 159.01 161.933 158.225C159.627 157.563 157.204 157.409 154.833 157.775C150.133 158.465 145.833 160.355 141.613 161.505C139.544 162.128 137.403 162.484 135.243 162.565C133.196 162.644 131.154 162.304 129.243 161.565C125.553 160.045 122.833 157.445 120.423 155.205C118.332 153.081 116.027 151.181 113.543 149.535C111.64 148.337 109.482 147.604 107.243 147.395C105.83 147.266 104.406 147.436 103.063 147.895C102.153 148.235 101.723 148.525 101.703 148.495C102.114 148.209 102.557 147.974 103.023 147.795C104.374 147.282 105.823 147.077 107.263 147.195C109.542 147.369 111.747 148.086 113.693 149.285C116.22 150.915 118.566 152.809 120.693 154.935C123.123 157.165 125.823 159.705 129.423 161.165C131.282 161.891 133.269 162.232 135.263 162.165C137.384 162.074 139.485 161.711 141.513 161.085C143.613 160.495 145.743 159.755 147.933 159.085C150.159 158.273 152.451 157.658 154.783 157.245C157.227 156.86 159.725 157.014 162.103 157.695C164.503 158.5 166.779 159.637 168.863 161.075C170.993 162.455 173.033 163.915 175.183 165.075C177.296 166.229 179.583 167.033 181.953 167.455C186.457 168.268 191.1 167.736 195.303 165.925C199.303 164.185 202.403 161.165 206.223 159.925C208.047 159.352 209.952 159.078 211.863 159.115C213.609 159.146 215.351 159.273 217.083 159.495C220.025 159.968 223.008 160.126 225.983 159.965C228.224 159.804 230.387 159.07 232.263 157.835C233.451 157.057 234.44 156.012 235.153 154.785C235.623 153.955 235.753 153.445 235.783 153.455Z" fill="#FAFAFA"/>
<path d="M264.684 178.914C264.264 178.487 263.798 178.108 263.294 177.784C261.863 177.002 260.202 176.751 258.604 177.074C256.256 177.684 254.086 178.842 252.274 180.454C251.184 181.304 250.054 182.224 248.774 183.054C247.481 183.987 246.001 184.625 244.436 184.926C242.871 185.227 241.259 185.182 239.714 184.794C238.291 184.481 236.892 184.074 235.524 183.574C234.214 183.134 232.984 182.684 231.804 182.374C230.713 182.087 229.598 181.9 228.474 181.814C226.851 181.642 225.212 181.904 223.724 182.574C222.724 183.084 222.224 183.574 222.184 183.514C222.277 183.386 222.389 183.272 222.514 183.174C222.652 183.041 222.803 182.92 222.964 182.814C223.169 182.653 223.39 182.512 223.624 182.394C225.127 181.618 226.816 181.272 228.504 181.394C229.654 181.458 230.795 181.629 231.914 181.904C233.124 182.204 234.374 182.644 235.674 183.074C238.264 183.914 241.244 184.944 244.344 184.364C245.833 184.047 247.246 183.442 248.504 182.584C249.754 181.774 250.874 180.864 251.984 180.024C253.861 178.388 256.109 177.235 258.534 176.664C260.211 176.358 261.943 176.674 263.404 177.554C263.775 177.812 264.112 178.118 264.404 178.464C264.516 178.602 264.61 178.753 264.684 178.914Z" fill="#FAFAFA"/>
<path d="M269.704 150.175C269.454 150.407 269.162 150.59 268.844 150.715C267.994 151.097 267.083 151.327 266.154 151.395C264.779 151.486 263.399 151.361 262.064 151.025C260.452 150.599 258.869 150.071 257.324 149.445C255.803 148.835 254.23 148.367 252.624 148.045C251.301 147.81 249.947 147.81 248.624 148.045C247.417 148.295 246.274 148.788 245.264 149.495C245.463 149.216 245.714 148.978 246.004 148.795C246.769 148.261 247.632 147.884 248.544 147.685C249.896 147.396 251.289 147.362 252.654 147.585C254.303 147.891 255.917 148.36 257.474 148.985C259.002 149.596 260.561 150.13 262.144 150.585C263.432 150.926 264.762 151.081 266.094 151.045C267.339 150.968 268.561 150.673 269.704 150.175Z" fill="#FAFAFA"/>
<path d="M203.392 187.974C202.547 187.523 201.675 187.122 200.782 186.774C198.296 185.94 195.656 185.667 193.052 185.974C189.209 186.489 185.486 187.674 182.052 189.474C178.052 191.344 173.882 193.844 168.992 195.474C166.618 196.269 164.136 196.697 161.632 196.744C159.299 196.706 156.985 196.308 154.772 195.564C152.789 194.894 150.843 194.12 148.942 193.244C147.152 192.454 145.492 191.684 143.942 191.084C141.537 190.042 138.988 189.367 136.382 189.084L135.152 189.014H134.242C133.993 189.038 133.742 189.038 133.492 189.014C133.739 188.958 133.99 188.925 134.242 188.914L135.142 188.834C135.502 188.834 135.922 188.834 136.392 188.834C139.033 189.034 141.625 189.651 144.072 190.664C145.642 191.254 147.312 192.004 149.072 192.774C150.968 193.628 152.907 194.383 154.882 195.034C157.049 195.749 159.311 196.13 161.592 196.164C164.042 196.113 166.47 195.688 168.792 194.904C173.602 193.344 177.792 190.904 181.792 189.014C185.288 187.205 189.083 186.043 192.992 185.584C195.644 185.305 198.325 185.647 200.822 186.584C201.741 186.921 202.607 187.389 203.392 187.974Z" fill="#FAFAFA"/>
<path d="M66.8223 162.415C66.9637 162.312 67.1231 162.238 67.2922 162.195C67.7935 162.062 68.323 162.083 68.8123 162.255C69.5948 162.508 70.2887 162.98 70.8123 163.615C71.4364 164.465 71.9661 165.38 72.3922 166.345C72.929 167.46 73.68 168.459 74.6023 169.285C75.691 170.19 76.9486 170.869 78.3022 171.285C81.4663 172.208 84.804 172.369 88.0422 171.755C91.3158 171.119 94.6312 170.721 97.9622 170.565C100.732 170.503 103.458 171.258 105.802 172.735C107.399 173.712 108.648 175.168 109.372 176.895C109.638 177.528 109.781 178.207 109.792 178.895C109.622 178.254 109.418 177.623 109.182 177.005C108.416 175.361 107.167 173.99 105.602 173.075C103.302 171.685 100.649 170.99 97.9622 171.075C94.6577 171.256 91.3698 171.667 88.1223 172.305C84.7947 172.934 81.3646 172.752 78.1223 171.775C76.7116 171.314 75.4088 170.572 74.2922 169.595C73.338 168.724 72.5693 167.669 72.0323 166.495C71.6353 165.542 71.1392 164.633 70.5522 163.785C70.086 163.175 69.4593 162.708 68.7422 162.435C68.1234 162.208 67.4457 162.201 66.8223 162.415Z" fill="#FAFAFA"/>
<path d="M88.5122 131.865C87.4769 131.041 86.2917 130.427 85.0222 130.055C83.6421 129.698 82.2074 129.603 80.7922 129.775C79.066 130.022 77.383 130.51 75.7922 131.225C74.0722 131.965 72.4822 132.815 71.0122 133.535C69.7148 134.197 68.3791 134.781 67.0122 135.285C66.0821 135.611 65.1251 135.856 64.1523 136.015C63.798 136.093 63.4337 136.117 63.0723 136.085C64.3628 135.773 65.6348 135.389 66.8823 134.935C68.2222 134.391 69.5339 133.78 70.8123 133.105C72.2623 132.365 73.8622 131.505 75.6122 130.745C77.2606 130.008 79.01 129.523 80.8022 129.305C82.2776 129.142 83.7705 129.278 85.1923 129.705C86.1484 129.994 87.0409 130.462 87.8223 131.085C88.096 131.302 88.3295 131.566 88.5122 131.865Z" fill="#FAFAFA"/>
<g opacity="0.3">
<path d="M160.924 219.714C173.754 212.274 188.614 203.544 196.024 190.714C200.764 182.494 203.124 172.654 204.024 163.214L205.954 192.564L166.524 224.154L160.924 219.714Z" fill="black"/>
</g>
<g opacity="0.2">
<path d="M127.643 122.625C124.803 133.728 118.659 143.709 110.023 151.245C107.968 153.182 105.557 154.703 102.923 155.725C101.606 156.226 100.197 156.438 98.7907 156.347C97.3845 156.256 96.0143 155.862 94.7734 155.195L94.9634 154.515L114.963 134.725L127.643 122.625Z" fill="black"/>
</g>
<path d="M97.5038 170.245C97.4238 170.245 97.7438 169.335 98.0138 167.875C98.3519 165.968 98.3688 164.017 98.0638 162.105C97.7448 160.193 97.1023 158.35 96.1639 156.655C95.4339 155.355 94.8439 154.655 94.9139 154.575C95.5481 155.104 96.0802 155.744 96.4838 156.465C97.54 158.159 98.2504 160.045 98.5739 162.015C98.9057 163.988 98.8376 166.008 98.3738 167.955C98.2251 168.764 97.9303 169.54 97.5038 170.245Z" fill="#263238"/>
<path d="M91.7734 165.245C93.9832 162.342 94.9928 158.701 94.5934 155.075C94.8443 155.561 94.9811 156.098 94.9934 156.645C95.265 159.298 94.5297 161.957 92.9334 164.095C92.3134 164.875 91.8234 165.245 91.7734 165.245Z" fill="#263238"/>
<path d="M128.983 144.544C129.123 144.544 129.983 152.544 130.813 162.344C131.643 172.144 132.273 180.184 132.123 180.194C131.973 180.204 131.123 172.194 130.293 162.394C129.463 152.594 128.833 144.554 128.983 144.544Z" fill="#263238"/>
<path d="M182.363 113.904C182.459 114.074 182.533 114.256 182.583 114.444C182.766 114.966 182.91 115.501 183.013 116.044C183.398 118.066 183.367 120.145 182.923 122.154C182.269 125.159 180.754 127.907 178.563 130.064C175.778 132.629 172.153 134.09 168.368 134.173C164.582 134.256 160.897 132.955 158.003 130.514C155.722 128.454 154.089 125.775 153.303 122.804C152.772 120.816 152.646 118.742 152.933 116.704C153.017 116.156 153.141 115.615 153.303 115.084C153.344 114.894 153.407 114.709 153.493 114.534C153.553 114.534 153.303 115.314 153.133 116.734C152.927 118.749 153.103 120.785 153.653 122.734C154.464 125.611 156.081 128.196 158.313 130.184C161.13 132.522 164.695 133.764 168.355 133.683C172.014 133.603 175.522 132.204 178.233 129.744C180.023 127.999 181.372 125.853 182.169 123.482C182.965 121.112 183.186 118.587 182.813 116.114C182.593 114.674 182.303 113.924 182.363 113.904Z" fill="#263238"/>
<path d="M240.463 174.144C240.144 172.07 240.087 169.963 240.293 167.874C240.328 165.773 240.624 163.683 241.173 161.654C241.323 161.654 241.003 164.464 240.813 167.904C240.623 171.344 240.613 174.144 240.463 174.144Z" fill="#263238"/>
<path d="M244.474 175.965C244.105 175.338 243.82 174.665 243.624 173.965C243.056 172.278 242.592 170.558 242.234 168.815C241.873 167.071 241.616 165.308 241.464 163.535C241.364 162.801 241.364 162.058 241.464 161.325C241.614 161.325 241.914 164.665 242.764 168.715C243.614 172.765 244.624 175.915 244.474 175.965Z" fill="#263238"/>
<path d="M204.043 176.545C203.893 176.545 203.563 170.915 203.303 163.955C203.043 156.995 202.953 151.365 203.093 151.355C203.233 151.345 203.563 156.985 203.823 163.935C204.083 170.885 204.183 176.535 204.043 176.545Z" fill="#263238"/>
<path d="M168.183 132.604C164.572 132.534 161.123 131.089 158.541 128.564C155.958 126.038 154.435 122.623 154.283 119.014C154.053 113.534 153.863 108.504 153.863 108.504C153.863 108.504 142.393 107.284 141.703 95.9145C141.013 84.5445 141.703 58.3045 141.703 58.3045C148.04 55.2078 155.089 53.8596 162.121 54.3993C169.153 54.9391 175.913 57.3471 181.703 61.3745L183.453 62.5945L182.613 118.594C182.591 120.463 182.2 122.31 181.461 124.027C180.723 125.744 179.653 127.298 178.312 128.6C176.971 129.902 175.385 130.927 173.647 131.614C171.909 132.301 170.052 132.638 168.183 132.604Z" fill="#FFBE9D"/>
<path d="M153.854 108.344C159.112 108.184 164.204 106.465 168.483 103.404C168.483 103.404 165.374 111.764 153.964 111.294L153.854 108.344Z" fill="#EB996E"/>
<path d="M182.633 74.4444C182.823 74.3544 190.343 71.7544 190.473 79.5544C190.603 87.3544 182.753 85.8644 182.733 85.6444C182.713 85.4244 182.633 74.4444 182.633 74.4444Z" fill="#FFBE9D"/>
<path d="M185.063 82.6544C185.063 82.6544 185.203 82.7444 185.433 82.8444C185.754 82.9714 186.112 82.9714 186.433 82.8444C187.253 82.5344 187.923 81.2144 187.933 79.8444C187.944 79.1784 187.804 78.5185 187.523 77.9144C187.446 77.6811 187.316 77.4691 187.142 77.2954C186.969 77.1218 186.757 76.9913 186.523 76.9144C186.367 76.8771 186.202 76.8957 186.058 76.9669C185.914 77.0381 185.799 77.1575 185.733 77.3044C185.633 77.5244 185.733 77.6744 185.643 77.6944C185.553 77.7144 185.473 77.5644 185.533 77.2344C185.571 77.0426 185.673 76.8696 185.823 76.7444C185.928 76.661 186.048 76.5995 186.177 76.5634C186.306 76.5273 186.441 76.5175 186.573 76.5344C186.895 76.5938 187.196 76.7342 187.448 76.9425C187.7 77.1507 187.894 77.4199 188.013 77.7244C188.359 78.3914 188.534 79.1334 188.523 79.8844C188.523 81.4544 187.713 82.9344 186.593 83.2844C186.386 83.3476 186.166 83.3633 185.952 83.3305C185.737 83.2976 185.533 83.2169 185.353 83.0944C185.083 82.8344 185.043 82.6644 185.063 82.6544Z" fill="#EB996E"/>
<path d="M147.184 75.5143C147.178 75.9389 147.34 76.3487 147.633 76.6554C147.927 76.9621 148.329 77.1413 148.754 77.1544C148.96 77.1707 149.167 77.1456 149.363 77.0806C149.559 77.0157 149.741 76.9121 149.896 76.7761C150.052 76.6401 150.179 76.4743 150.269 76.2885C150.36 76.1027 150.412 75.9007 150.424 75.6943C150.429 75.2705 150.27 74.8611 149.978 74.553C149.687 74.245 149.287 74.0625 148.864 74.0444C148.656 74.028 148.448 74.0534 148.25 74.1188C148.053 74.1843 147.871 74.2886 147.714 74.4255C147.558 74.5625 147.43 74.7294 147.339 74.9164C147.248 75.1034 147.195 75.3067 147.184 75.5143Z" fill="#263238"/>
<path d="M145.182 73.8844C145.382 74.1044 146.612 73.1844 148.362 73.1944C150.112 73.2044 151.362 74.0744 151.592 73.8544C151.822 73.6344 151.482 73.3844 150.922 72.9744C150.166 72.4475 149.264 72.168 148.342 72.1744C147.43 72.1728 146.541 72.4598 145.802 72.9944C145.272 73.4044 145.092 73.7944 145.182 73.8844Z" fill="#263238"/>
<path d="M163.983 75.7146C163.977 76.1391 164.139 76.5489 164.432 76.8556C164.726 77.1623 165.128 77.3415 165.553 77.3546C165.759 77.3723 165.968 77.3483 166.165 77.2839C166.362 77.2196 166.545 77.1163 166.702 76.9801C166.858 76.844 166.986 76.6777 167.077 76.4912C167.168 76.3047 167.221 76.1018 167.233 75.8946C167.238 75.469 167.077 75.0582 166.784 74.7499C166.49 74.4415 166.088 74.2602 165.663 74.2445C165.455 74.2282 165.247 74.2536 165.049 74.319C164.852 74.3845 164.67 74.4888 164.513 74.6257C164.356 74.7627 164.229 74.9296 164.138 75.1166C164.047 75.3036 163.994 75.5069 163.983 75.7146Z" fill="#263238"/>
<path d="M162.403 74.2445C162.603 74.4545 163.843 73.5445 165.593 73.5445C167.343 73.5445 168.593 74.4245 168.813 74.2145C169.033 74.0045 168.703 73.7345 168.143 73.3345C167.388 72.8033 166.485 72.5234 165.563 72.5345C164.651 72.5349 163.762 72.8218 163.023 73.3545C162.493 73.7345 162.303 74.1145 162.403 74.2445Z" fill="#263238"/>
<path d="M156.053 87.2445C155.128 86.954 154.171 86.7793 153.203 86.7245C152.753 86.7245 152.333 86.5945 152.263 86.2845C152.223 85.8252 152.324 85.3646 152.553 84.9645C152.983 83.8845 153.423 82.7445 153.883 81.5545C155.713 76.7045 157.043 72.7245 156.883 72.6545C156.723 72.5845 155.033 76.4445 153.203 81.2945C152.763 82.4945 152.333 83.6345 151.933 84.7245C151.651 85.2621 151.57 85.8823 151.703 86.4745C151.767 86.6324 151.866 86.7738 151.993 86.8881C152.119 87.0024 152.27 87.0867 152.433 87.1345C152.682 87.1978 152.937 87.2314 153.193 87.2345C154.142 87.3581 155.103 87.3615 156.053 87.2445Z" fill="#263238"/>
<path d="M161.184 88.4147C160.904 88.4147 160.893 90.2947 159.263 91.6447C157.633 92.9947 155.614 92.7847 155.604 93.0547C155.604 93.1747 156.054 93.4247 156.914 93.4447C158.028 93.4596 159.111 93.0807 159.974 92.3747C160.799 91.6967 161.329 90.7254 161.453 89.6647C161.543 88.8747 161.334 88.4047 161.184 88.4147Z" fill="#263238"/>
<path d="M161.954 67.3546C162.124 67.8246 163.874 67.6046 165.954 67.8546C168.034 68.1046 169.664 68.6546 169.954 68.2346C170.084 68.0246 169.794 67.5746 169.124 67.1146C168.228 66.5516 167.217 66.1988 166.166 66.0828C165.114 65.9667 164.05 66.0904 163.054 66.4446C162.254 66.7546 161.884 67.1246 161.954 67.3546Z" fill="#263238"/>
<path d="M145.833 68.8145C146.143 69.2145 147.353 68.8145 148.833 68.8145C150.313 68.8145 151.513 69.0845 151.833 68.6645C151.953 68.4645 151.763 68.0645 151.223 67.6645C150.506 67.2051 149.664 66.9781 148.813 67.0145C147.962 67.0272 147.136 67.3071 146.453 67.8145C145.863 68.2445 145.703 68.6245 145.833 68.8145Z" fill="#263238"/>
<path d="M135.912 50.7845C135.834 50.0771 135.936 49.3614 136.209 48.704C136.482 48.0466 136.916 47.4689 137.472 47.0245C138.046 46.6093 138.749 46.4106 139.455 46.4637C140.162 46.5168 140.827 46.8182 141.332 47.3145C141.227 46.8382 141.222 46.345 141.319 45.8668C141.416 45.3887 141.613 44.9362 141.895 44.5385C142.178 44.1409 142.541 43.8069 142.961 43.5582C143.38 43.3095 143.848 43.1515 144.332 43.0945C146.192 42.9745 147.782 44.3845 149.572 44.8745C151.364 45.2398 153.226 45.0189 154.882 44.2445C156.572 43.5645 158.152 42.6246 159.882 42.0046C163.489 40.6855 167.471 40.8438 170.961 42.4449C174.452 44.046 177.169 46.9605 178.522 50.5545C179.794 50.2425 181.131 50.324 182.356 50.7883C183.581 51.2525 184.636 52.0777 185.382 53.1546C186.836 55.3589 187.417 58.0253 187.012 60.6345C186.765 62.3808 186.325 64.0945 185.702 65.7445C185.702 65.8945 185.702 66.0346 185.702 66.1846C185.582 72.4446 184.872 79.8045 182.202 79.8445C177.542 79.9145 178.652 71.1345 178.652 71.1345C172.932 68.9345 175.062 60.3645 173.652 59.0645C172.242 57.7645 169.232 54.7446 157.262 60.8646C152.612 63.2346 146.432 63.1646 143.052 62.3946C142.954 62.3804 142.858 62.3603 142.762 62.3345H142.692H142.592C141.508 62.0629 140.472 61.6243 139.522 61.0345C138.399 60.3891 137.512 59.4008 136.992 58.2146C136.743 57.6221 136.672 56.97 136.788 56.3379C136.903 55.7057 137.2 55.1208 137.642 54.6546C136.696 53.5634 136.095 52.2169 135.912 50.7845Z" fill="#263238"/>
</svg>
