<svg width="20" height="20" viewBox="0 0 20 20" fill="none" xmlns="http://www.w3.org/2000/svg">
<path d="M9.99951 9V6L13.9995 10L9.99951 14V11H5.99951V9H9.99951ZM9.99951 0C15.5195 0 19.9995 4.48 19.9995 10C19.9995 15.52 15.5195 20 9.99951 20C4.47951 20 -0.000488281 15.52 -0.000488281 10C-0.000488281 4.48 4.47951 0 9.99951 0ZM9.99951 18C14.4195 18 17.9995 14.42 17.9995 10C17.9995 5.58 14.4195 2 9.99951 2C5.57951 2 1.99951 5.58 1.99951 10C1.99951 14.42 5.57951 18 9.99951 18Z" fill="#7138DF"/>
</svg>
