<svg width="47" height="47" viewBox="0 0 47 47" fill="none" xmlns="http://www.w3.org/2000/svg">
<path d="M47 23.5C47 36.4787 36.4787 47 23.5 47C10.5213 47 0 36.4787 0 23.5C0 10.5213 10.5213 0 23.5 0C36.4787 0 47 10.5213 47 23.5ZM4.22202 23.5C4.22202 34.1469 12.8531 42.778 23.5 42.778C34.1469 42.778 42.778 34.1469 42.778 23.5C42.778 12.8531 34.1469 4.22202 23.5 4.22202C12.8531 4.22202 4.22202 12.8531 4.22202 23.5Z" fill="#F1EFE7"/>
<path d="M47 23.5C47 19.2841 45.8659 15.1459 43.7165 11.5191C41.5671 7.89224 38.4817 4.91042 34.7836 2.88615C31.0855 0.86189 26.9109 -0.13026 22.6975 0.0137059C18.4841 0.157672 14.387 1.43245 10.8357 3.70441L13.111 7.2609C16.0242 5.39711 19.3853 4.35136 22.8417 4.23326C26.2981 4.11516 29.7227 4.92906 32.7564 6.58964C35.7901 8.25023 38.3212 10.6963 40.0844 13.6716C41.8476 16.6468 42.778 20.0416 42.778 23.5H47Z" fill="url(#paint0_linear_730_923)"/>
<rect x="8" y="8" width="30" height="30" rx="15" fill="url(#paint1_linear_730_923)"/>
<path d="M23.9176 22.0831L15.2092 30.7915M24.8511 15.2434C25.9676 15.9842 27.0408 16.8577 28.0436 17.8605C29.0551 18.872 29.9349 19.955 30.6799 21.0819M20.4846 19.2379L17.8493 18.3595C17.5458 18.2583 17.2115 18.3227 16.9673 18.5293L14.3483 20.7455C13.8121 21.1992 13.9644 22.0626 14.6235 22.3054L17.1051 23.2197M22.7085 28.8229L23.6228 31.3045C23.8656 31.9636 24.729 32.1159 25.1827 31.5798L27.3988 28.9607C27.6055 28.7165 27.6699 28.3822 27.5687 28.0787L26.6903 25.4434M29.7371 14.0813L25.2395 14.8309C24.7538 14.9118 24.3084 15.1505 23.972 15.5101L17.9101 21.9901C16.3387 23.6698 16.3825 26.2929 18.0088 27.9193C19.6352 29.5457 22.2584 29.5894 23.938 28.0181L30.4181 21.9561C30.7776 21.6198 31.0163 21.1743 31.0973 20.6887L31.8469 16.1911C32.0537 14.9502 30.9779 13.8745 29.7371 14.0813Z" stroke="white" stroke-width="2" stroke-linecap="round" stroke-linejoin="round"/>
<defs>
<linearGradient id="paint0_linear_730_923" x1="23.5" y1="0" x2="23.5" y2="47" gradientUnits="userSpaceOnUse">
<stop stop-color="#8449EB"/>
<stop offset="1" stop-color="#6A56F6"/>
</linearGradient>
<linearGradient id="paint1_linear_730_923" x1="23" y1="8" x2="23" y2="38" gradientUnits="userSpaceOnUse">
<stop stop-color="#8449EB"/>
<stop offset="1" stop-color="#6A56F6"/>
</linearGradient>
</defs>
</svg>
