<svg width="16" height="16" viewBox="0 0 16 16" fill="none" xmlns="http://www.w3.org/2000/svg">
<path d="M5.54958 11.9812L5.54958 11.9812L5.5488 11.9801L2.85556 8.2136C2.76363 8.08489 2.76255 7.91682 2.85077 7.78637L5.54214 4.02246L5.54291 4.02137C5.71333 3.78079 5.99539 3.63463 6.29144 3.63463C7.04294 3.63463 7.47697 4.48008 7.04119 5.08617L7.04049 5.08715L5.08716 7.82715L4.96301 8.0013L5.08716 8.17545L7.04024 10.9151C7.04027 10.9151 7.04031 10.9152 7.04034 10.9152C7.47308 11.5243 7.03973 12.368 6.29144 12.368C5.99719 12.368 5.72104 12.2233 5.54958 11.9812Z" fill="#98A2B3" stroke="white" stroke-width="0.6"/>
<path d="M7.52364 8.21376L7.52353 8.2136C7.4316 8.08489 7.43052 7.91682 7.51874 7.78637L10.2101 4.02246L10.2109 4.02137C10.3813 3.78079 10.6634 3.63463 10.9594 3.63463C11.7109 3.63463 12.1449 4.48008 11.7092 5.08617L11.7085 5.08715L9.75513 7.82715L9.63098 8.0013L9.75513 8.17545L11.7085 10.9154L11.7085 10.9154L11.7092 10.9164C12.1449 11.5225 11.7109 12.368 10.9594 12.368C10.6663 12.368 10.3886 12.2241 10.2093 11.9791L7.52364 8.21376Z" fill="#98A2B3" stroke="white" stroke-width="0.6"/>
</svg>
