<svg width="62" height="17" viewBox="0 0 62 17" fill="none" xmlns="http://www.w3.org/2000/svg">
<path d="M2.5662 11.9841C2.86647 12.6933 3.24152 13.2389 3.69134 13.6187C4.14116 13.9995 4.63655 14.1888 5.17867 14.1888C5.7208 14.1888 6.19165 14.0241 6.55034 13.6946C6.90903 13.3651 7.08779 12.9527 7.08779 12.455C7.08779 12.0531 6.95226 11.6885 6.6812 11.3625C6.41014 11.0377 5.96849 10.7059 5.35393 10.3694L4.77208 10.0516C3.44014 9.34243 2.63981 8.87041 2.36875 8.63557C1.8126 8.15303 1.42003 7.67166 1.18869 7.19263C0.958524 6.7136 0.842856 6.15162 0.842856 5.50784C0.842856 4.09645 1.31605 2.94211 2.26359 2.04597C3.21114 1.14983 4.44494 0.701172 5.96732 0.701172C7.03521 0.701172 7.97108 0.944193 8.77608 1.4314C9.58109 1.91861 10.2097 2.61847 10.663 3.5333L8.99457 4.697C8.70131 3.99481 8.33093 3.46788 7.88111 3.1162C7.43129 2.76452 6.89501 2.58926 6.27344 2.58926C5.75351 2.58926 5.32472 2.7505 4.98356 3.0718C4.64356 3.39427 4.47298 3.79619 4.47298 4.27872C4.47298 4.68882 4.61318 5.04634 4.89593 5.35362C5.17751 5.6609 5.7208 6.01959 6.5258 6.42852L6.80037 6.57106C8.30056 7.31765 9.20371 7.81888 9.51099 8.07476C10.0519 8.52107 10.4422 8.99076 10.6794 9.48498C10.9165 9.9792 11.0357 10.5552 11.0357 11.213C11.0357 12.6548 10.5333 13.829 9.52734 14.7356C8.52138 15.6435 7.21397 16.0968 5.60396 16.0968C4.45545 16.0968 3.44014 15.8444 2.55919 15.3397C1.67707 14.8349 1.00643 14.1211 0.544922 13.1992L2.56386 11.9818L2.5662 11.9841Z" fill="#FFC107"/>
<path d="M20.8342 13.2912C20.4241 14.199 19.8727 14.8895 19.1775 15.3651C18.4823 15.8406 17.6738 16.0778 16.752 16.0778C15.3324 16.0778 14.1745 15.5987 13.2784 14.6407C12.3822 13.6826 11.9336 12.4383 11.9336 10.9101C11.9336 9.38185 12.3963 8.11768 13.3216 7.14092C14.247 6.16416 15.4188 5.67578 16.8384 5.67578C17.8187 5.67578 18.6377 5.88609 19.2967 6.3067C19.9556 6.72732 20.4311 7.34772 20.7232 8.16675L19.3516 8.95656C19.1985 8.34901 18.966 7.89452 18.6552 7.59074C18.3444 7.28696 17.9624 7.13507 17.5091 7.13507C16.8291 7.13507 16.308 7.4517 15.9458 8.08496C15.5836 8.71821 15.4025 9.63772 15.4025 10.8446C15.4025 12.1392 15.5555 13.0821 15.8628 13.6698C16.1701 14.2586 16.6596 14.5531 17.3338 14.5531C17.8315 14.5531 18.2848 14.3743 18.6949 14.0156C19.105 13.6569 19.4006 13.1744 19.5841 12.5668L20.8354 13.2912H20.8342Z" fill="#FFC107"/>
<path d="M22.249 15.7146V0H25.42V9.32826H27.7579V5.98088H30.9288V15.7146H27.7579V10.9079H25.42V15.7146H22.249Z" fill="#FFC107"/>
<path d="M35.328 15.713C34.5744 15.713 34.0428 15.5471 33.7308 15.2141C33.42 14.8811 33.2646 14.3051 33.2646 13.4861V8.20738C33.2646 7.38835 33.42 6.81235 33.7308 6.47936C34.0416 6.14638 34.5744 5.98047 35.328 5.98047H39.8496V7.43976H37.4462C37.0443 7.43976 36.7744 7.51337 36.6401 7.65941C36.5045 7.80546 36.4368 8.09521 36.4368 8.52634V10.1177H39.4874V11.577H36.4368V13.201C36.4368 13.6251 36.5022 13.9067 36.6342 14.0457C36.7662 14.1848 37.0361 14.2537 37.4462 14.2537H40.0026V15.713H35.328Z" fill="white"/>
<path d="M41.6024 15.713V14.2537H44.1915C44.7908 14.2537 45.2103 14.1719 45.4486 14.0072C45.6858 13.8424 45.805 13.5667 45.805 13.1788C45.805 12.6811 45.3178 12.2862 44.3457 11.9941C44.0524 11.9064 43.8223 11.8375 43.654 11.7861C42.6959 11.4718 42.0393 11.1166 41.6841 10.7217C41.329 10.3268 41.1514 9.78935 41.1514 9.1082C41.1514 8.09171 41.4867 7.31591 42.155 6.78197C42.8245 6.24802 43.7954 5.98047 45.0689 5.98047H47.6043V7.43976H45.4089C45.0502 7.43976 44.7686 7.50402 44.5642 7.63137C44.3597 7.7599 44.2569 7.93749 44.2569 8.16415C44.2569 8.56607 44.681 8.89905 45.5304 9.16311C45.7209 9.22853 45.8634 9.27644 45.958 9.30565C46.9967 9.64214 47.6989 10.0265 48.0646 10.4577C48.4303 10.89 48.6137 11.4963 48.6137 12.2792C48.6137 13.347 48.2796 14.1871 47.6101 14.7982C46.9406 15.4092 46.0165 15.7142 44.8387 15.7142H41.6012L41.6024 15.713Z" fill="white"/>
<path d="M51.6504 15.7142V7.6489H49.0391V5.98047H57.4338V7.6489H54.8225V15.7142H51.6515H51.6504Z" fill="white"/>
<path d="M58.6406 15.7142V5.98047H61.8116V15.7142H58.6406Z" fill="#FFC107"/>
<path d="M58.593 2.84616C58.593 2.38582 58.7554 1.99209 59.0813 1.66611C59.4073 1.34014 59.7964 1.17773 60.2497 1.17773C60.703 1.17773 61.1131 1.33897 61.4344 1.66027C61.7557 1.98274 61.917 2.37764 61.917 2.84499C61.917 3.31234 61.7546 3.69791 61.4286 4.01921C61.1026 4.34168 60.71 4.50175 60.2485 4.50175C59.787 4.50175 59.405 4.33934 59.0802 4.01336C58.7542 3.68739 58.5918 3.29832 58.5918 2.84499L58.593 2.84616Z" fill="#FFC107"/>
</svg>
