<svg width="26" height="25" viewBox="0 0 26 25" fill="none" xmlns="http://www.w3.org/2000/svg">
<g id="Group">
<g id="Group_2">
<path id="Vector" d="M23.3359 2.7317C20.1755 -0.428797 15.0329 -0.428797 11.872 2.7317L2.04548 12.5582C-0.211899 14.8158 -0.211751 18.4891 2.04578 20.7466C3.17464 21.8755 4.65698 22.4399 6.13991 22.4397C7.62245 22.4396 9.10557 21.8753 10.2342 20.7466L19.2416 11.739C19.8978 11.0829 20.2593 10.2105 20.2594 9.28256C20.2594 8.35458 19.8981 7.48221 19.2417 6.82588C17.8871 5.47138 15.6829 5.47143 14.3286 6.82613L8.4381 12.7164C7.98587 13.1686 7.98587 13.9019 8.438 14.3541C8.89018 14.8065 9.62343 14.8063 10.0757 14.3541L15.9662 8.46378C16.4178 8.01225 17.1523 8.01215 17.6039 8.46368C17.8226 8.68239 17.9431 8.97322 17.9431 9.28251C17.9431 9.5918 17.8227 9.88253 17.6039 10.1013L8.59654 19.1089C7.24193 20.4633 5.03799 20.4635 3.68348 19.109C2.32897 17.7544 2.32887 15.5503 3.68323 14.1957L13.5097 4.36941C15.7674 2.11178 19.4408 2.11178 21.6982 4.36941C22.7919 5.46296 23.3942 6.91701 23.3942 8.46358C23.3942 10.0102 22.7918 11.4642 21.6982 12.5579L11.8718 22.3845C11.4197 22.8367 11.4197 23.5699 11.8719 24.0222C12.0981 24.2484 12.3944 24.3613 12.6908 24.3613C12.9871 24.3613 13.2835 24.2482 13.5096 24.0222L23.3358 14.1956C24.867 12.6646 25.7102 10.6289 25.7102 8.46363C25.7102 6.29837 24.867 4.26272 23.3359 2.7317Z" fill="#7C7C7C"/>
</g>
</g>
</svg>
