<svg width="16" height="18" viewBox="0 0 16 18" fill="none" xmlns="http://www.w3.org/2000/svg">
<path d="M1.1 16.0001V16V3.5C1.1 3.16863 0.831371 2.9 0.5 2.9C0.279086 2.9 0.1 2.72091 0.1 2.5V2C0.1 1.50294 0.502944 1.1 1 1.1H4.5C4.83137 1.1 5.1 0.831371 5.1 0.5C5.1 0.279086 5.27909 0.1 5.5 0.1H10.5C10.7209 0.1 10.9 0.279086 10.9 0.5C10.9 0.831371 11.1686 1.1 11.5 1.1H15C15.4971 1.1 15.9 1.50294 15.9 2V2.5C15.9 2.72091 15.7209 2.9 15.5 2.9C15.1686 2.9 14.9 3.16863 14.9 3.5V16C14.9 16.5232 14.7147 16.9689 14.3413 17.3423C13.9679 17.7157 13.5226 17.9006 13.0001 17.9H13H3C2.47676 17.9 2.03112 17.7147 1.65771 17.3413C1.2843 16.9679 1.09937 16.5226 1.1 16.0001ZM13.1 4C13.1 3.39249 12.6075 2.9 12 2.9H4C3.39249 2.9 2.9 3.39249 2.9 4V15C2.9 15.6075 3.39249 16.1 4 16.1H12C12.6075 16.1 13.1 15.6075 13.1 15V4ZM6 13.9C5.50294 13.9 5.1 13.4971 5.1 13V6C5.1 5.50294 5.50294 5.1 6 5.1C6.49706 5.1 6.9 5.50294 6.9 6V13C6.9 13.4971 6.49706 13.9 6 13.9ZM10 13.9C9.50294 13.9 9.1 13.4971 9.1 13V6C9.1 5.50294 9.50294 5.1 10 5.1C10.4971 5.1 10.9 5.50294 10.9 6V13C10.9 13.4971 10.4971 13.9 10 13.9Z" fill="#7F56D9" stroke="white" stroke-width="0.2"/>
</svg>
