<svg width="15" height="16" viewBox="0 0 15 16" fill="none" xmlns="http://www.w3.org/2000/svg">
<path d="M3.32455 13.9614V1.3988C3.32455 1.23033 3.15655 1.08594 2.96055 1.08594H1.84056C1.64456 1.08594 1.47656 1.23033 1.47656 1.3988V13.9373C1.47656 14.1058 1.64456 14.2502 1.84056 14.2502H2.96055C3.15655 14.2743 3.32455 14.1299 3.32455 13.9614Z" fill="#6F6AF8"/>
<path d="M6.71126 13.9614V1.3988C6.71126 1.23033 6.54327 1.08594 6.34727 1.08594H5.22728C5.03128 1.08594 4.86328 1.23033 4.86328 1.3988V13.9373C4.86328 14.1058 5.03128 14.2502 5.22728 14.2502H6.34727C6.54327 14.2743 6.71126 14.1299 6.71126 13.9614Z" fill="#6F6AF8"/>
<path d="M10.098 13.9614V1.3988C10.098 1.23033 9.92998 1.08594 9.73399 1.08594H8.614C8.418 1.08594 8.25 1.23033 8.25 1.3988V13.9373C8.25 14.1058 8.418 14.2502 8.614 14.2502H9.73399C9.92998 14.2743 10.098 14.1299 10.098 13.9614Z" fill="#6F6AF8"/>
<path d="M13.7972 13.9614V1.3988C13.7972 1.23033 13.6292 1.08594 13.4332 1.08594H12.3132C12.1172 1.08594 11.9492 1.23033 11.9492 1.3988V13.9373C11.9492 14.1058 12.1172 14.2502 12.3132 14.2502H13.4332C13.6292 14.2743 13.7972 14.1299 13.7972 13.9614Z" fill="#6F6AF8"/>
<path d="M12.4929 14.7668L1.14202 1.94941C0.989808 1.77753 0.987892 1.52746 1.13787 1.40759L1.9949 0.722616C2.14488 0.602746 2.40391 0.647326 2.55612 0.819207L13.8853 13.6121C14.0375 13.7839 14.0394 14.034 13.8894 14.1539L13.0324 14.8389C12.9042 14.9833 12.6451 14.9387 12.4929 14.7668Z" fill="#6F6AF8"/>
</svg>
