<svg width="40" height="40" viewBox="0 0 40 40" fill="none" xmlns="http://www.w3.org/2000/svg">
<path d="M17.8308 26.1439L18.3179 27.2393C18.4626 27.5653 18.6989 27.8424 18.9981 28.0368C19.2972 28.2312 19.6463 28.3347 20.0031 28.3346C20.3598 28.3347 20.7089 28.2312 21.008 28.0368C21.3072 27.8424 21.5435 27.5653 21.6882 27.2393L22.1753 26.1439C22.3486 25.7552 22.6403 25.4312 23.0086 25.218C23.3793 25.0042 23.808 24.9131 24.2336 24.9578L25.4253 25.0846C25.78 25.1222 26.138 25.056 26.4558 24.8941C26.7737 24.7322 27.0378 24.4816 27.216 24.1726C27.3945 23.8638 27.4795 23.5099 27.4608 23.1537C27.4421 22.7975 27.3204 22.4545 27.1105 22.1661L26.4049 21.1967C26.1537 20.8489 26.0194 20.4303 26.0216 20.0013C26.0215 19.5735 26.157 19.1566 26.4086 18.8106L27.1142 17.8411C27.3241 17.5528 27.4458 17.2097 27.4645 16.8535C27.4832 16.4974 27.3982 16.1434 27.2197 15.8346C27.0415 15.5257 26.7774 15.275 26.4595 15.1132C26.1417 14.9513 25.7837 14.8851 25.429 14.9226L24.2373 15.0495C23.8118 15.0941 23.383 15.0031 23.0123 14.7893C22.6432 14.5748 22.3515 14.2491 22.179 13.8587L21.6882 12.7633C21.5435 12.4373 21.3072 12.1602 21.008 11.9658C20.7089 11.7714 20.3598 11.6679 20.0031 11.668C19.6463 11.6679 19.2972 11.7714 18.9981 11.9658C18.6989 12.1602 18.4626 12.4373 18.3179 12.7633L17.8308 13.8587C17.6583 14.2491 17.3666 14.5748 16.9975 14.7893C16.6268 15.0031 16.1981 15.0941 15.7725 15.0495L14.5771 14.9226C14.2224 14.8851 13.8644 14.9513 13.5466 15.1132C13.2287 15.275 12.9646 15.5257 12.7864 15.8346C12.6079 16.1434 12.5229 16.4974 12.5416 16.8535C12.5603 17.2097 12.682 17.5528 12.8919 17.8411L13.5975 18.8106C13.8491 19.1566 13.9846 19.5735 13.9845 20.0013C13.9846 20.4291 13.8491 20.846 13.5975 21.192L12.8919 22.1615C12.682 22.4498 12.5603 22.7929 12.5416 23.1491C12.5229 23.5052 12.6079 23.8592 12.7864 24.168C12.9648 24.4768 13.2289 24.7273 13.5467 24.8891C13.8645 25.051 14.2224 25.1173 14.5771 25.08L15.7688 24.9532C16.1943 24.9085 16.6231 24.9995 16.9938 25.2133C17.3642 25.4272 17.6573 25.753 17.8308 26.1439Z" stroke="#007AB6" stroke-width="1.66667" stroke-linecap="round" stroke-linejoin="round"/>
<path d="M20.0016 22.5013C21.3823 22.5013 22.5016 21.382 22.5016 20.0013C22.5016 18.6206 21.3823 17.5013 20.0016 17.5013C18.6208 17.5013 17.5016 18.6206 17.5016 20.0013C17.5016 21.382 18.6208 22.5013 20.0016 22.5013Z" stroke="#007AB6" stroke-width="1.66667" stroke-linecap="round" stroke-linejoin="round"/>
</svg>
