<svg width="40" height="40" viewBox="0 0 40 40" fill="none" xmlns="http://www.w3.org/2000/svg">
<path d="M17.8308 26.1424L18.3179 27.2378C18.4626 27.5639 18.6989 27.8409 18.9981 28.0353C19.2972 28.2298 19.6463 28.3332 20.0031 28.3332C20.3598 28.3332 20.7089 28.2298 21.008 28.0353C21.3072 27.8409 21.5435 27.5639 21.6882 27.2378L22.1753 26.1424C22.3486 25.7538 22.6403 25.4297 23.0086 25.2165C23.3793 25.0027 23.808 24.9116 24.2336 24.9563L25.4253 25.0832C25.78 25.1207 26.138 25.0545 26.4558 24.8926C26.7737 24.7307 27.0378 24.4801 27.216 24.1711C27.3945 23.8623 27.4795 23.5084 27.4608 23.1522C27.4421 22.7961 27.3204 22.453 27.1105 22.1647L26.4049 21.1952C26.1537 20.8474 26.0194 20.4289 26.0216 19.9998C26.0215 19.572 26.157 19.1551 26.4086 18.8091L27.1142 17.8397C27.3241 17.5513 27.4458 17.2082 27.4645 16.8521C27.4832 16.4959 27.3982 16.142 27.2197 15.8332C27.0415 15.5242 26.7774 15.2736 26.4595 15.1117C26.1417 14.9498 25.7837 14.8836 25.429 14.9211L24.2373 15.048C23.8118 15.0927 23.383 15.0016 23.0123 14.7878C22.6432 14.5734 22.3515 14.2476 22.179 13.8572L21.6882 12.7619C21.5435 12.4358 21.3072 12.1588 21.008 11.9643C20.7089 11.7699 20.3598 11.6664 20.0031 11.6665C19.6463 11.6664 19.2972 11.7699 18.9981 11.9643C18.6989 12.1588 18.4626 12.4358 18.3179 12.7619L17.8308 13.8572C17.6583 14.2476 17.3666 14.5734 16.9975 14.7878C16.6268 15.0016 16.1981 15.0927 15.7725 15.048L14.5771 14.9211C14.2224 14.8836 13.8644 14.9498 13.5466 15.1117C13.2287 15.2736 12.9646 15.5242 12.7864 15.8332C12.6079 16.142 12.5229 16.4959 12.5416 16.8521C12.5603 17.2082 12.682 17.5513 12.8919 17.8397L13.5975 18.8091C13.8491 19.1551 13.9846 19.572 13.9845 19.9998C13.9846 20.4277 13.8491 20.8445 13.5975 21.1906L12.8919 22.16C12.682 22.4484 12.5603 22.7914 12.5416 23.1476C12.5229 23.5038 12.6079 23.8577 12.7864 24.1665C12.9648 24.4753 13.2289 24.7258 13.5467 24.8877C13.8645 25.0495 14.2224 25.1158 14.5771 25.0785L15.7688 24.9517C16.1943 24.907 16.6231 24.9981 16.9938 25.2119C17.3642 25.4257 17.6573 25.7515 17.8308 26.1424Z" stroke="#FCFCFD" stroke-width="1.66667" stroke-linecap="round" stroke-linejoin="round"/>
<path d="M20.0016 22.4998C21.3823 22.4998 22.5016 21.3805 22.5016 19.9998C22.5016 18.6191 21.3823 17.4998 20.0016 17.4998C18.6208 17.4998 17.5016 18.6191 17.5016 19.9998C17.5016 21.3805 18.6208 22.4998 20.0016 22.4998Z" stroke="#FCFCFD" stroke-width="1.66667" stroke-linecap="round" stroke-linejoin="round"/>
</svg>
