<svg width="41" height="40" viewBox="0 0 41 40" fill="none" xmlns="http://www.w3.org/2000/svg">
<rect width="40" height="40" transform="translate(0.711914)" fill="white"/>
<path d="M20.2869 20.3129C20.6515 19.6737 21.3533 19.2754 22.1182 19.2754C22.3642 19.2754 22.5975 19.3296 22.8213 19.4068V14.3281C22.8213 13.9395 22.5068 13.625 22.1182 13.625H10.8682C10.4795 13.625 10.165 13.9395 10.165 14.3281V25.5781C10.165 25.9668 10.4795 26.2812 10.8682 26.2812H16.8764L20.2869 20.3129Z" fill="#0B003A"/>
<path d="M24.9306 8C22.1843 8 19.8648 9.76878 18.9912 12.2188H22.1181C23.2813 12.2188 24.2275 13.165 24.2275 14.3281V20.6094C24.4609 20.636 24.6953 20.6562 24.9306 20.6562C28.4201 20.6562 31.2587 17.8176 31.2587 14.3281C31.2587 10.8386 28.4201 8 24.9306 8Z" fill="#0B003A"/>
<path d="M27.7432 32H16.4932C16.2425 32 16.0112 31.8668 15.8848 31.6498C15.7591 31.4328 15.7585 31.1657 15.8827 30.948L21.5077 21.0105C21.7577 20.5725 22.4787 20.5725 22.7286 21.0105L28.3536 30.948C28.4779 31.1657 28.4772 31.4328 28.3515 31.6498C28.2252 31.8668 27.9938 32 27.7432 32Z" fill="#0B003A"/>
</svg>
