<svg width="22" height="20" viewBox="0 0 22 20" fill="none" xmlns="http://www.w3.org/2000/svg">
<path d="M8.01625 11.2621L13.9925 14.5787M13.9837 5.42874L8.01625 8.74541M18.875 4.17041C18.875 5.55112 17.6997 6.67041 16.25 6.67041C14.8003 6.67041 13.625 5.55112 13.625 4.17041C13.625 2.7897 14.8003 1.67041 16.25 1.67041C17.6997 1.67041 18.875 2.7897 18.875 4.17041ZM8.375 10.0037C8.375 11.3845 7.19975 12.5037 5.75 12.5037C4.30025 12.5037 3.125 11.3845 3.125 10.0037C3.125 8.62303 4.30025 7.50374 5.75 7.50374C7.19975 7.50374 8.375 8.62303 8.375 10.0037ZM18.875 15.8371C18.875 17.2178 17.6997 18.3371 16.25 18.3371C14.8003 18.3371 13.625 17.2178 13.625 15.8371C13.625 14.4564 14.8003 13.3371 16.25 13.3371C17.6997 13.3371 18.875 14.4564 18.875 15.8371Z" stroke="#384250" stroke-linecap="round" stroke-linejoin="round"/>
</svg>
