<svg width="20" height="21" viewBox="0 0 20 21" fill="none" xmlns="http://www.w3.org/2000/svg">
<path d="M7.15833 11.7284L12.85 15.0451M12.8417 5.89505L7.15833 9.21172M17.5 4.63672C17.5 6.01743 16.3807 7.13672 15 7.13672C13.6193 7.13672 12.5 6.01743 12.5 4.63672C12.5 3.25601 13.6193 2.13672 15 2.13672C16.3807 2.13672 17.5 3.25601 17.5 4.63672ZM7.5 10.4701C7.5 11.8508 6.38071 12.9701 5 12.9701C3.61929 12.9701 2.5 11.8508 2.5 10.4701C2.5 9.08934 3.61929 7.97005 5 7.97005C6.38071 7.97005 7.5 9.08934 7.5 10.4701ZM17.5 16.3034C17.5 17.6841 16.3807 18.8034 15 18.8034C13.6193 18.8034 12.5 17.6841 12.5 16.3034C12.5 14.9227 13.6193 13.8034 15 13.8034C16.3807 13.8034 17.5 14.9227 17.5 16.3034Z" stroke="#475467" stroke-width="1.66667" stroke-linecap="round" stroke-linejoin="round"/>
</svg>
