<svg width="22" height="20" viewBox="0 0 22 20" fill="none" xmlns="http://www.w3.org/2000/svg">
<path d="M8.01625 11.2626L13.9925 14.5792M13.9837 5.42923L8.01625 8.7459M18.875 4.1709C18.875 5.55161 17.6997 6.6709 16.25 6.6709C14.8003 6.6709 13.625 5.55161 13.625 4.1709C13.625 2.79019 14.8003 1.6709 16.25 1.6709C17.6997 1.6709 18.875 2.79019 18.875 4.1709ZM8.375 10.0042C8.375 11.3849 7.19975 12.5042 5.75 12.5042C4.30025 12.5042 3.125 11.3849 3.125 10.0042C3.125 8.62352 4.30025 7.50423 5.75 7.50423C7.19975 7.50423 8.375 8.62352 8.375 10.0042ZM18.875 15.8376C18.875 17.2183 17.6997 18.3376 16.25 18.3376C14.8003 18.3376 13.625 17.2183 13.625 15.8376C13.625 14.4569 14.8003 13.3376 16.25 13.3376C17.6997 13.3376 18.875 14.4569 18.875 15.8376Z" stroke="#384250" stroke-linecap="round" stroke-linejoin="round"/>
</svg>
