<svg width="18" height="17" viewBox="0 0 18 17" fill="none" xmlns="http://www.w3.org/2000/svg">
<path d="M16.5937 14.0623L15.7499 14.9854C15.3024 15.4749 14.6954 15.7498 14.0626 15.7498C13.4298 15.7498 12.8229 15.4749 12.3753 14.9854C11.9272 14.497 11.3203 14.2227 10.6877 14.2227C10.055 14.2227 9.44815 14.497 8.99998 14.9854M1.40625 15.7498H2.81915C3.23189 15.7498 3.43827 15.7498 3.63248 15.7032C3.80466 15.6619 3.96927 15.5937 4.12025 15.5012C4.29055 15.3968 4.43648 15.2509 4.72833 14.959L15.3281 4.3592C16.0271 3.66021 16.0271 2.52693 15.3281 1.82795C14.6292 1.12896 13.4959 1.12897 12.7969 1.82795L2.19706 12.4278C1.90521 12.7196 1.75928 12.8655 1.65492 13.0358C1.5624 13.1868 1.49421 13.3514 1.45288 13.5236C1.40625 13.7178 1.40625 13.9242 1.40625 14.337V15.7498Z" stroke="#007AB6" stroke-width="1.40625" stroke-linecap="round" stroke-linejoin="round"/>
</svg>
