<svg width="15" height="15" viewBox="0 0 15 15" fill="none" xmlns="http://www.w3.org/2000/svg">
<g clip-path="url(#clip0_5_1298)">
<path d="M7.15375 1.20747C7.28185 0.899489 7.71815 0.899489 7.84625 1.20747L9.39581 4.93308C9.44982 5.06292 9.57192 5.15163 9.71209 5.16287L13.7342 5.48532C14.0667 5.51198 14.2015 5.92692 13.9482 6.14392L10.8838 8.76892C10.777 8.86041 10.7303 9.00395 10.763 9.14073L11.6992 13.0656C11.7766 13.3901 11.4236 13.6465 11.139 13.4727L7.69547 11.3694C7.57546 11.2961 7.42454 11.2961 7.30453 11.3694L3.86104 13.4727C3.57638 13.6465 3.22341 13.3901 3.30081 13.0656L4.23704 9.14073C4.26967 9.00395 4.22303 8.86041 4.11623 8.76892L1.05181 6.14392C0.798483 5.92692 0.933305 5.51198 1.2658 5.48532L5.28791 5.16287C5.42808 5.15163 5.55018 5.06292 5.60419 4.93308L7.15375 1.20747Z" fill="#FFA51F"/>
</g>
<defs>
<clipPath id="clip0_5_1298">
<rect width="15" height="15" fill="white"/>
</clipPath>
</defs>
</svg>
