<svg width="41" height="40" viewBox="0 0 41 40" fill="none" xmlns="http://www.w3.org/2000/svg">
<rect width="40" height="40" transform="translate(0.711914)" fill="white"/>
<path d="M12.4619 9.5C11.8652 9.5 11.2929 9.73705 10.8709 10.159C10.449 10.581 10.2119 11.1533 10.2119 11.75V28.25C10.2119 28.8467 10.449 29.419 10.8709 29.841C11.2929 30.2629 11.8652 30.5 12.4619 30.5H21.5909C22.1875 30.4995 22.7594 30.2621 23.1809 29.84L30.5534 22.469C30.9749 22.0472 31.2118 21.4753 31.2119 20.879V11.75C31.2119 11.1533 30.9749 10.581 30.5529 10.159C30.1309 9.73705 29.5587 9.5 28.9619 9.5H12.4619ZM21.4619 22.25C21.4619 21.8522 21.6199 21.4706 21.9013 21.1893C22.1826 20.908 22.5641 20.75 22.9619 20.75H29.5559C29.6302 20.7499 29.7028 20.7718 29.7646 20.813C29.8264 20.8542 29.8746 20.9128 29.903 20.9814C29.9314 21.05 29.9389 21.1255 29.9243 21.1983C29.9098 21.2712 29.874 21.3381 29.8214 21.3905L22.1024 29.1095C22.05 29.1621 21.9831 29.1979 21.9103 29.2124C21.8374 29.227 21.7619 29.2195 21.6933 29.1911C21.6247 29.1626 21.5661 29.1145 21.5249 29.0527C21.4837 28.9909 21.4618 28.9183 21.4619 28.844V22.25Z" fill="#0B003A"/>
</svg>
