<svg width="194" height="81" viewBox="0 0 194 81" fill="none" xmlns="http://www.w3.org/2000/svg">
<path fill-rule="evenodd" clip-rule="evenodd" d="M193.475 41.6823C193.475 27.8959 186.815 17.0176 174.085 17.0176C161.301 17.0176 153.566 27.8959 153.566 41.5746C153.566 57.7844 162.698 65.9701 175.804 65.9701C182.196 65.9701 187.03 64.5161 190.682 62.4697V51.699C187.03 53.53 182.84 54.6609 177.522 54.6609C172.312 54.6609 167.693 52.8299 167.102 46.4753H193.368C193.368 45.7752 193.475 42.9748 193.475 41.6823ZM166.941 36.5663C166.941 30.4809 170.647 27.9498 174.031 27.9498C177.308 27.9498 180.799 30.4809 180.799 36.5663H166.941Z" fill="#90A0B7"/>
<path fill-rule="evenodd" clip-rule="evenodd" d="M132.836 17.0176C127.572 17.0176 124.188 19.4948 122.308 21.2181L121.61 17.8792H109.793V80.672L123.221 77.8178L123.275 62.5774C125.209 63.9775 128.055 65.9701 132.782 65.9701C142.397 65.9701 151.152 58.2153 151.152 41.1438C151.098 25.5264 142.236 17.0176 132.836 17.0176ZM129.613 54.1224C126.444 54.1224 124.564 52.9915 123.275 51.5913L123.221 31.6118C124.618 30.05 126.551 28.973 129.613 28.973C134.501 28.973 137.885 34.466 137.885 41.5208C137.885 48.7371 134.555 54.1224 129.613 54.1224Z" fill="#90A0B7"/>
<path fill-rule="evenodd" clip-rule="evenodd" d="M91.3125 13.8403L104.794 10.9322V0L91.3125 2.85422V13.8403Z" fill="#90A0B7"/>
<path d="M104.794 17.9331H91.3125V65.0546H104.794V17.9331Z" fill="#90A0B7"/>
<path fill-rule="evenodd" clip-rule="evenodd" d="M76.8638 21.9183L76.0044 17.9331H64.4023V65.0546H77.8306V33.1197C80.9997 28.973 86.371 29.727 88.0361 30.3194V17.9331C86.3173 17.2869 80.0329 16.1021 76.8638 21.9183Z" fill="#90A0B7"/>
<path fill-rule="evenodd" clip-rule="evenodd" d="M50.0074 6.24707L36.9014 9.04744L36.8477 52.1838C36.8477 60.1541 42.8098 66.0241 50.7594 66.0241C55.1638 66.0241 58.3866 65.2163 60.1592 64.2469V53.3147C58.4403 54.0148 49.9537 56.4921 49.9537 48.5218V29.4039H60.1592V17.9332H49.9537L50.0074 6.24707Z" fill="#90A0B7"/>
<path fill-rule="evenodd" clip-rule="evenodd" d="M13.6988 31.6118C13.6988 29.5115 15.4176 28.7037 18.2644 28.7037C22.3466 28.7037 27.5031 29.9423 31.5853 32.1503V19.4948C27.1271 17.7177 22.7226 17.0176 18.2644 17.0176C7.36065 17.0176 0.109375 22.726 0.109375 32.258C0.109375 47.1215 20.5204 44.752 20.5204 51.1605C20.5204 53.6377 18.3718 54.4455 15.3639 54.4455C10.9057 54.4455 5.21212 52.6145 0.700219 50.1373V62.9543C5.69554 65.1085 10.7446 66.024 15.3639 66.024C26.5362 66.024 34.2172 60.4771 34.2172 50.8374C34.1635 34.7891 13.6988 37.6433 13.6988 31.6118Z" fill="#90A0B7"/>
</svg>
