<svg width="40" height="40" viewBox="0 0 40 40" fill="none" xmlns="http://www.w3.org/2000/svg">
<path d="M18.7489 17.5019C18.8957 17.0845 19.1855 16.7325 19.567 16.5083C19.9485 16.2841 20.397 16.2022 20.8331 16.277C21.2692 16.3518 21.6647 16.5785 21.9497 16.917C22.2346 17.2555 22.3906 17.6839 22.3899 18.1264C22.3899 19.3755 20.5163 20 20.5163 20M20.5405 22.5H20.5488M20.4155 26.6667C24.3276 26.6667 27.4989 23.4953 27.4989 19.5833C27.4989 15.6713 24.3276 12.5 20.4155 12.5C16.5035 12.5 13.3322 15.6713 13.3322 19.5833C13.3322 20.375 13.4621 21.1363 13.7017 21.8472C13.7918 22.1147 13.8369 22.2484 13.8451 22.3512C13.8531 22.4527 13.847 22.5238 13.8219 22.6225C13.7965 22.7223 13.7404 22.8262 13.6281 23.034L12.2651 25.557C12.0706 25.9168 11.9734 26.0968 11.9952 26.2356C12.0141 26.3566 12.0853 26.4631 12.1899 26.5269C12.3099 26.6001 12.5133 26.579 12.9202 26.537L17.1877 26.0958C17.3169 26.0825 17.3815 26.0758 17.4404 26.0781C17.4984 26.0803 17.5392 26.0857 17.5957 26.0987C17.6532 26.112 17.7254 26.1398 17.8698 26.1954C18.6599 26.4998 19.5182 26.6667 20.4155 26.6667Z" stroke="#FCFCFD" stroke-width="1.66667" stroke-linecap="round" stroke-linejoin="round"/>
</svg>
