<svg width="22" height="21" viewBox="0 0 22 21" fill="none" xmlns="http://www.w3.org/2000/svg">
<path d="M0.8208 4.68541C1.16057 4.68541 1.43603 4.40995 1.43603 4.07018V1.23047H4.27574C4.61552 1.23047 4.89098 0.955006 4.89098 0.615233C4.89098 0.27546 4.61552 0 4.27574 0H0.8208C0.481027 0 0.205566 0.27546 0.205566 0.615233V4.07018C0.205566 4.40999 0.481027 4.68541 0.8208 4.68541Z" fill="#0B003A"/>
<path d="M20.5917 0H17.1367C16.7969 0 16.5215 0.27546 16.5215 0.615233C16.5215 0.955006 16.7969 1.23047 17.1367 1.23047H19.9764V4.07018C19.9764 4.40995 20.2519 4.68541 20.5917 4.68541C20.9314 4.68541 21.2069 4.40995 21.2069 4.07018V0.615233C21.2069 0.27546 20.9314 0 20.5917 0Z" fill="#0B003A"/>
<path d="M20.5917 16.3145C20.2519 16.3145 19.9764 16.5899 19.9764 16.9297V19.7694H17.1367C16.7969 19.7694 16.5215 20.0449 16.5215 20.3847C16.5215 20.7244 16.7969 20.9999 17.1367 20.9999H20.5917C20.9314 20.9999 21.2069 20.7244 21.2069 20.3847V16.9297C21.2069 16.5899 20.9314 16.3145 20.5917 16.3145Z" fill="#0B003A"/>
<path d="M4.27574 19.7694H1.43603V16.9297C1.43603 16.5899 1.16057 16.3145 0.8208 16.3145C0.481027 16.3145 0.205566 16.5899 0.205566 16.9297V20.3847C0.205566 20.7244 0.481027 20.9999 0.8208 20.9999H4.27574C4.61552 20.9999 4.89098 20.7244 4.89098 20.3847C4.89098 20.0449 4.61556 19.7694 4.27574 19.7694Z" fill="#0B003A"/>
<path d="M17.4198 7.85023V3.96483C17.4198 3.77206 17.2636 3.61579 17.0704 3.61579H10.7072H4.34408C4.1509 3.61579 3.99463 3.77206 3.99463 3.96483V7.85023C3.99463 8.04342 4.1509 8.19969 4.34408 8.19969H6.19963C6.3924 8.19969 6.54867 8.04342 6.54867 7.85023V6.51928C6.54867 6.3261 6.70535 6.16983 6.89812 6.16983H9.08056C9.27374 6.16983 9.43001 6.3261 9.43001 6.51928V16.1227C9.43001 16.3158 9.27374 16.4721 9.08056 16.4721H8.12613C7.93294 16.4721 7.77667 16.6284 7.77667 16.8216V18.6771C7.77667 18.8699 7.93294 19.0262 8.12613 19.0262H10.7072H13.2883C13.4815 19.0262 13.6378 18.8699 13.6378 18.6771V16.8216C13.6378 16.6284 13.4815 16.4721 13.2883 16.4721H12.3339C12.1407 16.4721 11.9845 16.3158 11.9845 16.1227V6.51928C11.9845 6.3261 12.1407 6.16983 12.3339 6.16983H14.5163C14.7091 6.16983 14.8658 6.3261 14.8658 6.51928V7.85023C14.8658 8.04342 15.0221 8.19969 15.2148 8.19969H17.0704C17.2636 8.19969 17.4198 8.04342 17.4198 7.85023Z" fill="#0B003A"/>
</svg>
