<svg width="141" height="140" viewBox="0 0 141 140" fill="none" xmlns="http://www.w3.org/2000/svg">
<path d="M72.6883 24.0625V14.9188C75.2258 14.0219 77.0633 11.6156 77.0633 8.75C77.0633 5.14062 74.1102 2.1875 70.5008 2.1875C66.8914 2.1875 63.9383 5.14062 63.9383 8.75C63.9383 11.5938 65.7758 14 68.3133 14.9188V24.0625H72.6883ZM70.5008 6.5625C71.7039 6.5625 72.6883 7.54688 72.6883 8.75C72.6883 9.95312 71.7039 10.9375 70.5008 10.9375C69.2977 10.9375 68.3133 9.95312 68.3133 8.75C68.3133 7.54688 69.2977 6.5625 70.5008 6.5625ZM62.757 56.875H58.382C57.3977 56.875 56.5227 57.5531 56.2602 58.5156L49.7852 83.125H54.3133L56.6102 74.375H64.5289L66.8258 83.125H71.3539L64.8789 58.5156C64.6164 57.5531 63.7633 56.875 62.757 56.875ZM57.7695 70L60.0664 61.25H61.0727L63.3695 70H57.7695ZM75.882 61.25H81.3508V78.75H75.882V83.125H91.1945V78.75H85.7258V61.25H91.1945V56.875H75.882V61.25ZM131.751 63.4375C128.907 63.4375 126.501 65.275 125.582 67.8125H116.438V72.1875H125.582C126.479 74.725 128.885 76.5625 131.751 76.5625C135.36 76.5625 138.313 73.6094 138.313 70C138.313 66.3906 135.36 63.4375 131.751 63.4375ZM131.751 72.1875C130.548 72.1875 129.563 71.2031 129.563 70C129.563 68.7969 130.548 67.8125 131.751 67.8125C132.954 67.8125 133.938 68.7969 133.938 70C133.938 71.2031 132.954 72.1875 131.751 72.1875Z" fill="#8449EB"/>
<path d="M98.2156 39.0242C89.2906 31.0398 77.7625 27.3648 65.7531 28.6992C46.1969 30.8648 30.775 46.7023 29.0906 66.3242C27.5156 84.6992 38.1906 101.849 55.1875 108.587V122.477C55.1875 130.921 62.0563 137.79 70.5 137.79C78.9437 137.79 85.8125 130.921 85.8125 122.477V108.587C101.584 102.33 112.062 87.018 112.062 69.9774C112.062 58.1648 107.009 46.8773 98.2156 39.0023V39.0242ZM70.5 133.437C66.0156 133.437 62.1875 130.724 60.4813 126.874H80.4969C78.8125 130.724 74.9625 133.437 70.4781 133.437H70.5ZM81.4375 122.499H59.5625V115.937H81.4375V122.499ZM82.9031 105.021C82.0281 105.327 81.4375 106.159 81.4375 107.077V111.562H59.5625V107.077C59.5625 106.159 58.9719 105.327 58.0969 105.021C42.1281 99.3774 32 83.6055 33.4438 66.6961C34.9531 49.1305 48.7344 34.9773 66.2344 33.0305C67.6781 32.8773 69.1219 32.7898 70.5438 32.7898C79.7094 32.7898 88.3719 36.0711 95.2844 42.2617C103.159 49.3055 107.688 59.4117 107.688 69.9774C107.688 85.6836 97.7344 99.7492 82.9031 104.999V105.021ZM24.5625 67.8117H15.4188C14.9702 66.5334 14.1358 65.426 13.0308 64.6423C11.9258 63.8586 10.6047 63.4373 9.25 63.4367C5.64062 63.4367 2.6875 66.3898 2.6875 69.9992C2.6875 73.6086 5.64062 76.5617 9.25 76.5617C12.0938 76.5617 14.5 74.7242 15.4188 72.1867H24.5625V67.8117ZM9.25 72.1867C8.04688 72.1867 7.0625 71.2024 7.0625 69.9992C7.0625 68.7961 8.04688 67.8117 9.25 67.8117C10.4531 67.8117 11.4375 68.7961 11.4375 69.9992C11.4375 71.2024 10.4531 72.1867 9.25 72.1867ZM111.013 107.427L104.516 100.93L101.431 104.015L107.906 110.49C107.313 111.71 107.117 113.085 107.344 114.423C107.572 115.761 108.212 116.994 109.175 117.949C110.422 119.196 112.062 119.874 113.812 119.874C115.562 119.874 117.225 119.196 118.45 117.949C119.675 116.702 120.375 115.062 120.375 113.312C120.375 111.562 119.697 109.921 118.45 108.674C116.503 106.727 113.441 106.334 111.013 107.427ZM115.344 114.865C114.512 115.696 113.091 115.696 112.259 114.865C111.844 114.449 111.625 113.902 111.625 113.312C111.622 113.024 111.677 112.738 111.786 112.471C111.894 112.204 112.055 111.962 112.259 111.758C112.463 111.555 112.705 111.394 112.972 111.285C113.239 111.176 113.524 111.121 113.812 111.124C114.101 111.121 114.386 111.176 114.653 111.285C114.92 111.394 115.162 111.555 115.366 111.758C115.57 111.962 115.731 112.204 115.839 112.471C115.948 112.738 116.003 113.024 116 113.312C116 113.902 115.781 114.449 115.366 114.865H115.344ZM22.55 22.0492C21.3031 23.2961 20.625 24.9367 20.625 26.6867C20.625 28.4367 21.3031 30.0773 22.55 31.3242C23.7969 32.5711 25.4375 33.2492 27.1875 33.2492C28.1719 33.2492 29.1344 33.0086 30.0094 32.593L36.4844 39.068L39.5688 35.9836L33.0938 29.5086C33.6868 28.2883 33.8834 26.913 33.6559 25.5754C33.4283 24.2378 32.7882 23.0048 31.825 22.0492C29.3312 19.5773 25.0219 19.5773 22.55 22.0492ZM28.7406 28.2398C27.9094 29.0711 26.4656 29.0711 25.6562 28.2398C25.2406 27.8242 25.0219 27.2773 25.0219 26.6867C25.019 26.3986 25.0735 26.1129 25.1824 25.8462C25.2913 25.5794 25.4523 25.3371 25.6561 25.1334C25.8598 24.9297 26.1021 24.7687 26.3688 24.6598C26.6355 24.5509 26.9213 24.4963 27.2094 24.4992C27.4975 24.4963 27.7832 24.5509 28.0499 24.6598C28.3167 24.7687 28.559 24.9297 28.7627 25.1334C28.9664 25.3371 29.1274 25.5794 29.2363 25.8462C29.3452 26.1129 29.3998 26.3986 29.3969 26.6867C29.3969 27.2773 29.1781 27.8242 28.7625 28.2398H28.7406ZM104.538 39.068L111.013 32.593C112.233 33.186 113.608 33.3826 114.946 33.1551C116.283 32.9276 117.516 32.2874 118.472 31.3242C119.719 30.0773 120.397 28.4367 120.397 26.6867C120.397 24.9367 119.719 23.2742 118.472 22.0492C116 19.5773 111.669 19.5773 109.197 22.0492C107.95 23.2961 107.272 24.9367 107.272 26.6867C107.272 27.6711 107.512 28.6336 107.928 29.5086L101.453 35.9836L104.538 39.068ZM112.281 25.1555C112.697 24.7398 113.244 24.5211 113.834 24.5211C114.122 24.5182 114.408 24.5728 114.675 24.6817C114.942 24.7905 115.184 24.9516 115.388 25.1553C115.591 25.359 115.752 25.6013 115.861 25.868C115.97 26.1347 116.025 26.4205 116.022 26.7086C116.022 27.2992 115.803 27.8461 115.388 28.2617C114.556 29.093 113.134 29.093 112.303 28.2617C111.887 27.8461 111.669 27.2992 111.669 26.7086C111.669 26.118 111.887 25.5711 112.303 25.1555H112.281ZM36.4625 100.93L29.9656 107.427C27.5375 106.334 24.475 106.727 22.5281 108.674C21.2812 109.921 20.6031 111.562 20.6031 113.312C20.6031 115.062 21.2812 116.724 22.5281 117.949C23.775 119.174 25.4156 119.874 27.1656 119.874C28.9156 119.874 30.5562 119.196 31.8031 117.949C33.05 116.702 33.7281 115.062 33.7281 113.312C33.7281 112.327 33.4875 111.365 33.0719 110.49L39.5469 104.015L36.4625 100.93ZM28.7188 114.843C27.8875 115.674 26.4438 115.674 25.6344 114.843C25.2188 114.427 25 113.88 25 113.29C24.9971 113.002 25.0517 112.716 25.1606 112.449C25.2695 112.183 25.4305 111.94 25.6342 111.737C25.8379 111.533 26.0802 111.372 26.3469 111.263C26.6137 111.154 26.8994 111.099 27.1875 111.102C27.4756 111.099 27.7613 111.154 28.0281 111.263C28.2948 111.372 28.5371 111.533 28.7408 111.737C28.9445 111.94 29.1055 112.183 29.2144 112.449C29.3233 112.716 29.3779 113.002 29.375 113.29C29.375 113.88 29.1562 114.427 28.7406 114.843H28.7188Z" fill="#8449EB"/>
</svg>
