<svg width="20" height="20" viewBox="0 0 20 20" fill="none" xmlns="http://www.w3.org/2000/svg">
<g id="Iconly/Bold/Tick-Square">
<g id="Tick-Square">
<path id="Vector" d="M14.1924 0C17.5476 0 19.7942 2.35551 19.7942 5.85908V13.946C19.7942 17.4387 17.5476 19.7942 14.1924 19.7942H5.61165C2.25654 19.7942 0 17.4387 0 13.946V5.85908C0 2.35551 2.25654 0 5.61165 0H14.1924ZM14.0341 6.92797C13.6976 6.59147 13.1433 6.59147 12.8068 6.92797L8.71934 11.0155L6.98735 9.28347C6.65085 8.94697 6.09661 8.94697 5.76011 9.28347C5.42361 9.61998 5.42361 10.1643 5.76011 10.5107L8.11562 12.8563C8.28387 13.0246 8.50161 13.1038 8.71934 13.1038C8.94697 13.1038 9.16471 13.0246 9.33296 12.8563L14.0341 8.15521C14.3706 7.8187 14.3706 7.27436 14.0341 6.92797Z" fill="url(#paint0_linear_823_23818)"/>
</g>
</g>
<defs>
<linearGradient id="paint0_linear_823_23818" x1="9.89709" y1="0" x2="9.89709" y2="19.7942" gradientUnits="userSpaceOnUse">
<stop stop-color="#8449EB"/>
<stop offset="1" stop-color="#6A56F6"/>
</linearGradient>
</defs>
</svg>
