<svg width="21" height="20" viewBox="0 0 21 20" fill="none" xmlns="http://www.w3.org/2000/svg">
<path d="M15.0918 0.207031C18.447 0.207031 20.6936 2.56254 20.6936 6.06611V14.153C20.6936 17.6457 18.447 20.0012 15.0918 20.0012H6.51107C3.15595 20.0012 0.899414 17.6457 0.899414 14.153V6.06611C0.899414 2.56254 3.15595 0.207031 6.51107 0.207031H15.0918ZM14.9335 7.135C14.597 6.7985 14.0428 6.7985 13.7063 7.135L9.61876 11.2225L7.88676 9.49051C7.55026 9.15401 6.99602 9.15401 6.65952 9.49051C6.32302 9.82701 6.32302 10.3713 6.65952 10.7177L9.01503 13.0634C9.18328 13.2316 9.40102 13.3108 9.61876 13.3108C9.84639 13.3108 10.0641 13.2316 10.2324 13.0634L14.9335 8.36224C15.27 8.02574 15.27 7.4814 14.9335 7.135Z" fill="#007AB6"/>
</svg>
