<svg width="62" height="62" viewBox="0 0 62 62" fill="none" xmlns="http://www.w3.org/2000/svg">
<rect width="62" height="62" rx="8" fill="#FEECEE"/>
<path d="M41.1673 31.668V24.068C41.1673 21.8278 41.1673 20.7077 40.7313 19.852C40.3478 19.0994 39.7359 18.4874 38.9833 18.1039C38.1276 17.668 37.0075 17.668 34.7673 17.668H26.234C23.9938 17.668 22.8737 17.668 22.018 18.1039C21.2654 18.4874 20.6535 19.0994 20.27 19.852C19.834 20.7077 19.834 21.8278 19.834 24.068V37.9346C19.834 40.1748 19.834 41.295 20.27 42.1506C20.6535 42.9032 21.2654 43.5152 22.018 43.8987C22.8737 44.3346 23.9938 44.3346 26.234 44.3346H30.5007M33.1673 29.668H25.1673M27.834 35.0013H25.1673M35.834 24.3346H25.1673M33.834 40.3346L36.5007 43.0013L42.5006 37.0013" stroke="#EA5440" stroke-width="2" stroke-linecap="round" stroke-linejoin="round"/>
</svg>
