<svg width="24" height="24" viewBox="0 0 24 24" fill="none" xmlns="http://www.w3.org/2000/svg">
<path d="M16.741 6.81406C17.7209 6.81406 18.5152 6.01972 18.5152 5.03984C18.5152 4.05997 17.7209 3.26562 16.741 3.26562C15.7611 3.26562 14.9668 4.05997 14.9668 5.03984C14.9668 6.01972 15.7611 6.81406 16.741 6.81406Z" fill="#007AB6"/>
<path d="M18.3844 6.97656C17.9262 7.36694 17.3439 7.58134 16.7419 7.58134C16.1399 7.58134 15.5576 7.36694 15.0993 6.97656C14.4001 7.2621 13.8028 7.75106 13.3848 8.38007C13.9067 8.59951 14.3734 8.93207 14.7513 9.35374C15.1291 9.77541 15.4086 10.2757 15.5697 10.8185C16.0728 10.8588 16.5124 10.8684 16.7428 10.8684C17.5032 10.8684 20.5444 10.757 20.5444 9.81238C20.5444 8.64311 19.6651 7.51607 18.3844 6.97656Z" fill="#007AB6"/>
<path d="M7.06523 16.4898C8.04511 16.4898 8.83945 15.6955 8.83945 14.7156C8.83945 13.7358 8.04511 12.9414 7.06523 12.9414C6.08536 12.9414 5.29102 13.7358 5.29102 14.7156C5.29102 15.6955 6.08536 16.4898 7.06523 16.4898Z" fill="#007AB6"/>
<path d="M7.06556 20.5451C7.82593 20.5451 10.8675 20.4334 10.8675 19.4892C10.8675 18.3183 9.98879 17.1916 8.70819 16.6523C8.25007 17.0431 7.66766 17.2577 7.06554 17.2577C6.46341 17.2577 5.881 17.0431 5.42286 16.6524C4.14229 17.1916 3.26367 18.3183 3.26367 19.4892C3.26367 20.4334 6.30517 20.5451 7.06556 20.5451Z" fill="#007AB6"/>
<path d="M20.4474 14.9412C20.4664 14.9412 20.4851 14.9356 20.5009 14.925C20.5168 14.9144 20.5292 14.8993 20.5365 14.8817C20.5438 14.8641 20.5457 14.8447 20.542 14.826C20.5382 14.8073 20.5291 14.7901 20.5156 14.7766L18.6155 12.8765C18.5795 12.8405 18.5307 12.8203 18.4798 12.8203C18.4289 12.8203 18.3801 12.8405 18.3441 12.8765L16.444 14.7766C16.4305 14.7901 16.4213 14.8073 16.4176 14.826C16.4139 14.8447 16.4158 14.8641 16.4231 14.8817C16.4304 14.8993 16.4428 14.9144 16.4586 14.925C16.4745 14.9356 16.4931 14.9412 16.5122 14.9412H17.6825C17.6747 15.8712 17.3844 16.7768 16.8503 17.5381C16.3161 18.2994 15.5632 18.8805 14.6914 19.2043C15.8337 19.1448 16.9185 18.6849 17.7556 17.9054C18.5927 17.1258 19.1285 16.0764 19.269 14.9412H20.4474Z" fill="#007AB6"/>
<path d="M9.11607 4.60938C7.97378 4.66887 6.88892 5.12873 6.05186 5.90828C5.2148 6.68782 4.67899 7.73725 4.53846 8.87242H3.3601C3.34103 8.87242 3.32238 8.87808 3.30652 8.88867C3.29067 8.89927 3.27831 8.91433 3.27101 8.93195C3.26371 8.94957 3.2618 8.96896 3.26553 8.98766C3.26925 9.00637 3.27843 9.02355 3.29192 9.03704L5.19196 10.9371C5.22796 10.9731 5.27678 10.9933 5.32769 10.9933C5.37859 10.9933 5.42742 10.9731 5.46341 10.9371L7.36348 9.03704C7.37697 9.02356 7.38615 9.00638 7.38987 8.98767C7.39359 8.96897 7.39169 8.94958 7.38439 8.93196C7.37709 8.91434 7.36473 8.89928 7.34887 8.88868C7.33302 8.87808 7.31437 8.87243 7.2953 8.87243H6.12494C6.13281 7.94245 6.42305 7.03682 6.95721 6.27551C7.49138 5.51421 8.24424 4.93317 9.11607 4.60938Z" fill="#007AB6"/>
<path d="M11.9028 13.1068C11.5783 13.1068 11.3143 12.902 11.3143 12.6504H10.7383C10.7495 12.8916 10.8423 13.1219 11.0016 13.3035C11.1609 13.485 11.3771 13.607 11.6148 13.6495V14.0347H12.1908V13.6561C12.7122 13.5599 13.0674 13.2038 13.0674 12.738C13.0674 12.1916 12.5198 11.9044 12.0366 11.6509C11.698 11.4734 11.3143 11.2721 11.3143 11.0741C11.3143 10.8207 11.6193 10.7053 11.9028 10.7053C12.2274 10.7053 12.4914 10.91 12.4914 11.1617H13.0674C13.0562 10.9204 12.9634 10.6901 12.8041 10.5086C12.6448 10.3271 12.4286 10.205 12.1908 10.1625V9.77734H11.6148V10.156C11.0934 10.2522 10.7383 10.6083 10.7383 11.0741C10.7383 11.6205 11.2859 11.9076 11.7691 12.1611C12.1077 12.3387 12.4914 12.54 12.4914 12.738C12.4914 12.9914 12.1863 13.1068 11.9028 13.1068Z" fill="#007AB6"/>
<path d="M11.9043 15.0743C12.5309 15.0743 13.1434 14.8885 13.6644 14.5404C14.1853 14.1923 14.5914 13.6975 14.8312 13.1186C15.071 12.5397 15.1337 11.9028 15.0115 11.2882C14.8892 10.6737 14.5875 10.1092 14.1444 9.66617C13.7014 9.22312 13.1369 8.92139 12.5224 8.79915C11.9078 8.67692 11.2709 8.73965 10.692 8.97943C10.1131 9.21921 9.61834 9.62526 9.27023 10.1462C8.92213 10.6672 8.73633 11.2797 8.73633 11.9063C8.73728 12.7462 9.07135 13.5514 9.66526 14.1453C10.2592 14.7393 11.0644 15.0733 11.9043 15.0743ZM11.9043 9.31428C12.417 9.31428 12.9181 9.4663 13.3444 9.75111C13.7706 10.0359 14.1028 10.4407 14.299 10.9144C14.4952 11.388 14.5465 11.9092 14.4465 12.412C14.3465 12.9148 14.0996 13.3766 13.7371 13.7391C13.3747 14.1016 12.9128 14.3485 12.41 14.4485C11.9072 14.5485 11.386 14.4972 10.9124 14.301C10.4388 14.1048 10.034 13.7726 9.74916 13.3463C9.46435 12.9201 9.31233 12.4189 9.31233 11.9063C9.31311 11.2191 9.58645 10.5603 10.0724 10.0743C10.5583 9.5884 11.2171 9.31506 11.9043 9.31428Z" fill="#007AB6"/>
</svg>
