<svg width="25" height="25" viewBox="0 0 25 25" fill="none" xmlns="http://www.w3.org/2000/svg">
<path d="M17.241 7.51328C18.2209 7.51328 19.0152 6.71894 19.0152 5.73906C19.0152 4.75919 18.2209 3.96484 17.241 3.96484C16.2611 3.96484 15.4668 4.75919 15.4668 5.73906C15.4668 6.71894 16.2611 7.51328 17.241 7.51328Z" fill="url(#paint0_linear_63_2655)"/>
<path d="M18.8844 7.67578C18.4262 8.06616 17.8439 8.28056 17.2419 8.28056C16.6399 8.28056 16.0576 8.06616 15.5993 7.67578C14.9001 7.96132 14.3028 8.45028 13.8848 9.07929C14.4067 9.29873 14.8734 9.63129 15.2513 10.053C15.6291 10.4746 15.9086 10.9749 16.0697 11.5177C16.5728 11.558 17.0124 11.5676 17.2428 11.5676C18.0032 11.5676 21.0444 11.4562 21.0444 10.5116C21.0444 9.34233 20.1651 8.21529 18.8844 7.67578Z" fill="url(#paint1_linear_63_2655)"/>
<path d="M7.56523 17.1891C8.54511 17.1891 9.33945 16.3947 9.33945 15.4148C9.33945 14.435 8.54511 13.6406 7.56523 13.6406C6.58536 13.6406 5.79102 14.435 5.79102 15.4148C5.79102 16.3947 6.58536 17.1891 7.56523 17.1891Z" fill="url(#paint2_linear_63_2655)"/>
<path d="M7.56556 21.2443C8.32593 21.2443 11.3675 21.1326 11.3675 20.1884C11.3675 19.0175 10.4888 17.8908 9.20819 17.3516C8.75007 17.7423 8.16766 17.9569 7.56554 17.957C6.96341 17.957 6.381 17.7423 5.92286 17.3516C4.64229 17.8909 3.76367 19.0175 3.76367 20.1884C3.76367 21.1326 6.80517 21.2443 7.56556 21.2443Z" fill="url(#paint3_linear_63_2655)"/>
<path d="M20.9474 15.6404C20.9664 15.6404 20.9851 15.6348 21.0009 15.6242C21.0168 15.6136 21.0292 15.5985 21.0365 15.5809C21.0438 15.5633 21.0457 15.5439 21.042 15.5252C21.0382 15.5065 21.0291 15.4893 21.0156 15.4758L19.1155 13.5757C19.0795 13.5398 19.0307 13.5195 18.9798 13.5195C18.9289 13.5195 18.8801 13.5398 18.8441 13.5757L16.944 15.4758C16.9305 15.4893 16.9213 15.5065 16.9176 15.5252C16.9139 15.5439 16.9158 15.5633 16.9231 15.5809C16.9304 15.5985 16.9428 15.6136 16.9586 15.6242C16.9745 15.6348 16.9931 15.6404 17.0122 15.6404H18.1825C18.1747 16.5704 17.8844 17.476 17.3503 18.2373C16.8161 18.9986 16.0632 19.5797 15.1914 19.9035C16.3337 19.844 17.4185 19.3841 18.2556 18.6046C19.0927 17.825 19.6285 16.7756 19.769 15.6404H20.9474Z" fill="url(#paint4_linear_63_2655)"/>
<path d="M9.61607 5.30859C8.47378 5.36809 7.38892 5.82795 6.55186 6.6075C5.7148 7.38704 5.17899 8.43647 5.03846 9.57164H3.8601C3.84103 9.57164 3.82238 9.5773 3.80652 9.58789C3.79067 9.59849 3.77831 9.61355 3.77101 9.63117C3.76371 9.64879 3.7618 9.66818 3.76553 9.68688C3.76925 9.70559 3.77843 9.72277 3.79192 9.73625L5.69196 11.6363C5.72796 11.6723 5.77678 11.6925 5.82769 11.6925C5.87859 11.6925 5.92742 11.6723 5.96341 11.6363L7.86348 9.73626C7.87697 9.72278 7.88615 9.7056 7.88987 9.68689C7.89359 9.66818 7.89169 9.6488 7.88439 9.63118C7.87709 9.61356 7.86473 9.5985 7.84887 9.5879C7.83302 9.5773 7.81437 9.57165 7.7953 9.57165H6.62494C6.63281 8.64167 6.92305 7.73604 7.45721 6.97473C7.99138 6.21342 8.74424 5.63238 9.61607 5.30859Z" fill="url(#paint5_linear_63_2655)"/>
<path d="M12.4028 13.806C12.0783 13.806 11.8143 13.6012 11.8143 13.3496H11.2383C11.2495 13.5909 11.3423 13.8211 11.5016 14.0027C11.6609 14.1842 11.8771 14.3062 12.1148 14.3487V14.7339H12.6908V14.3553C13.2122 14.2591 13.5674 13.903 13.5674 13.4372C13.5674 12.8908 13.0198 12.6037 12.5366 12.3502C12.198 12.1726 11.8143 11.9713 11.8143 11.7733C11.8143 11.5199 12.1193 11.4045 12.4028 11.4045C12.7274 11.4045 12.9914 11.6092 12.9914 11.8609H13.5674C13.5562 11.6196 13.4634 11.3894 13.3041 11.2078C13.1448 11.0263 12.9286 10.9042 12.6908 10.8618V10.4766H12.1148V10.8552C11.5934 10.9514 11.2383 11.3075 11.2383 11.7733C11.2383 12.3197 11.7859 12.6068 12.2691 12.8603C12.6077 13.0379 12.9914 13.2392 12.9914 13.4372C12.9914 13.6906 12.6863 13.806 12.4028 13.806Z" fill="url(#paint6_linear_63_2655)"/>
<path d="M12.4043 15.7735C13.0309 15.7735 13.6434 15.5877 14.1644 15.2396C14.6853 14.8915 15.0914 14.3967 15.3312 13.8178C15.571 13.239 15.6337 12.602 15.5115 11.9875C15.3892 11.3729 15.0875 10.8084 14.6444 10.3654C14.2014 9.92233 13.6369 9.62061 13.0224 9.49837C12.4078 9.37614 11.7709 9.43887 11.192 9.67865C10.6131 9.91843 10.1183 10.3245 9.77023 10.8455C9.42213 11.3664 9.23633 11.9789 9.23633 12.6055C9.23728 13.4454 9.57135 14.2507 10.1653 14.8446C10.7592 15.4385 11.5644 15.7726 12.4043 15.7735ZM12.4043 10.0135C12.917 10.0135 13.4181 10.1655 13.8444 10.4503C14.2706 10.7351 14.6028 11.14 14.799 11.6136C14.9952 12.0872 15.0465 12.6084 14.9465 13.1112C14.8465 13.614 14.5996 14.0758 14.2371 14.4383C13.8747 14.8008 13.4128 15.0477 12.91 15.1477C12.4072 15.2477 11.886 15.1964 11.4124 15.0002C10.9388 14.804 10.534 14.4718 10.2492 14.0455C9.96435 13.6193 9.81233 13.1182 9.81233 12.6055C9.81311 11.9183 10.0864 11.2595 10.5724 10.7735C11.0583 10.2876 11.7171 10.0143 12.4043 10.0135Z" fill="url(#paint7_linear_63_2655)"/>
<defs>
<linearGradient id="paint0_linear_63_2655" x1="17.241" y1="3.96484" x2="17.241" y2="7.51328" gradientUnits="userSpaceOnUse">
<stop stop-color="#8449EB"/>
<stop offset="1" stop-color="#6A56F6"/>
</linearGradient>
<linearGradient id="paint1_linear_63_2655" x1="17.4646" y1="7.67578" x2="17.4646" y2="11.5676" gradientUnits="userSpaceOnUse">
<stop stop-color="#8449EB"/>
<stop offset="1" stop-color="#6A56F6"/>
</linearGradient>
<linearGradient id="paint2_linear_63_2655" x1="7.56523" y1="13.6406" x2="7.56523" y2="17.1891" gradientUnits="userSpaceOnUse">
<stop stop-color="#8449EB"/>
<stop offset="1" stop-color="#6A56F6"/>
</linearGradient>
<linearGradient id="paint3_linear_63_2655" x1="7.56556" y1="17.3516" x2="7.56556" y2="21.2443" gradientUnits="userSpaceOnUse">
<stop stop-color="#8449EB"/>
<stop offset="1" stop-color="#6A56F6"/>
</linearGradient>
<linearGradient id="paint4_linear_63_2655" x1="18.1176" y1="13.5195" x2="18.1176" y2="19.9035" gradientUnits="userSpaceOnUse">
<stop stop-color="#8449EB"/>
<stop offset="1" stop-color="#6A56F6"/>
</linearGradient>
<linearGradient id="paint5_linear_63_2655" x1="6.68987" y1="5.30859" x2="6.68987" y2="11.6925" gradientUnits="userSpaceOnUse">
<stop stop-color="#8449EB"/>
<stop offset="1" stop-color="#6A56F6"/>
</linearGradient>
<linearGradient id="paint6_linear_63_2655" x1="12.4028" y1="10.4766" x2="12.4028" y2="14.7339" gradientUnits="userSpaceOnUse">
<stop stop-color="#8449EB"/>
<stop offset="1" stop-color="#6A56F6"/>
</linearGradient>
<linearGradient id="paint7_linear_63_2655" x1="12.4043" y1="9.4375" x2="12.4043" y2="15.7735" gradientUnits="userSpaceOnUse">
<stop stop-color="#8449EB"/>
<stop offset="1" stop-color="#6A56F6"/>
</linearGradient>
</defs>
</svg>
