<svg width="18" height="18" viewBox="0 0 18 18" fill="none" xmlns="http://www.w3.org/2000/svg">
<g clip-path="url(#clip0_182_13119)">
<path d="M5.736 16.1501C12.3759 16.1501 16.0086 10.6477 16.0086 5.87751C16.0086 5.72282 16.0052 5.5647 15.9983 5.41001C16.705 4.89895 17.3148 4.26593 17.7992 3.5407C17.1411 3.83352 16.4423 4.02476 15.7268 4.10789C16.4802 3.65628 17.0443 2.94683 17.3145 2.11104C16.6058 2.53109 15.8306 2.8274 15.0224 2.98726C14.4778 2.40862 13.7578 2.0255 12.9737 1.89712C12.1895 1.76874 11.3849 1.90225 10.6842 2.27702C9.98357 2.65178 9.42587 3.24693 9.09737 3.97044C8.76888 4.69395 8.68787 5.50553 8.86687 6.2797C7.43171 6.20768 6.02771 5.83486 4.74587 5.18542C3.46404 4.53597 2.33299 3.6244 1.42606 2.50979C0.965112 3.30453 0.82406 4.24495 1.03157 5.13995C1.23909 6.03494 1.7796 6.81734 2.54325 7.32814C1.96995 7.30993 1.4092 7.15558 0.907344 6.87782V6.92251C0.90683 7.75652 1.19516 8.56498 1.72331 9.21044C2.25147 9.85591 2.98686 10.2986 3.80447 10.4631C3.27339 10.6084 2.71601 10.6296 2.17544 10.525C2.40615 11.2423 2.85504 11.8696 3.45945 12.3195C4.06386 12.7693 4.79364 13.0193 5.54694 13.0344C4.26806 14.039 2.68828 14.5838 1.06203 14.5813C0.773629 14.5808 0.485511 14.5631 0.199219 14.5283C1.85131 15.5882 3.77314 16.1512 5.736 16.1501Z" fill="white"/>
</g>
<defs>
<clipPath id="clip0_182_13119">
<rect width="17.6" height="17.6" fill="white" transform="translate(0.199219 0.200195)"/>
</clipPath>
</defs>
</svg>
