<svg width="24" height="25" viewBox="0 0 24 25" fill="none" xmlns="http://www.w3.org/2000/svg">
<path d="M17.6569 6.26105C14.5329 3.18805 9.4679 3.18805 6.3439 6.26105C5.60218 6.98568 5.0128 7.85128 4.61041 8.80696C4.20802 9.76264 4.00073 10.7891 4.00073 11.826C4.00073 12.863 4.20802 13.8895 4.61041 14.8451C5.0128 15.8008 5.60218 16.6664 6.3439 17.391L11.9999 22.956L17.6569 17.391C18.3986 16.6664 18.988 15.8008 19.3904 14.8451C19.7928 13.8895 20.0001 12.863 20.0001 11.826C20.0001 10.7891 19.7928 9.76264 19.3904 8.80696C18.988 7.85128 18.3986 6.98568 17.6569 6.26105ZM11.9999 14.456C11.3319 14.456 10.7049 14.196 10.2319 13.724C9.76365 13.2548 9.50067 12.619 9.50067 11.956C9.50067 11.2931 9.76365 10.6573 10.2319 10.188C10.7039 9.71605 11.3319 9.45605 11.9999 9.45605C12.6679 9.45605 13.2959 9.71605 13.7679 10.188C14.2361 10.6573 14.4991 11.2931 14.4991 11.956C14.4991 12.619 14.2361 13.2548 13.7679 13.724C13.2959 14.196 12.6679 14.456 11.9999 14.456Z" fill="#FFC107"/>
</svg>
