<svg width="41" height="40" viewBox="0 0 41 40" fill="none" xmlns="http://www.w3.org/2000/svg">
<rect width="40" height="40" transform="translate(0.711914)" fill="white"/>
<path d="M28.7877 12.5013L25.8462 9.78202C25.3131 9.27548 24.611 9 23.8734 9H15.6178C14.0182 9 12.7119 10.3063 12.7119 11.9059V27.4218C12.7119 29.0214 14.0182 30.3278 15.6178 30.3278H26.806C28.4056 30.3278 29.7119 29.0214 29.7119 27.4218V14.6341C29.7119 13.8254 29.3742 13.0523 28.7877 12.5013ZM18.3104 16.3047C20.7129 13.9023 20.6295 13.9738 20.7187 13.9142C20.8609 13.8165 21.0386 13.7632 21.2075 13.7632H21.2164C21.4474 13.7632 21.6696 13.8609 21.8384 14.0209C22.7646 14.9507 24.2065 16.3982 24.1134 16.3047C24.4599 16.6513 24.4599 17.2112 24.1134 17.5578C23.7668 17.9044 23.2069 17.9044 22.8604 17.5578L22.105 16.8024V19.9394C22.105 20.437 21.7051 20.828 21.2164 20.828C20.7187 20.828 20.3277 20.437 20.3277 19.9394V16.8024L19.5635 17.5667C19.2309 17.8992 18.6639 17.9201 18.3104 17.5667C17.9638 17.2201 17.9638 16.6513 18.3104 16.3047ZM24.6555 25.5646H17.7684C17.2796 25.5646 16.8797 25.1647 16.8797 24.6759C16.8797 24.1871 17.2796 23.7873 17.7684 23.7873H24.6555C25.1442 23.7873 25.5441 24.1871 25.5441 24.6759C25.5441 25.1647 25.1442 25.5646 24.6555 25.5646Z" fill="#0050C0"/>
</svg>
