<svg width="21" height="18" viewBox="0 0 21 18" fill="none" xmlns="http://www.w3.org/2000/svg">
<path d="M9.83398 11.4648C9.83398 11.8791 10.1698 12.2148 10.584 12.2148C10.9982 12.2148 11.334 11.8791 11.334 11.4648H9.83398ZM11.1143 0.242033C10.8214 -0.0508606 10.3465 -0.0508606 10.0537 0.242033L5.28068 5.015C4.98779 5.3079 4.98779 5.78277 5.28068 6.07566C5.57358 6.36856 6.04845 6.36856 6.34134 6.07566L10.584 1.83302L14.8266 6.07566C15.1195 6.36856 15.5944 6.36856 15.8873 6.07566C16.1802 5.78277 16.1802 5.3079 15.8873 5.015L11.1143 0.242033ZM11.334 11.4648V0.772363H9.83398V11.4648H11.334Z" fill="#52575C" fill-opacity="0.9"/>
<path d="M1.40039 6.11719V14.2209C1.40039 15.8778 2.74354 17.2209 4.40039 17.2209H16.3865C18.0434 17.2209 19.3865 15.8778 19.3865 14.2209V6.11719" stroke="#52575C" stroke-opacity="0.9" stroke-width="1.5" stroke-linecap="round"/>
</svg>
