<svg width="12" height="13" viewBox="0 0 12 13" fill="none" xmlns="http://www.w3.org/2000/svg">
<path d="M11 11.1445V10.1445C11 9.21261 10.3626 8.42956 9.5 8.20754M7.75 2.28991C8.48296 2.5866 9 3.30519 9 4.14453C9 4.98388 8.48296 5.70246 7.75 5.99915M8.5 11.1445C8.5 10.2126 8.5 9.74671 8.34776 9.37916C8.14477 8.88911 7.75542 8.49976 7.26537 8.29677C6.89782 8.14453 6.43188 8.14453 5.5 8.14453H4C3.06812 8.14453 2.60218 8.14453 2.23463 8.29677C1.74458 8.49976 1.35523 8.88911 1.15224 9.37916C1 9.74671 1 10.2126 1 11.1445M6.75 4.14453C6.75 5.2491 5.85457 6.14453 4.75 6.14453C3.64543 6.14453 2.75 5.2491 2.75 4.14453C2.75 3.03996 3.64543 2.14453 4.75 2.14453C5.85457 2.14453 6.75 3.03996 6.75 4.14453Z" stroke="#667085" stroke-linecap="round" stroke-linejoin="round"/>
</svg>
