<svg width="10" height="11" viewBox="0 0 10 11" fill="none" xmlns="http://www.w3.org/2000/svg">
<path d="M9 10.1445C9 9.44675 9 9.09786 8.91388 8.81396C8.71998 8.17476 8.21977 7.67455 7.58057 7.48065C7.29667 7.39453 6.94778 7.39453 6.25 7.39453H3.75C3.05222 7.39453 2.70333 7.39453 2.41943 7.48065C1.78023 7.67455 1.28002 8.17476 1.08612 8.81396C1 9.09786 1 9.44675 1 10.1445M7.25 3.39453C7.25 4.63717 6.24264 5.64453 5 5.64453C3.75736 5.64453 2.75 4.63717 2.75 3.39453C2.75 2.15189 3.75736 1.14453 5 1.14453C6.24264 1.14453 7.25 2.15189 7.25 3.39453Z" stroke="#667085" stroke-linecap="round" stroke-linejoin="round"/>
</svg>
