<svg width="12" height="13" viewBox="0 0 12 13" fill="none" xmlns="http://www.w3.org/2000/svg">
<circle cx="6" cy="6.44141" r="4" fill="white"/>
<mask id="path-2-outside-1_7533_13510" maskUnits="userSpaceOnUse" x="0" y="0.441406" width="12" height="12" fill="black">
<rect fill="white" y="0.441406" width="12" height="12"/>
<path fill-rule="evenodd" clip-rule="evenodd" d="M8.46063 1.86398C8.36133 1.70531 8.21504 1.58154 8.0421 1.50991C7.86917 1.43828 7.67821 1.42235 7.4958 1.46435L6.2012 1.76173C6.06853 1.79223 5.93066 1.79223 5.79799 1.76173L4.50339 1.46435C4.32098 1.42235 4.13002 1.43828 3.95709 1.50991C3.78415 1.58154 3.63786 1.70531 3.53855 1.86398L2.83293 2.99017C2.76093 3.10538 2.66373 3.20259 2.54852 3.27532L1.42241 3.98099C1.26401 4.08021 1.14044 4.22628 1.06883 4.39893C0.997218 4.57158 0.981129 4.76224 1.02279 4.94444L1.32016 6.24057C1.35055 6.37302 1.35055 6.51064 1.32016 6.64309L1.02279 7.93849C0.980967 8.12081 0.996975 8.31162 1.06859 8.48442C1.14021 8.65722 1.26388 8.8034 1.42241 8.90267L2.54852 9.60834C2.66373 9.68034 2.76093 9.77755 2.83365 9.89276L3.53928 11.019C3.74232 11.3437 4.12969 11.5043 4.50339 11.4186L5.79799 11.1212C5.93066 11.0907 6.06853 11.0907 6.2012 11.1212L7.49652 11.4186C7.67883 11.4604 7.86963 11.4444 8.04241 11.3728C8.2152 11.3012 8.36138 11.1775 8.46063 11.019L9.16626 9.89276C9.23826 9.77755 9.33546 9.68034 9.45067 9.60834L10.5775 8.90267C10.736 8.80326 10.8597 8.65691 10.9311 8.48397C11.0026 8.31104 11.0185 8.12012 10.9764 7.93777L10.6797 6.64309C10.6493 6.5104 10.6493 6.37253 10.6797 6.23985L10.9771 4.94444C11.019 4.7622 11.0031 4.57144 10.9316 4.39865C10.8601 4.22587 10.7366 4.07963 10.5782 3.98027L9.45139 3.2746C9.33634 3.20246 9.23911 3.10522 9.16698 2.99017L8.46063 1.86398ZM8.09846 4.83571C8.143 4.75382 8.15403 4.65784 8.12924 4.56797C8.10446 4.4781 8.04578 4.40136 7.96556 4.35387C7.88534 4.30639 7.78983 4.29188 7.69913 4.31339C7.60843 4.3349 7.5296 4.39075 7.47924 4.4692L5.59638 7.65623L4.45946 6.56748C4.42574 6.53285 4.38538 6.50536 4.3408 6.48666C4.29622 6.46796 4.24833 6.45844 4.19999 6.45865C4.15164 6.45886 4.10384 6.4688 4.05942 6.48789C4.01501 6.50698 3.97489 6.53481 3.94147 6.56974C3.90804 6.60467 3.88199 6.64597 3.86487 6.69118C3.84775 6.73639 3.83992 6.78459 3.84183 6.8329C3.84374 6.88121 3.85535 6.92864 3.87599 6.97236C3.89662 7.01608 3.92585 7.05519 3.96193 7.08737L5.42646 8.49079C5.46565 8.52827 5.51281 8.55641 5.56441 8.57311C5.61601 8.58981 5.67071 8.59464 5.72443 8.58723C5.77816 8.57982 5.82951 8.56037 5.87467 8.53033C5.91982 8.50029 5.9576 8.46043 5.98519 8.41374L8.09846 4.83571Z"/>
</mask>
<path fill-rule="evenodd" clip-rule="evenodd" d="M8.46063 1.86398C8.36133 1.70531 8.21504 1.58154 8.0421 1.50991C7.86917 1.43828 7.67821 1.42235 7.4958 1.46435L6.2012 1.76173C6.06853 1.79223 5.93066 1.79223 5.79799 1.76173L4.50339 1.46435C4.32098 1.42235 4.13002 1.43828 3.95709 1.50991C3.78415 1.58154 3.63786 1.70531 3.53855 1.86398L2.83293 2.99017C2.76093 3.10538 2.66373 3.20259 2.54852 3.27532L1.42241 3.98099C1.26401 4.08021 1.14044 4.22628 1.06883 4.39893C0.997218 4.57158 0.981129 4.76224 1.02279 4.94444L1.32016 6.24057C1.35055 6.37302 1.35055 6.51064 1.32016 6.64309L1.02279 7.93849C0.980967 8.12081 0.996975 8.31162 1.06859 8.48442C1.14021 8.65722 1.26388 8.8034 1.42241 8.90267L2.54852 9.60834C2.66373 9.68034 2.76093 9.77755 2.83365 9.89276L3.53928 11.019C3.74232 11.3437 4.12969 11.5043 4.50339 11.4186L5.79799 11.1212C5.93066 11.0907 6.06853 11.0907 6.2012 11.1212L7.49652 11.4186C7.67883 11.4604 7.86963 11.4444 8.04241 11.3728C8.2152 11.3012 8.36138 11.1775 8.46063 11.019L9.16626 9.89276C9.23826 9.77755 9.33546 9.68034 9.45067 9.60834L10.5775 8.90267C10.736 8.80326 10.8597 8.65691 10.9311 8.48397C11.0026 8.31104 11.0185 8.12012 10.9764 7.93777L10.6797 6.64309C10.6493 6.5104 10.6493 6.37253 10.6797 6.23985L10.9771 4.94444C11.019 4.7622 11.0031 4.57144 10.9316 4.39865C10.8601 4.22587 10.7366 4.07963 10.5782 3.98027L9.45139 3.2746C9.33634 3.20246 9.23911 3.10522 9.16698 2.99017L8.46063 1.86398ZM8.09846 4.83571C8.143 4.75382 8.15403 4.65784 8.12924 4.56797C8.10446 4.4781 8.04578 4.40136 7.96556 4.35387C7.88534 4.30639 7.78983 4.29188 7.69913 4.31339C7.60843 4.3349 7.5296 4.39075 7.47924 4.4692L5.59638 7.65623L4.45946 6.56748C4.42574 6.53285 4.38538 6.50536 4.3408 6.48666C4.29622 6.46796 4.24833 6.45844 4.19999 6.45865C4.15164 6.45886 4.10384 6.4688 4.05942 6.48789C4.01501 6.50698 3.97489 6.53481 3.94147 6.56974C3.90804 6.60467 3.88199 6.64597 3.86487 6.69118C3.84775 6.73639 3.83992 6.78459 3.84183 6.8329C3.84374 6.88121 3.85535 6.92864 3.87599 6.97236C3.89662 7.01608 3.92585 7.05519 3.96193 7.08737L5.42646 8.49079C5.46565 8.52827 5.51281 8.55641 5.56441 8.57311C5.61601 8.58981 5.67071 8.59464 5.72443 8.58723C5.77816 8.57982 5.82951 8.56037 5.87467 8.53033C5.91982 8.50029 5.9576 8.46043 5.98519 8.41374L8.09846 4.83571Z" fill="#36B37E"/>
<path d="M8.46063 1.86398L7.61294 2.39447L7.61347 2.39532L8.46063 1.86398ZM7.4958 1.46435L7.71969 2.43896L7.72014 2.43886L7.4958 1.46435ZM6.2012 1.76173L5.97732 0.787119L5.97719 0.787149L6.2012 1.76173ZM5.79799 1.76173L6.022 0.787149L6.02187 0.787119L5.79799 1.76173ZM4.50339 1.46435L4.27905 2.43886L4.2795 2.43896L4.50339 1.46435ZM3.53855 1.86398L4.38596 2.39493L4.38625 2.39447L3.53855 1.86398ZM2.83293 2.99017L1.98553 2.45923L1.98492 2.4602L2.83293 2.99017ZM2.54852 3.27532L3.07952 4.1227L3.08234 4.12092L2.54852 3.27532ZM1.42241 3.98099L1.95327 4.82845L1.9534 4.82836L1.42241 3.98099ZM1.02279 4.94444L0.0479543 5.16735L0.0481168 5.16806L1.02279 4.94444ZM1.32016 6.24057L2.29485 6.01698L2.29484 6.01695L1.32016 6.24057ZM1.32016 6.64309L2.29481 6.86683L2.29485 6.86667L1.32016 6.64309ZM1.02279 7.93849L0.0481439 7.71476L0.0481148 7.71488L1.02279 7.93849ZM1.42241 8.90267L1.9534 8.05529L1.95311 8.05511L1.42241 8.90267ZM2.54852 9.60834L2.01752 10.4557L2.0185 10.4563L2.54852 9.60834ZM2.83365 9.89276L3.68106 9.36181L3.67928 9.35899L2.83365 9.89276ZM3.53928 11.019L4.38718 10.4888L4.38668 10.488L3.53928 11.019ZM4.50339 11.4186L4.72689 12.3933L4.72727 12.3932L4.50339 11.4186ZM5.79799 11.1212L6.02187 12.0958L6.022 12.0958L5.79799 11.1212ZM6.2012 11.1212L5.97719 12.0958L5.97744 12.0958L6.2012 11.1212ZM7.49652 11.4186L7.27276 12.3932L7.27289 12.3933L7.49652 11.4186ZM8.46063 11.019L7.61323 10.488L7.61304 10.4883L8.46063 11.019ZM9.16626 9.89276L10.0137 10.4237L10.0143 10.4227L9.16626 9.89276ZM9.45067 9.60834L9.98069 10.4563L9.98142 10.4559L9.45067 9.60834ZM10.5775 8.90267L11.1083 9.75019L11.1087 9.74989L10.5775 8.90267ZM10.9764 7.93777L10.0017 8.16112L10.002 8.16252L10.9764 7.93777ZM10.6797 6.64309L11.6545 6.41975L11.6543 6.4191L10.6797 6.64309ZM10.6797 6.23985L11.6543 6.46384L11.6544 6.46359L10.6797 6.23985ZM10.9771 4.94444L10.0025 4.72039L10.0025 4.72071L10.9771 4.94444ZM10.5782 3.98027L11.1096 3.13315L11.109 3.13274L10.5782 3.98027ZM9.45139 3.2746L8.92013 4.12181L8.92063 4.12213L9.45139 3.2746ZM9.16698 2.99017L10.0142 2.45897L10.0141 2.45884L9.16698 2.99017ZM8.09846 4.83571L8.9595 5.34426L8.96851 5.329L8.97697 5.31344L8.09846 4.83571ZM7.47924 4.4692L6.63773 3.92897L6.62771 3.94458L6.61827 3.96054L7.47924 4.4692ZM5.59638 7.65623L4.90474 8.37847L5.81575 9.25088L6.45735 8.16488L5.59638 7.65623ZM4.45946 6.56748L3.74305 7.26516L3.75522 7.27766L3.76782 7.28972L4.45946 6.56748ZM3.96193 7.08737L4.65381 6.36536L4.6409 6.35299L4.62756 6.34109L3.96193 7.08737ZM5.42646 8.49079L4.73457 9.2128L4.73534 9.21353L5.42646 8.49079ZM5.98519 8.41374L6.84611 8.92248L6.84623 8.92229L5.98519 8.41374ZM9.30833 1.33349C9.0987 0.998529 8.78986 0.737248 8.42478 0.58603L7.65943 2.43379C7.64021 2.42583 7.62397 2.41209 7.61294 2.39447L9.30833 1.33349ZM8.42478 0.58603C8.0597 0.434811 7.65656 0.401184 7.27147 0.489834L7.72014 2.43886C7.69987 2.44352 7.67864 2.44175 7.65943 2.43379L8.42478 0.58603ZM7.27192 0.48973L5.97732 0.787119L6.42508 2.73635L7.71969 2.43896L7.27192 0.48973ZM5.97719 0.787149C5.99193 0.783759 6.00726 0.783759 6.022 0.787149L5.57397 2.73632C5.85407 2.8007 6.14512 2.8007 6.42521 2.73632L5.97719 0.787149ZM6.02187 0.787119L4.72727 0.48973L4.2795 2.43896L5.5741 2.73635L6.02187 0.787119ZM4.72772 0.489834C4.34263 0.401184 3.93949 0.434811 3.57441 0.58603L4.33976 2.43379C4.32055 2.44175 4.29932 2.44352 4.27905 2.43886L4.72772 0.489834ZM3.57441 0.58603C3.20933 0.737248 2.90049 0.998529 2.69086 1.33349L4.38625 2.39447C4.37522 2.41209 4.35898 2.42583 4.33976 2.43379L3.57441 0.58603ZM2.69115 1.33304L1.98553 2.45923L3.68034 3.52112L4.38596 2.39493L2.69115 1.33304ZM1.98492 2.4602C1.99353 2.44642 2.00428 2.4363 2.0147 2.42972L3.08234 4.12092C3.32317 3.96889 3.52833 3.76435 3.68095 3.52015L1.98492 2.4602ZM2.01753 2.42795L0.891409 3.13362L1.9534 4.82836L3.07952 4.1227L2.01753 2.42795ZM0.891546 3.13353C0.557167 3.34299 0.296295 3.65135 0.14513 4.0158L1.99252 4.78205C1.98458 4.80121 1.97086 4.81743 1.95327 4.82845L0.891546 3.13353ZM0.14513 4.0158C-0.00603414 4.38026 -0.0399964 4.78273 0.0479546 5.16735L1.99763 4.72153C2.00225 4.74174 2.00047 4.7629 1.99252 4.78205L0.14513 4.0158ZM0.0481168 5.16806L0.345487 6.46419L2.29484 6.01695L1.99747 4.72082L0.0481168 5.16806ZM0.345479 6.46416C0.342108 6.44946 0.342108 6.4342 0.345479 6.4195L2.29485 6.86667C2.35899 6.58708 2.35899 6.29658 2.29485 6.01698L0.345479 6.46416ZM0.345514 6.41935L0.0481439 7.71476L1.99744 8.16223L2.29481 6.86683L0.345514 6.41935ZM0.0481148 7.71488C-0.0401782 8.09974 -0.00638652 8.50254 0.144794 8.8673L1.99239 8.10154C2.00034 8.12071 2.00211 8.14188 1.99747 8.16211L0.0481148 7.71488ZM0.144794 8.8673C0.295974 9.23206 0.557037 9.54067 0.891707 9.75023L1.95311 8.05511C1.97072 8.06613 1.98444 8.08237 1.99239 8.10154L0.144794 8.8673ZM0.891409 9.75004L2.01753 10.4557L3.07952 8.76096L1.9534 8.05529L0.891409 9.75004ZM2.0185 10.4563C2.00472 10.4477 1.9946 10.4369 1.98802 10.4265L3.67928 9.35899C3.52726 9.11816 3.32274 8.91298 3.07855 8.76035L2.0185 10.4563ZM1.98625 10.4237L2.69187 11.5499L4.38668 10.488L3.68106 9.36182L1.98625 10.4237ZM2.69137 11.5491C3.12064 12.2357 3.93838 12.5741 4.72689 12.3933L4.27988 10.4439C4.32101 10.4345 4.364 10.4517 4.38718 10.4888L2.69137 11.5491ZM4.72727 12.3932L6.02187 12.0958L5.5741 10.1466L4.2795 10.444L4.72727 12.3932ZM6.022 12.0958C6.00726 12.0992 5.99193 12.0992 5.97719 12.0958L6.42521 10.1466C6.14512 10.0822 5.85407 10.0822 5.57397 10.1466L6.022 12.0958ZM5.97744 12.0958L7.27276 12.3932L7.72029 10.4439L6.42497 10.1466L5.97744 12.0958ZM7.27289 12.3933C7.65775 12.4816 8.06057 12.4478 8.42533 12.2966L7.65949 10.449C7.67869 10.4411 7.6999 10.4393 7.72016 10.4439L7.27289 12.3933ZM8.42533 12.2966C8.7901 12.1454 9.09869 11.8843 9.30823 11.5496L7.61304 10.4883C7.62406 10.4707 7.64029 10.457 7.65949 10.449L8.42533 12.2966ZM9.30804 11.5499L10.0137 10.4237L8.31885 9.36182L7.61323 10.488L9.30804 11.5499ZM10.0143 10.4227C10.0058 10.4363 9.99426 10.4478 9.98069 10.4563L8.92064 8.76035C8.67667 8.91285 8.47072 9.11881 8.31824 9.36279L10.0143 10.4227ZM9.98142 10.4559L11.1083 9.75019L10.0467 8.05514L8.91991 8.76081L9.98142 10.4559ZM11.1087 9.74989C11.4434 9.54003 11.7044 9.23108 11.8553 8.86602L10.007 8.10193C10.0149 8.08274 10.0287 8.06649 10.0463 8.05545L11.1087 9.74989ZM11.8553 8.86602C12.0062 8.50096 12.0396 8.09794 11.9508 7.71303L10.002 8.16252C9.99731 8.14229 9.99907 8.12112 10.007 8.10193L11.8553 8.86602ZM11.9511 7.71443L11.6545 6.41975L9.70501 6.86643L10.0017 8.16112L11.9511 7.71443ZM11.6543 6.4191C11.6577 6.43382 11.6577 6.44912 11.6543 6.46384L9.70515 6.01586C9.64078 6.29595 9.64078 6.58699 9.70515 6.86707L11.6543 6.4191ZM11.6544 6.46359L11.9518 5.16818L10.0025 4.72071L9.7051 6.01611L11.6544 6.46359ZM11.9517 5.16849C12.0401 4.7838 12.0066 4.38111 11.8557 4.01636L10.0076 4.78094C9.99965 4.76177 9.99789 4.74061 10.0025 4.72039L11.9517 5.16849ZM11.8557 4.01636C11.7048 3.65162 11.444 3.34291 11.1096 3.13315L10.0468 4.82739C10.0292 4.81635 10.0155 4.80012 10.0076 4.78094L11.8557 4.01636ZM11.109 3.13274L9.98214 2.42708L8.92063 4.12213L10.0475 4.8278L11.109 3.13274ZM9.98264 2.42739C9.99542 2.4354 10.0062 2.4462 10.0142 2.45897L8.31973 3.52138C8.47201 3.76425 8.67727 3.96952 8.92013 4.12181L9.98264 2.42739ZM10.0141 2.45884L9.3078 1.33265L7.61347 2.39532L8.31982 3.52151L10.0141 2.45884ZM8.97697 5.31344C9.1452 5.00408 9.18688 4.64153 9.09325 4.30208L7.16524 4.83387C7.12119 4.67414 7.1408 4.50356 7.21995 4.35799L8.97697 5.31344ZM9.09325 4.30208C8.99962 3.96262 8.77797 3.6727 8.47492 3.49332L7.4562 5.21443C7.31359 5.13001 7.2093 4.99359 7.16524 4.83387L9.09325 4.30208ZM8.47492 3.49332C8.17187 3.31394 7.81105 3.25911 7.46839 3.34037L7.92987 5.2864C7.76861 5.32464 7.59881 5.29884 7.4562 5.21443L8.47492 3.49332ZM7.46839 3.34037C7.12573 3.42163 6.82796 3.63263 6.63773 3.92897L8.32076 5.00943C8.23124 5.14887 8.09112 5.24816 7.92987 5.2864L7.46839 3.34037ZM6.61827 3.96054L4.73541 7.14757L6.45735 8.16488L8.34022 4.97785L6.61827 3.96054ZM6.28802 6.93399L5.15111 5.84524L3.76782 7.28972L4.90474 8.37847L6.28802 6.93399ZM5.17588 5.8698C5.04847 5.73897 4.89601 5.63514 4.72759 5.56449L3.95401 7.40883C3.87475 7.37559 3.80301 7.32672 3.74305 7.26516L5.17588 5.8698ZM4.72759 5.56449C4.55917 5.49385 4.37826 5.45786 4.19563 5.45866L4.20435 7.45864C4.1184 7.45901 4.03326 7.44207 3.95401 7.40883L4.72759 5.56449ZM4.19563 5.45866C4.013 5.45945 3.8324 5.49702 3.66461 5.56913L4.45424 7.40665C4.37528 7.44058 4.29029 7.45826 4.20435 7.45864L4.19563 5.45866ZM3.66461 5.56913C3.49681 5.64124 3.34527 5.7464 3.219 5.87834L4.66394 7.26114C4.60452 7.32323 4.53321 7.37272 4.45424 7.40665L3.66461 5.56913ZM3.219 5.87834C3.09273 6.01028 2.99433 6.16629 2.92967 6.33708L4.80008 7.04528C4.76965 7.12565 4.72335 7.19906 4.66394 7.26114L3.219 5.87834ZM2.92967 6.33708C2.865 6.50787 2.83539 6.68993 2.84261 6.8724L4.84105 6.7934C4.84444 6.87926 4.83051 6.96492 4.80008 7.04528L2.92967 6.33708ZM2.84261 6.8724C2.84982 7.05487 2.8937 7.23402 2.97165 7.39917L4.78033 6.54554C4.817 6.62325 4.83765 6.70755 4.84105 6.7934L2.84261 6.8724ZM2.97165 7.39917C3.0496 7.56432 3.16001 7.71209 3.29629 7.83365L4.62756 6.34109C4.6917 6.3983 4.74365 6.46783 4.78033 6.54554L2.97165 7.39917ZM3.27005 7.80938L4.73457 9.2128L6.11834 7.76878L4.65381 6.36536L3.27005 7.80938ZM4.73534 9.21353C4.88341 9.35512 5.06156 9.46143 5.25649 9.52452L5.87233 7.6217C5.96407 7.65139 6.0479 7.70142 6.11757 7.76804L4.73534 9.21353ZM5.25649 9.52452C5.45142 9.58761 5.65808 9.60584 5.86104 9.57785L5.58783 7.5966C5.68334 7.58343 5.7806 7.59201 5.87233 7.6217L5.25649 9.52452ZM5.86104 9.57785C6.064 9.54987 6.25801 9.47639 6.42859 9.3629L5.32075 7.69776C5.40102 7.64435 5.49232 7.60977 5.58783 7.5966L5.86104 9.57785ZM6.42859 9.3629C6.59916 9.24941 6.74189 9.09886 6.84611 8.92248L5.12427 7.905C5.17332 7.82201 5.24048 7.75116 5.32075 7.69776L6.42859 9.3629ZM6.84623 8.92229L8.9595 5.34426L7.23743 4.32717L5.12416 7.90519L6.84623 8.92229Z" fill="white" mask="url(#path-2-outside-1_7533_13510)"/>
</svg>
