<svg width="20" height="14" viewBox="0 0 20 14" fill="none" xmlns="http://www.w3.org/2000/svg">
<path d="M18.3334 4.44216C18.3334 3.93731 18.3334 3.68489 18.2336 3.568C18.147 3.46658 18.017 3.41276 17.8841 3.42322C17.7308 3.43528 17.5523 3.61377 17.1953 3.97075L14.1667 6.99935L17.1953 10.0279C17.5523 10.3849 17.7308 10.5634 17.8841 10.5755C18.017 10.5859 18.147 10.5321 18.2336 10.4307C18.3334 10.3138 18.3334 10.0614 18.3334 9.55654V4.44216Z" stroke="#E81616" stroke-width="1.66667" stroke-linecap="round" stroke-linejoin="round"/>
<path d="M1.66675 5.16602C1.66675 3.76588 1.66675 3.06582 1.93923 2.53104C2.17892 2.06063 2.56137 1.67818 3.03177 1.4385C3.56655 1.16602 4.26662 1.16602 5.66675 1.16602H10.1667C11.5669 1.16602 12.2669 1.16602 12.8017 1.4385C13.2721 1.67818 13.6546 2.06063 13.8943 2.53104C14.1667 3.06582 14.1667 3.76588 14.1667 5.16602V8.83268C14.1667 10.2328 14.1667 10.9329 13.8943 11.4677C13.6546 11.9381 13.2721 12.3205 12.8017 12.5602C12.2669 12.8327 11.5669 12.8327 10.1667 12.8327H5.66675C4.26662 12.8327 3.56655 12.8327 3.03177 12.5602C2.56137 12.3205 2.17892 11.9381 1.93923 11.4677C1.66675 10.9329 1.66675 10.2328 1.66675 8.83268V5.16602Z" stroke="#E81616" stroke-width="1.66667" stroke-linecap="round" stroke-linejoin="round"/>
</svg>
