<svg width="17" height="14" viewBox="0 0 17 14" fill="none" xmlns="http://www.w3.org/2000/svg">
<path fill-rule="evenodd" clip-rule="evenodd" d="M0.167969 6.9987C0.167969 8.36536 0.522135 8.82453 1.23047 9.74536C2.64464 11.582 5.0163 13.6654 8.5013 13.6654C11.9863 13.6654 14.358 11.582 15.7721 9.74536C16.4805 8.82536 16.8346 8.36453 16.8346 6.9987C16.8346 5.63203 16.4805 5.17286 15.7721 4.25203C14.358 2.41536 11.9863 0.332031 8.5013 0.332031C5.0163 0.332031 2.64464 2.41536 1.23047 4.25203C0.522135 5.1737 0.167969 5.63286 0.167969 6.9987ZM8.5013 3.8737C7.6725 3.8737 6.87764 4.20294 6.29159 4.78899C5.70554 5.37504 5.3763 6.1699 5.3763 6.9987C5.3763 7.8275 5.70554 8.62235 6.29159 9.20841C6.87764 9.79446 7.6725 10.1237 8.5013 10.1237C9.3301 10.1237 10.125 9.79446 10.711 9.20841C11.2971 8.62235 11.6263 7.8275 11.6263 6.9987C11.6263 6.1699 11.2971 5.37504 10.711 4.78899C10.125 4.20294 9.3301 3.8737 8.5013 3.8737Z" fill="#93989A"/>
</svg>
