<svg width="14" height="16" viewBox="0 0 14 16" fill="none" xmlns="http://www.w3.org/2000/svg">
<path d="M13.8015 3.85349L7.20857 0.0552484C7.14783 0.0190912 7.0784 0 7.00766 0C6.93691 0 6.86749 0.0190912 6.80674 0.0552484L0.193932 3.85349C0.134389 3.88834 0.0851367 3.93825 0.0511622 3.99818C0.0171877 4.0581 -0.000303632 4.12591 0.000458745 4.19474V11.7912C-0.00300497 11.8625 0.0131975 11.9334 0.0473064 11.9962C0.0814153 12.059 0.132127 12.1112 0.193932 12.1473L6.79186 15.9456C6.85278 15.9812 6.92214 16 6.99278 16C7.06341 16 7.13277 15.9812 7.19369 15.9456L13.8015 12.1473C13.8624 12.1135 13.9129 12.0639 13.9478 12.0039C13.9827 11.9438 14.0008 11.8755 14 11.8061V4.19474C14.0008 4.12532 13.9827 4.05698 13.9478 3.99692C13.9129 3.93686 13.8624 3.88731 13.8015 3.85349ZM7.40205 1.77553C7.40205 1.46788 7.73485 1.2754 8.00151 1.42881L12.2067 3.84802C12.4741 4.00184 12.4741 4.38764 12.2067 4.54146L8.00151 6.96067C7.73485 7.11408 7.40205 6.9216 7.40205 6.61395V1.77553ZM6.60665 6.61299C6.60739 6.92085 6.27464 7.11411 6.0076 6.9609L1.79002 4.54122C1.52228 4.38761 1.52205 4.00147 1.78961 3.84754L5.99561 1.42786C6.26191 1.27466 6.59434 1.4664 6.59508 1.77362L6.60665 6.61299ZM5.60876 7.64626C5.87614 7.80009 5.87614 8.18588 5.60876 8.3397L1.40358 10.7589C1.13692 10.9123 0.804116 10.7198 0.804116 10.4122V5.57377C0.804116 5.26612 1.13692 5.07364 1.40358 5.22705L5.60876 7.64626ZM8.40586 8.33962C8.13867 8.18576 8.13867 7.8002 8.40586 7.64634L12.6066 5.22745C12.8733 5.07389 13.2062 5.26637 13.2062 5.57409V10.4119C13.2062 10.7196 12.8733 10.9121 12.6066 10.7585L8.40586 8.33962Z" fill="#767676"/>
</svg>
