<svg width="192" height="44" viewBox="0 0 192 44" fill="none" xmlns="http://www.w3.org/2000/svg">
<g filter="url(#filter0_d_5986_5098)">
<rect x="2.5" y="1.5" width="187" height="39" rx="7.5" stroke="#007AB6"/>
<path d="M36.8331 12.668L29.4109 21.5745C29.1203 21.9233 28.9749 22.0977 28.9727 22.245C28.9708 22.3731 29.0278 22.4949 29.1274 22.5754C29.242 22.668 29.469 22.668 29.9231 22.668H35.9997L35.1664 29.3346L42.5885 20.4281C42.8792 20.0793 43.0245 19.9049 43.0267 19.7576C43.0287 19.6295 42.9716 19.5077 42.872 19.4272C42.7574 19.3346 42.5304 19.3346 42.0764 19.3346H35.9997L36.8331 12.668Z" stroke="#007AB6" stroke-width="1.66667" stroke-linecap="round" stroke-linejoin="round"/>
<path d="M62.7614 15.3636H64.5227V23.017C64.5227 23.8314 64.3314 24.553 63.9489 25.1818C63.5663 25.8068 63.0284 26.2992 62.3352 26.6591C61.642 27.0152 60.8295 27.1932 59.8977 27.1932C58.9697 27.1932 58.1591 27.0152 57.4659 26.6591C56.7727 26.2992 56.2348 25.8068 55.8523 25.1818C55.4697 24.553 55.2784 23.8314 55.2784 23.017V15.3636H57.0341V22.875C57.0341 23.4015 57.1496 23.8693 57.3807 24.2784C57.6155 24.6875 57.947 25.0095 58.375 25.2443C58.803 25.4754 59.3106 25.5909 59.8977 25.5909C60.4886 25.5909 60.9981 25.4754 61.4261 25.2443C61.858 25.0095 62.1875 24.6875 62.4148 24.2784C62.6458 23.8693 62.7614 23.4015 62.7614 22.875V15.3636ZM66.9389 30.2727V18.2727H68.598V19.6875H68.7401C68.8385 19.5057 68.9806 19.2955 69.1662 19.0568C69.3518 18.8182 69.6094 18.6098 69.9389 18.4318C70.2685 18.25 70.7041 18.1591 71.2457 18.1591C71.9503 18.1591 72.5791 18.3371 73.1321 18.6932C73.6851 19.0492 74.1188 19.5625 74.4332 20.233C74.7514 20.9034 74.9105 21.7102 74.9105 22.6534C74.9105 23.5966 74.7533 24.4053 74.4389 25.0795C74.1245 25.75 73.6927 26.267 73.1435 26.6307C72.5942 26.9905 71.9673 27.1705 71.2628 27.1705C70.7325 27.1705 70.2988 27.0814 69.9616 26.9034C69.6283 26.7254 69.367 26.517 69.1776 26.2784C68.9882 26.0398 68.8423 25.8277 68.7401 25.642H68.6378V30.2727H66.9389ZM68.6037 22.6364C68.6037 23.25 68.6927 23.7879 68.8707 24.25C69.0488 24.7121 69.3063 25.0739 69.6435 25.3352C69.9806 25.5928 70.3935 25.7216 70.8821 25.7216C71.3897 25.7216 71.8139 25.5871 72.1548 25.3182C72.4957 25.0455 72.7533 24.6761 72.9276 24.2102C73.1056 23.7443 73.1946 23.2197 73.1946 22.6364C73.1946 22.0606 73.1075 21.5436 72.9332 21.0852C72.7628 20.6269 72.5052 20.2652 72.1605 20C71.8196 19.7348 71.3935 19.6023 70.8821 19.6023C70.3897 19.6023 69.973 19.7292 69.6321 19.983C69.295 20.2367 69.0393 20.5909 68.8651 21.0455C68.6908 21.5 68.6037 22.0303 68.6037 22.6364ZM80.473 30.4545C79.7798 30.4545 79.1832 30.3636 78.6832 30.1818C78.187 30 77.7817 29.7595 77.4673 29.4602C77.1529 29.161 76.9181 28.8333 76.7628 28.4773L78.223 27.875C78.3253 28.0417 78.4616 28.2178 78.6321 28.4034C78.8063 28.5928 79.0412 28.7538 79.3366 28.8864C79.6359 29.0189 80.0204 29.0852 80.4901 29.0852C81.134 29.0852 81.6662 28.928 82.0866 28.6136C82.5071 28.303 82.7173 27.8068 82.7173 27.125V25.4091H82.6094C82.5071 25.5947 82.3594 25.8011 82.1662 26.0284C81.9768 26.2557 81.7154 26.4527 81.3821 26.6193C81.0488 26.786 80.6151 26.8693 80.081 26.8693C79.3916 26.8693 78.7704 26.7083 78.2173 26.3864C77.6681 26.0606 77.2325 25.5814 76.9105 24.9489C76.5923 24.3125 76.4332 23.5303 76.4332 22.6023C76.4332 21.6742 76.5904 20.8788 76.9048 20.2159C77.223 19.553 77.6586 19.0455 78.2116 18.6932C78.7647 18.3371 79.3916 18.1591 80.0923 18.1591C80.634 18.1591 81.0715 18.25 81.4048 18.4318C81.7382 18.6098 81.9976 18.8182 82.1832 19.0568C82.3726 19.2955 82.5185 19.5057 82.6207 19.6875H82.7457V18.2727H84.4105V27.1932C84.4105 27.9432 84.2363 28.5587 83.8878 29.0398C83.5393 29.5208 83.0677 29.8769 82.473 30.108C81.8821 30.339 81.2154 30.4545 80.473 30.4545ZM80.456 25.4602C80.9446 25.4602 81.3575 25.3466 81.6946 25.1193C82.0355 24.8883 82.2931 24.5587 82.4673 24.1307C82.6454 23.6989 82.7344 23.1818 82.7344 22.5795C82.7344 21.9924 82.6473 21.4754 82.473 21.0284C82.2988 20.5814 82.0431 20.233 81.706 19.983C81.3688 19.7292 80.9522 19.6023 80.456 19.6023C79.9446 19.6023 79.5185 19.7348 79.1776 20C78.8366 20.2614 78.5791 20.6174 78.4048 21.0682C78.2344 21.5189 78.1491 22.0227 78.1491 22.5795C78.1491 23.1515 78.2363 23.6534 78.4105 24.0852C78.5848 24.517 78.8423 24.8542 79.1832 25.0966C79.5279 25.339 79.9522 25.4602 80.456 25.4602ZM86.6889 27V18.2727H88.331V19.6591H88.4219C88.581 19.1894 88.8613 18.8201 89.2628 18.5511C89.6681 18.2784 90.1264 18.142 90.6378 18.142C90.7438 18.142 90.8688 18.1458 91.0128 18.1534C91.1605 18.161 91.276 18.1705 91.3594 18.1818V19.8068C91.2912 19.7879 91.17 19.767 90.9957 19.7443C90.8215 19.7178 90.6473 19.7045 90.473 19.7045C90.0715 19.7045 89.7135 19.7898 89.3991 19.9602C89.0885 20.1269 88.8423 20.3598 88.6605 20.6591C88.4787 20.9545 88.3878 21.2917 88.3878 21.6705V27H86.6889ZM95.2912 27.1932C94.7382 27.1932 94.2382 27.0909 93.7912 26.8864C93.3442 26.678 92.9901 26.3769 92.7287 25.983C92.4711 25.589 92.3423 25.1061 92.3423 24.5341C92.3423 24.0417 92.437 23.6364 92.6264 23.3182C92.8158 23 93.0715 22.7481 93.3935 22.5625C93.7154 22.3769 94.0753 22.2367 94.473 22.142C94.8707 22.0473 95.276 21.9754 95.6889 21.9261C96.2116 21.8655 96.6359 21.8163 96.9616 21.7784C97.2874 21.7367 97.5241 21.6705 97.6719 21.5795C97.8196 21.4886 97.8935 21.3409 97.8935 21.1364V21.0966C97.8935 20.6004 97.7533 20.2159 97.473 19.9432C97.1965 19.6705 96.7836 19.5341 96.2344 19.5341C95.6624 19.5341 95.2116 19.661 94.8821 19.9148C94.5563 20.1648 94.331 20.4432 94.206 20.75L92.6094 20.3864C92.7988 19.8561 93.0753 19.428 93.4389 19.1023C93.8063 18.7727 94.2287 18.5341 94.706 18.3864C95.1832 18.2348 95.6851 18.1591 96.2116 18.1591C96.5601 18.1591 96.9295 18.2008 97.3196 18.2841C97.7135 18.3636 98.081 18.5114 98.4219 18.7273C98.7666 18.9432 99.0488 19.2519 99.2685 19.6534C99.4882 20.0511 99.598 20.5682 99.598 21.2045V27H97.9389V25.8068H97.8707C97.7609 26.0265 97.5961 26.2424 97.3764 26.4545C97.1567 26.6667 96.8745 26.8428 96.5298 26.983C96.1851 27.1231 95.7723 27.1932 95.2912 27.1932ZM95.6605 25.8295C96.1302 25.8295 96.5317 25.7367 96.8651 25.5511C97.2022 25.3655 97.4579 25.1231 97.6321 24.8239C97.8101 24.5208 97.8991 24.197 97.8991 23.8523V22.7273C97.8385 22.7879 97.7211 22.8447 97.5469 22.8977C97.3764 22.947 97.1813 22.9905 96.9616 23.0284C96.742 23.0625 96.5279 23.0947 96.3196 23.125C96.1113 23.1515 95.937 23.1742 95.7969 23.1932C95.4673 23.2348 95.1662 23.3049 94.8935 23.4034C94.6245 23.5019 94.4086 23.6439 94.2457 23.8295C94.0866 24.0114 94.0071 24.2538 94.0071 24.5568C94.0071 24.9773 94.1624 25.2955 94.473 25.5114C94.7836 25.7235 95.1795 25.8295 95.6605 25.8295ZM105.128 27.1705C104.423 27.1705 103.795 26.9905 103.241 26.6307C102.692 26.267 102.26 25.75 101.946 25.0795C101.635 24.4053 101.48 23.5966 101.48 22.6534C101.48 21.7102 101.637 20.9034 101.952 20.233C102.27 19.5625 102.705 19.0492 103.259 18.6932C103.812 18.3371 104.438 18.1591 105.139 18.1591C105.681 18.1591 106.116 18.25 106.446 18.4318C106.779 18.6098 107.037 18.8182 107.219 19.0568C107.404 19.2955 107.548 19.5057 107.651 19.6875H107.753V15.3636H109.452V27H107.793V25.642H107.651C107.548 25.8277 107.401 26.0398 107.207 26.2784C107.018 26.517 106.757 26.7254 106.423 26.9034C106.09 27.0814 105.658 27.1705 105.128 27.1705ZM105.503 25.7216C105.991 25.7216 106.404 25.5928 106.741 25.3352C107.082 25.0739 107.34 24.7121 107.514 24.25C107.692 23.7879 107.781 23.25 107.781 22.6364C107.781 22.0303 107.694 21.5 107.52 21.0455C107.346 20.5909 107.09 20.2367 106.753 19.983C106.416 19.7292 105.999 19.6023 105.503 19.6023C104.991 19.6023 104.565 19.7348 104.224 20C103.884 20.2652 103.626 20.6269 103.452 21.0852C103.281 21.5436 103.196 22.0606 103.196 22.6364C103.196 23.2197 103.283 23.7443 103.457 24.2102C103.632 24.6761 103.889 25.0455 104.23 25.3182C104.575 25.5871 104.999 25.7216 105.503 25.7216ZM115.638 27.1761C114.778 27.1761 114.037 26.9924 113.416 26.625C112.799 26.2538 112.321 25.733 111.984 25.0625C111.651 24.3883 111.484 23.5985 111.484 22.6932C111.484 21.7992 111.651 21.0114 111.984 20.3295C112.321 19.6477 112.791 19.1155 113.393 18.733C114 18.3504 114.708 18.1591 115.518 18.1591C116.011 18.1591 116.488 18.2405 116.95 18.4034C117.412 18.5663 117.827 18.822 118.195 19.1705C118.562 19.5189 118.852 19.9716 119.064 20.5284C119.276 21.0814 119.382 21.7538 119.382 22.5455V23.1477H112.445V21.875H117.717C117.717 21.428 117.626 21.0322 117.445 20.6875C117.263 20.339 117.007 20.0644 116.678 19.8636C116.352 19.6629 115.969 19.5625 115.53 19.5625C115.053 19.5625 114.636 19.6799 114.28 19.9148C113.928 20.1458 113.655 20.4489 113.462 20.8239C113.272 21.1951 113.178 21.5985 113.178 22.0341V23.0284C113.178 23.6117 113.28 24.108 113.484 24.517C113.693 24.9261 113.982 25.2386 114.354 25.4545C114.725 25.6667 115.159 25.7727 115.655 25.7727C115.977 25.7727 116.27 25.7273 116.536 25.6364C116.801 25.5417 117.03 25.4015 117.223 25.2159C117.416 25.0303 117.564 24.8011 117.666 24.5284L119.274 24.8182C119.145 25.2917 118.914 25.7064 118.581 26.0625C118.251 26.4148 117.837 26.6894 117.337 26.8864C116.84 27.0795 116.274 27.1761 115.638 27.1761ZM125.638 27V15.3636H129.786C130.691 15.3636 131.441 15.5284 132.036 15.858C132.63 16.1875 133.075 16.6383 133.371 17.2102C133.666 17.7784 133.814 18.4186 133.814 19.1307C133.814 19.8466 133.664 20.4905 133.365 21.0625C133.07 21.6307 132.623 22.0814 132.024 22.4148C131.429 22.7443 130.681 22.9091 129.78 22.9091H126.928V21.4205H129.621C130.193 21.4205 130.657 21.322 131.013 21.125C131.369 20.9242 131.63 20.6515 131.797 20.3068C131.964 19.9621 132.047 19.5701 132.047 19.1307C132.047 18.6913 131.964 18.3011 131.797 17.9602C131.63 17.6193 131.367 17.3523 131.007 17.1591C130.651 16.9659 130.181 16.8693 129.598 16.8693H127.393V27H125.638ZM137.435 15.3636V27H135.736V15.3636H137.435ZM142.26 27.1932C141.707 27.1932 141.207 27.0909 140.76 26.8864C140.313 26.678 139.959 26.3769 139.697 25.983C139.44 25.589 139.311 25.1061 139.311 24.5341C139.311 24.0417 139.406 23.6364 139.595 23.3182C139.785 23 140.04 22.7481 140.362 22.5625C140.684 22.3769 141.044 22.2367 141.442 22.142C141.839 22.0473 142.245 21.9754 142.658 21.9261C143.18 21.8655 143.605 21.8163 143.93 21.7784C144.256 21.7367 144.493 21.6705 144.641 21.5795C144.788 21.4886 144.862 21.3409 144.862 21.1364V21.0966C144.862 20.6004 144.722 20.2159 144.442 19.9432C144.165 19.6705 143.752 19.5341 143.203 19.5341C142.631 19.5341 142.18 19.661 141.851 19.9148C141.525 20.1648 141.3 20.4432 141.175 20.75L139.578 20.3864C139.768 19.8561 140.044 19.428 140.408 19.1023C140.775 18.7727 141.197 18.5341 141.675 18.3864C142.152 18.2348 142.654 18.1591 143.18 18.1591C143.529 18.1591 143.898 18.2008 144.288 18.2841C144.682 18.3636 145.05 18.5114 145.391 18.7273C145.735 18.9432 146.018 19.2519 146.237 19.6534C146.457 20.0511 146.567 20.5682 146.567 21.2045V27H144.908V25.8068H144.839C144.73 26.0265 144.565 26.2424 144.345 26.4545C144.125 26.6667 143.843 26.8428 143.499 26.983C143.154 27.1231 142.741 27.1932 142.26 27.1932ZM142.629 25.8295C143.099 25.8295 143.5 25.7367 143.834 25.5511C144.171 25.3655 144.427 25.1231 144.601 24.8239C144.779 24.5208 144.868 24.197 144.868 23.8523V22.7273C144.807 22.7879 144.69 22.8447 144.516 22.8977C144.345 22.947 144.15 22.9905 143.93 23.0284C143.711 23.0625 143.497 23.0947 143.288 23.125C143.08 23.1515 142.906 23.1742 142.766 23.1932C142.436 23.2348 142.135 23.3049 141.862 23.4034C141.593 23.5019 141.377 23.6439 141.214 23.8295C141.055 24.0114 140.976 24.2538 140.976 24.5568C140.976 24.9773 141.131 25.2955 141.442 25.5114C141.752 25.7235 142.148 25.8295 142.629 25.8295ZM150.528 21.8182V27H148.83V18.2727H150.46V19.6932H150.568C150.769 19.2311 151.083 18.8598 151.511 18.5795C151.943 18.2992 152.487 18.1591 153.142 18.1591C153.737 18.1591 154.258 18.2841 154.705 18.5341C155.152 18.7803 155.498 19.1477 155.744 19.6364C155.991 20.125 156.114 20.7292 156.114 21.4489V27H154.415V21.6534C154.415 21.0208 154.25 20.5265 153.92 20.1705C153.591 19.8106 153.138 19.6307 152.562 19.6307C152.169 19.6307 151.818 19.7159 151.511 19.8864C151.208 20.0568 150.968 20.3068 150.79 20.6364C150.616 20.9621 150.528 21.3561 150.528 21.8182ZM164.932 20.4034L163.392 20.6761C163.328 20.4792 163.225 20.2917 163.085 20.1136C162.949 19.9356 162.763 19.7898 162.528 19.6761C162.294 19.5625 162 19.5057 161.648 19.5057C161.167 19.5057 160.765 19.6136 160.443 19.8295C160.121 20.0417 159.96 20.3163 159.96 20.6534C159.96 20.9451 160.068 21.1799 160.284 21.358C160.5 21.536 160.848 21.6818 161.33 21.7955L162.716 22.1136C163.519 22.2992 164.117 22.5852 164.511 22.9716C164.905 23.358 165.102 23.8598 165.102 24.4773C165.102 25 164.951 25.4659 164.648 25.875C164.348 26.2803 163.93 26.5985 163.392 26.8295C162.858 27.0606 162.239 27.1761 161.534 27.1761C160.557 27.1761 159.759 26.9678 159.142 26.5511C158.525 26.1307 158.146 25.5341 158.006 24.7614L159.648 24.5114C159.75 24.9394 159.96 25.2633 160.278 25.483C160.597 25.6989 161.011 25.8068 161.523 25.8068C162.08 25.8068 162.525 25.6913 162.858 25.4602C163.191 25.2254 163.358 24.9394 163.358 24.6023C163.358 24.3295 163.256 24.1004 163.051 23.9148C162.85 23.7292 162.542 23.589 162.125 23.4943L160.648 23.1705C159.833 22.9848 159.231 22.6894 158.841 22.2841C158.455 21.8788 158.261 21.3655 158.261 20.7443C158.261 20.2292 158.405 19.7784 158.693 19.392C158.981 19.0057 159.379 18.7045 159.886 18.4886C160.394 18.2689 160.975 18.1591 161.631 18.1591C162.574 18.1591 163.316 18.3636 163.858 18.7727C164.4 19.178 164.758 19.7216 164.932 20.4034Z" fill="#007AB6"/>
</g>
<defs>
<filter id="filter0_d_5986_5098" x="0" y="0" width="192" height="44" filterUnits="userSpaceOnUse" color-interpolation-filters="sRGB">
<feFlood flood-opacity="0" result="BackgroundImageFix"/>
<feColorMatrix in="SourceAlpha" type="matrix" values="0 0 0 0 0 0 0 0 0 0 0 0 0 0 0 0 0 0 127 0" result="hardAlpha"/>
<feOffset dy="1"/>
<feGaussianBlur stdDeviation="1"/>
<feColorMatrix type="matrix" values="0 0 0 0 0.0627451 0 0 0 0 0.0941176 0 0 0 0 0.156863 0 0 0 0.05 0"/>
<feBlend mode="normal" in2="BackgroundImageFix" result="effect1_dropShadow_5986_5098"/>
<feBlend mode="normal" in="SourceGraphic" in2="effect1_dropShadow_5986_5098" result="shape"/>
</filter>
</defs>
</svg>
