<svg width="119" height="32" viewBox="0 0 119 32" fill="none" xmlns="http://www.w3.org/2000/svg">
<path d="M3.893 23.5792C4.47133 24.9451 5.19367 25.996 6.06003 26.7274C6.92639 27.4609 7.88051 27.8255 8.92465 27.8255C9.96878 27.8255 10.8757 27.5082 11.5665 26.8736C12.2573 26.239 12.6016 25.4447 12.6016 24.4861C12.6016 23.712 12.3406 23.0099 11.8185 22.382C11.2965 21.7565 10.4458 21.1174 9.26219 20.4693L8.14155 19.8572C5.57622 18.4913 4.03477 17.5822 3.5127 17.1299C2.44157 16.2005 1.68547 15.2734 1.23991 14.3508C0.796601 13.4281 0.573825 12.3458 0.573825 11.1058C0.573825 8.38749 1.48519 6.1642 3.31018 4.43823C5.13516 2.71226 7.51147 1.84814 10.4436 1.84814C12.5004 1.84814 14.3028 2.3162 15.8533 3.25458C17.4037 4.19295 18.6144 5.54088 19.4875 7.30286L16.2741 9.54414C15.7093 8.19172 14.9959 7.17684 14.1296 6.4995C13.2632 5.82217 12.2303 5.48462 11.0332 5.48462C10.0318 5.48462 9.20594 5.79516 8.54885 6.41399C7.89402 7.03507 7.56547 7.80918 7.56547 8.73855C7.56547 9.5284 7.83551 10.217 8.38008 10.8088C8.9224 11.4006 9.96878 12.0915 11.5192 12.8791L12.0481 13.1536C14.9374 14.5916 16.6769 15.5569 17.2687 16.0497C18.3106 16.9093 19.0622 17.814 19.519 18.7658C19.9758 19.7177 20.2054 20.8271 20.2054 22.094C20.2054 24.8709 19.2377 27.1324 17.3002 28.8786C15.3627 30.6271 12.8447 31.5002 9.74376 31.5002C7.53172 31.5002 5.57622 31.0142 3.8795 30.042C2.18053 29.0699 0.888865 27.695 0 25.9195L3.8885 23.5747L3.893 23.5792Z" fill="#7138DF"/>
<path d="M39.0802 26.0946C38.2904 27.8431 37.2282 29.173 35.8893 30.0889C34.5504 31.0048 32.9932 31.4616 31.2177 31.4616C28.4836 31.4616 26.2536 30.539 24.5276 28.6937C22.8016 26.8485 21.9375 24.4519 21.9375 21.5086C21.9375 18.5652 22.8286 16.1304 24.6108 14.2491C26.3931 12.3679 28.6501 11.4272 31.3842 11.4272C33.2722 11.4272 34.8497 11.8323 36.1188 12.6424C37.388 13.4525 38.3039 14.6474 38.8664 16.2249L36.2246 17.7461C35.9298 16.5759 35.482 15.7006 34.8834 15.1155C34.2848 14.5304 33.549 14.2379 32.6759 14.2379C31.3662 14.2379 30.3626 14.8477 29.665 16.0673C28.9674 17.287 28.6186 19.058 28.6186 21.3825C28.6186 23.8758 28.9134 25.6918 29.5052 26.8237C30.0971 27.9579 31.0399 28.525 32.3383 28.525C33.297 28.525 34.1701 28.1807 34.9599 27.4898C35.7498 26.799 36.3191 25.8696 36.6724 24.6995L39.0825 26.0946H39.0802Z" fill="#7138DF"/>
<path d="M41.8008 30.7664V0.5H47.9081V18.4663H52.4109V12.0192H58.5182V30.7664H52.4109V21.5087H47.9081V30.7664H41.8008Z" fill="#7138DF"/>
<path d="M66.9896 30.7664C65.5382 30.7664 64.5143 30.4469 63.9135 29.8055C63.3149 29.1642 63.0156 28.0548 63.0156 26.4773V16.3105C63.0156 14.7331 63.3149 13.6237 63.9135 12.9824C64.5121 12.341 65.5382 12.0215 66.9896 12.0215H75.6983V14.8321H71.0694C70.2953 14.8321 69.7755 14.9739 69.5167 15.2552C69.2557 15.5364 69.1252 16.0945 69.1252 16.9249V19.9898H75.0007V22.8004H69.1252V25.9283C69.1252 26.7451 69.2512 27.2875 69.5055 27.5552C69.7597 27.823 70.2796 27.9558 71.0694 27.9558H75.993V30.7664H66.9896Z" fill="#7138DF"/>
<path d="M79.0756 30.7664V27.9558H84.0623C85.2167 27.9558 86.0245 27.7983 86.4836 27.481C86.9404 27.1637 87.1699 26.6326 87.1699 25.8855C87.1699 24.9269 86.2316 24.1663 84.3593 23.6037C83.7945 23.435 83.3512 23.3022 83.0271 23.2032C81.1819 22.5978 79.9173 21.9138 79.2332 21.1532C78.5491 20.3926 78.207 19.3574 78.207 18.0455C78.207 16.0878 78.8529 14.5936 80.14 13.5652C81.4294 12.5368 83.2994 12.0215 85.7522 12.0215H90.6354V14.8321H86.4071C85.7163 14.8321 85.1739 14.9559 84.7801 15.2011C84.3863 15.4487 84.1883 15.7907 84.1883 16.2273C84.1883 17.0014 85.0052 17.6427 86.6411 18.1513C87.0079 18.2773 87.2824 18.3696 87.4647 18.4258C89.4652 19.0739 90.8177 19.8142 91.522 20.6446C92.2263 21.4772 92.5796 22.6451 92.5796 24.1528C92.5796 26.2096 91.936 27.8275 90.6466 29.0044C89.3572 30.1813 87.5772 30.7687 85.3089 30.7687H79.0734L79.0756 30.7664Z" fill="#7138DF"/>
<path d="M98.4318 30.7662V15.2325H93.4023V12.019H109.571V15.2325H104.541V30.7662H98.434H98.4318Z" fill="#7138DF"/>
<path d="M111.895 30.7662V12.019H118.002V30.7662H111.895Z" fill="#7138DF"/>
<path d="M111.803 5.98147C111.803 5.09486 112.116 4.33652 112.744 3.70869C113.371 3.08086 114.121 2.76807 114.994 2.76807C115.867 2.76807 116.657 3.07861 117.276 3.69744C117.895 4.31852 118.205 5.07911 118.205 5.97922C118.205 6.87934 117.892 7.62194 117.264 8.24077C116.637 8.86185 115.881 9.17015 114.992 9.17015C114.103 9.17015 113.367 8.85734 112.741 8.22951C112.114 7.60168 111.801 6.85233 111.801 5.97922L111.803 5.98147Z" fill="#EF9F28"/>
</svg>
