<svg width="566" height="8" viewBox="0 0 566 8" fill="none" xmlns="http://www.w3.org/2000/svg">
<path d="M230.304 0.000998718C229.868 0.00595491 229.664 0.0289939 229.828 0.0808011C230.158 0.184305 230.864 0.263941 231.736 0.33316C231.643 0.344006 231.559 0.356558 231.488 0.370763C231.399 0.38868 231.343 0.406852 231.303 0.425288C230.963 0.442861 230.627 0.460794 230.328 0.482111C220.633 0.491736 210.942 0.52405 201.265 0.574238C200.872 0.576259 200.48 0.579538 200.087 0.581757C194.057 0.567774 188.027 0.55559 181.996 0.555852C177.184 0.556119 171.432 0.337855 167.57 0.606617C166.977 0.647898 166.805 0.710417 166.905 0.781053C157.633 0.786809 148.362 0.801472 139.11 0.853334C138.528 0.838167 138.017 0.83374 137.72 0.860648C134.976 0.877145 132.233 0.896053 129.493 0.919977C129.305 0.922402 129.116 0.924533 128.928 0.926869C128.72 0.925333 128.512 0.923999 128.303 0.922483C128.495 0.858309 126.812 0.894771 126.068 0.887179C119.91 0.824256 114.934 0.804075 108.637 0.767894C107.992 0.765307 104.435 0.696439 101.215 0.718592C99.5172 0.671752 97.5983 0.588896 96.9044 0.710862C96.9011 0.711428 96.8988 0.711954 96.8953 0.71252C91.2703 0.655339 85.6478 0.603813 80.0444 0.654235C78.3816 0.669197 76.7436 0.703489 75.1355 0.749705C73.351 0.732407 71.568 0.714548 69.7871 0.694346C68.992 0.685327 66.7542 0.610333 67.4308 0.650475C68.7069 0.726164 69.9737 0.807358 71.2486 0.887374C69.4474 0.962885 67.7017 1.05053 66.0273 1.14433C63.6398 1.1364 58.2142 1.12038 58.037 1.13075C57.957 1.13542 57.8885 1.1414 57.8116 1.14642C56.9087 1.1427 55.6974 1.13759 55.6138 1.13723C54.6516 1.13686 53.4917 1.13359 52.9942 1.16793C52.7428 1.16782 52.4915 1.16749 52.24 1.16729C50.2942 1.17505 47.8754 1.07158 46.4007 1.19068C46.0121 1.22207 45.7218 1.26116 45.5059 1.30496C43.8563 1.27716 42.2713 1.26514 41.0924 1.34548C39.2651 1.35095 37.5578 1.39635 39.9477 1.61999C39.4503 1.65855 39.1291 1.69212 38.9593 1.7211C38.4578 1.72144 37.9568 1.7209 37.4554 1.72131C33.698 1.7243 29.942 1.73081 26.185 1.73635C24.097 1.73946 21.6878 1.64541 19.8971 1.73991C18.8142 1.74104 17.7324 1.74444 16.655 1.75348C17.1584 1.85022 17.4212 1.96698 17.8243 2.07207C17.6069 2.14763 17.3966 2.22384 17.0701 2.29058C17.8399 2.29196 18.6113 2.29115 19.3817 2.29099C19.424 2.29382 19.4558 2.29752 19.5 2.30018C21.3173 2.4094 23.8183 2.30991 25.9775 2.31355C26.728 2.31484 27.4784 2.31561 28.2289 2.3169C30.724 2.33432 33.2128 2.35593 35.7015 2.37978C35.6622 2.38657 35.6311 2.39358 35.5945 2.40046C32.2976 2.43393 28.9666 2.47326 26.0958 2.51286C24.3228 2.53731 22.5006 2.54617 20.7986 2.59872C20.0265 2.62256 18.2963 2.68111 18.8529 2.73659C19.4842 2.79952 20.2192 2.8505 20.9994 2.8962C20.2292 2.89737 19.1958 2.89794 18.6521 2.89955C16.4814 2.90601 14.3208 2.92866 12.1545 2.94322C11.5693 3.10725 8.78591 3.35082 10.3985 3.43519C10.9081 3.46185 11.7164 3.48721 12.661 3.51165C12.6438 3.51444 12.6299 3.51769 12.6119 3.52042C12.7354 3.52024 12.8589 3.52039 12.9823 3.52021C19.1587 3.67128 32.5011 3.77758 41.2441 3.83566C41.1912 3.86276 41.1595 3.88991 41.1504 3.91692C41.0748 3.92293 40.9981 3.9288 40.9251 3.93531C39.647 3.9117 39.5414 3.91625 40.5792 3.96623C40.3194 3.99203 40.0587 4.01784 39.796 4.0431C35.8107 4.03649 31.3918 4.03292 30.5852 4.03203C29.7366 4.18135 27.0316 4.33998 28.0236 4.47992C24.1524 4.47353 20.28 4.47188 16.4141 4.48158C16.8332 4.58795 16.9173 4.7214 17.2018 4.8386C17.1586 4.84802 17.1133 4.85718 17.0701 4.8666C13.7606 4.87898 10.4527 4.89521 7.14967 4.92321C5.50965 4.93711 3.42599 4.87028 2.24302 4.97753C2.17147 4.98401 2.11672 4.99171 2.05113 4.99862C1.78869 5.00085 1.52576 5.00198 1.26349 5.00468C1.62502 5.00751 1.7918 5.00869 1.9485 5.00991C1.89936 5.01551 1.84244 5.02057 1.79676 5.02641C1.18232 5.04511 0.258397 5.09334 0.877465 5.22403C0.623834 5.32247 0.548488 5.42862 0.500387 5.5259C0.477503 5.57203 1.47481 5.54014 1.96189 5.54721C2.54853 5.54345 3.13533 5.54088 3.72241 5.53886C3.7192 5.54039 3.70988 5.54156 3.70902 5.54324C3.32049 6.157 4.40709 6.05769 8.23858 6.05527C10.3657 6.04757 12.48 6.03686 14.5956 6.01349C14.924 6.00985 17.483 5.97472 17.8689 5.97108C18.3931 5.96598 18.9207 5.9638 19.4465 5.96022C19.9214 5.99178 20.4319 6.01717 20.9638 6.03835C20.7419 6.0557 20.6334 6.07477 20.7875 6.09893C21.2424 6.17026 22.1839 6.1502 23.2754 6.10208C24.7358 6.12762 26.2677 6.13289 27.7403 6.13279C27.6917 6.15412 27.6786 6.17608 27.758 6.19943C28.0012 6.27083 28.6326 6.31303 29.4069 6.34316C29.4026 6.40468 29.9771 6.4129 30.9265 6.38682C31.054 6.38977 31.176 6.39356 31.3035 6.39643C31.4615 6.4405 31.6475 6.4827 31.877 6.52198C31.7987 6.56457 31.7221 6.60694 31.6159 6.64649C31.5667 6.66472 32.0188 6.64564 32.2206 6.64524C32.4378 6.64439 32.6549 6.64358 32.8721 6.64273C32.9598 6.65022 33.0379 6.65848 33.1332 6.66529C34.5674 6.76775 36.7384 6.6801 38.5419 6.68451C46.0121 6.70286 46.0001 6.69632 53.6234 6.68973C55.8361 6.68456 58.0493 6.68099 60.2615 6.67428C66.5137 6.65529 72.7597 6.62362 79.0135 6.60805C84.9581 6.59326 90.9524 6.58475 96.8953 6.57504C106.729 6.54792 116.567 6.55357 126.404 6.55144C126.418 6.55156 126.433 6.55173 126.447 6.55184C126.413 6.62964 127.554 6.65102 128.758 6.65463C129.937 6.73493 131.52 6.72273 133.17 6.69495C133.386 6.73881 133.678 6.77779 134.067 6.80922C135.541 6.92832 137.958 6.82485 139.904 6.83262C140.155 6.83243 140.407 6.83232 140.658 6.83221C141.156 6.86647 142.316 6.86308 143.277 6.86271C143.361 6.86235 144.574 6.85723 145.478 6.85352C145.554 6.85854 145.623 6.86451 145.703 6.86919C145.88 6.87956 151.311 6.86374 153.695 6.85582C155.368 6.94953 157.11 7.03732 158.91 7.11277C157.636 7.19275 156.37 7.27382 155.094 7.34946C154.418 7.38961 156.656 7.31461 157.451 7.30559C159.232 7.28539 161.017 7.26753 162.801 7.25023C164.409 7.29644 166.046 7.33074 167.708 7.3457C173.311 7.39612 178.935 7.34457 184.559 7.28742C184.563 7.28807 184.564 7.28867 184.568 7.28932C185.263 7.41139 187.184 7.3282 188.883 7.28138C192.102 7.30345 195.659 7.23466 196.303 7.23208C202.6 7.1959 207.574 7.17592 213.731 7.113C214.476 7.10541 216.162 7.14169 215.969 7.07749C216.177 7.07595 216.384 7.07462 216.592 7.0731C216.78 7.07545 216.968 7.07757 217.156 7.07999C219.379 7.0994 221.603 7.11549 223.828 7.12992C223.83 7.13412 223.831 7.13871 223.832 7.14287C223.848 7.17577 224.223 7.16396 224.734 7.13577C224.95 7.13711 225.167 7.13804 225.383 7.13933C225.517 7.15151 225.694 7.15722 225.901 7.15855C226.507 7.17867 227.207 7.16797 227.922 7.1527C236.794 7.19954 245.68 7.21361 254.569 7.21913C254.469 7.28967 254.643 7.35212 255.236 7.39336C259.097 7.66212 264.85 7.44385 269.661 7.44412C275.691 7.44438 281.718 7.4322 287.746 7.41822C288.141 7.42044 288.534 7.42372 288.929 7.42574C298.604 7.47592 308.296 7.50823 317.989 7.51786C318.29 7.53928 318.628 7.55725 318.969 7.57489C319.008 7.59328 319.065 7.61156 319.154 7.62942C319.224 7.64362 319.308 7.65597 319.402 7.66681C318.529 7.73605 317.821 7.81562 317.492 7.91917C316.833 8.12641 322.084 7.87251 324.38 7.84898C324.768 7.84502 325.695 7.83576 326.234 7.83039C326.465 7.83994 326.705 7.84855 326.924 7.85922C331.947 7.83002 336.968 7.79664 341.987 7.76228C344.979 7.8985 348.689 7.72367 352.028 7.70086C365.547 7.6085 371.929 7.54962 382.124 7.4554C382.629 7.45762 383.134 7.46051 383.639 7.46167C384.968 7.46474 386.732 7.54903 387.627 7.45707C387.691 7.45041 387.736 7.44477 387.798 7.43827C388.278 7.43673 388.65 7.42494 388.827 7.39419C389.393 7.38902 389.54 7.38772 390.137 7.38228C394.257 7.3316 398.663 7.3717 402.666 7.28409C405.064 7.30346 407.467 7.32221 409.003 7.19489C411.589 7.19057 414.175 7.18973 416.763 7.20032C418.186 7.20351 419.61 7.20804 421.034 7.21202C421.098 7.21489 421.159 7.21821 421.23 7.22017C421.631 7.23117 422.033 7.23978 422.437 7.24732C422.521 7.25323 422.605 7.25844 422.692 7.2632C422.679 7.26835 422.679 7.27406 422.666 7.27908C422.771 7.27823 422.876 7.27722 422.981 7.27637C423.759 7.30736 424.658 7.30019 425.6 7.27993C427.834 7.32261 430.176 7.28533 432.522 7.24358C439.012 7.26003 445.503 7.26856 451.994 7.24422C458.458 7.21985 458.13 7.22469 464.296 7.18845C464.939 7.18465 465.583 7.18081 466.226 7.17696C466.607 7.17946 466.987 7.18323 467.368 7.18552C473.257 7.22904 479.134 7.18011 485.016 7.15941C491.146 7.13908 497.282 7.14622 503.404 7.10781C503.382 7.10135 503.378 7.09621 503.378 7.09131C503.958 7.10275 504.563 7.11749 504.851 7.0865C505.498 7.10494 506.134 7.122 506.181 7.08379C506.26 7.01864 506.332 6.95046 506.372 6.88241C507.328 6.86821 508.281 6.85576 509.226 6.84982C513.563 6.82257 517.901 6.797 522.23 6.76062C525.138 6.73616 528.055 6.71458 530.93 6.66723C531.795 6.653 533.952 6.63964 533.382 6.57699C532.27 6.45468 530.854 6.36384 529.37 6.27972C530.052 6.21524 530.714 6.14909 531.318 6.07833C532.065 6.06643 532.62 6.03962 532.648 5.97513C532.65 5.97165 532.647 5.96855 532.648 5.9651C532.917 5.96353 533.168 5.96276 533.438 5.96114C535.554 5.94845 537.849 5.99732 539.777 5.91477C540.06 5.90268 540.395 5.88322 540.732 5.86066C542.522 5.86183 544.861 5.87022 546.723 5.82222C547.955 5.8408 549.467 5.88761 549.689 5.79444C549.801 5.74748 549.865 5.70527 549.903 5.66533C550.237 5.65992 550.592 5.65529 550.963 5.65113C551.806 5.67494 552.59 5.69013 552.839 5.62857C552.842 5.62796 552.844 5.62748 552.848 5.62691C555.431 5.58746 557.353 5.495 553.455 5.07226C552.622 4.98197 550.92 5.04637 549.648 5.03926C547.724 5.02846 545.796 5.02496 543.869 5.01857C542.589 5.01433 541.179 4.96485 539.911 4.9651C539.825 4.94148 539.401 4.94787 538.969 4.95528C537.756 4.9052 536.588 4.85936 535.479 4.81949C537.251 4.73537 539.142 4.63724 541.214 4.52075C542.366 4.45598 538.531 4.50681 537.189 4.49986C534.836 4.50934 532.482 4.517 530.129 4.52514C530.042 4.50726 529.95 4.48954 529.852 4.47208C535.155 4.42931 540.459 4.3878 545.761 4.34381C546.942 4.3094 550.331 4.30483 549.302 4.24061C547.215 4.11034 545.261 4.00583 543.383 3.91931C544.807 3.85455 546.321 3.78296 548.044 3.69724C548.914 3.65396 546.074 3.70464 545.09 3.70832C542.989 3.71792 540.891 3.72933 538.791 3.73944C537.314 3.69288 535.868 3.65917 534.428 3.63332C534.154 3.57542 533.739 3.51837 533.244 3.47037C535.367 3.45708 537.457 3.43361 539.444 3.37887C541.369 3.39595 543.336 3.41587 544.173 3.28069C544.65 3.20348 544.463 3.10147 543.947 3.00702C544.059 2.96347 544.098 2.91994 544.081 2.87792C548.757 2.85745 554.035 2.80041 558.207 2.63057C559.072 2.6255 559.938 2.62085 560.802 2.61574C562.334 2.6003 566.176 2.69371 565.397 2.56936C564.765 2.46858 563.981 2.3849 563.087 2.3145C563.927 2.22571 564.591 2.12395 565.009 2.00553C565.5 1.8661 561.874 1.9941 560.307 1.9884C558.07 1.99335 555.834 2.00068 553.598 2.00636C550.957 1.98747 548.193 2.0007 545.529 2.02788C544.013 2.03232 542.497 2.03564 540.982 2.04042C541.289 1.9318 541.369 1.81174 541.586 1.70303C541.658 1.66695 540.613 1.70025 539.81 1.72079C539.76 1.71314 539.723 1.70496 539.665 1.69761C539.33 1.65471 538.749 1.65512 538.119 1.66481C534.346 1.63073 530.574 1.59182 526.797 1.5614C526.758 1.51096 526.725 1.46054 526.719 1.41036C525.708 1.40021 524.699 1.3873 523.684 1.37986C521.511 1.36401 513.769 1.32641 512.012 1.3174C503.523 1.27384 495.042 1.2392 486.544 1.21482C480.587 1.20494 474.627 1.19438 468.667 1.19122C470.208 1.17142 471.751 1.15298 473.297 1.13753C475.945 1.09773 479.9 1.10297 476.573 0.687339C476.734 0.593972 476.243 0.564283 475.468 0.561787C475.406 0.555258 475.359 0.549675 475.294 0.542984C474.399 0.451028 472.637 0.535526 471.309 0.538598C469.447 0.542884 467.588 0.556107 465.728 0.564919C463.715 0.57737 461.697 0.58683 459.686 0.602313C452.487 0.657806 454.741 0.659652 447.583 0.710944C445.05 0.729095 442.512 0.74016 439.977 0.756068C432.115 0.805379 430.252 0.82057 422.365 0.877024C421.066 0.885918 419.766 0.894561 418.467 0.903556C418.307 0.883407 417.789 0.896942 417.258 0.911912C417.232 0.912102 417.202 0.912139 417.175 0.912316C416.882 0.882995 416.286 0.897472 415.713 0.908759C415.716 0.903859 415.722 0.898717 415.739 0.892257C409.618 0.853848 403.482 0.861202 397.351 0.840866C391.47 0.820168 385.592 0.771021 379.704 0.814545C379.323 0.816849 378.944 0.820601 378.564 0.823111C377.92 0.819271 377.277 0.815402 376.633 0.811622C370.467 0.775381 370.795 0.780219 364.332 0.755844C357.84 0.731483 351.348 0.740013 344.857 0.756451C342.512 0.714718 340.171 0.677468 337.938 0.7201C336.994 0.69979 336.093 0.692663 335.314 0.723859C335.21 0.72301 335.106 0.722 335.002 0.721151C335.015 0.726176 335.019 0.731876 335.028 0.737026C334.942 0.741711 334.858 0.746894 334.775 0.752695C334.37 0.760242 333.967 0.769056 333.566 0.780064C333.494 0.782044 333.434 0.785347 333.37 0.788209C331.947 0.792171 330.524 0.796719 329.101 0.799908C326.514 0.810496 323.927 0.809449 321.341 0.805131C319.806 0.677838 317.405 0.696789 315.008 0.716137C311.004 0.628369 306.594 0.668449 302.473 0.617743C284.948 0.458195 281.442 0.415838 264.364 0.299161C261.024 0.276349 257.315 0.101521 254.323 0.237952C249.304 0.203599 244.285 0.170217 239.262 0.141019C239.043 0.151684 238.803 0.160298 238.572 0.169847C238.033 0.164478 237.106 0.155233 236.718 0.151255C234.996 0.133601 231.612 -0.0138187 230.305 0.00105192L230.304 0.000998718ZM529.007 6.08872C528.606 6.09192 528.204 6.09448 527.803 6.09749C527.811 6.09669 527.824 6.096 527.833 6.09519C528.179 6.09042 528.583 6.08912 529.009 6.08871L529.007 6.08872Z" fill="#FFC107"/>
</svg>
