<svg width="32" height="32" viewBox="0 0 32 32" fill="none" xmlns="http://www.w3.org/2000/svg">
<circle cx="16" cy="16" r="16" fill="#007AB6"/>
<path d="M19.8315 10.85C19.2619 10.1997 18.9479 9.36453 18.9482 8.5H16.3732V18.8333C16.3533 19.3925 16.1172 19.9222 15.7146 20.3108C15.3121 20.6994 14.7744 20.9166 14.2148 20.9167C13.0315 20.9167 12.0482 19.95 12.0482 18.75C12.0482 17.3167 13.4315 16.2417 14.8565 16.6833V14.05C11.9815 13.6667 9.46484 15.9 9.46484 18.75C9.46484 21.525 11.7648 23.5 14.2065 23.5C16.8232 23.5 18.9482 21.375 18.9482 18.75V13.5083C19.9923 14.2582 21.246 14.6605 22.5315 14.6583V12.0833C22.5315 12.0833 20.9648 12.1583 19.8315 10.85Z" fill="white"/>
</svg>
