<svg width="32" height="32" viewBox="0 0 32 32" fill="none" xmlns="http://www.w3.org/2000/svg">
<circle cx="16" cy="16" r="16" fill="#007AB6"/>
<path d="M21.8737 10.0916C21.1097 9.31982 20.1997 8.70794 19.1967 8.2916C18.1938 7.87525 17.118 7.66277 16.032 7.66655C11.482 7.66655 7.7737 11.3749 7.7737 15.9249C7.7737 17.3832 8.15703 18.7999 8.8737 20.0499L7.70703 24.3332L12.082 23.1832C13.2904 23.8416 14.6487 24.1916 16.032 24.1916C20.582 24.1916 24.2904 20.4832 24.2904 15.9332C24.2904 13.7249 23.432 11.6499 21.8737 10.0916ZM16.032 22.7916C14.7987 22.7916 13.5904 22.4582 12.532 21.8332L12.282 21.6832L9.68203 22.3666L10.3737 19.8332L10.207 19.5749C9.52182 18.4807 9.15798 17.2159 9.15703 15.9249C9.15703 12.1416 12.2404 9.05822 16.0237 9.05822C17.857 9.05822 19.582 9.77489 20.8737 11.0749C21.5133 11.7115 22.0201 12.4688 22.3649 13.3027C22.7096 14.1367 22.8854 15.0308 22.882 15.9332C22.8987 19.7166 19.8154 22.7916 16.032 22.7916ZM19.7987 17.6582C19.5904 17.5582 18.5737 17.0582 18.3904 16.9832C18.1987 16.9166 18.0654 16.8832 17.9237 17.0832C17.782 17.2916 17.3904 17.7582 17.2737 17.8916C17.157 18.0332 17.032 18.0499 16.8237 17.9416C16.6154 17.8416 15.9487 17.6166 15.1654 16.9166C14.5487 16.3666 14.1404 15.6916 14.0154 15.4832C13.8987 15.2749 13.9987 15.1666 14.107 15.0582C14.1987 14.9666 14.3154 14.8166 14.4154 14.6999C14.5154 14.5832 14.557 14.4916 14.6237 14.3582C14.6904 14.2166 14.657 14.0999 14.607 13.9999C14.557 13.8999 14.1404 12.8832 13.9737 12.4666C13.807 12.0666 13.632 12.1166 13.507 12.1082H13.107C12.9654 12.1082 12.7487 12.1582 12.557 12.3666C12.3737 12.5749 11.8404 13.0749 11.8404 14.0916C11.8404 15.1082 12.582 16.0916 12.682 16.2249C12.782 16.3666 14.1404 18.4499 16.207 19.3416C16.6987 19.5582 17.082 19.6832 17.382 19.7749C17.8737 19.9332 18.3237 19.9082 18.682 19.8582C19.082 19.7999 19.907 19.3582 20.0737 18.8749C20.2487 18.3916 20.2487 17.9832 20.1904 17.8916C20.132 17.7999 20.007 17.7582 19.7987 17.6582Z" fill="white"/>
</svg>
