<svg width="32" height="32" viewBox="0 0 32 32" fill="none" xmlns="http://www.w3.org/2000/svg">
<circle cx="16" cy="16" r="16" fill="#007AB6"/>
<path d="M12.5013 7.6665H19.5013C22.168 7.6665 24.3346 9.83317 24.3346 12.4998V19.4998C24.3346 20.7817 23.8254 22.0111 22.919 22.9175C22.0126 23.8239 20.7832 24.3332 19.5013 24.3332H12.5013C9.83464 24.3332 7.66797 22.1665 7.66797 19.4998V12.4998C7.66797 11.218 8.17719 9.98858 9.08362 9.08215C9.99005 8.17573 11.2194 7.6665 12.5013 7.6665ZM12.3346 9.33317C11.539 9.33317 10.7759 9.64924 10.2133 10.2119C9.65071 10.7745 9.33464 11.5375 9.33464 12.3332V19.6665C9.33464 21.3248 10.6763 22.6665 12.3346 22.6665H19.668C20.4636 22.6665 21.2267 22.3504 21.7893 21.7878C22.3519 21.2252 22.668 20.4622 22.668 19.6665V12.3332C22.668 10.6748 21.3263 9.33317 19.668 9.33317H12.3346ZM20.3763 10.5832C20.6526 10.5832 20.9175 10.6929 21.1129 10.8883C21.3082 11.0836 21.418 11.3486 21.418 11.6248C21.418 11.9011 21.3082 12.1661 21.1129 12.3614C20.9175 12.5568 20.6526 12.6665 20.3763 12.6665C20.1 12.6665 19.8351 12.5568 19.6397 12.3614C19.4444 12.1661 19.3346 11.9011 19.3346 11.6248C19.3346 11.3486 19.4444 11.0836 19.6397 10.8883C19.8351 10.6929 20.1 10.5832 20.3763 10.5832ZM16.0013 11.8332C17.1064 11.8332 18.1662 12.2722 18.9476 13.0536C19.729 13.835 20.168 14.8948 20.168 15.9998C20.168 17.1049 19.729 18.1647 18.9476 18.9461C18.1662 19.7275 17.1064 20.1665 16.0013 20.1665C14.8962 20.1665 13.8364 19.7275 13.055 18.9461C12.2736 18.1647 11.8346 17.1049 11.8346 15.9998C11.8346 14.8948 12.2736 13.835 13.055 13.0536C13.8364 12.2722 14.8962 11.8332 16.0013 11.8332ZM16.0013 13.4998C15.3383 13.4998 14.7024 13.7632 14.2335 14.2321C13.7647 14.7009 13.5013 15.3368 13.5013 15.9998C13.5013 16.6629 13.7647 17.2988 14.2335 17.7676C14.7024 18.2364 15.3383 18.4998 16.0013 18.4998C16.6643 18.4998 17.3002 18.2364 17.7691 17.7676C18.2379 17.2988 18.5013 16.6629 18.5013 15.9998C18.5013 15.3368 18.2379 14.7009 17.7691 14.2321C17.3002 13.7632 16.6643 13.4998 16.0013 13.4998Z" fill="white"/>
</svg>
