<svg width="32" height="32" viewBox="0 0 32 32" fill="none" xmlns="http://www.w3.org/2000/svg">
<circle cx="16" cy="16" r="16" fill="#007AB6"/>
<path d="M10.1515 11.9977C11.1585 11.9977 11.9748 11.1814 11.9748 10.1744C11.9748 9.16741 11.1585 8.35107 10.1515 8.35107C9.14446 8.35107 8.32812 9.16741 8.32812 10.1744C8.32812 11.1814 9.14446 11.9977 10.1515 11.9977Z" fill="white"/>
<path d="M13.6965 13.3794V23.4952H16.8373V18.4927C16.8373 17.1727 17.0856 15.8944 18.7223 15.8944C20.3365 15.8944 20.3565 17.4036 20.3565 18.5761V23.4961H23.499V17.9486C23.499 15.2236 22.9123 13.1294 19.7273 13.1294C18.1981 13.1294 17.1731 13.9686 16.754 14.7627H16.7115V13.3794H13.6965ZM8.57812 13.3794H11.724V23.4952H8.57812V13.3794Z" fill="white"/>
</svg>
