<svg width="97" height="109" viewBox="0 0 97 109" fill="none" xmlns="http://www.w3.org/2000/svg">
<path opacity="0.797991" fill-rule="evenodd" clip-rule="evenodd" d="M59.9311 104H59.9176C59.34 104 58.8336 104.229 58.4118 104.558C58.3305 104.623 58.2289 104.66 58.1561 104.733C57.7512 105.14 57.5175 105.697 57.4667 106.304C57.4616 106.372 57.4277 106.431 57.4277 106.501C57.4277 106.81 57.5006 107.098 57.6039 107.37C57.6378 107.458 57.6801 107.534 57.7225 107.617C57.8139 107.795 57.924 107.96 58.0561 108.111C58.1205 108.186 58.1781 108.262 58.2509 108.328C58.4508 108.51 58.671 108.669 58.9216 108.779H58.9233C59.2333 108.917 59.572 109 59.9311 109C61.0439 109 61.9535 108.26 62.277 107.251C62.3634 107.02 62.4227 106.779 62.4243 106.514C62.4243 106.509 62.4277 106.506 62.4277 106.501C62.4277 105.118 61.3098 104 59.9311 104ZM94.8576 74.1883C94.6154 74.0865 94.3461 74.0475 94.07 74.0288C94.0209 74.0271 93.9819 74 93.9311 74H93.9176C92.5388 74 91.4277 75.1194 91.4277 76.5017C91.4277 76.8375 91.4989 77.1547 91.6191 77.443C91.7038 77.6499 91.8427 77.8161 91.9731 77.9908C92.0273 78.057 92.0578 78.1384 92.1154 78.1995C92.5304 78.6404 93.1029 78.9118 93.7431 78.9627C93.7465 78.9627 93.7499 78.9644 93.7533 78.9661V78.9644C93.8143 78.9695 93.8685 79 93.9311 79C95.3098 79 96.4277 77.8806 96.4277 76.5017C96.4277 75.4501 95.7756 74.558 94.8576 74.1883ZM8.93112 30H8.91757C7.53885 30 6.42773 31.1194 6.42773 32.5C6.42773 33.8789 7.55239 35 8.93112 35C10.3082 35 11.4277 33.8789 11.4277 32.5C11.4277 31.1194 10.3082 30 8.93112 30ZM8.93112 89H8.91757C7.53885 89 6.42773 90.1181 6.42773 91.5008C6.42773 92.8802 7.55239 94 8.93112 94C10.3082 94 11.4277 92.8802 11.4277 91.5008C11.4277 90.1181 10.3082 89 8.93112 89ZM25.9311 50C27.3098 50 28.4277 48.8789 28.4277 47.5C28.4277 46.1177 27.3098 45 25.9311 45H25.9193C24.5388 45 23.4277 46.1177 23.4277 47.5C23.4277 48.8789 24.5524 50 25.9311 50ZM8.93112 15H8.91757C7.53885 15 6.42773 16.1194 6.42773 17.5C6.42773 18.8806 7.55239 20 8.93112 20C10.3082 20 11.4277 18.8806 11.4277 17.5C11.4277 16.1194 10.3082 15 8.93112 15ZM8.93112 59H8.91757C7.53885 59 6.42773 60.1194 6.42773 61.5C6.42773 62.8806 7.55239 64 8.93112 64C10.3082 64 11.4277 62.8806 11.4277 61.5C11.4277 60.1194 10.3082 59 8.93112 59ZM8.93112 74H8.91757C7.53885 74 6.42773 75.1194 6.42773 76.5017C6.42773 77.8806 7.55239 79 8.93112 79C10.3082 79 11.4277 77.8806 11.4277 76.5017C11.4277 75.1194 10.3082 74 8.93112 74ZM25.9311 20C27.3098 20 28.4277 18.8806 28.4277 17.5C28.4277 16.1194 27.3098 15 25.9311 15H25.9193C24.5388 15 23.4277 16.1194 23.4277 17.5C23.4277 18.8806 24.5524 20 25.9311 20ZM25.9311 35C27.3098 35 28.4277 33.8789 28.4277 32.5C28.4277 31.1194 27.3098 30 25.9311 30H25.9193C24.5388 30 23.4277 31.1194 23.4277 32.5C23.4277 33.8789 24.5524 35 25.9311 35ZM25.9311 5C27.3098 5 28.4277 3.8806 28.4277 2.5C28.4277 1.1194 27.3098 0 25.9311 0H25.9193C24.5388 0 23.4277 1.1194 23.4277 2.5C23.4277 3.8806 24.5524 5 25.9311 5ZM8.93112 45H8.91757C7.53885 45 6.42773 46.1177 6.42773 47.5C6.42773 48.8789 7.55239 50 8.93112 50C10.3082 50 11.4277 48.8789 11.4277 47.5C11.4277 46.1177 10.3082 45 8.93112 45ZM-8.06718 59H-8.08243C-9.46115 59 -10.5723 60.1194 -10.5723 61.5C-10.5723 62.8806 -9.44591 64 -8.06718 64C-6.68846 64 -5.57227 62.8806 -5.57227 61.5C-5.57227 60.1194 -6.68846 59 -8.06718 59ZM-8.06718 45H-8.08243C-9.46115 45 -10.5723 46.1177 -10.5723 47.5C-10.5723 48.8789 -9.44591 50 -8.06718 50C-6.68846 50 -5.57227 48.8789 -5.57227 47.5C-5.57227 46.1177 -6.68846 45 -8.06718 45ZM-8.06803 74H-8.08328C-8.39673 74 -8.68985 74.0712 -8.96264 74.1798C-9.10158 74.2324 -9.21679 74.3172 -9.34217 74.3935C-9.44722 74.4596 -9.55397 74.519 -9.64885 74.6021C-9.8132 74.7361 -9.94197 74.8921 -10.0674 75.0651C-10.0911 75.1007 -10.1148 75.133 -10.1385 75.172C-10.2741 75.3823 -10.374 75.6028 -10.4418 75.8504L-10.4435 75.8521V75.8538C-10.5011 76.0641 -10.5723 76.271 -10.5723 76.5017C-10.5723 77.4854 -9.98772 78.3182 -9.15919 78.7252V78.7269H-9.15749C-8.82709 78.8881 -8.47128 78.9949 -8.08158 78.9966C-8.0765 78.9966 -8.07311 79 -8.06803 79C-6.68884 79 -5.57227 77.8806 -5.57227 76.5017C-5.57227 76.1557 -5.64173 75.8267 -5.76881 75.5282C-6.14665 74.6309 -7.03448 74 -8.06803 74ZM76.9311 45H76.9176C75.5388 45 74.4277 46.1177 74.4277 47.5C74.4277 48.8789 75.5524 50 76.9311 50C78.3098 50 79.4277 48.8789 79.4277 47.5C79.4277 46.1177 78.3098 45 76.9311 45ZM-8.06803 30H-8.08328C-8.36793 30 -8.63055 30.0628 -8.87792 30.1611C-9.10327 30.2391 -9.29982 30.3562 -9.48958 30.4919C-9.49128 30.4919 -9.49128 30.4919 -9.49297 30.4936C-10.1317 30.9464 -10.5723 31.6554 -10.5723 32.5C-10.5723 32.6069 -10.5248 32.6967 -10.5113 32.8019H-10.513C-10.513 32.8053 -10.5113 32.807 -10.5096 32.8087C-10.4316 33.4176 -10.1588 33.9552 -9.7234 34.3453C-9.6641 34.3996 -9.58955 34.4301 -9.52686 34.4776C-9.35573 34.6031 -9.19138 34.7337 -8.98975 34.8134C-8.7068 34.9305 -8.39843 35 -8.06803 35C-7.03448 35 -6.14665 34.3708 -5.76881 33.4718C-5.64173 33.1733 -5.57227 32.8443 -5.57227 32.5C-5.57227 32.1557 -5.64173 31.8267 -5.76881 31.5282C-6.14665 30.6292 -7.03448 30 -8.06803 30ZM76.9311 59H76.9176C75.5388 59 74.4277 60.1194 74.4277 61.5C74.4277 62.8806 75.5524 64 76.9311 64C78.3098 64 79.4277 62.8806 79.4277 61.5C79.4277 60.1194 78.3098 59 76.9311 59ZM76.9311 30H76.9176C75.5388 30 74.4277 31.1194 74.4277 32.5C74.4277 33.8789 75.5524 35 76.9311 35C78.3098 35 79.4277 33.8789 79.4277 32.5C79.4277 31.1194 78.3098 30 76.9311 30ZM76.9311 89H76.9176C75.5388 89 74.4277 90.1181 74.4277 91.5008C74.4277 92.8802 75.5524 94 76.9311 94C78.3098 94 79.4277 92.8802 79.4277 91.5008C79.4277 90.1181 78.3098 89 76.9311 89ZM76.9311 74H76.9176C75.5388 74 74.4277 75.1194 74.4277 76.5017C74.4277 77.8806 75.5524 79 76.9311 79C78.3098 79 79.4277 77.8806 79.4277 76.5017C79.4277 75.1194 78.3098 74 76.9311 74ZM59.932 5C61.3102 5 62.4277 3.8806 62.4277 2.5C62.4277 2.5 62.426 2.4983 62.426 2.49661C62.426 2.09125 62.3075 1.7232 62.1348 1.38399C62.1179 1.35176 62.0959 1.32802 62.0772 1.29749C61.8961 0.976934 61.6489 0.710651 61.3492 0.496947H61.3475C60.9394 0.20692 60.4687 0 59.932 0H59.9184C58.5402 0 57.4277 1.1194 57.4277 2.5C57.4277 3.8806 58.5537 5 59.932 5ZM76.9311 15H76.9176C75.5388 15 74.4277 16.1194 74.4277 17.5C74.4277 18.8806 75.5524 20 76.9311 20C78.3098 20 79.4277 18.8806 79.4277 17.5C79.4277 16.1194 78.3098 15 76.9311 15ZM59.9311 30H59.9176C58.5388 30 57.4277 31.1194 57.4277 32.5C57.4277 33.8789 58.5524 35 59.9311 35C61.3098 35 62.4277 33.8789 62.4277 32.5C62.4277 31.1194 61.3098 30 59.9311 30ZM59.9311 74H59.9176C58.5388 74 57.4277 75.1194 57.4277 76.5017C57.4277 77.8806 58.5524 79 59.9311 79C61.3098 79 62.4277 77.8806 62.4277 76.5017C62.4277 75.1194 61.3098 74 59.9311 74ZM59.9311 59H59.9176C58.5388 59 57.4277 60.1194 57.4277 61.5C57.4277 62.8806 58.5524 64 59.9311 64C61.3098 64 62.4277 62.8806 62.4277 61.5C62.4277 60.1194 61.3098 59 59.9311 59ZM59.9311 45H59.9176C58.5388 45 57.4277 46.1177 57.4277 47.5C57.4277 48.8789 58.5524 50 59.9311 50C61.3098 50 62.4277 48.8789 62.4277 47.5C62.4277 46.1177 61.3098 45 59.9311 45ZM59.9311 89H59.9176C58.5388 89 57.4277 90.1181 57.4277 91.5008C57.4277 92.8802 58.5524 94 59.9311 94C61.3098 94 62.4277 92.8802 62.4277 91.5008C62.4277 90.1181 61.3098 89 59.9311 89ZM25.9311 64C27.3098 64 28.4277 62.8806 28.4277 61.5C28.4277 60.1194 27.3098 59 25.9311 59H25.9193C24.5388 59 23.4277 60.1194 23.4277 61.5C23.4277 62.8806 24.5524 64 25.9311 64ZM27.696 104.733C27.6215 104.658 27.5199 104.621 27.4369 104.558C27.0151 104.229 26.5087 104 25.9311 104H25.9176C24.5388 104 23.4277 105.118 23.4277 106.501C23.4277 107.18 23.7038 107.79 24.1442 108.242C24.1459 108.243 24.1459 108.245 24.1476 108.245C24.6015 108.71 25.2316 109 25.9311 109C26.0632 109 26.1767 108.946 26.3037 108.925C26.3054 108.925 26.3071 108.924 26.3088 108.924C26.8983 108.832 27.4132 108.561 27.7875 108.131C27.8485 108.065 27.884 107.984 27.9365 107.911C28.05 107.75 28.1703 107.597 28.2448 107.412C28.3566 107.135 28.4227 106.833 28.4243 106.511C28.4243 106.508 28.4277 106.506 28.4277 106.501C28.4277 105.866 28.172 105.303 27.7841 104.862C27.7485 104.821 27.7333 104.769 27.696 104.733ZM92.9577 34.8033C93.2576 34.9305 93.5863 35 93.932 35C94.2963 35 94.6368 34.9135 94.9486 34.7728C94.9587 34.7677 94.9655 34.7592 94.9757 34.7542C95.2807 34.6117 95.5433 34.4117 95.7652 34.1641C96.1685 33.7216 96.4277 33.1451 96.4277 32.5008C96.4277 31.1207 95.3095 30 93.932 30H93.9184C92.5392 30 91.4277 31.1207 91.4277 32.5008C91.4277 33.5351 92.0597 34.4235 92.9577 34.8033ZM93.932 50C95.3095 50 96.4277 48.8789 96.4277 47.5C96.4277 46.1177 95.3095 45 93.932 45H93.9184C92.5392 45 91.4277 46.1177 91.4277 47.5C91.4277 48.8789 92.5511 50 93.932 50ZM93.932 64C95.3095 64 96.4277 62.8806 96.4277 61.5C96.4277 60.1194 95.3095 59 93.932 59H93.9184C92.5392 59 91.4277 60.1194 91.4277 61.5C91.4277 62.8806 92.5511 64 93.932 64ZM42.9311 30H42.9193C41.5405 30 40.4277 31.1194 40.4277 32.5C40.4277 33.8789 41.5524 35 42.9311 35C44.3098 35 45.4277 33.8789 45.4277 32.5C45.4277 31.1194 44.3098 30 42.9311 30ZM42.9311 15H42.9193C41.5405 15 40.4277 16.1194 40.4277 17.5C40.4277 18.8806 41.5524 20 42.9311 20C44.3098 20 45.4277 18.8806 45.4277 17.5C45.4277 16.1194 44.3098 15 42.9311 15ZM42.9311 0H42.9193C41.5405 0 40.4277 1.1194 40.4277 2.5C40.4277 3.8806 41.5524 5 42.9311 5C44.3098 5 45.4277 3.8806 45.4277 2.5C45.4277 1.1194 44.3098 0 42.9311 0ZM25.9311 94C27.3098 94 28.4277 92.8802 28.4277 91.5008C28.4277 90.1181 27.3098 89 25.9311 89H25.9193C24.5388 89 23.4277 90.1181 23.4277 91.5008C23.4277 92.8802 24.5524 94 25.9311 94ZM25.9311 79C27.3098 79 28.4277 77.8806 28.4277 76.5017C28.4277 75.1194 27.3098 74 25.9311 74H25.9193C24.5388 74 23.4277 75.1194 23.4277 76.5017C23.4277 77.8806 24.5524 79 25.9311 79ZM42.9311 45H42.9193C41.5405 45 40.4277 46.1177 40.4277 47.5C40.4277 48.8789 41.5524 50 42.9311 50C44.3098 50 45.4277 48.8789 45.4277 47.5C45.4277 46.1177 44.3098 45 42.9311 45ZM59.9311 15H59.9176C58.5388 15 57.4277 16.1194 57.4277 17.5C57.4277 18.8806 58.5524 20 59.9311 20C61.3098 20 62.4277 18.8806 62.4277 17.5C62.4277 16.1194 61.3098 15 59.9311 15ZM42.9311 89H42.9193C41.5405 89 40.4277 90.1181 40.4277 91.5008C40.4277 92.8802 41.5524 94 42.9311 94C44.3098 94 45.4277 92.8802 45.4277 91.5008C45.4277 90.1181 44.3098 89 42.9311 89ZM42.9311 104H42.9193C41.5405 104 40.4277 105.12 40.4277 106.501C40.4277 107.882 41.5524 109 42.9311 109C44.3098 109 45.4277 107.882 45.4277 106.501C45.4277 105.12 44.3098 104 42.9311 104ZM42.9311 74H42.9193C41.5405 74 40.4277 75.1194 40.4277 76.5017C40.4277 77.8806 41.5524 79 42.9311 79C44.3098 79 45.4277 77.8806 45.4277 76.5017C45.4277 75.1194 44.3098 74 42.9311 74ZM42.9311 59H42.9193C41.5405 59 40.4277 60.1194 40.4277 61.5C40.4277 62.8806 41.5524 64 42.9311 64C44.3098 64 45.4277 62.8806 45.4277 61.5C45.4277 60.1194 44.3098 59 42.9311 59Z" fill="#007AB6"/>
</svg>
