<svg width="80" height="80" viewBox="0 0 80 80" fill="none" xmlns="http://www.w3.org/2000/svg">
<path d="M27 14C24.6131 14 22.3239 14.9482 20.636 16.636C18.9482 18.3239 18 20.6131 18 23C18 25.3869 18.9482 27.6761 20.636 29.364C22.3239 31.0518 24.6131 32 27 32C29.3869 32 31.6761 31.0518 33.364 29.364C35.0518 27.6761 36 25.3869 36 23C36 20.6131 35.0518 18.3239 33.364 16.636C31.6761 14.9482 29.3869 14 27 14ZM14 23C14 19.5522 15.3696 16.2456 17.8076 13.8076C20.2456 11.3696 23.5522 10 27 10C30.4478 10 33.7544 11.3696 36.1924 13.8076C38.6304 16.2456 40 19.5522 40 23C40 26.4478 38.6304 29.7544 36.1924 32.1924C33.7544 34.6304 30.4478 36 27 36C23.5522 36 20.2456 34.6304 17.8076 32.1924C15.3696 29.7544 14 26.4478 14 23ZM14 40C11.8783 40 9.84344 40.8429 8.34315 42.3431C6.84285 43.8434 6 45.8783 6 48V48.336C6.00576 48.5699 6.02177 48.8035 6.048 49.036C6.3315 51.6283 7.25221 54.1101 8.728 56.26C11.532 60.32 16.948 64 27 64C30.784 64 33.908 63.48 36.484 62.612C36.2013 61.292 36.0413 59.932 36.004 58.532C33.748 59.42 30.816 60 27 60C18.052 60 13.968 56.804 12.02 53.988C10.929 52.3963 10.2451 50.5614 10.028 48.644L10.004 48.312L10 48.244V48C10 46.9391 10.4214 45.9217 11.1716 45.1716C11.9217 44.4214 12.9391 44 14 44H40C40.3227 44 40.636 44.0373 40.94 44.112C41.8467 42.992 42.8573 41.972 43.972 41.052C42.7622 40.3615 41.393 39.9989 40 40H14ZM58 20C56.4087 20 54.8826 20.6321 53.7574 21.7574C52.6321 22.8826 52 24.4087 52 26C52 27.5913 52.6321 29.1174 53.7574 30.2426C54.8826 31.3679 56.4087 32 58 32C59.5913 32 61.1174 31.3679 62.2426 30.2426C63.3679 29.1174 64 27.5913 64 26C64 24.4087 63.3679 22.8826 62.2426 21.7574C61.1174 20.6321 59.5913 20 58 20ZM48 26C48 23.3478 49.0536 20.8043 50.9289 18.9289C52.8043 17.0536 55.3478 16 58 16C60.6522 16 63.1957 17.0536 65.0711 18.9289C66.9464 20.8043 68 23.3478 68 26C68 28.6522 66.9464 31.1957 65.0711 33.0711C63.1957 34.9464 60.6522 36 58 36C55.3478 36 52.8043 34.9464 50.9289 33.0711C49.0536 31.1957 48 28.6522 48 26ZM58 76C61.9488 75.9988 65.7876 74.6991 68.925 72.3011C72.0623 69.9032 74.3241 66.5401 75.3618 62.7301C76.3994 58.9201 76.1554 54.8745 74.6674 51.2169C73.1793 47.5592 70.5297 44.4923 67.1269 42.4888C63.7241 40.4853 59.7569 39.6564 55.8366 40.1298C51.9163 40.6032 48.2604 42.3526 45.4323 45.1084C42.6041 47.8643 40.7607 51.4736 40.186 55.3804C39.6113 59.2871 40.3373 63.2745 42.252 66.728L40.076 73.884C39.9916 74.1673 39.9853 74.4681 40.0579 74.7547C40.1304 75.0413 40.279 75.3029 40.4881 75.5119C40.6971 75.721 40.9587 75.8696 41.2453 75.9421C41.5319 76.0147 41.8327 76.0084 42.116 75.924L49.276 73.748C51.9461 75.2261 54.9481 76.001 58 76ZM48 54C48 53.4696 48.2107 52.9609 48.5858 52.5858C48.9609 52.2107 49.4696 52 50 52H66C66.5304 52 67.0391 52.2107 67.4142 52.5858C67.7893 52.9609 68 53.4696 68 54C68 54.5304 67.7893 55.0391 67.4142 55.4142C67.0391 55.7893 66.5304 56 66 56H50C49.4696 56 48.9609 55.7893 48.5858 55.4142C48.2107 55.0391 48 54.5304 48 54ZM50 64C49.4696 64 48.9609 63.7893 48.5858 63.4142C48.2107 63.0391 48 62.5304 48 62C48 61.4696 48.2107 60.9609 48.5858 60.5858C48.9609 60.2107 49.4696 60 50 60H58C58.5304 60 59.0391 60.2107 59.4142 60.5858C59.7893 60.9609 60 61.4696 60 62C60 62.5304 59.7893 63.0391 59.4142 63.4142C59.0391 63.7893 58.5304 64 58 64H50Z" fill="#111111"/>
</svg>
