<svg width="80" height="80" viewBox="0 0 80 80" fill="none" xmlns="http://www.w3.org/2000/svg">
<path d="M29.9993 23.3333H43.3327M29.9993 50H39.9993M29.9993 36.6667H49.9993M63.3327 36.6667V30C63.3327 20.5733 63.3327 15.8567 60.4027 12.93C57.476 10 52.7593 10 43.3327 10H36.666C27.2393 10 22.5227 10 19.596 12.93C16.666 15.8567 16.666 20.5733 16.666 30V50C16.666 59.4267 16.666 64.1433 19.596 67.07C22.5227 70 27.2393 70 36.666 70H39.9993" stroke="#111111" stroke-width="3.33333" stroke-linecap="round"/>
<path d="M58.3333 66.6667C62.9357 66.6667 66.6667 62.9357 66.6667 58.3333C66.6667 53.731 62.9357 50 58.3333 50C53.731 50 50 53.731 50 58.3333C50 62.9357 53.731 66.6667 58.3333 66.6667Z" stroke="#111111" stroke-width="3.33333" stroke-linecap="round"/>
<path d="M70 70L65 65" stroke="#111111" stroke-width="3.33333" stroke-linecap="round"/>
</svg>
