<svg width="43" height="43" viewBox="0 0 43 43" fill="none" xmlns="http://www.w3.org/2000/svg">
<g clip-path="url(#clip0_617_6364)">
<circle opacity="0.100028" cx="21.5" cy="21.5" r="21.5" fill="#007AB6"/>
<path d="M21.692 28C21.5787 28 21.4823 27.966 21.403 27.898C21.335 27.8187 21.301 27.7223 21.301 27.609V18.089L18.479 20.265C18.3883 20.333 18.292 20.3613 18.19 20.35C18.088 20.3387 18.003 20.2877 17.935 20.197L17.493 19.636C17.425 19.534 17.3967 19.432 17.408 19.33C17.4307 19.228 17.4873 19.143 17.578 19.075L21.284 16.219C21.3633 16.1623 21.437 16.1283 21.505 16.117C21.573 16.1057 21.6467 16.1 21.726 16.1H22.593C22.7063 16.1 22.797 16.1397 22.865 16.219C22.933 16.287 22.967 16.3777 22.967 16.491V27.609C22.967 27.7223 22.933 27.8187 22.865 27.898C22.797 27.966 22.7063 28 22.593 28H21.692Z" fill="#007AB6"/>
</g>
<defs>
<clipPath id="clip0_617_6364">
<rect width="43" height="43" fill="white"/>
</clipPath>
</defs>
</svg>
