<svg width="43" height="43" viewBox="0 0 43 43" fill="none" xmlns="http://www.w3.org/2000/svg">
<g clip-path="url(#clip0_617_6376)">
<circle opacity="0.100028" cx="21.5" cy="21.5" r="21.5" fill="#007AB6"/>
<path d="M21.461 28.17C20.747 28.17 20.1237 28.085 19.591 27.915C19.0584 27.7337 18.6107 27.4957 18.248 27.201C17.8854 26.9063 17.6077 26.5833 17.415 26.232C17.2337 25.8807 17.1374 25.518 17.126 25.144C17.126 25.042 17.16 24.9627 17.228 24.906C17.296 24.8493 17.381 24.821 17.483 24.821H18.316C18.418 24.821 18.5087 24.8437 18.588 24.889C18.6674 24.9343 18.7354 25.0307 18.792 25.178C18.9054 25.586 19.098 25.9033 19.37 26.13C19.6534 26.3567 19.9764 26.5153 20.339 26.606C20.713 26.6853 21.087 26.725 21.461 26.725C22.243 26.725 22.8777 26.538 23.365 26.164C23.8524 25.79 24.096 25.2403 24.096 24.515C24.096 23.7783 23.875 23.2513 23.433 22.934C22.991 22.6167 22.379 22.458 21.597 22.458H19.982C19.8687 22.458 19.7724 22.424 19.693 22.356C19.625 22.288 19.591 22.1917 19.591 22.067V21.608C19.591 21.506 19.608 21.421 19.642 21.353C19.6874 21.2737 19.7327 21.2057 19.778 21.149L23.076 17.545H18.061C17.9477 17.545 17.8514 17.511 17.772 17.443C17.704 17.375 17.67 17.2787 17.67 17.154V16.508C17.67 16.3833 17.704 16.287 17.772 16.219C17.8514 16.1397 17.9477 16.1 18.061 16.1H24.844C24.9687 16.1 25.065 16.1397 25.133 16.219C25.2124 16.287 25.252 16.3833 25.252 16.508V17.12C25.252 17.1993 25.2294 17.273 25.184 17.341C25.15 17.3977 25.1104 17.4543 25.065 17.511L21.784 21.166L22.056 21.183C22.804 21.2057 23.4557 21.3417 24.011 21.591C24.5777 21.8403 25.014 22.2143 25.32 22.713C25.6374 23.2003 25.796 23.818 25.796 24.566C25.796 25.3253 25.609 25.977 25.235 26.521C24.861 27.0537 24.3454 27.4617 23.688 27.745C23.0307 28.0283 22.2884 28.17 21.461 28.17Z" fill="#007AB6"/>
</g>
<defs>
<clipPath id="clip0_617_6376">
<rect width="43" height="43" fill="white"/>
</clipPath>
</defs>
</svg>
