<svg width="43" height="43" viewBox="0 0 43 43" fill="none" xmlns="http://www.w3.org/2000/svg">
<g clip-path="url(#clip0_617_6384)">
<circle opacity="0.100028" cx="21.5" cy="21.5" r="21.5" fill="#007AB6"/>
<path d="M22.817 28C22.7037 28 22.6073 27.966 22.528 27.898C22.46 27.8187 22.426 27.7223 22.426 27.609V25.161H16.918C16.8047 25.161 16.7083 25.127 16.629 25.059C16.561 24.9797 16.527 24.8833 16.527 24.77V24.09C16.527 24.0447 16.5383 23.9767 16.561 23.886C16.595 23.784 16.646 23.682 16.714 23.58L21.814 16.389C21.95 16.1963 22.1597 16.1 22.443 16.1H23.667C23.7803 16.1 23.871 16.1397 23.939 16.219C24.0183 16.287 24.058 16.3777 24.058 16.491V23.682H25.588C25.7127 23.682 25.809 23.7217 25.877 23.801C25.9563 23.869 25.996 23.9597 25.996 24.073V24.77C25.996 24.8833 25.9563 24.9797 25.877 25.059C25.809 25.127 25.7183 25.161 25.605 25.161H24.058V27.609C24.058 27.7223 24.0183 27.8187 23.939 27.898C23.871 27.966 23.7803 28 23.667 28H22.817ZM18.346 23.716H22.443V17.885L18.346 23.716Z" fill="#007AB6"/>
</g>
<defs>
<clipPath id="clip0_617_6384">
<rect width="43" height="43" fill="white"/>
</clipPath>
</defs>
</svg>
