<svg width="43" height="43" viewBox="0 0 43 43" fill="none" xmlns="http://www.w3.org/2000/svg">
<g clip-path="url(#clip0_617_6390)">
<circle opacity="0.100028" cx="21.5" cy="21.5" r="21.5" fill="#007AB6"/>
<path d="M21.4171 28.17C20.5218 28.17 19.7625 28.017 19.1391 27.711C18.5271 27.3937 18.0568 26.9857 17.7281 26.487C17.4108 25.9883 17.2408 25.4613 17.2181 24.906C17.2068 24.804 17.2351 24.7247 17.3031 24.668C17.3711 24.6113 17.4561 24.583 17.5581 24.583H18.4761C18.5781 24.583 18.6688 24.6057 18.7481 24.651C18.8275 24.6963 18.8898 24.7927 18.9351 24.94C19.0485 25.3593 19.2298 25.705 19.4791 25.977C19.7398 26.2377 20.0345 26.4303 20.3631 26.555C20.7031 26.6683 21.0545 26.725 21.4171 26.725C21.9045 26.725 22.3465 26.6287 22.7431 26.436C23.1511 26.232 23.4741 25.9373 23.7121 25.552C23.9501 25.1553 24.0691 24.6793 24.0691 24.124C24.0691 23.614 23.9501 23.1777 23.7121 22.815C23.4855 22.441 23.1681 22.1577 22.7601 21.965C22.3635 21.761 21.9158 21.659 21.4171 21.659C21.0431 21.659 20.7371 21.7043 20.4991 21.795C20.2611 21.8857 20.0571 21.9933 19.8871 22.118C19.7285 22.2427 19.5811 22.3503 19.4451 22.441C19.3205 22.5317 19.1788 22.577 19.0201 22.577H18.1361C18.0341 22.577 17.9435 22.543 17.8641 22.475C17.7848 22.3957 17.7508 22.305 17.7621 22.203L18.3061 16.525C18.3175 16.389 18.3571 16.287 18.4251 16.219C18.5045 16.1397 18.6065 16.1 18.7311 16.1H24.6641C24.7775 16.1 24.8681 16.1397 24.9361 16.219C25.0155 16.287 25.0551 16.3777 25.0551 16.491V17.154C25.0551 17.2787 25.0155 17.375 24.9361 17.443C24.8681 17.511 24.7775 17.545 24.6641 17.545H19.7681L19.4451 20.894C19.6038 20.792 19.8588 20.673 20.2101 20.537C20.5615 20.3897 21.0431 20.316 21.6551 20.316C22.2105 20.316 22.7318 20.401 23.2191 20.571C23.7178 20.741 24.1598 20.9903 24.5451 21.319C24.9305 21.6477 25.2308 22.05 25.4461 22.526C25.6615 22.9907 25.7691 23.529 25.7691 24.141C25.7691 25.0023 25.5765 25.7333 25.1911 26.334C24.8171 26.9347 24.3015 27.3937 23.6441 27.711C22.9981 28.017 22.2558 28.17 21.4171 28.17Z" fill="#007AB6"/>
</g>
<defs>
<clipPath id="clip0_617_6390">
<rect width="43" height="43" fill="white"/>
</clipPath>
</defs>
</svg>
