<svg width="43" height="43" viewBox="0 0 43 43" fill="none" xmlns="http://www.w3.org/2000/svg">
<g clip-path="url(#clip0_617_6396)">
<circle opacity="0.100028" cx="21.5" cy="21.5" r="21.5" fill="#007AB6"/>
<path d="M21.6144 28.17C20.6738 28.17 19.8748 27.983 19.2174 27.609C18.5601 27.2237 18.0558 26.725 17.7044 26.113C17.3644 25.4897 17.1944 24.8153 17.1944 24.09C17.1944 23.75 17.2341 23.427 17.3134 23.121C17.4041 22.8037 17.5118 22.509 17.6364 22.237C17.7724 21.9537 17.9028 21.7043 18.0274 21.489C18.1634 21.2623 18.2824 21.081 18.3844 20.945L21.6144 16.44C21.6711 16.3833 21.7391 16.3153 21.8184 16.236C21.8978 16.1453 22.0168 16.1 22.1754 16.1H23.0764C23.1784 16.1 23.2578 16.1397 23.3144 16.219C23.3824 16.287 23.4164 16.372 23.4164 16.474C23.4164 16.5193 23.4108 16.5647 23.3994 16.61C23.3881 16.644 23.3711 16.6723 23.3484 16.695L20.8664 20.163C21.0024 20.1177 21.1554 20.0893 21.3254 20.078C21.5068 20.0553 21.6768 20.044 21.8354 20.044C22.4588 20.0553 23.0254 20.1687 23.5354 20.384C24.0454 20.5993 24.4818 20.894 24.8444 21.268C25.2184 21.6307 25.5018 22.0557 25.6944 22.543C25.8871 23.019 25.9834 23.529 25.9834 24.073C25.9834 24.787 25.8134 25.4557 25.4734 26.079C25.1334 26.7023 24.6348 27.2067 23.9774 27.592C23.3314 27.9773 22.5438 28.17 21.6144 28.17ZM21.5974 26.725C22.0734 26.725 22.5154 26.623 22.9234 26.419C23.3314 26.215 23.6601 25.9203 23.9094 25.535C24.1701 25.1383 24.3004 24.6567 24.3004 24.09C24.3004 23.512 24.1758 23.0303 23.9264 22.645C23.6771 22.2483 23.3428 21.9537 22.9234 21.761C22.5154 21.557 22.0734 21.455 21.5974 21.455C21.1214 21.455 20.6794 21.557 20.2714 21.761C19.8634 21.9537 19.5291 22.2483 19.2684 22.645C19.0191 23.0303 18.8944 23.512 18.8944 24.09C18.8944 24.6567 19.0191 25.1383 19.2684 25.535C19.5291 25.9203 19.8634 26.215 20.2714 26.419C20.6794 26.623 21.1214 26.725 21.5974 26.725Z" fill="#007AB6"/>
</g>
<defs>
<clipPath id="clip0_617_6396">
<rect width="43" height="43" fill="white"/>
</clipPath>
</defs>
</svg>
