<svg width="24" height="24" viewBox="0 0 24 24" fill="none" xmlns="http://www.w3.org/2000/svg">
<g clip-path="url(#clip0_6513_35584)">
<path d="M20.4839 16.9174C19.7774 16.9174 19.121 16.5665 18.7289 15.9781L17.8088 14.5981C16.9831 16.4075 15.2775 17.7866 13.2661 18.1965C13.2503 18.1993 13.2352 18.2027 13.2201 18.2068C12.425 18.3634 11.5949 18.3647 10.7614 18.2055C8.54639 17.7612 6.71981 16.1924 5.98584 14.1051H6.3285C6.88795 14.1051 7.22475 13.4797 6.91345 13.012L4.10114 8.79352C3.84023 8.40216 3.19205 8.40216 2.93119 8.79352L0.118873 13.012C-0.191346 13.4758 0.141326 14.1051 0.703826 14.1051H1.6184C2.57981 18.8198 6.83269 22.5421 12.0422 22.5421C14.8927 22.5421 17.7074 21.3634 19.7246 19.2235C20.433 18.4653 21.0264 17.598 21.4928 16.6589C21.1878 16.8251 20.8428 16.9174 20.4839 16.9174Z" fill="#007AB6"/>
<path d="M23.2999 9.88818H22.3861C21.2972 4.52854 16.1179 0.828457 10.5839 1.54597C6.90311 2.08729 4.01706 4.34338 2.52344 7.36007C3.43816 6.91147 4.68442 7.12883 5.27491 8.01514L6.19872 9.40086C7.00881 7.62805 8.66416 6.269 10.6239 5.82993C13.9107 5.14002 16.9735 6.96088 18.0158 9.88818H17.6752C17.1127 9.88818 16.78 10.5174 17.0903 10.9813L19.9026 15.1997C20.1806 15.6168 20.7945 15.6168 21.0725 15.1997L23.8848 10.9813C24.1962 10.5136 23.8594 9.88818 23.2999 9.88818Z" fill="#007AB6"/>
<path d="M13.6024 11.8371C13.2049 11.4382 12.6748 11.2185 12.1104 11.2185C11.9222 11.2185 11.7458 11.1457 11.6126 11.0118C11.3431 10.7437 11.3341 10.2961 11.614 10.0176C11.8777 9.75259 12.3432 9.75259 12.6068 10.0176C12.8808 10.2937 13.3257 10.2923 13.6011 10.019C13.8764 9.745 13.8764 9.29941 13.6024 9.02477C13.3792 8.80075 13.1048 8.65577 12.8135 8.5577V7.70303C12.8135 7.31448 12.499 7 12.1104 7C11.7218 7 11.4074 7.31448 11.4074 7.70308V8.55756C11.1163 8.65558 10.8424 8.80014 10.6198 9.02341C9.79261 9.84775 9.79463 11.185 10.6185 12.006C11.016 12.4049 11.5461 12.6246 12.1104 12.6246C12.2986 12.6246 12.475 12.6974 12.6082 12.8313C12.8778 13.0995 12.8868 13.547 12.6068 13.8255C12.3432 14.0905 11.8777 14.0905 11.614 13.8255C11.3393 13.5502 10.8944 13.5502 10.6198 13.8242C10.3444 14.0981 10.3444 14.5437 10.6184 14.8184C10.8439 15.0446 11.1145 15.2056 11.4073 15.3092V16.1401C11.4073 16.5287 11.7218 16.8431 12.1104 16.8431C12.499 16.8431 12.8135 16.5287 12.8135 16.1401V15.3094C13.1061 15.206 13.3764 15.0451 13.601 14.8198C14.4282 13.9954 14.4262 12.6581 13.6024 11.8371Z" fill="#007AB6"/>
</g>
<defs>
<clipPath id="clip0_6513_35584">
<rect width="24" height="24" fill="white"/>
</clipPath>
</defs>
</svg>
