<svg width="20" height="24" viewBox="0 0 20 24" fill="none" xmlns="http://www.w3.org/2000/svg">
<path fill-rule="evenodd" clip-rule="evenodd" d="M17.3562 18.7501C17.2576 18.7489 17.1598 18.7672 17.0683 18.8039C16.9768 18.8406 16.8934 18.895 16.823 18.9639C15.0005 20.749 12.5523 21.7486 10.0012 21.7486C7.45807 21.7486 5.01653 20.7552 3.19552 18.98C3.05313 18.8411 2.8614 18.7645 2.66251 18.767C2.46362 18.7695 2.27386 18.8509 2.13497 18.9932C1.99609 19.1356 1.91946 19.3273 1.92193 19.5262C1.92441 19.7251 2.00579 19.9149 2.14817 20.0538C4.24887 22.1017 7.06739 23.2486 10.0012 23.2486C12.9442 23.2486 15.7708 22.0955 17.8733 20.0362C18.0152 19.8969 18.0961 19.7069 18.098 19.508C18.0999 19.3091 18.0228 19.1176 17.8835 18.9756C17.7446 18.8335 17.5549 18.7524 17.3562 18.7501Z" fill="#007AB6"/>
<path fill-rule="evenodd" clip-rule="evenodd" d="M2.5 6.75C1.26624 6.75 0.25 7.76624 0.25 9V15C0.25 16.2338 1.26624 17.25 2.5 17.25H12.25C13.4838 17.25 14.5 16.2338 14.5 15V13.6304L17.9424 16.582C18.6114 17.1555 19.75 16.6312 19.75 15.75V8.25C19.75 7.8094 19.4649 7.45843 19.0967 7.28906C18.7284 7.11969 18.2769 7.13124 17.9424 7.41797L14.5 10.3696V9C14.5 7.76624 13.4838 6.75 12.25 6.75H2.5Z" fill="#007AB6"/>
<path fill-rule="evenodd" clip-rule="evenodd" d="M10.0012 0.75C7.0674 0.75 4.24891 1.89691 2.14817 3.94482C2.00578 4.08371 1.92441 4.27349 1.92193 4.47237C1.91946 4.67126 1.99609 4.86298 2.13497 5.00537C2.27386 5.14775 2.46362 5.22912 2.66251 5.2316C2.8614 5.23407 3.05312 5.15746 3.19551 5.01858C5.01657 3.24333 7.45808 2.25 10.0012 2.25C12.5523 2.25 15.0005 3.24957 16.823 5.03467C16.9652 5.17375 17.1568 5.25064 17.3557 5.24844C17.5546 5.24625 17.7444 5.16515 17.8835 5.02297C18.0228 4.88097 18.0999 4.68946 18.098 4.49057C18.0961 4.29168 18.0152 4.10171 17.8732 3.96243C15.7708 1.90308 12.9442 0.75 10.0012 0.75Z" fill="#007AB6"/>
</svg>
