<svg width="24" height="20" viewBox="0 0 24 20" fill="none" xmlns="http://www.w3.org/2000/svg">
<path d="M17.0323 10.4265V13.8136H17.8065V8.49105C17.8065 8.06346 18.153 7.71686 18.5806 7.71686H19.3548C19.7824 7.71686 20.129 8.06346 20.129 8.49105V13.8136H20.5161C20.9437 13.8136 21.2903 14.1602 21.2903 14.5878C21.2903 15.0154 20.9437 15.362 20.5161 15.362C20.3766 15.362 11.3062 15.362 11.2258 15.362C10.7982 15.362 10.4516 15.0154 10.4516 14.5878C10.4516 14.1602 10.7982 13.8136 11.2258 13.8136H11.6129V12.362C11.6129 11.9345 11.9595 11.5878 12.3871 11.5878H13.1613C13.5889 11.5878 13.9355 11.9345 13.9355 12.362V13.8136H14.7097V10.4265C14.7097 9.99894 15.0563 9.65234 15.4839 9.65234H16.2581C16.6857 9.65234 17.0323 9.99899 17.0323 10.4265ZM13.1613 4.13621C13.1613 3.70862 12.8147 3.36202 12.3871 3.36202H8.90323C8.47563 3.36202 8.12903 3.70862 8.12903 4.13621C8.12903 4.56381 8.47563 4.91041 8.90323 4.91041H12.3871C12.8147 4.91041 13.1613 4.56381 13.1613 4.13621ZM10.4516 7.76525H15.2903C15.7179 7.76525 16.0645 7.41865 16.0645 6.99105C16.0645 6.56346 15.7179 6.21686 15.2903 6.21686H10.4516C10.024 6.21686 9.67742 6.56346 9.67742 6.99105C9.67742 7.41865 10.024 7.76525 10.4516 7.76525ZM21.6774 0.652344H5.90323C4.62256 0.652344 3.58065 1.69426 3.58065 2.97492V6.56752C2.63371 7.21136 2.01044 8.29722 2.01044 9.5261C2.01044 11.4976 3.61432 13.1015 5.58581 13.1015C7.55729 13.1015 9.16123 11.4976 9.16123 9.5261C9.16123 7.39126 7.28477 5.70459 5.12908 5.98093V2.97492C5.12908 2.548 5.4764 2.20073 5.90327 2.20073H21.6775C22.1043 2.20073 22.4517 2.548 22.4517 2.97492V15.7491C22.4517 16.176 22.1043 16.5233 21.6775 16.5233H11.1028C10.9665 15.8352 10.5042 15.2421 9.84847 14.9493L7.97056 14.1108C7.77571 14.0238 7.68339 14.0435 7.00321 14.0435C6.64689 14.0435 6.33658 14.2867 6.25147 14.6327C6.07771 15.3385 5.06705 15.339 4.89339 14.6328C4.80823 14.2868 4.49792 14.0435 4.1416 14.0435C3.45881 14.0435 3.36823 14.0242 3.17419 14.1108L1.29629 14.9493C0.508839 15.301 0 16.0854 0 16.9478V18.5712C0 18.9988 0.346597 19.3454 0.774194 19.3454H10.3706C10.7982 19.3454 11.1448 18.9988 11.1448 18.5712V18.0717H21.6774C22.9581 18.0717 24 17.0298 24 15.7492V2.97497C24 1.69426 22.9581 0.652344 21.6774 0.652344Z" fill="white"/>
</svg>
