<svg width="16" height="19" viewBox="0 0 16 19" fill="none" xmlns="http://www.w3.org/2000/svg">
<mask id="path-1-outside-1_1_36988" maskUnits="userSpaceOnUse" x="0" y="-0.667969" width="16" height="20" fill="black">
<rect fill="white" y="-0.667969" width="16" height="20"/>
<path fill-rule="evenodd" clip-rule="evenodd" d="M12.0934 17.0652C12.2226 16.6963 12.571 16.4317 12.9801 16.4317C13.3892 16.4317 13.7376 16.6963 13.8668 17.0652H14.6866C14.8596 17.0652 15 17.2071 15 17.3819C15 17.5567 14.8596 17.6986 14.6866 17.6986H13.8668C13.7376 18.0675 13.3892 18.332 12.9801 18.332C12.571 18.332 12.2226 18.0675 12.0934 17.6986H7.19766C7.06848 18.0675 6.72004 18.332 6.31096 18.332C5.90184 18.332 5.5534 18.0675 5.42425 17.6986H1.31341C1.14042 17.6986 1 17.5567 1 17.3819C1 17.2071 1.14042 17.0652 1.31341 17.0652H5.42425C5.5534 16.6963 5.90184 16.4317 6.31096 16.4317C6.72004 16.4317 7.06848 16.6963 7.19766 17.0652H12.0934ZM6.27891 17.0668C6.13564 17.0815 6.02079 17.1939 6.00103 17.337C5.99859 17.3516 5.99751 17.3666 5.99751 17.3819C5.99751 17.5412 6.1141 17.6731 6.26569 17.6949C6.28044 17.6975 6.29558 17.6986 6.31096 17.6986L6.34296 17.697C6.50095 17.6807 6.62436 17.5458 6.62436 17.3819C6.62436 17.371 6.62384 17.3602 6.62276 17.3495L6.61799 17.3181C6.59086 17.1841 6.47987 17.0809 6.34296 17.0668L6.31096 17.0652L6.27891 17.0668ZM12.9481 17.0668C12.8062 17.0814 12.6921 17.1918 12.6708 17.333C12.668 17.3489 12.6667 17.3652 12.6667 17.3819C12.6667 17.5412 12.7833 17.6731 12.9349 17.6949C12.9496 17.6975 12.9647 17.6986 12.9801 17.6986L13.0121 17.697C13.1701 17.6807 13.2936 17.5458 13.2936 17.3819C13.2936 17.371 13.293 17.3602 13.2919 17.3495L13.2872 17.3181C13.26 17.1841 13.149 17.0809 13.0121 17.0668L12.9801 17.0652L12.9481 17.0668ZM8.80234 14.813C8.93152 14.4441 9.27996 14.1796 9.68904 14.1796C10.0982 14.1796 10.4466 14.4441 10.5758 14.813H14.6866C14.8596 14.813 15 14.9549 15 15.1297C15 15.3045 14.8596 15.4464 14.6866 15.4464H10.5758C10.4466 15.8153 10.0982 16.0798 9.68904 16.0798C9.27996 16.0798 8.93152 15.8153 8.80234 15.4464H3.90659C3.77741 15.8153 3.429 16.0798 3.01988 16.0798C2.6108 16.0798 2.26236 15.8153 2.13317 15.4464H1.31341C1.14042 15.4464 1 15.3045 1 15.1297C1 14.9549 1.14042 14.813 1.31341 14.813H2.13317C2.26236 14.4441 2.6108 14.1796 3.01988 14.1796C3.429 14.1796 3.77741 14.4441 3.90659 14.813H8.80234ZM2.98787 14.8146C2.84592 14.8292 2.73187 14.9396 2.71058 15.0808C2.70773 15.0967 2.70644 15.1131 2.70644 15.1297C2.70644 15.2826 2.81398 15.4104 2.95677 15.44L2.98787 15.4448C2.99838 15.4458 3.00906 15.4464 3.01988 15.4464L3.05192 15.4448C3.20988 15.4285 3.33332 15.2935 3.33332 15.1297C3.33332 15.1188 3.33276 15.108 3.33169 15.0973L3.32695 15.0659C3.29978 14.9319 3.18883 14.8287 3.05192 14.8146L3.01988 14.813L2.98787 14.8146ZM9.65704 14.8146C9.52013 14.8287 9.40914 14.9319 9.382 15.0659L9.37724 15.0973C9.37616 15.108 9.37564 15.1188 9.37564 15.1297C9.37564 15.2826 9.48315 15.4104 9.62593 15.44L9.65704 15.4448C9.66758 15.4458 9.67826 15.4464 9.68904 15.4464L9.72109 15.4448C9.87904 15.4285 10.0025 15.2935 10.0025 15.1297C10.0025 15.1188 10.0019 15.108 10.0009 15.0973L9.99612 15.0659C9.96894 14.9319 9.85799 14.8287 9.72109 14.8146L9.68904 14.813L9.65704 14.8146ZM8.56067 2.5473C8.45449 2.3327 8.23745 2.19714 8 2.19714C7.76254 2.19714 7.54551 2.3327 7.43933 2.5473L2.94675 11.6265C2.84961 11.8228 2.85998 12.056 2.9742 12.2428C3.08842 12.4295 3.29018 12.5432 3.50746 12.5432H12.4925C12.7098 12.5432 12.9116 12.4295 13.0258 12.2428C13.14 12.056 13.1504 11.8228 13.0533 11.6265L8.56067 2.5473ZM8 2.83055L12.4925 11.9098H3.50746L8 2.83055ZM3.61194 1.79246V2.05638C3.61194 2.40621 3.33127 2.68979 2.98505 2.68979H1.90546C1.55925 2.68979 1.27858 2.40621 1.27858 2.05638V0.965477C1.27858 0.615637 1.55925 0.332031 1.90546 0.332031H2.98505C3.33127 0.332031 3.61194 0.615637 3.61194 0.965477V1.15901H12.3881V0.965477C12.3881 0.615637 12.6687 0.332031 13.0149 0.332031H14.0945C14.4408 0.332031 14.7214 0.615637 14.7214 0.965477V2.05638C14.7214 2.40621 14.4408 2.68979 14.0945 2.68979H13.0149C12.6687 2.68979 12.3881 2.40621 12.3881 2.05638V1.79246H3.61194ZM14.0945 0.965477H13.0149V2.05638H14.0945V0.965477ZM2.98505 0.965477H1.90546V2.05638H2.98505V0.965477Z"/>
</mask>
<path fill-rule="evenodd" clip-rule="evenodd" d="M12.0934 17.0652C12.2226 16.6963 12.571 16.4317 12.9801 16.4317C13.3892 16.4317 13.7376 16.6963 13.8668 17.0652H14.6866C14.8596 17.0652 15 17.2071 15 17.3819C15 17.5567 14.8596 17.6986 14.6866 17.6986H13.8668C13.7376 18.0675 13.3892 18.332 12.9801 18.332C12.571 18.332 12.2226 18.0675 12.0934 17.6986H7.19766C7.06848 18.0675 6.72004 18.332 6.31096 18.332C5.90184 18.332 5.5534 18.0675 5.42425 17.6986H1.31341C1.14042 17.6986 1 17.5567 1 17.3819C1 17.2071 1.14042 17.0652 1.31341 17.0652H5.42425C5.5534 16.6963 5.90184 16.4317 6.31096 16.4317C6.72004 16.4317 7.06848 16.6963 7.19766 17.0652H12.0934ZM6.27891 17.0668C6.13564 17.0815 6.02079 17.1939 6.00103 17.337C5.99859 17.3516 5.99751 17.3666 5.99751 17.3819C5.99751 17.5412 6.1141 17.6731 6.26569 17.6949C6.28044 17.6975 6.29558 17.6986 6.31096 17.6986L6.34296 17.697C6.50095 17.6807 6.62436 17.5458 6.62436 17.3819C6.62436 17.371 6.62384 17.3602 6.62276 17.3495L6.61799 17.3181C6.59086 17.1841 6.47987 17.0809 6.34296 17.0668L6.31096 17.0652L6.27891 17.0668ZM12.9481 17.0668C12.8062 17.0814 12.6921 17.1918 12.6708 17.333C12.668 17.3489 12.6667 17.3652 12.6667 17.3819C12.6667 17.5412 12.7833 17.6731 12.9349 17.6949C12.9496 17.6975 12.9647 17.6986 12.9801 17.6986L13.0121 17.697C13.1701 17.6807 13.2936 17.5458 13.2936 17.3819C13.2936 17.371 13.293 17.3602 13.2919 17.3495L13.2872 17.3181C13.26 17.1841 13.149 17.0809 13.0121 17.0668L12.9801 17.0652L12.9481 17.0668ZM8.80234 14.813C8.93152 14.4441 9.27996 14.1796 9.68904 14.1796C10.0982 14.1796 10.4466 14.4441 10.5758 14.813H14.6866C14.8596 14.813 15 14.9549 15 15.1297C15 15.3045 14.8596 15.4464 14.6866 15.4464H10.5758C10.4466 15.8153 10.0982 16.0798 9.68904 16.0798C9.27996 16.0798 8.93152 15.8153 8.80234 15.4464H3.90659C3.77741 15.8153 3.429 16.0798 3.01988 16.0798C2.6108 16.0798 2.26236 15.8153 2.13317 15.4464H1.31341C1.14042 15.4464 1 15.3045 1 15.1297C1 14.9549 1.14042 14.813 1.31341 14.813H2.13317C2.26236 14.4441 2.6108 14.1796 3.01988 14.1796C3.429 14.1796 3.77741 14.4441 3.90659 14.813H8.80234ZM2.98787 14.8146C2.84592 14.8292 2.73187 14.9396 2.71058 15.0808C2.70773 15.0967 2.70644 15.1131 2.70644 15.1297C2.70644 15.2826 2.81398 15.4104 2.95677 15.44L2.98787 15.4448C2.99838 15.4458 3.00906 15.4464 3.01988 15.4464L3.05192 15.4448C3.20988 15.4285 3.33332 15.2935 3.33332 15.1297C3.33332 15.1188 3.33276 15.108 3.33169 15.0973L3.32695 15.0659C3.29978 14.9319 3.18883 14.8287 3.05192 14.8146L3.01988 14.813L2.98787 14.8146ZM9.65704 14.8146C9.52013 14.8287 9.40914 14.9319 9.382 15.0659L9.37724 15.0973C9.37616 15.108 9.37564 15.1188 9.37564 15.1297C9.37564 15.2826 9.48315 15.4104 9.62593 15.44L9.65704 15.4448C9.66758 15.4458 9.67826 15.4464 9.68904 15.4464L9.72109 15.4448C9.87904 15.4285 10.0025 15.2935 10.0025 15.1297C10.0025 15.1188 10.0019 15.108 10.0009 15.0973L9.99612 15.0659C9.96894 14.9319 9.85799 14.8287 9.72109 14.8146L9.68904 14.813L9.65704 14.8146ZM8.56067 2.5473C8.45449 2.3327 8.23745 2.19714 8 2.19714C7.76254 2.19714 7.54551 2.3327 7.43933 2.5473L2.94675 11.6265C2.84961 11.8228 2.85998 12.056 2.9742 12.2428C3.08842 12.4295 3.29018 12.5432 3.50746 12.5432H12.4925C12.7098 12.5432 12.9116 12.4295 13.0258 12.2428C13.14 12.056 13.1504 11.8228 13.0533 11.6265L8.56067 2.5473ZM8 2.83055L12.4925 11.9098H3.50746L8 2.83055ZM3.61194 1.79246V2.05638C3.61194 2.40621 3.33127 2.68979 2.98505 2.68979H1.90546C1.55925 2.68979 1.27858 2.40621 1.27858 2.05638V0.965477C1.27858 0.615637 1.55925 0.332031 1.90546 0.332031H2.98505C3.33127 0.332031 3.61194 0.615637 3.61194 0.965477V1.15901H12.3881V0.965477C12.3881 0.615637 12.6687 0.332031 13.0149 0.332031H14.0945C14.4408 0.332031 14.7214 0.615637 14.7214 0.965477V2.05638C14.7214 2.40621 14.4408 2.68979 14.0945 2.68979H13.0149C12.6687 2.68979 12.3881 2.40621 12.3881 2.05638V1.79246H3.61194ZM14.0945 0.965477H13.0149V2.05638H14.0945V0.965477ZM2.98505 0.965477H1.90546V2.05638H2.98505V0.965477Z" fill="#007AB6"/>
<path fill-rule="evenodd" clip-rule="evenodd" d="M12.0934 17.0652C12.2226 16.6963 12.571 16.4317 12.9801 16.4317C13.3892 16.4317 13.7376 16.6963 13.8668 17.0652H14.6866C14.8596 17.0652 15 17.2071 15 17.3819C15 17.5567 14.8596 17.6986 14.6866 17.6986H13.8668C13.7376 18.0675 13.3892 18.332 12.9801 18.332C12.571 18.332 12.2226 18.0675 12.0934 17.6986H7.19766C7.06848 18.0675 6.72004 18.332 6.31096 18.332C5.90184 18.332 5.5534 18.0675 5.42425 17.6986H1.31341C1.14042 17.6986 1 17.5567 1 17.3819C1 17.2071 1.14042 17.0652 1.31341 17.0652H5.42425C5.5534 16.6963 5.90184 16.4317 6.31096 16.4317C6.72004 16.4317 7.06848 16.6963 7.19766 17.0652H12.0934ZM6.27891 17.0668C6.13564 17.0815 6.02079 17.1939 6.00103 17.337C5.99859 17.3516 5.99751 17.3666 5.99751 17.3819C5.99751 17.5412 6.1141 17.6731 6.26569 17.6949C6.28044 17.6975 6.29558 17.6986 6.31096 17.6986L6.34296 17.697C6.50095 17.6807 6.62436 17.5458 6.62436 17.3819C6.62436 17.371 6.62384 17.3602 6.62276 17.3495L6.61799 17.3181C6.59086 17.1841 6.47987 17.0809 6.34296 17.0668L6.31096 17.0652L6.27891 17.0668ZM12.9481 17.0668C12.8062 17.0814 12.6921 17.1918 12.6708 17.333C12.668 17.3489 12.6667 17.3652 12.6667 17.3819C12.6667 17.5412 12.7833 17.6731 12.9349 17.6949C12.9496 17.6975 12.9647 17.6986 12.9801 17.6986L13.0121 17.697C13.1701 17.6807 13.2936 17.5458 13.2936 17.3819C13.2936 17.371 13.293 17.3602 13.2919 17.3495L13.2872 17.3181C13.26 17.1841 13.149 17.0809 13.0121 17.0668L12.9801 17.0652L12.9481 17.0668ZM8.80234 14.813C8.93152 14.4441 9.27996 14.1796 9.68904 14.1796C10.0982 14.1796 10.4466 14.4441 10.5758 14.813H14.6866C14.8596 14.813 15 14.9549 15 15.1297C15 15.3045 14.8596 15.4464 14.6866 15.4464H10.5758C10.4466 15.8153 10.0982 16.0798 9.68904 16.0798C9.27996 16.0798 8.93152 15.8153 8.80234 15.4464H3.90659C3.77741 15.8153 3.429 16.0798 3.01988 16.0798C2.6108 16.0798 2.26236 15.8153 2.13317 15.4464H1.31341C1.14042 15.4464 1 15.3045 1 15.1297C1 14.9549 1.14042 14.813 1.31341 14.813H2.13317C2.26236 14.4441 2.6108 14.1796 3.01988 14.1796C3.429 14.1796 3.77741 14.4441 3.90659 14.813H8.80234ZM2.98787 14.8146C2.84592 14.8292 2.73187 14.9396 2.71058 15.0808C2.70773 15.0967 2.70644 15.1131 2.70644 15.1297C2.70644 15.2826 2.81398 15.4104 2.95677 15.44L2.98787 15.4448C2.99838 15.4458 3.00906 15.4464 3.01988 15.4464L3.05192 15.4448C3.20988 15.4285 3.33332 15.2935 3.33332 15.1297C3.33332 15.1188 3.33276 15.108 3.33169 15.0973L3.32695 15.0659C3.29978 14.9319 3.18883 14.8287 3.05192 14.8146L3.01988 14.813L2.98787 14.8146ZM9.65704 14.8146C9.52013 14.8287 9.40914 14.9319 9.382 15.0659L9.37724 15.0973C9.37616 15.108 9.37564 15.1188 9.37564 15.1297C9.37564 15.2826 9.48315 15.4104 9.62593 15.44L9.65704 15.4448C9.66758 15.4458 9.67826 15.4464 9.68904 15.4464L9.72109 15.4448C9.87904 15.4285 10.0025 15.2935 10.0025 15.1297C10.0025 15.1188 10.0019 15.108 10.0009 15.0973L9.99612 15.0659C9.96894 14.9319 9.85799 14.8287 9.72109 14.8146L9.68904 14.813L9.65704 14.8146ZM8.56067 2.5473C8.45449 2.3327 8.23745 2.19714 8 2.19714C7.76254 2.19714 7.54551 2.3327 7.43933 2.5473L2.94675 11.6265C2.84961 11.8228 2.85998 12.056 2.9742 12.2428C3.08842 12.4295 3.29018 12.5432 3.50746 12.5432H12.4925C12.7098 12.5432 12.9116 12.4295 13.0258 12.2428C13.14 12.056 13.1504 11.8228 13.0533 11.6265L8.56067 2.5473ZM8 2.83055L12.4925 11.9098H3.50746L8 2.83055ZM3.61194 1.79246V2.05638C3.61194 2.40621 3.33127 2.68979 2.98505 2.68979H1.90546C1.55925 2.68979 1.27858 2.40621 1.27858 2.05638V0.965477C1.27858 0.615637 1.55925 0.332031 1.90546 0.332031H2.98505C3.33127 0.332031 3.61194 0.615637 3.61194 0.965477V1.15901H12.3881V0.965477C12.3881 0.615637 12.6687 0.332031 13.0149 0.332031H14.0945C14.4408 0.332031 14.7214 0.615637 14.7214 0.965477V2.05638C14.7214 2.40621 14.4408 2.68979 14.0945 2.68979H13.0149C12.6687 2.68979 12.3881 2.40621 12.3881 2.05638V1.79246H3.61194ZM14.0945 0.965477H13.0149V2.05638H14.0945V0.965477ZM2.98505 0.965477H1.90546V2.05638H2.98505V0.965477Z" stroke="#007AB6" stroke-width="0.46" mask="url(#path-1-outside-1_1_36988)"/>
</svg>
