<svg width="26" height="13" viewBox="0 0 26 13" fill="none" xmlns="http://www.w3.org/2000/svg">
<path d="M6.82252 7.53082L6.82252 7.95588C6.82252 8.1701 6.99617 8.34375 7.21038 8.34375C7.4246 8.34375 7.59825 8.1701 7.59825 7.95588L7.59825 4.76952C7.59825 4.21723 7.15053 3.76952 6.59825 3.76952L4.31641 3.76952C3.76412 3.76952 3.31641 4.21723 3.31641 4.76952L3.31641 8.10544C3.31641 8.23705 3.4231 8.34375 3.55472 8.34375C3.68633 8.34375 3.79303 8.23705 3.79303 8.10544L3.79303 7.22495C3.79303 7.00573 3.98013 6.82799 4.21089 6.82799C4.44165 6.82799 4.62875 7.00573 4.62875 7.22495L4.62875 7.66473C4.62875 8.03974 4.93276 8.34375 5.30777 8.34375C5.68279 8.34375 5.98679 8.03974 5.98679 7.66473L5.98679 7.53082C5.98679 7.3116 6.17389 7.13385 6.40465 7.13385C6.63542 7.13385 6.82252 7.3116 6.82252 7.53082Z" fill="#007AB6"/>
<path d="M11.6978 6.41845L11.4773 7.43966C11.3765 7.90671 11.7324 8.34766 12.2102 8.34766C12.6243 8.34766 12.9599 8.01198 12.9599 7.59789L12.9599 7.20114C12.9599 6.98192 13.147 6.80418 13.3778 6.80418C13.6086 6.80418 13.7957 6.98192 13.7957 7.20114L13.7957 7.44664C13.7957 7.94426 14.1991 8.34766 14.6967 8.34766C15.1943 8.34766 15.5977 7.94426 15.5977 7.44664L15.5977 7.20114C15.5977 6.98192 15.7848 6.80417 16.0155 6.80417C16.2463 6.80417 16.4334 6.98192 16.4334 7.20114L16.4334 7.44664C16.4334 7.94426 16.8368 8.34766 17.3344 8.34766C17.832 8.34766 18.2354 7.94426 18.2354 7.44664L18.2354 7.20114C18.2354 6.98192 18.4225 6.80417 18.6533 6.80417C18.884 6.80417 19.0711 6.98192 19.0711 7.20114L19.0711 7.44664C19.0711 7.94426 19.4745 8.34766 19.9722 8.34766C20.4698 8.34766 20.8732 7.94426 20.8732 7.44664L20.8732 7.20114C20.8732 6.98192 21.0603 6.80417 21.291 6.80417C21.5218 6.80417 21.7089 6.98192 21.7089 7.20114L21.7089 7.44664C21.7089 7.94426 22.1123 8.34766 22.6099 8.34766C23.1075 8.34766 23.5109 7.94426 23.5109 7.44664L23.5109 7.20114C23.5109 6.98192 23.698 6.80417 23.9288 6.80417C24.1595 6.80417 24.3466 6.98192 24.3466 7.20114L24.3466 7.34766C24.3466 7.89994 24.7943 8.34766 25.3466 8.34766L25.4853 8.34766C25.7555 8.34766 25.9575 8.19879 25.9575 8.06582L25.9575 4.05642C25.9575 3.92345 25.7555 3.77458 25.4853 3.77458L12.7064 3.77459C12.1541 3.77459 11.7064 4.2223 11.7064 4.77458L11.7064 6.33878C11.7064 6.36553 11.7035 6.39228 11.6978 6.41845Z" fill="#007AB6"/>
<path d="M8.43373 8.74179C8.43391 8.74264 8.43391 8.74351 8.43373 8.74435C8.43364 8.74477 8.43359 8.7452 8.43359 8.74563L8.43359 12.082C8.43359 12.4056 8.69594 12.668 9.01957 12.668C9.29554 12.668 9.5341 12.4754 9.59234 12.2057L10.8456 6.40124C10.8606 6.33189 10.8681 6.26114 10.8681 6.19019L10.8681 0.999129C10.8681 0.446844 10.4204 -0.000869833 9.86812 -0.000869811L9.43359 -0.000869793C8.88131 -0.00086977 8.43359 0.446845 8.43359 0.99913L8.43359 8.74051C8.43359 8.74094 8.43364 8.74137 8.43373 8.74179Z" fill="#007AB6"/>
<path d="M0.0468747 6.19019C0.0468747 6.26114 0.0544254 6.33189 0.0693993 6.40124L1.32265 12.2057C1.38089 12.4754 1.61946 12.668 1.89543 12.668C2.21905 12.668 2.4814 12.4056 2.4814 12.082L2.4814 8.74819C2.4814 8.74733 2.48131 8.74648 2.48113 8.74563C2.48077 8.74394 2.48077 8.7422 2.48113 8.74051C2.48131 8.73967 2.4814 8.73881 2.4814 8.73795L2.4814 0.999129C2.4814 0.446845 2.03368 -0.000869833 1.4814 -0.000869811L1.04687 -0.000869793C0.49459 -0.00086977 0.0468744 0.446846 0.0468745 0.99913L0.0468747 6.19019Z" fill="#007AB6"/>
</svg>
