<svg width="19" height="15" viewBox="0 0 19 15" fill="none" xmlns="http://www.w3.org/2000/svg">
<path d="M1.76927 0.507812H0.875781C0.765324 0.507812 0.675781 0.597355 0.675781 0.707812V2.76544C0.675781 2.87589 0.765324 2.96544 0.875781 2.96544H1.76927C1.87972 2.96544 1.96927 2.87589 1.96927 2.76544V0.707813C1.96927 0.597356 1.87972 0.507812 1.76927 0.507812Z" fill="#007AB6"/>
<path d="M18.801 12.5898H16.6141C16.5036 12.5898 16.4141 12.6794 16.4141 12.7898V13.6187C16.4141 13.7291 16.5036 13.8187 16.6141 13.8187H18.801C18.9115 13.8187 19.001 13.7291 19.001 13.6187V12.7898C19.001 12.6794 18.9115 12.5898 18.801 12.5898Z" fill="#007AB6"/>
<path d="M14.0398 14.0312C14.0398 14.1416 13.9503 14.2312 13.8398 14.2312H2.59844C2.48798 14.2312 2.39844 14.1416 2.39844 14.0312V3.37187C2.39844 3.26142 2.48798 3.17188 2.59844 3.17188H13.8398C13.9503 3.17188 14.0398 3.26142 14.0398 3.37188V14.0312ZM3.69192 12.8024C3.69192 12.9128 3.78147 13.0024 3.89192 13.0024H12.5463C12.6568 13.0024 12.7463 12.9128 12.7463 12.8024V4.60069C12.7463 4.49023 12.6568 4.40069 12.5463 4.40069H3.89192C3.78147 4.40069 3.69192 4.49023 3.69192 4.60069V12.8024Z" fill="#007AB6"/>
<path d="M14.9214 1.125H1.52422C1.41376 1.125 1.32422 1.21454 1.32422 1.325V2.15381C1.32422 2.26427 1.41376 2.35381 1.52422 2.35381H14.9214C15.0319 2.35381 15.1214 2.26427 15.1214 2.15381V1.325C15.1214 1.21454 15.0319 1.125 14.9214 1.125Z" fill="#007AB6"/>
<path d="M15.5661 0.507812H14.6727C14.5622 0.507812 14.4727 0.597355 14.4727 0.707812V2.76544C14.4727 2.87589 14.5622 2.96544 14.6727 2.96544H15.5661C15.6766 2.96544 15.7661 2.87589 15.7661 2.76544V0.707813C15.7661 0.597356 15.6766 0.507812 15.5661 0.507812Z" fill="#007AB6"/>
<path d="M18.1521 4.19531H17.2586C17.1481 4.19531 17.0586 4.28486 17.0586 4.39531V13.0066C17.0586 13.1171 17.1481 13.2066 17.2586 13.2066H18.1521C18.2625 13.2066 18.3521 13.1171 18.3521 13.0066V4.39531C18.3521 4.28486 18.2625 4.19531 18.1521 4.19531Z" fill="#007AB6"/>
<path d="M18.801 3.57812H16.6141C16.5036 3.57812 16.4141 3.66767 16.4141 3.77812V4.60694C16.4141 4.71739 16.5036 4.80694 16.6141 4.80694H18.801C18.9115 4.80694 19.001 4.71739 19.001 4.60694V3.77812C19.001 3.66767 18.9115 3.57812 18.801 3.57812Z" fill="#007AB6"/>
</svg>
