<svg width="20" height="12" viewBox="0 0 20 12" fill="none" xmlns="http://www.w3.org/2000/svg">
<path d="M1.43607 11.3401V0.549969C1.43607 0.405274 1.30552 0.28125 1.15321 0.28125H0.282863C0.130552 0.28125 0 0.405274 0 0.549969V11.3194C0 11.4641 0.130552 11.5881 0.282863 11.5881H1.15321C1.30552 11.6088 1.43607 11.4848 1.43607 11.3401Z" fill="#007AB6"/>
<path d="M13.2384 2.1422C13.12 2.31168 13.1278 2.53896 13.2574 2.7L14.3386 4.04311C14.7599 4.56653 14.3873 5.34475 13.7154 5.34475H6.23285C5.56092 5.34475 5.18833 4.56653 5.60966 4.04311L6.69751 2.69168C6.82357 2.53508 6.83277 2.31458 6.72019 2.14803C6.54734 1.89231 6.17617 1.87731 5.98325 2.11825L3.25865 5.52099C3.02513 5.81264 3.02457 6.22709 3.25732 6.51937L5.98359 9.94291C6.17613 10.1847 6.54797 10.1702 6.72105 9.91409C6.83321 9.74816 6.82449 9.52858 6.69953 9.37206L5.59907 7.99367C5.18078 7.46974 5.55383 6.69454 6.22427 6.69454H13.724C14.3944 6.69454 14.7674 7.46974 14.3492 7.99367L13.2554 9.36373C13.1268 9.5247 13.1196 9.75105 13.2375 9.91992C13.4155 10.1747 13.7886 10.1865 13.9822 9.94331L16.7088 6.51937C16.9416 6.22709 16.941 5.81264 16.7075 5.52099L13.9826 2.11783C13.7886 1.87554 13.4162 1.88774 13.2384 2.1422Z" fill="#007AB6" stroke="#007AB6" stroke-width="0.2"/>
<path d="M19.9673 11.3401V0.549969C19.9673 0.405274 19.8368 0.28125 19.6845 0.28125H18.8141C18.6618 0.28125 18.5312 0.405274 18.5312 0.549969V11.3194C18.5312 11.4641 18.6618 11.5881 18.8141 11.5881H19.6845C19.8368 11.6088 19.9673 11.4848 19.9673 11.3401Z" fill="#007AB6"/>
</svg>
