<svg width="201" height="8" viewBox="0 0 201 8" fill="none" xmlns="http://www.w3.org/2000/svg">
<path d="M81.7532 0.000998718C81.5983 0.00595491 81.5255 0.0289939 81.5841 0.0808011C81.7013 0.184305 81.9524 0.263941 82.2628 0.33316C82.2296 0.344006 82.1998 0.356558 82.1746 0.370763C82.143 0.38868 82.1229 0.406852 82.1087 0.425288C81.9878 0.442861 81.8684 0.460794 81.7618 0.482111C78.313 0.491736 74.8651 0.52405 71.4227 0.574238C71.2828 0.576259 71.1433 0.579538 71.0035 0.581757C68.8584 0.567774 66.713 0.55559 64.5674 0.555852C62.8557 0.556119 60.8093 0.337855 59.4356 0.606617C59.2245 0.647898 59.1633 0.710417 59.199 0.781053C55.9005 0.786809 52.6023 0.801472 49.3107 0.853334C49.1037 0.838167 48.922 0.83374 48.8162 0.860648C47.84 0.877145 46.8643 0.896053 45.8894 0.919977C45.8226 0.922402 45.7555 0.924533 45.6886 0.926869C45.6146 0.925333 45.5404 0.923999 45.4663 0.922483C45.5346 0.858309 44.9357 0.894771 44.671 0.887179C42.4804 0.824256 40.7103 0.804075 38.4698 0.767894C38.2407 0.765307 36.9751 0.696439 35.8297 0.718592C35.2256 0.671752 34.5429 0.588896 34.2961 0.710862C34.2949 0.711428 34.2941 0.711954 34.2928 0.71252C32.2917 0.655339 30.2915 0.603813 28.2981 0.654235C27.7066 0.669197 27.1238 0.703489 26.5518 0.749705C25.9169 0.732407 25.2826 0.714548 24.649 0.694346C24.3662 0.685327 23.5701 0.610333 23.8108 0.650475C24.2647 0.726164 24.7154 0.807358 25.169 0.887374C24.5282 0.962885 23.9072 1.05053 23.3115 1.14433C22.4621 1.1364 20.532 1.12038 20.4689 1.13075C20.4405 1.13542 20.4161 1.1414 20.3887 1.14642C20.0675 1.1427 19.6366 1.13759 19.6068 1.13723C19.2645 1.13686 18.8519 1.13359 18.6749 1.16793C18.5855 1.16782 18.4961 1.16749 18.4066 1.16729C17.7144 1.17505 16.8539 1.07158 16.3293 1.19068C16.191 1.22207 16.0877 1.26116 16.011 1.30496C15.4241 1.27716 14.8602 1.26514 14.4408 1.34548C13.7908 1.35095 13.1834 1.39635 14.0336 1.61999C13.8567 1.65855 13.7424 1.69212 13.682 1.7211C13.5036 1.72144 13.3253 1.7209 13.1469 1.72131C11.8103 1.7243 10.4741 1.73081 9.13749 1.73635C8.39468 1.73946 7.53761 1.64541 6.90057 1.73991C6.51533 1.74104 6.13047 1.74444 5.74719 1.75348C5.92628 1.85022 6.01975 1.96698 6.16314 2.07207C6.08582 2.14763 6.01099 2.22384 5.89484 2.29058C6.1687 2.29196 6.44313 2.29115 6.71721 2.29099C6.73227 2.29382 6.74355 2.29752 6.75928 2.30018C7.40581 2.4094 8.29554 2.30991 9.06367 2.31355C9.33065 2.31484 9.59762 2.31561 9.86461 2.3169C10.7522 2.33432 11.6377 2.35593 12.523 2.37978C12.509 2.38657 12.498 2.39358 12.4849 2.40046C11.3121 2.43393 10.1271 2.47326 9.10575 2.51286C8.47501 2.53731 7.82675 2.54617 7.22128 2.59872C6.94659 2.62256 6.33107 2.68111 6.52909 2.73659C6.75367 2.79952 7.01513 2.8505 7.29272 2.8962C7.01869 2.89737 6.65107 2.89794 6.45765 2.89955C5.68541 2.90601 4.91677 2.92866 4.14612 2.94322C3.93792 3.10725 2.94773 3.35082 3.5214 3.43519C3.70272 3.46185 3.99026 3.48721 4.32631 3.51165C4.32017 3.51444 4.31525 3.51769 4.30884 3.52042C4.35276 3.52024 4.39669 3.52039 4.44061 3.52021C6.63787 3.67128 11.3845 3.77758 14.4948 3.83566C14.476 3.86276 14.4647 3.88991 14.4615 3.91692C14.4346 3.92293 14.4073 3.9288 14.3813 3.93531C13.9266 3.9117 13.8891 3.91625 14.2583 3.96623C14.1658 3.99203 14.0731 4.01784 13.9796 4.0431C12.5619 4.03649 10.9898 4.03292 10.7029 4.03203C10.401 4.18135 9.43867 4.33998 9.79159 4.47992C8.41441 4.47353 7.03679 4.47188 5.66147 4.48158C5.81057 4.58795 5.8405 4.7214 5.94169 4.8386C5.92632 4.84802 5.91021 4.85718 5.89485 4.8666C4.71748 4.87898 3.5407 4.89521 2.36564 4.92321C1.7822 4.93711 1.04093 4.87028 0.620083 4.97753C0.59463 4.98401 0.57515 4.99171 0.551817 4.99862C0.458454 5.00085 0.364917 5.00198 0.271612 5.00468C0.400229 5.00751 0.459562 5.00869 0.515306 5.00991C0.497825 5.01551 0.477578 5.02057 0.461326 5.02641C0.242738 5.04511 -0.0859509 5.09334 0.134284 5.22403C0.0440543 5.32247 0.0172498 5.42862 0.000137745 5.5259C-0.00800351 5.57203 0.346791 5.54014 0.520069 5.54721C0.72877 5.54345 0.937524 5.54088 1.14638 5.53886C1.14524 5.54039 1.14192 5.54156 1.14161 5.54324C1.0034 6.157 1.38996 6.05769 2.75302 6.05527C3.50974 6.04757 4.26191 6.03686 5.01454 6.01349C5.13136 6.00985 6.04174 5.97472 6.17904 5.97108C6.36552 5.96598 6.55321 5.9638 6.74025 5.96022C6.90922 5.99178 7.09082 6.01717 7.28003 6.03835C7.20109 6.0557 7.1625 6.07477 7.21733 6.09893C7.37917 6.17026 7.71408 6.1502 8.10241 6.10208C8.62193 6.12762 9.16693 6.13289 9.69079 6.13279C9.67352 6.15412 9.66884 6.17608 9.69709 6.19943C9.7836 6.27083 10.0082 6.31303 10.2837 6.34316C10.2822 6.40468 10.4866 6.4129 10.8243 6.38682C10.8696 6.38977 10.9131 6.39356 10.9584 6.39643C11.0146 6.4405 11.0808 6.4827 11.1624 6.52198C11.1346 6.56457 11.1073 6.60694 11.0696 6.64649C11.0521 6.66472 11.2129 6.64564 11.2847 6.64524C11.362 6.64439 11.4392 6.64358 11.5165 6.64273C11.5476 6.65022 11.5754 6.65848 11.6093 6.66529C12.1196 6.76775 12.8919 6.6801 13.5335 6.68451C16.191 6.70286 16.1868 6.69632 18.8988 6.68973C19.6859 6.68456 20.4733 6.68099 21.2603 6.67428C23.4845 6.65529 25.7066 6.62362 27.9314 6.60805C30.0461 6.59326 32.1786 6.58475 34.2928 6.57504C37.7912 6.54792 41.2912 6.55357 44.7908 6.55144C44.7957 6.55156 44.8009 6.55173 44.8058 6.55184C44.794 6.62964 45.1999 6.65102 45.6282 6.65463C46.0475 6.73493 46.6108 6.72273 47.1975 6.69495C47.2743 6.73881 47.3782 6.77779 47.5166 6.80922C48.0413 6.92832 48.9009 6.82485 49.5932 6.83262C49.6826 6.83243 49.7721 6.83232 49.8615 6.83221C50.0387 6.86647 50.4513 6.86308 50.7934 6.86271C50.8232 6.86235 51.2547 6.85723 51.5761 6.85352C51.6034 6.85854 51.6278 6.86451 51.6563 6.86919C51.7193 6.87956 53.6512 6.86374 54.4996 6.85582C55.0948 6.94953 55.7145 7.03732 56.3547 7.11277C55.9015 7.19275 55.451 7.27382 54.9973 7.34946C54.7566 7.38961 55.5527 7.31461 55.8356 7.30559C56.4692 7.28539 57.1042 7.26753 57.7391 7.25023C58.3111 7.29644 58.8932 7.33074 59.4847 7.3457C61.4778 7.39612 63.4785 7.34457 65.4794 7.28742C65.4807 7.28807 65.4812 7.28867 65.4826 7.28932C65.7297 7.41139 66.4133 7.3282 67.0178 7.28138C68.1628 7.30345 69.4281 7.23466 69.6572 7.23208C71.8977 7.1959 73.667 7.17592 75.8575 7.113C76.1223 7.10541 76.7221 7.14169 76.6537 7.07749C76.7275 7.07595 76.8014 7.07462 76.8752 7.0731C76.9421 7.07545 77.0091 7.07757 77.076 7.07999C77.8666 7.0994 78.6579 7.11549 79.4494 7.12992C79.4502 7.13412 79.4503 7.13871 79.451 7.14287C79.4565 7.17577 79.59 7.16396 79.7717 7.13577C79.8486 7.13711 79.9257 7.13804 80.0027 7.13933C80.0503 7.15151 80.1132 7.15722 80.1868 7.15855C80.4024 7.17867 80.6516 7.16797 80.906 7.1527C84.0619 7.19954 87.2234 7.21361 90.3855 7.21913C90.3502 7.28967 90.4121 7.35212 90.6228 7.39336C91.9966 7.66212 94.043 7.44385 95.7547 7.44412C97.8998 7.44438 100.044 7.4322 102.188 7.41822C102.329 7.42044 102.469 7.42372 102.609 7.42574C106.051 7.47592 109.499 7.50823 112.948 7.51786C113.054 7.53928 113.175 7.55725 113.296 7.57489C113.31 7.59328 113.33 7.61156 113.362 7.62942C113.387 7.64362 113.417 7.65597 113.45 7.66681C113.139 7.73605 112.888 7.81562 112.771 7.91917C112.536 8.12641 114.404 7.87251 115.221 7.84898C115.359 7.84502 115.689 7.83576 115.881 7.83039C115.963 7.83994 116.048 7.84855 116.126 7.85922C117.913 7.83002 119.699 7.79664 121.485 7.76228C122.549 7.8985 123.869 7.72367 125.057 7.70086C129.866 7.6085 132.137 7.54962 135.764 7.4554C135.943 7.45762 136.123 7.46051 136.303 7.46167C136.775 7.46474 137.403 7.54903 137.721 7.45707C137.744 7.45041 137.76 7.44477 137.782 7.43827C137.953 7.43673 138.085 7.42494 138.148 7.39419C138.349 7.38902 138.402 7.38772 138.614 7.38228C140.08 7.3316 141.647 7.3717 143.071 7.28409C143.924 7.30346 144.779 7.32221 145.326 7.19489C146.246 7.19057 147.166 7.18973 148.087 7.20032C148.593 7.20351 149.099 7.20804 149.606 7.21202C149.629 7.21489 149.65 7.21821 149.676 7.22017C149.818 7.23117 149.961 7.23978 150.105 7.24732C150.135 7.25323 150.165 7.25844 150.196 7.2632C150.191 7.26835 150.191 7.27406 150.186 7.27908C150.224 7.27823 150.261 7.27722 150.298 7.27637C150.575 7.30736 150.895 7.30019 151.23 7.27993C152.025 7.32261 152.858 7.28533 153.693 7.24358C156.002 7.26003 158.311 7.26856 160.62 7.24422C162.919 7.21985 162.803 7.22469 164.996 7.18845C165.225 7.18465 165.454 7.18081 165.683 7.17696C165.819 7.17946 165.954 7.18323 166.089 7.18552C168.184 7.22904 170.275 7.18011 172.368 7.15941C174.548 7.13908 176.731 7.14622 178.909 7.10781C178.902 7.10135 178.9 7.09621 178.9 7.09131C179.106 7.10275 179.321 7.11749 179.424 7.0865C179.654 7.10494 179.88 7.122 179.897 7.08379C179.925 7.01864 179.951 6.95046 179.965 6.88241C180.305 6.86821 180.644 6.85576 180.98 6.84982C182.523 6.82257 184.067 6.797 185.607 6.76062C186.641 6.73616 187.679 6.71458 188.702 6.66723C189.009 6.653 189.777 6.63964 189.574 6.57699C189.178 6.45468 188.675 6.36384 188.147 6.27972C188.389 6.21524 188.625 6.14909 188.84 6.07833C189.106 6.06643 189.303 6.03962 189.313 5.97513C189.313 5.97165 189.313 5.96855 189.313 5.9651C189.408 5.96353 189.498 5.96276 189.594 5.96114C190.347 5.94845 191.163 5.99732 191.849 5.91477C191.95 5.90268 192.069 5.88322 192.189 5.86066C192.826 5.86183 193.658 5.87022 194.32 5.82222C194.758 5.8408 195.296 5.88761 195.375 5.79444C195.415 5.74748 195.438 5.70527 195.451 5.66533C195.57 5.65992 195.696 5.65529 195.828 5.65113C196.129 5.67494 196.407 5.69013 196.496 5.62857C196.497 5.62796 196.497 5.62748 196.499 5.62691C197.418 5.58746 198.102 5.495 196.715 5.07226C196.419 4.98197 195.813 5.04637 195.361 5.03926C194.676 5.02846 193.99 5.02496 193.305 5.01857C192.85 5.01433 192.348 4.96485 191.897 4.9651C191.866 4.94148 191.715 4.94787 191.562 4.95528C191.13 4.9052 190.714 4.85936 190.32 4.81949C190.951 4.73537 191.623 4.63724 192.36 4.52075C192.77 4.45598 191.406 4.50681 190.928 4.49986C190.091 4.50934 189.254 4.517 188.417 4.52514C188.386 4.50726 188.353 4.48954 188.318 4.47208C190.205 4.42931 192.092 4.3878 193.978 4.34381C194.398 4.3094 195.604 4.30483 195.238 4.24061C194.495 4.11034 193.8 4.00583 193.132 3.91931C193.638 3.85455 194.177 3.78296 194.79 3.69724C195.1 3.65396 194.089 3.70464 193.739 3.70832C192.992 3.71792 192.245 3.72933 191.498 3.73944C190.973 3.69288 190.458 3.65917 189.946 3.63332C189.849 3.57542 189.701 3.51837 189.525 3.47037C190.28 3.45708 191.024 3.43361 191.731 3.37887C192.415 3.39595 193.115 3.41587 193.413 3.28069C193.583 3.20348 193.516 3.10147 193.333 3.00702C193.372 2.96347 193.386 2.91994 193.38 2.87792C195.044 2.85745 196.921 2.80041 198.406 2.63057C198.713 2.6255 199.021 2.62085 199.329 2.61574C199.874 2.6003 201.241 2.69371 200.963 2.56936C200.738 2.46858 200.46 2.3849 200.142 2.3145C200.44 2.22571 200.677 2.12395 200.825 2.00553C201 1.8661 199.71 1.9941 199.153 1.9884C198.357 1.99335 197.561 2.00068 196.766 2.00636C195.826 1.98747 194.843 2.0007 193.895 2.02788C193.356 2.03232 192.817 2.03564 192.278 2.04042C192.387 1.9318 192.415 1.81174 192.493 1.70303C192.518 1.66695 192.146 1.70025 191.861 1.72079C191.843 1.71314 191.83 1.70496 191.809 1.69761C191.69 1.65471 191.483 1.65512 191.259 1.66481C189.917 1.63073 188.575 1.59182 187.231 1.5614C187.218 1.51096 187.206 1.46054 187.204 1.41036C186.844 1.40021 186.485 1.3873 186.124 1.37986C185.351 1.36401 182.597 1.32641 181.972 1.3174C178.952 1.27384 175.935 1.2392 172.911 1.21482C170.792 1.20494 168.672 1.19438 166.551 1.19122C167.1 1.17142 167.648 1.15298 168.199 1.13753C169.141 1.09773 170.548 1.10297 169.364 0.687339C169.421 0.593972 169.247 0.564283 168.971 0.561787C168.949 0.555258 168.932 0.549675 168.909 0.542984C168.591 0.451028 167.964 0.535526 167.491 0.538598C166.829 0.542884 166.168 0.556107 165.506 0.564919C164.79 0.57737 164.072 0.58683 163.356 0.602313C160.796 0.657806 161.597 0.659652 159.051 0.710944C158.15 0.729095 157.247 0.74016 156.345 0.756068C153.548 0.805379 152.885 0.82057 150.079 0.877024C149.617 0.885918 149.155 0.894561 148.693 0.903556C148.636 0.883407 148.452 0.896942 148.262 0.911912C148.253 0.912102 148.243 0.912139 148.233 0.912316C148.129 0.882995 147.917 0.897472 147.713 0.908759C147.714 0.903859 147.716 0.898717 147.722 0.892257C145.545 0.853848 143.362 0.861202 141.181 0.840866C139.088 0.820168 136.997 0.771021 134.903 0.814545C134.767 0.816849 134.632 0.820601 134.497 0.823111C134.268 0.819271 134.039 0.815402 133.81 0.811622C131.617 0.775381 131.733 0.780219 129.434 0.755844C127.125 0.731483 124.815 0.740013 122.506 0.756451C121.672 0.714718 120.839 0.677468 120.044 0.7201C119.708 0.69979 119.388 0.692663 119.111 0.723859C119.074 0.72301 119.037 0.722 119 0.721151C119.004 0.726176 119.006 0.731876 119.009 0.737026C118.979 0.741711 118.948 0.746894 118.919 0.752695C118.775 0.760242 118.631 0.769056 118.489 0.780064C118.464 0.782044 118.442 0.785347 118.419 0.788209C117.913 0.792171 117.407 0.796719 116.901 0.799908C115.98 0.810496 115.06 0.809449 114.14 0.805131C113.594 0.677838 112.74 0.696789 111.887 0.716137C110.462 0.628369 108.894 0.668449 107.427 0.617743C101.193 0.458195 99.9458 0.415838 93.8702 0.299161C92.6819 0.276349 91.3624 0.101521 90.2982 0.237952C88.5126 0.203599 86.727 0.170217 84.94 0.141019C84.8623 0.151684 84.7768 0.160298 84.6948 0.169847C84.5029 0.164478 84.1732 0.155233 84.0351 0.151255C83.4225 0.133601 82.2185 -0.0138187 81.7537 0.00105192L81.7532 0.000998718ZM188.018 6.08872C187.875 6.09192 187.732 6.09448 187.589 6.09749C187.592 6.09669 187.597 6.096 187.6 6.09519C187.723 6.09042 187.867 6.08912 188.018 6.08871L188.018 6.08872Z" fill="#FFC107"/>
</svg>
