<svg width="347" height="8" viewBox="0 0 347 8" fill="none" xmlns="http://www.w3.org/2000/svg">
<path d="M141.157 0.000998718C140.89 0.00595491 140.765 0.0289939 140.866 0.0808011C141.068 0.184305 141.5 0.263941 142.034 0.33316C141.977 0.344006 141.926 0.356558 141.883 0.370763C141.828 0.38868 141.793 0.406852 141.769 0.425288C141.561 0.442861 141.355 0.460794 141.172 0.482111C135.235 0.491736 129.3 0.52405 123.374 0.574238C123.134 0.576259 122.893 0.579538 122.653 0.581757C118.96 0.567774 115.267 0.55559 111.574 0.555852C108.627 0.556119 105.104 0.337855 102.74 0.606617C102.376 0.647898 102.271 0.710417 102.332 0.781053C96.6544 0.786809 90.9769 0.801472 85.3108 0.853334C84.9546 0.838167 84.6418 0.83374 84.4595 0.860648C82.7792 0.877145 81.0996 0.896053 79.4215 0.919977C79.3064 0.922402 79.191 0.924533 79.0758 0.926869C78.9483 0.925333 78.8207 0.923999 78.6932 0.922483C78.8107 0.858309 77.7798 0.894771 77.324 0.887179C73.5532 0.824256 70.5062 0.804075 66.6495 0.767894C66.2549 0.765307 64.0764 0.696439 62.1047 0.718592C61.0648 0.671752 59.8897 0.588896 59.4647 0.710862L59.4592 0.71252C56.0145 0.655339 52.5713 0.603813 49.1399 0.654235C48.1216 0.669197 47.1185 0.703489 46.1337 0.749705C45.0409 0.732407 43.949 0.714548 42.8584 0.694346C42.3715 0.685327 41.0011 0.610333 41.4154 0.650475C42.1969 0.726164 42.9727 0.807358 43.7534 0.887374C42.6504 0.962885 41.5814 1.05053 40.556 1.14433C39.0939 1.1364 35.7713 1.12038 35.6628 1.13075C35.6138 1.13542 35.5718 1.1414 35.5248 1.14642C34.9718 1.1427 34.23 1.13759 34.1788 1.13723C33.5896 1.13686 32.8793 1.13359 32.5746 1.16793C32.4206 1.16782 32.2668 1.16749 32.1128 1.16729C30.9212 1.17505 29.4399 1.07158 28.5368 1.19068C28.2989 1.22207 28.1211 1.26116 27.9889 1.30496C26.9787 1.27716 26.0081 1.26514 25.2861 1.34548C24.1671 1.35095 23.1215 1.39635 24.5851 1.61999C24.2805 1.65855 24.0838 1.69212 23.9798 1.7211C23.6727 1.72144 23.3659 1.7209 23.0588 1.72131C20.7578 1.7243 18.4577 1.73081 16.1569 1.73635C14.8783 1.73946 13.4029 1.64541 12.3063 1.73991C11.6432 1.74104 10.9807 1.74444 10.3209 1.75348C10.6292 1.85022 10.7901 1.96698 11.0369 2.07207C10.9038 2.14763 10.775 2.22384 10.5751 2.29058C11.0465 2.29196 11.5189 2.29115 11.9907 2.29099C12.0166 2.29382 12.036 2.29752 12.0631 2.30018C13.176 2.4094 14.7076 2.30991 16.0299 2.31355C16.4895 2.31484 16.949 2.31561 17.4086 2.3169C18.9366 2.33432 20.4607 2.35593 21.9848 2.37978C21.9607 2.38657 21.9416 2.39358 21.9192 2.40046C19.9002 2.43393 17.8604 2.47326 16.1023 2.51286C15.0166 2.53731 13.9006 2.54617 12.8584 2.59872C12.3855 2.62256 11.326 2.68111 11.6669 2.73659C12.0535 2.79952 12.5035 2.8505 12.9814 2.8962C12.5097 2.89737 11.8768 2.89794 11.5439 2.89955C10.2146 2.90601 8.89143 2.92866 7.56484 2.94322C7.20645 3.10725 5.50194 3.35082 6.48945 3.43519C6.80156 3.46185 7.29655 3.48721 7.87502 3.51165C7.86444 3.51444 7.85597 3.51769 7.84495 3.52042C7.92055 3.52024 7.99617 3.52039 8.07177 3.52021C11.8541 3.67128 20.0249 3.77758 25.379 3.83566C25.3466 3.86276 25.3272 3.88991 25.3216 3.91692C25.2753 3.92293 25.2284 3.9288 25.1836 3.93531C24.4009 3.9117 24.3363 3.91625 24.9718 3.96623C24.8127 3.99203 24.6531 4.01784 24.4922 4.0431C22.0516 4.03649 19.3456 4.03292 18.8516 4.03203C18.3319 4.18135 16.6754 4.33998 17.2829 4.47992C14.9122 4.47353 12.5408 4.47188 10.1734 4.48158C10.43 4.58795 10.4815 4.7214 10.6557 4.8386C10.6293 4.84802 10.6015 4.85718 10.5751 4.8666C8.54837 4.87898 6.52266 4.89521 4.49992 4.92321C3.49559 4.93711 2.21958 4.87028 1.49514 4.97753C1.45133 4.98401 1.41779 4.99171 1.37763 4.99862C1.21691 5.00085 1.0559 5.00198 0.895285 5.00468C1.11669 5.00751 1.21882 5.00869 1.31478 5.00991C1.28469 5.01551 1.24983 5.02057 1.22186 5.02641C0.845581 5.04511 0.279779 5.09334 0.65889 5.22403C0.503569 5.32247 0.457428 5.42862 0.427971 5.5259C0.413957 5.57203 1.0247 5.54014 1.32298 5.54721C1.68223 5.54345 2.04158 5.54088 2.4011 5.53886C2.39914 5.54039 2.3929 5.54324 2.3929 5.54324C2.15498 6.157 2.8204 6.05769 5.16676 6.05527C6.46937 6.04757 7.76416 6.03686 9.05973 6.01349C9.26082 6.00985 10.8279 5.97472 11.0643 5.97108C11.3853 5.96598 11.7084 5.9638 12.0303 5.96022C12.3212 5.99178 12.6338 6.01717 12.9595 6.03835C12.8236 6.0557 12.7572 6.07477 12.8516 6.09893C13.1302 6.17026 13.7067 6.1502 14.3752 6.10208C15.2695 6.12762 16.2076 6.13289 17.1094 6.13279C17.0797 6.15412 17.0716 6.17608 17.1202 6.19943C17.2692 6.27083 17.6558 6.31303 18.13 6.34316C18.1274 6.40468 18.4792 6.4129 19.0606 6.38682C19.1387 6.38977 19.2134 6.39356 19.2915 6.39643C19.3882 6.4405 19.5021 6.4827 19.6427 6.52198C19.5947 6.56457 19.5478 6.60694 19.4828 6.64649C19.4527 6.66472 19.7295 6.64564 19.8531 6.64524C19.9861 6.64439 20.1191 6.64358 20.2521 6.64273C20.3057 6.65022 20.3536 6.65848 20.412 6.66529C21.2903 6.76775 22.6198 6.6801 23.7242 6.68451C28.2989 6.70286 28.2915 6.69632 32.9599 6.68973C34.315 6.68456 35.6703 6.68099 37.0251 6.67428C40.8538 6.65529 44.6788 6.62362 48.5086 6.60805C52.149 6.59326 55.8198 6.58475 59.4592 6.57504C65.4813 6.54792 71.5061 6.55357 77.5302 6.55144C77.5387 6.55156 77.5477 6.55173 77.5561 6.55184C77.5358 6.62964 78.2345 6.65102 78.9718 6.65463C79.6936 6.73493 80.6632 6.72273 81.6732 6.69495C81.8054 6.73881 81.9842 6.77779 82.2225 6.80922C83.1256 6.92832 84.6055 6.82485 85.7971 6.83262C85.951 6.83243 86.105 6.83232 86.2589 6.83221C86.564 6.86647 87.2743 6.86308 87.8631 6.86271C87.9144 6.86235 88.6572 6.85723 89.2104 6.85352C89.2575 6.85854 89.2995 6.86451 89.3484 6.86919C89.457 6.87956 92.7826 6.86374 94.243 6.85582C95.2676 6.94953 96.3343 7.03732 97.4364 7.11277C96.6561 7.19275 95.8807 7.27382 95.0998 7.34946C94.6854 7.38961 96.0558 7.31461 96.5427 7.30559C97.6334 7.28539 98.7266 7.26753 99.8194 7.25023C100.804 7.29644 101.806 7.33074 102.824 7.3457C106.255 7.39612 109.699 7.34457 113.144 7.28742L113.149 7.28932C113.574 7.41139 114.751 7.3282 115.792 7.28138C117.763 7.30345 119.941 7.23466 120.335 7.23208C124.192 7.1959 127.238 7.17592 131.008 7.113C131.464 7.10541 132.497 7.14169 132.379 7.07749C132.506 7.07595 132.633 7.07462 132.76 7.0731C132.875 7.07545 132.991 7.07757 133.106 7.07999C134.467 7.0994 135.829 7.11549 137.191 7.12992C137.193 7.13412 137.193 7.13871 137.194 7.14287C137.204 7.17577 137.433 7.16396 137.746 7.13577C137.879 7.13711 138.011 7.13804 138.144 7.13933C138.226 7.15151 138.334 7.15722 138.461 7.15855C138.832 7.17867 139.261 7.16797 139.699 7.1527C145.131 7.19954 150.573 7.21361 156.017 7.21913C155.956 7.28967 156.062 7.35212 156.425 7.39336C158.79 7.66212 162.313 7.44385 165.259 7.44412C168.952 7.44438 172.643 7.4322 176.334 7.41822C176.576 7.42044 176.817 7.42372 177.058 7.42574C182.983 7.47592 188.919 7.50823 194.855 7.51786C195.039 7.53928 195.246 7.55725 195.455 7.57489C195.478 7.59328 195.514 7.61156 195.568 7.62942C195.611 7.64362 195.663 7.65597 195.72 7.66681C195.185 7.73605 194.752 7.81562 194.55 7.91917C194.146 8.12641 197.362 7.87251 198.768 7.84898C199.006 7.84502 199.574 7.83576 199.904 7.83039C200.045 7.83994 200.192 7.84856 200.326 7.85922C203.402 7.83002 206.477 7.79664 209.551 7.76228C211.383 7.8985 213.655 7.72367 215.7 7.70086C223.979 7.6085 227.887 7.54962 234.13 7.4554C234.439 7.45762 234.749 7.46051 235.058 7.46167C235.872 7.46474 236.952 7.54903 237.5 7.45707C237.54 7.45041 237.567 7.44477 237.605 7.43827C237.899 7.43673 238.126 7.42494 238.235 7.39419C238.581 7.38902 238.672 7.38772 239.037 7.38228C241.56 7.3316 244.258 7.3717 246.71 7.28409C248.178 7.30346 249.65 7.32221 250.59 7.19489C252.174 7.19057 253.758 7.18973 255.343 7.20032C256.214 7.20351 257.087 7.20804 257.958 7.21202C257.998 7.21489 258.035 7.2182 258.079 7.22017C258.324 7.23117 258.57 7.23978 258.818 7.24732C258.869 7.25323 258.92 7.25844 258.974 7.2632C258.966 7.26835 258.966 7.27406 258.958 7.27908C259.022 7.27823 259.086 7.27722 259.15 7.27637C259.627 7.30736 260.178 7.30019 260.755 7.27993C262.123 7.32261 263.557 7.28533 264.993 7.24358C268.968 7.26003 272.943 7.26856 276.918 7.24422C280.876 7.21985 280.675 7.22469 284.451 7.18845C284.845 7.18465 285.239 7.18081 285.633 7.17696C285.867 7.17946 286.099 7.18323 286.333 7.18552C289.939 7.22904 293.538 7.18011 297.14 7.15941C300.894 7.13908 304.652 7.14622 308.401 7.10781C308.388 7.10135 308.385 7.09621 308.385 7.09131C308.74 7.10275 309.11 7.11749 309.287 7.0865C309.683 7.10494 310.073 7.122 310.101 7.08379C310.15 7.01864 310.194 6.95046 310.219 6.88241C310.804 6.86821 311.387 6.85576 311.966 6.84982C314.622 6.82257 317.279 6.797 319.93 6.76062C321.71 6.73616 323.497 6.71458 325.258 6.66723C325.787 6.653 327.108 6.63964 326.759 6.57699C326.078 6.45468 325.211 6.36384 324.302 6.27972C324.72 6.21524 325.125 6.14909 325.495 6.07833C325.953 6.06643 326.292 6.03962 326.31 5.97513C326.311 5.97165 326.309 5.96855 326.31 5.9651C326.474 5.96353 326.628 5.96276 326.793 5.96114C328.089 5.94845 329.495 5.99732 330.675 5.91477C330.848 5.90268 331.054 5.88322 331.26 5.86066C332.356 5.86183 333.789 5.87022 334.929 5.82222C335.683 5.8408 336.609 5.88761 336.745 5.79444C336.814 5.74748 336.853 5.70527 336.876 5.66533C337.081 5.65992 337.298 5.65528 337.525 5.65113C338.042 5.67494 338.522 5.69013 338.674 5.62857C338.674 5.62857 338.677 5.62748 338.68 5.62691C340.262 5.58746 341.439 5.495 339.051 5.07226C338.541 4.98197 337.499 5.04637 336.72 5.03926C335.542 5.02846 334.361 5.02496 333.181 5.01857C332.398 5.01433 331.534 4.96485 330.757 4.9651C330.705 4.94148 330.445 4.94787 330.181 4.95528C329.438 4.9052 328.722 4.85936 328.043 4.81949C329.129 4.73537 330.286 4.63724 331.555 4.52075C332.261 4.45598 329.912 4.50681 329.09 4.49986C327.65 4.50934 326.208 4.517 324.767 4.52514C324.713 4.50726 324.657 4.48954 324.597 4.47208C327.845 4.42931 331.093 4.3878 334.34 4.34381C335.063 4.3094 337.138 4.30483 336.508 4.24061C335.23 4.11034 334.034 4.00583 332.883 3.91931C333.756 3.85455 334.683 3.78296 335.738 3.69724C336.271 3.65396 334.532 3.70464 333.929 3.70832C332.642 3.71792 331.357 3.72933 330.071 3.73944C329.167 3.69288 328.282 3.65917 327.4 3.63332C327.232 3.57542 326.977 3.51837 326.674 3.47037C327.974 3.45708 329.254 3.43361 330.472 3.37887C331.65 3.39595 332.855 3.41587 333.367 3.28069C333.66 3.20348 333.545 3.10147 333.229 3.00702C333.297 2.96347 333.322 2.91994 333.311 2.87792C336.174 2.85745 339.407 2.80041 341.962 2.63057C342.492 2.6255 343.021 2.62085 343.551 2.61574C344.489 2.6003 346.842 2.69371 346.365 2.56936C345.978 2.46858 345.497 2.3849 344.95 2.3145C345.464 2.22571 345.871 2.12395 346.127 2.00553C346.428 1.8661 344.207 1.9941 343.248 1.9884C341.878 1.99335 340.509 2.00068 339.139 2.00636C337.521 1.98747 335.829 2.0007 334.198 2.02788C333.27 2.03232 332.341 2.03564 331.413 2.04042C331.601 1.9318 331.65 1.81174 331.783 1.70303C331.827 1.66695 331.187 1.70025 330.696 1.72079C330.665 1.71314 330.642 1.70496 330.607 1.69761C330.401 1.65471 330.046 1.65512 329.66 1.66481C327.35 1.63073 325.039 1.59182 322.727 1.5614C322.703 1.51096 322.682 1.46054 322.679 1.41036C322.059 1.40021 321.441 1.3873 320.82 1.37986C319.489 1.36401 314.748 1.32641 313.673 1.3174C308.474 1.27384 303.28 1.2392 298.076 1.21482C294.428 1.20494 290.778 1.19438 287.128 1.19122C288.072 1.17142 289.017 1.15298 289.964 1.13753C291.585 1.09773 294.007 1.10297 291.969 0.687339C292.068 0.593972 291.768 0.564283 291.293 0.561787C291.255 0.555258 291.226 0.549675 291.187 0.542984C290.638 0.451028 289.56 0.535526 288.746 0.538598C287.606 0.542884 286.468 0.556107 285.329 0.564919C284.095 0.57737 282.86 0.58683 281.628 0.602313C277.22 0.657806 278.6 0.659652 274.217 0.710944C272.665 0.729095 271.111 0.74016 269.559 0.756068C264.744 0.805379 263.603 0.82057 258.773 0.877024C257.978 0.885918 257.182 0.894561 256.386 0.903556C256.288 0.883407 255.971 0.896942 255.646 0.911912C255.63 0.912102 255.612 0.912139 255.595 0.912316C255.416 0.882995 255.051 0.897472 254.7 0.908759C254.702 0.903859 254.705 0.898717 254.716 0.892257C250.967 0.853848 247.209 0.861202 243.455 0.840866C239.854 0.820168 236.254 0.771021 232.648 0.814545C232.415 0.816849 232.183 0.820601 231.95 0.823111C231.556 0.819271 231.162 0.815402 230.768 0.811622C226.992 0.775381 227.193 0.780219 223.235 0.755844C219.259 0.731483 215.283 0.740013 211.308 0.756451C209.873 0.714718 208.439 0.677468 207.071 0.7201C206.493 0.69979 205.941 0.692663 205.464 0.723859C205.401 0.72301 205.337 0.722 205.273 0.721151C205.281 0.726176 205.284 0.731876 205.289 0.737026C205.237 0.741711 205.185 0.746894 205.134 0.752695C204.886 0.760242 204.639 0.769056 204.394 0.780064C204.35 0.782044 204.313 0.785347 204.274 0.788209C203.402 0.792171 202.531 0.796719 201.66 0.799908C200.075 0.810496 198.491 0.809449 196.907 0.805131C195.967 0.677838 194.497 0.696789 193.029 0.716137C190.577 0.628369 187.877 0.668449 185.353 0.617743C174.621 0.458195 172.474 0.415838 162.015 0.299161C159.97 0.276349 157.698 0.101521 155.866 0.237952C152.793 0.203598 149.719 0.170217 146.643 0.141019C146.509 0.151684 146.362 0.160298 146.221 0.169847C145.89 0.164478 145.323 0.155233 145.085 0.151255C144.031 0.133601 141.957 -0.0138719 141.157 0.000998718ZM324.08 6.08872C323.834 6.09192 323.588 6.09448 323.342 6.09749C323.347 6.09669 323.355 6.096 323.361 6.09519C323.573 6.09042 323.82 6.08913 324.08 6.08872Z" fill="#FFC107"/>
</svg>
