<svg width="171" height="46" viewBox="0 0 171 46" fill="none" xmlns="http://www.w3.org/2000/svg">
<path d="M69.3124 0.00574263C69.1814 0.0342407 69.1198 0.166715 69.1694 0.464606C69.2685 1.05975 69.4809 1.51766 69.7435 1.91567C69.7154 1.97803 69.6902 2.05021 69.6689 2.13189C69.6421 2.23491 69.6251 2.3394 69.6132 2.44541C69.5109 2.54645 69.4099 2.64957 69.3198 2.77214C66.4028 2.82748 63.4867 3.01329 60.5752 3.30187C60.4569 3.31349 60.3389 3.33234 60.2207 3.3451C58.4064 3.2647 56.5919 3.19464 54.7772 3.19615C53.3295 3.19769 51.5987 1.94266 50.4368 3.48805C50.2584 3.72541 50.2066 4.0849 50.2368 4.49105C47.447 4.52415 44.6575 4.60846 41.8735 4.90667C41.6985 4.81946 41.5448 4.79401 41.4553 4.94872C40.6297 5.04359 39.8044 5.1523 38.9799 5.28987C38.9234 5.30381 38.8667 5.31606 38.8101 5.3295C38.7474 5.32067 38.6847 5.31299 38.6221 5.30428C38.6798 4.93528 38.1733 5.14493 37.9494 5.10128C36.0967 4.73947 34.5996 4.62343 32.7047 4.41539C32.5108 4.40051 31.4404 4.00453 30.4717 4.13191C29.9607 3.86258 29.3834 3.38615 29.1746 4.08746C29.1736 4.09071 29.1729 4.09374 29.1719 4.09699C27.4794 3.7682 25.7877 3.47192 24.1017 3.76185C23.6014 3.84788 23.1085 4.04506 22.6247 4.31081C22.0878 4.21134 21.5513 4.10865 21.0154 3.99249C20.7762 3.94063 20.1029 3.50941 20.3064 3.74023C20.6904 4.17544 21.0716 4.64231 21.4552 5.1024C20.9132 5.53659 20.388 6.04058 19.8841 6.57989C19.1658 6.53433 17.5333 6.44218 17.48 6.50181C17.4559 6.52868 17.4353 6.56304 17.4122 6.59191C17.1405 6.57052 16.776 6.54114 16.7509 6.53905C16.4614 6.53693 16.1124 6.51813 15.9627 6.71562C15.887 6.71494 15.8114 6.71306 15.7358 6.7119C15.1503 6.75653 14.4225 6.16157 13.9788 6.84644C13.8619 7.02688 13.7745 7.25169 13.7096 7.5035C13.2132 7.34369 12.7363 7.27453 12.3816 7.73653C11.8318 7.76798 11.3181 8.029 12.0372 9.31492C11.8875 9.53668 11.7909 9.72967 11.7398 9.8963C11.5889 9.89827 11.4382 9.8952 11.2873 9.8975C10.1567 9.91471 9.02663 9.95216 7.89619 9.984C7.26795 10.0019 6.54306 9.46113 6.00427 10.0045C5.67845 10.011 5.35295 10.0305 5.02878 10.0825C5.18024 10.6388 5.2593 11.3102 5.38058 11.9144C5.31518 12.3488 5.25189 12.7871 5.15365 13.1708C5.38528 13.1787 5.61738 13.1741 5.84919 13.1732C5.86192 13.1894 5.87147 13.2108 5.88478 13.226C6.43159 13.854 7.18409 13.282 7.83376 13.3029C8.05957 13.3103 8.28536 13.3148 8.51117 13.3222C9.26191 13.4223 10.0108 13.5466 10.7596 13.6838C10.7478 13.7228 10.7384 13.7631 10.7274 13.8027C9.73538 13.9951 8.73315 14.2212 7.86935 14.4489C7.33589 14.5896 6.78761 14.6405 6.27552 14.9426C6.04319 15.0797 5.52261 15.4164 5.69009 15.7354C5.88003 16.0973 6.10117 16.3904 6.33594 16.6531C6.10417 16.6599 5.79326 16.6631 5.62966 16.6724C4.97653 16.7096 4.32643 16.8398 3.67464 16.9235C3.49855 17.8667 2.66108 19.2672 3.14627 19.7523C3.29962 19.9057 3.54282 20.0515 3.82704 20.192C3.82184 20.208 3.81768 20.2267 3.81226 20.2424C3.84941 20.2414 3.88657 20.2422 3.92371 20.2412C5.78209 21.1099 9.79662 21.7211 12.4273 22.055C12.4113 22.2108 12.4018 22.367 12.3991 22.5223C12.3763 22.5569 12.3533 22.5906 12.3313 22.628C11.9467 22.4923 11.9149 22.5184 12.2272 22.8058C12.149 22.9542 12.0706 23.1026 11.9916 23.2478C10.7924 23.2098 9.46285 23.1893 9.22014 23.1842C8.96481 24.0428 8.15093 24.9549 8.44941 25.7596C7.28463 25.7228 6.11949 25.7133 4.95628 25.7691C5.08238 26.3807 5.1077 27.1481 5.19327 27.822C5.18028 27.8761 5.16665 27.9288 5.15366 27.9829C4.15788 28.0541 3.16259 28.1475 2.16876 28.3085C1.6753 28.3884 1.04836 28.0041 0.692417 28.6208C0.67089 28.6581 0.654414 28.7023 0.63468 28.7421C0.555716 28.7549 0.476605 28.7614 0.39769 28.7769C0.506471 28.7932 0.556653 28.7999 0.603799 28.807C0.589015 28.8392 0.57189 28.8683 0.558145 28.9018C0.373269 29.0094 0.095274 29.2867 0.281542 30.0382C0.205229 30.6042 0.182558 31.2146 0.168085 31.7739C0.1612 32.0392 0.461275 31.8558 0.607828 31.8965C0.784341 31.8748 0.9609 31.86 1.13754 31.8484C1.13658 31.8572 1.13377 31.864 1.13351 31.8736C1.01661 35.4028 1.34355 34.8317 2.49639 34.8178C3.1364 34.7735 3.77257 34.7119 4.40912 34.5776C4.50792 34.5566 5.2779 34.3546 5.39402 34.3337C5.55174 34.3044 5.71048 34.2918 5.86867 34.2713C6.01158 34.4527 6.16518 34.5987 6.32521 34.7205C6.25844 34.8203 6.22581 34.9299 6.27217 35.0689C6.40906 35.479 6.69232 35.3636 7.02075 35.087C7.46015 35.2338 7.9211 35.2641 8.36416 35.2635C8.34956 35.3862 8.3456 35.5125 8.36949 35.6467C8.44266 36.0572 8.63264 36.2999 8.86563 36.4732C8.86434 36.8269 9.0372 36.8742 9.32283 36.7242C9.3612 36.7412 9.39792 36.763 9.43629 36.7795C9.48381 37.0329 9.53977 37.2755 9.60883 37.5014C9.58526 37.7463 9.56222 37.9899 9.53028 38.2173C9.51549 38.3221 9.65149 38.2124 9.71222 38.2101C9.77758 38.2052 9.8429 38.2006 9.90826 38.1957C9.93462 38.2387 9.95813 38.2863 9.98681 38.3254C10.4183 38.9146 11.0716 38.4106 11.6142 38.4359C13.8619 38.5415 13.8583 38.5039 16.152 38.466C16.8178 38.4362 17.4837 38.4157 18.1493 38.3771C20.0305 38.2679 21.9098 38.0858 23.7915 37.9963C25.5801 37.9112 27.3837 37.8623 29.1718 37.8065C32.1307 37.6506 35.0909 37.683 38.0507 37.6708C38.0549 37.6715 38.0593 37.6725 38.0634 37.6731C38.0534 38.1204 38.3967 38.2434 38.759 38.2641C39.1136 38.7258 39.59 38.6557 40.0863 38.4959C40.1512 38.7482 40.2391 38.9723 40.3562 39.153C40.7999 39.8379 41.527 39.2429 42.1125 39.2875C42.1881 39.2865 42.2637 39.2858 42.3394 39.2852C42.4893 39.4822 42.8383 39.4627 43.1276 39.4606C43.1527 39.4585 43.5177 39.4291 43.7895 39.4077C43.8127 39.4366 43.8333 39.4709 43.8573 39.4978C43.9107 39.5575 45.5446 39.4665 46.2622 39.421C46.7656 39.9598 47.2897 40.4646 47.8312 40.8984C47.4478 41.3583 47.0668 41.8245 46.6831 42.2594C46.4796 42.4902 47.1529 42.059 47.3921 42.0072C47.928 41.891 48.4651 41.7883 49.002 41.6888C49.4858 41.9545 49.9782 42.1518 50.4784 42.2378C52.1641 42.5277 53.8563 42.2313 55.5486 41.9027C55.5496 41.9064 55.5501 41.9099 55.5513 41.9136C55.7602 42.6155 56.3384 42.1371 56.8497 41.8679C57.8181 41.9948 58.8882 41.5993 59.082 41.5844C60.9769 41.3764 62.4734 41.2616 64.3261 40.8998C64.55 40.8561 65.0573 41.0647 64.9995 40.6955C65.0619 40.6867 65.1243 40.6791 65.1868 40.6703C65.2434 40.6838 65.3001 40.696 65.3566 40.71C66.0253 40.8215 66.6946 40.9141 67.364 40.9971C67.3646 41.0212 67.3648 41.0476 67.3653 41.0715C67.37 41.2607 67.4829 41.1928 67.6365 41.0307C67.7016 41.0384 67.7668 41.0437 67.8319 41.0511C67.8722 41.1212 67.9254 41.154 67.9877 41.1617C68.17 41.2773 68.3807 41.2158 68.5959 41.128C71.2651 41.3974 73.939 41.4783 76.6134 41.51C76.5835 41.9156 76.6359 42.2747 76.8142 42.5118C77.9761 44.0572 79.7068 42.8022 81.1546 42.8037C82.9688 42.8052 84.7822 42.7351 86.596 42.6547C86.7147 42.6675 86.8331 42.6864 86.9518 42.698C89.8629 42.9865 92.7792 43.1723 95.6957 43.2277C95.7861 43.3508 95.8878 43.4542 95.9905 43.5556C96.0022 43.6613 96.0194 43.7665 96.0462 43.8692C96.0674 43.9508 96.0926 44.0218 96.1208 44.0842C95.858 44.4823 95.6452 44.9398 95.5461 45.5352C95.3477 46.7268 96.9278 45.267 97.6186 45.1316C97.7354 45.1088 98.0142 45.0556 98.1765 45.0247C98.2459 45.0796 98.3182 45.1292 98.384 45.1905C99.8953 45.0226 101.406 44.8307 102.916 44.6331C103.816 45.4164 104.933 44.4111 105.938 44.28C110.005 43.7489 111.925 43.4103 114.993 42.8686C115.145 42.8813 115.297 42.8979 115.449 42.9046C115.849 42.9222 116.379 43.4069 116.649 42.8782C116.668 42.8398 116.682 42.8074 116.7 42.77C116.845 42.7612 116.956 42.6934 117.01 42.5166C117.18 42.4869 117.224 42.4794 117.404 42.4481C118.643 42.1567 119.969 42.3873 121.174 41.8835C121.895 41.9949 122.618 42.1027 123.08 41.3706C123.858 41.3458 124.637 41.341 125.415 41.4018C125.844 41.4202 126.272 41.4462 126.7 41.4691C126.72 41.4856 126.738 41.5047 126.759 41.516C126.88 41.5792 127.001 41.6287 127.123 41.6721C127.148 41.7061 127.173 41.736 127.199 41.7634C127.195 41.793 127.195 41.8259 127.191 41.8547C127.223 41.8498 127.254 41.844 127.286 41.8391C127.52 42.0173 127.791 41.9761 128.074 41.8596C128.746 42.105 129.451 41.8906 130.157 41.6506C132.11 41.7452 134.063 41.7942 136.016 41.6543C137.961 41.5141 137.862 41.5419 139.717 41.3336C139.911 41.3117 140.104 41.2896 140.298 41.2675C140.413 41.2819 140.527 41.3036 140.642 41.3167C142.413 41.567 144.182 41.2856 145.951 41.1666C147.796 41.0497 149.642 41.0908 151.484 40.8699C151.478 40.8328 151.476 40.8032 151.476 40.775C151.651 40.8408 151.833 40.9256 151.92 40.7474C152.114 40.8534 152.306 40.9515 152.32 40.7318C152.343 40.3572 152.365 39.9651 152.377 39.5739C152.665 39.4922 152.951 39.4206 153.236 39.3865C154.541 39.2298 155.846 39.0827 157.149 38.8735C158.024 38.7329 158.901 38.6088 159.766 38.3366C160.027 38.2548 160.676 38.178 160.504 37.8177C160.17 37.1144 159.743 36.5921 159.297 36.1084C159.502 35.7376 159.701 35.3573 159.883 34.9504C160.108 34.882 160.275 34.7278 160.283 34.357C160.284 34.337 160.283 34.3192 160.283 34.2994C160.364 34.2903 160.44 34.2859 160.521 34.2766C161.158 34.2036 161.848 34.4846 162.428 34.0099C162.513 33.9404 162.614 33.8285 162.716 33.6988C163.254 33.7055 163.958 33.7537 164.518 33.4778C164.889 33.5846 165.344 33.8538 165.411 33.318C165.444 33.048 165.463 32.8053 165.475 32.5757C165.576 32.5445 165.682 32.5179 165.794 32.494C166.048 32.6309 166.283 32.7183 166.359 32.3643C166.359 32.3608 166.36 32.358 166.361 32.3547C167.138 32.1279 167.717 31.5963 166.544 29.1655C166.293 28.6463 165.781 29.0166 165.398 28.9757C164.819 28.9137 164.239 28.8935 163.66 28.8568C163.275 28.8324 162.85 28.5479 162.469 28.5493C162.443 28.4135 162.315 28.4502 162.185 28.4928C161.82 28.2049 161.469 27.9413 161.135 27.7121C161.668 27.2284 162.237 26.6641 162.861 25.9943C163.207 25.6219 162.053 25.9142 161.65 25.8742C160.942 25.9287 160.233 25.9728 159.525 26.0195C159.499 25.9168 159.471 25.8148 159.442 25.7144C161.038 25.4685 162.634 25.2299 164.229 24.9769C164.584 24.7791 165.604 24.7528 165.294 24.3835C164.666 23.6345 164.078 23.0335 163.513 22.536C163.942 22.1637 164.397 21.752 164.916 21.2592C165.178 21.0103 164.323 21.3017 164.027 21.3228C163.395 21.378 162.763 21.4436 162.132 21.5018C161.687 21.2341 161.252 21.0402 160.819 20.8916C160.736 20.5587 160.611 20.2306 160.462 19.9546C161.101 19.8782 161.73 19.7433 162.328 19.4285C162.907 19.5267 163.499 19.6413 163.751 18.8639C163.895 18.42 163.838 17.8335 163.683 17.2904C163.717 17.04 163.729 16.7897 163.723 16.548C165.13 16.4303 166.718 16.1024 167.974 15.1258C168.234 15.0966 168.494 15.0699 168.755 15.0405C169.215 14.9517 170.371 15.4888 170.137 14.7738C169.947 14.1944 169.711 13.7132 169.442 13.3084C169.695 12.7978 169.894 12.2127 170.02 11.5318C170.168 10.7301 169.077 11.4661 168.605 11.4333C167.932 11.4618 167.26 11.5039 166.587 11.5366C165.792 11.428 164.96 11.504 164.159 11.6603C163.703 11.6859 163.247 11.7049 162.791 11.7324C162.883 11.1078 162.907 10.4175 162.973 9.79245C162.994 9.58494 162.68 9.77641 162.438 9.89457C162.423 9.85054 162.412 9.80349 162.395 9.76123C162.294 9.51458 162.119 9.51697 161.929 9.57265C160.794 9.37667 159.659 9.15298 158.523 8.97805C158.511 8.68802 158.501 8.39808 158.499 8.10957C158.195 8.05123 157.891 7.97697 157.586 7.9342C156.932 7.84308 154.603 7.62687 154.074 7.57503C151.52 7.32457 148.968 7.1254 146.411 6.98524C144.619 6.92838 142.826 6.86771 141.032 6.84951C141.496 6.73566 141.96 6.62962 142.425 6.5408C143.222 6.31193 144.412 6.34208 143.411 3.9522C143.46 3.41534 143.312 3.24463 143.079 3.23027C143.06 3.19273 143.046 3.16063 143.026 3.12216C142.757 2.59341 142.227 3.07928 141.827 3.09694C141.267 3.12158 140.708 3.19761 140.148 3.24829C139.542 3.31988 138.935 3.37427 138.33 3.4633C136.164 3.78238 136.842 3.793 134.689 4.08793C133.926 4.1923 133.163 4.25592 132.4 4.34739C130.035 4.63093 129.474 4.71828 127.101 5.04289C126.71 5.09403 126.319 5.14373 125.928 5.19545C125.88 5.07959 125.724 5.15742 125.564 5.24349C125.556 5.24458 125.547 5.2448 125.539 5.24581C125.451 5.07722 125.272 5.16046 125.099 5.22536C125.1 5.19719 125.102 5.16762 125.107 5.13048C123.265 4.90963 121.419 4.95191 119.575 4.83498C117.805 4.71597 116.036 4.43337 114.265 4.68363C114.15 4.69688 114.036 4.71845 113.922 4.73289C113.728 4.71081 113.534 4.68856 113.341 4.66683C111.486 4.45844 111.584 4.48626 109.64 4.3461C107.686 4.20603 105.733 4.25508 103.78 4.34959C103.074 4.10963 102.37 3.89544 101.698 4.14057C101.414 4.02379 101.143 3.98281 100.908 4.16219C100.877 4.15731 100.846 4.1515 100.815 4.14662C100.818 4.17551 100.82 4.20829 100.822 4.2379C100.797 4.26484 100.771 4.29464 100.746 4.32799C100.625 4.37139 100.503 4.42207 100.383 4.48536C100.361 4.49676 100.343 4.51574 100.323 4.5322C99.8953 4.55498 99.4672 4.58113 99.0391 4.59947C98.2605 4.66035 97.4822 4.65433 96.7041 4.62951C96.2424 3.89757 95.5198 4.00654 94.7988 4.11779C93.5939 3.61312 92.2671 3.84358 91.027 3.55202C85.754 2.63462 84.6993 2.39107 79.5607 1.72018C78.5556 1.58901 77.4397 0.583744 76.5395 1.36823C75.0294 1.17069 73.5191 0.978746 72.0078 0.810861C71.9421 0.872181 71.8697 0.921715 71.8003 0.97662C71.6381 0.945751 71.3592 0.89259 71.2424 0.869717C70.7243 0.768207 69.706 -0.0794574 69.3129 0.00604855L69.3124 0.00574263ZM159.188 35.0102C159.067 35.0285 158.946 35.0433 158.825 35.0606C158.828 35.0559 158.832 35.052 158.834 35.0473C158.939 35.0199 159.06 35.0124 159.188 35.0101L159.188 35.0102Z" fill="#FFC107"/>
</svg>
