<svg width="41" height="40" viewBox="0 0 41 40" fill="none" xmlns="http://www.w3.org/2000/svg">
<path d="M12.088 7.305L12.113 7.29L12.228 7.2225C12.3296 7.16083 12.4838 7.075 12.6905 6.965C13.103 6.7475 13.703 6.455 14.4455 6.165C15.943 5.57 17.9705 5 20.168 5C22.3655 5 24.393 5.575 25.8905 6.1625C26.6536 6.46343 27.3946 6.81763 28.108 7.2225C28.1596 7.25083 28.1971 7.27333 28.2205 7.29L28.2455 7.305H28.248C28.5276 7.47517 28.8629 7.52883 29.1817 7.45446C29.5005 7.38009 29.7774 7.18362 29.9529 6.90727C30.1284 6.63092 30.1885 6.29675 30.1203 5.97657C30.052 5.6564 29.8609 5.37577 29.588 5.195L29.5805 5.19L29.568 5.1825L29.523 5.155L29.3705 5.0625C28.5464 4.59396 27.6901 4.18459 26.808 3.8375C25.128 3.175 22.7805 2.5 20.168 2.5C17.5555 2.5 15.2055 3.175 13.5305 3.8375C12.6475 4.18448 11.7903 4.59385 10.9655 5.0625L10.813 5.155L10.768 5.18L10.7555 5.19L10.7505 5.1925C10.4703 5.36986 10.2721 5.65125 10.1995 5.97475C10.1268 6.29825 10.1856 6.63736 10.363 6.9175C10.5403 7.19763 10.8217 7.39584 11.1452 7.46851C11.4687 7.54118 11.8078 7.48236 12.088 7.305ZM10.168 10C8.84189 10 7.57012 10.5268 6.63243 11.4645C5.69475 12.4021 5.16797 13.6739 5.16797 15V25C5.16797 26.3261 5.69475 27.5979 6.63243 28.5355C7.57012 29.4732 8.84189 30 10.168 30H21.418C22.7441 30 24.0158 29.4732 24.9535 28.5355C25.8912 27.5979 26.418 26.3261 26.418 25V24.655L33.298 28.585C33.488 28.6936 33.7033 28.7503 33.9222 28.7496C34.1411 28.7488 34.356 28.6906 34.5453 28.5808C34.7346 28.4709 34.8918 28.3133 35.0011 28.1236C35.1103 27.9339 35.1679 27.7189 35.168 27.5V12.5C35.1679 12.2811 35.1103 12.0661 35.0011 11.8764C34.8918 11.6867 34.7346 11.5291 34.5453 11.4192C34.356 11.3094 34.1411 11.2512 33.9222 11.2504C33.7033 11.2497 33.488 11.3064 33.298 11.415L26.418 15.345V15C26.418 13.6739 25.8912 12.4021 24.9535 11.4645C24.0158 10.5268 22.7441 10 21.418 10H10.168ZM26.418 18.225L32.668 14.655V25.345L26.418 21.775V18.225ZM7.66797 15C7.66797 14.337 7.93136 13.7011 8.4002 13.2322C8.86904 12.7634 9.50493 12.5 10.168 12.5H21.418C22.081 12.5 22.7169 12.7634 23.1857 13.2322C23.6546 13.7011 23.918 14.337 23.918 15V25C23.918 25.663 23.6546 26.2989 23.1857 26.7678C22.7169 27.2366 22.081 27.5 21.418 27.5H10.168C9.50493 27.5 8.86904 27.2366 8.4002 26.7678C7.93136 26.2989 7.66797 25.663 7.66797 25V15ZM12.0905 32.6975L12.088 32.695C11.8083 32.5248 11.473 32.4712 11.1542 32.5455C10.8354 32.6199 10.5585 32.8164 10.383 33.0927C10.2075 33.3691 10.1474 33.7032 10.2157 34.0234C10.2839 34.3436 10.475 34.6242 10.748 34.805L10.7555 34.81L10.768 34.8175L10.813 34.845C10.848 34.8683 10.8988 34.8992 10.9655 34.9375C11.0988 35.0142 11.2855 35.1175 11.5255 35.2475C12.003 35.4975 12.688 35.83 13.5305 36.1625C15.2055 36.8225 17.5555 37.5 20.168 37.5C22.783 37.5 25.1305 36.825 26.8055 36.1625C27.6884 35.8155 28.5456 35.4062 29.3705 34.9375L29.523 34.845L29.568 34.82L29.5805 34.81L29.5855 34.8075C29.8656 34.6298 30.0662 34.3481 30.1386 34.0244C30.211 33.7006 30.1519 33.3614 29.9742 33.0812C29.7965 32.8011 29.5148 32.603 29.1911 32.5306C28.8674 32.4582 28.5281 32.5173 28.248 32.695L28.223 32.7125L28.108 32.7775C28.0063 32.8392 27.8521 32.925 27.6455 33.035C27.0756 33.3337 26.4897 33.6008 25.8905 33.835C24.393 34.43 22.3655 35 20.168 35C17.9705 35 15.943 34.425 14.4455 33.8375C13.6824 33.5366 12.9414 33.1824 12.228 32.7775L12.1155 32.71L12.0905 32.6975Z" fill="#B0D6E8"/>
</svg>
