<svg width="41" height="40" viewBox="0 0 41 40" fill="none" xmlns="http://www.w3.org/2000/svg">
<path d="M20.168 11.6667C19.2839 11.6667 18.4361 11.3155 17.8109 10.6904C17.1858 10.0652 16.8346 9.21739 16.8346 8.33333C16.8346 7.44928 17.1858 6.60143 17.8109 5.97631C18.4361 5.35119 19.2839 5 20.168 5C21.052 5 21.8999 5.35119 22.525 5.97631C23.1501 6.60143 23.5013 7.44928 23.5013 8.33333C23.5013 9.21739 23.1501 10.0652 22.525 10.6904C21.8999 11.3155 21.052 11.6667 20.168 11.6667ZM20.168 11.6667V18.3333M20.168 18.3333C21.4941 18.3333 22.7658 18.8601 23.7035 19.7978C24.6412 20.7355 25.168 22.0073 25.168 23.3333C25.168 24.6594 24.6412 25.9312 23.7035 26.8689C22.7658 27.8065 21.4941 28.3333 20.168 28.3333C18.8419 28.3333 17.5701 27.8065 16.6324 26.8689C15.6948 25.9312 15.168 24.6594 15.168 23.3333C15.168 22.0073 15.6948 20.7355 16.6324 19.7978C17.5701 18.8601 18.8419 18.3333 20.168 18.3333ZM11.3346 29.6667L16.0013 26.3333M29.0013 29.6667L24.3346 26.3333M5.16797 31.6667C5.16797 32.5507 5.51916 33.3986 6.14428 34.0237C6.7694 34.6488 7.61725 35 8.5013 35C9.38536 35 10.2332 34.6488 10.8583 34.0237C11.4834 33.3986 11.8346 32.5507 11.8346 31.6667C11.8346 30.7826 11.4834 29.9348 10.8583 29.3096C10.2332 28.6845 9.38536 28.3333 8.5013 28.3333C7.61725 28.3333 6.7694 28.6845 6.14428 29.3096C5.51916 29.9348 5.16797 30.7826 5.16797 31.6667ZM28.5013 31.6667C28.5013 32.5507 28.8525 33.3986 29.4776 34.0237C30.1027 34.6488 30.9506 35 31.8346 35C32.7187 35 33.5665 34.6488 34.1917 34.0237C34.8168 33.3986 35.168 32.5507 35.168 31.6667C35.168 30.7826 34.8168 29.9348 34.1917 29.3096C33.5665 28.6845 32.7187 28.3333 31.8346 28.3333C30.9506 28.3333 30.1027 28.6845 29.4776 29.3096C28.8525 29.9348 28.5013 30.7826 28.5013 31.6667Z" stroke="#B0D6E8" stroke-width="3.33333" stroke-linecap="round" stroke-linejoin="round"/>
</svg>
