<svg width="41" height="40" viewBox="0 0 41 40" fill="none" xmlns="http://www.w3.org/2000/svg">
<path d="M10.5847 3.33325C9.59015 3.33325 8.63633 3.72834 7.93307 4.4316C7.22981 5.13486 6.83472 6.08869 6.83472 7.08325V32.9166C6.83472 33.9111 7.22981 34.865 7.93307 35.5682C8.63633 36.2715 9.59015 36.6666 10.5847 36.6666H23.0847C24.0732 36.6666 25.0218 36.2763 25.7241 35.5806C26.4263 34.8849 26.8255 33.9401 26.8347 32.9516V30.4183C26.8347 30.0867 26.703 29.7688 26.4686 29.5344C26.2342 29.2999 25.9162 29.1683 25.5847 29.1683C24.8297 29.1683 24.3531 28.9633 24.0247 28.6983C23.678 28.4199 23.3914 27.9899 23.173 27.3833C22.7181 26.1249 22.6697 24.4666 22.6697 22.9166C22.6697 22.5998 22.5494 22.2948 22.333 22.0633L22.058 21.7683C21.9675 21.6684 21.873 21.5722 21.7747 21.4799C21.6514 21.3633 21.2747 21.0049 19.8031 19.5333C19.0214 18.7516 18.5897 18.0916 18.4481 17.5866C18.3894 17.4119 18.3802 17.2245 18.4214 17.0449C18.4831 16.8372 18.6014 16.6508 18.763 16.5066C18.907 16.3458 19.0928 16.2281 19.2997 16.1666C19.4788 16.1257 19.6656 16.1349 19.8397 16.1933C20.3431 16.3349 21.003 16.7699 21.7847 17.5516C22.6847 18.4516 23.5397 19.2966 24.3047 20.0516C25.5714 21.3049 26.5931 22.3183 27.1714 22.9349C27.398 23.1754 27.7105 23.3163 28.0407 23.327C28.371 23.3376 28.692 23.2171 28.9336 22.9918C29.1752 22.7665 29.3178 22.4547 29.3302 22.1245C29.3426 21.7944 29.2238 21.4727 28.9997 21.2299C28.2904 20.4878 27.5686 19.7577 26.8347 19.0399V13.4333L31.5714 18.1699C32.273 18.8733 32.6697 19.8266 32.6697 20.8199V35.4166C32.6697 35.7481 32.8014 36.066 33.0358 36.3005C33.2703 36.5349 33.5882 36.6666 33.9197 36.6666C34.2512 36.6666 34.5692 36.5349 34.8036 36.3005C35.038 36.066 35.1697 35.7481 35.1697 35.4166V20.8216C35.1696 20.0007 35.0079 19.1878 34.6936 18.4294C34.3793 17.671 33.9187 16.9819 33.3381 16.4016L26.8347 9.89825V7.08159C26.8343 6.08731 26.439 5.13391 25.7358 4.43101C25.0326 3.72811 24.079 3.33325 23.0847 3.33325H10.5847ZM20.8214 28.2333C20.9831 28.6799 21.1914 29.1233 21.4614 29.5366C20.8245 29.8424 20.287 30.322 19.9107 30.92C19.5345 31.518 19.3348 32.2101 19.3347 32.9166V34.1666H14.3347V32.9166C14.3347 31.922 13.9396 30.9682 13.2364 30.2649C12.5331 29.5617 11.5793 29.1666 10.5847 29.1666H9.33472V10.8333H10.5847C11.5793 10.8333 12.5331 10.4382 13.2364 9.7349C13.9396 9.03164 14.3347 8.07781 14.3347 7.08325V5.83325H19.3347V7.08325C19.3347 8.07781 19.7298 9.03164 20.4331 9.7349C21.1363 10.4382 22.0902 10.8333 23.0847 10.8333H24.3347V16.5633L23.553 15.7833C22.668 14.8983 21.6397 14.1033 20.5181 13.7866C19.9194 13.6088 19.2841 13.5944 18.6781 13.7449C18.302 13.8407 17.9455 14.0015 17.6247 14.2199C16.6824 14.0914 15.723 14.1952 14.83 14.5223C13.937 14.8494 13.1375 15.3899 12.5012 16.0966C11.8649 16.8034 11.411 17.655 11.1791 18.5773C10.9472 19.4997 10.9443 20.4647 11.1707 21.3884C11.3971 22.312 11.8459 23.1664 12.478 23.8769C13.1101 24.5875 13.9063 25.1327 14.7974 25.4651C15.6884 25.7975 16.6472 25.9071 17.5903 25.7841C18.5333 25.6612 19.432 25.3096 20.208 24.7599C20.2697 25.8999 20.4247 27.1383 20.8214 28.2333ZM13.5014 19.9999C13.5012 19.2738 13.7382 18.5675 14.1762 17.9884C14.6142 17.4093 15.2293 16.9891 15.9281 16.7916C15.8657 17.2848 15.9042 17.7854 16.0414 18.2633C16.3564 19.3849 17.1497 20.4149 18.0364 21.3016L19.1447 22.4049C18.6734 22.858 18.0791 23.1625 17.436 23.2804C16.7929 23.3984 16.1294 23.3246 15.5279 23.0683C14.9264 22.8119 14.4136 22.3844 14.0533 21.8388C13.6929 21.2932 13.501 20.6537 13.5014 19.9999ZM9.33472 7.08325C9.33472 6.75173 9.46641 6.43379 9.70083 6.19937C9.93525 5.96495 10.2532 5.83325 10.5847 5.83325H11.8347V7.08325C11.8347 7.41477 11.703 7.73272 11.4686 7.96714C11.2342 8.20156 10.9162 8.33325 10.5847 8.33325H9.33472V7.08325ZM21.8347 5.83325H23.0847C23.4162 5.83325 23.7342 5.96495 23.9686 6.19937C24.203 6.43379 24.3347 6.75173 24.3347 7.08325V8.33325H23.0847C22.7532 8.33325 22.4353 8.20156 22.2008 7.96714C21.9664 7.73272 21.8347 7.41477 21.8347 7.08325V5.83325ZM24.3347 31.6666V32.9166C24.3347 33.2481 24.203 33.566 23.9686 33.8005C23.7342 34.0349 23.4162 34.1666 23.0847 34.1666H21.8347V32.9166C21.8347 32.5851 21.9664 32.2671 22.2008 32.0327C22.4353 31.7983 22.7532 31.6666 23.0847 31.6666H24.3347ZM11.8347 34.1666H10.5847C10.2532 34.1666 9.93525 34.0349 9.70083 33.8005C9.46641 33.566 9.33472 33.2481 9.33472 32.9166V31.6666H10.5847C10.9162 31.6666 11.2342 31.7983 11.4686 32.0327C11.703 32.2671 11.8347 32.5851 11.8347 32.9166V34.1666Z" fill="#B0D6E8"/>
</svg>
