<svg width="41" height="40" viewBox="0 0 41 40" fill="none" xmlns="http://www.w3.org/2000/svg">
<g clip-path="url(#clip0_92_402)">
<path d="M40.168 35L32.668 40V37.5H20.793L25.793 32.5H32.668V30L40.168 35ZM0.167969 5L7.66797 0V2.5H19.543L14.543 7.5H7.66797V10L0.167969 5ZM24.518 0L0.167969 24.35L15.818 40L40.168 15.65L24.518 0ZM3.64297 24.35L24.518 3.475L36.693 15.65L15.818 36.525L3.64297 24.35Z" fill="#B0D6E8"/>
<path d="M10.593 24.3499L8.84302 26.0999L14.068 31.3249L15.818 29.5749L17.668 31.2999L24.518 24.3499C23.3586 25.4756 21.8028 26.0999 20.1868 26.088C18.5709 26.0761 17.0245 25.4288 15.8818 24.2861C14.7391 23.1434 14.0919 21.597 14.0799 19.9811C14.068 18.3651 14.6923 16.8093 15.818 15.6499L8.86802 22.4999L10.593 24.3499Z" fill="#B0D6E8"/>
<path d="M31.468 13.925L26.243 8.69995L24.493 10.45L22.668 8.69995L15.818 15.65C16.9774 14.5243 18.5332 13.8999 20.1492 13.9119C21.7651 13.9238 23.3115 14.571 24.4542 15.7137C25.5969 16.8564 26.2441 18.4028 26.2561 20.0188C26.268 21.6347 25.6437 23.1905 24.518 24.35L31.468 17.5L29.718 15.75L31.468 13.925Z" fill="#B0D6E8"/>
</g>
<defs>
<clipPath id="clip0_92_402">
<rect width="40" height="40" fill="white" transform="translate(0.167969)"/>
</clipPath>
</defs>
</svg>
