<svg width="41" height="40" viewBox="0 0 41 40" fill="none" xmlns="http://www.w3.org/2000/svg">
<path d="M12.4596 4.58325V35.4166M4.75122 12.2916H35.5846M20.1679 12.2916V35.4166M27.8762 12.2916V35.4166M12.4596 19.9999H35.5846M12.4596 27.7083H35.5846M8.08455 4.58325H32.2512C33.1353 4.58325 33.9831 4.93444 34.6082 5.55956C35.2334 6.18468 35.5846 7.03253 35.5846 7.91659V32.0833C35.5846 32.9673 35.2334 33.8152 34.6082 34.4403C33.9831 35.0654 33.1353 35.4166 32.2512 35.4166H8.08455C7.2005 35.4166 6.35265 35.0654 5.72753 34.4403C5.10241 33.8152 4.75122 32.9673 4.75122 32.0833V7.91659C4.75122 7.03253 5.10241 6.18468 5.72753 5.55956C6.35265 4.93444 7.2005 4.58325 8.08455 4.58325Z" stroke="#B0D6E8" stroke-width="3" stroke-linecap="round" stroke-linejoin="round"/>
</svg>
