<svg width="32" height="35" viewBox="0 0 32 35" fill="none" xmlns="http://www.w3.org/2000/svg">
<path fill-rule="evenodd" clip-rule="evenodd" d="M19.043 3.25011H11.293C11.0472 4.45086 10.4542 5.55298 9.58755 6.41965C8.72088 7.28631 7.61876 7.87934 6.41801 8.12511C6.41753 8.48622 6.41753 8.84733 6.41801 9.20844C7.61876 9.45421 8.72088 10.0472 9.58755 10.9139C10.4542 11.7806 11.0472 12.8827 11.293 14.0834H19.043C19.2888 12.8827 19.8818 11.7806 20.7485 10.9139C21.6151 10.0472 22.7173 9.45421 23.918 9.20844C23.9184 8.84733 23.9184 8.48622 23.918 8.12511C22.7173 7.87934 21.6151 7.28631 20.7485 6.41965C19.8818 5.55298 19.2888 4.45086 19.043 3.25011ZM20.0513 0.755107C19.593 0.750107 19.1063 0.750107 18.588 0.750107H11.748C11.2313 0.750107 10.743 0.750107 10.2863 0.755107C10.1953 0.746908 10.1037 0.748585 10.013 0.760108C9.25967 0.773441 8.59134 0.805107 8.01134 0.883441C6.96467 1.02344 6.01967 1.33344 5.26134 2.09177C4.50134 2.85177 4.19134 3.79677 4.05134 4.84177C3.97301 5.42344 3.94134 6.09177 3.92801 6.84511C3.91659 6.93522 3.91491 7.0263 3.92301 7.11677C3.91801 7.57511 3.91801 8.06344 3.91801 8.58011V8.75344C3.91801 9.27011 3.91801 9.75844 3.92301 10.2168C3.91493 10.3072 3.9166 10.3983 3.92801 10.4884C3.94134 11.2434 3.97301 11.9101 4.05134 12.4901C4.19134 13.5368 4.50134 14.4818 5.26134 15.2401C6.01967 16.0001 6.96467 16.3101 8.01134 16.4501C8.59134 16.5284 9.25967 16.5601 10.013 16.5734C10.1037 16.5851 10.1953 16.5868 10.2863 16.5784C10.743 16.5834 11.2313 16.5834 11.748 16.5834H18.588C19.1047 16.5834 19.593 16.5834 20.0513 16.5784C20.1418 16.5867 20.2329 16.585 20.323 16.5734C21.078 16.5601 21.7463 16.5284 22.3247 16.4501C23.3713 16.3101 24.3163 16.0001 25.0747 15.2401C25.8347 14.4818 26.1447 13.5368 26.2847 12.4901C26.3637 11.8258 26.4048 11.1575 26.408 10.4884C26.4193 10.3983 26.421 10.3072 26.413 10.2168C26.418 9.75844 26.418 9.27011 26.418 8.75344V8.58011C26.418 8.06344 26.418 7.57511 26.413 7.11677C26.4213 7.02631 26.4196 6.93521 26.408 6.84511C26.4045 6.1761 26.3634 5.50782 26.2847 4.84344C26.1447 3.79677 25.8347 2.85177 25.0763 2.09344C24.3163 1.33344 23.3713 1.02344 22.3263 0.883441C21.6614 0.804648 20.9926 0.763471 20.323 0.760108C20.2329 0.748653 20.1418 0.746977 20.0513 0.755107ZM21.658 3.32344C21.8467 3.82206 22.1393 4.27488 22.5162 4.65187C22.8932 5.02885 23.346 5.3214 23.8447 5.51011C23.8342 5.39875 23.8214 5.28761 23.8063 5.17677C23.7047 4.40677 23.5247 4.07677 23.3063 3.86011C23.0897 3.64344 22.7613 3.46511 21.993 3.36011C21.8822 3.34563 21.771 3.33341 21.6597 3.32344M23.8463 11.8234C23.3477 12.0121 22.8949 12.3047 22.5179 12.6817C22.1409 13.0587 21.8484 13.5115 21.6597 14.0101C21.7763 14.0001 21.888 13.9868 21.993 13.9734C22.763 13.8684 23.093 13.6901 23.3097 13.4734C23.5263 13.2568 23.7063 12.9268 23.8097 12.1568C23.823 12.0518 23.8363 11.9401 23.8463 11.8234ZM8.67967 14.0101C8.49096 13.5115 8.19842 13.0587 7.82143 12.6817C7.44445 12.3047 6.99163 12.0121 6.49301 11.8234C6.50467 11.9401 6.51634 12.0518 6.53134 12.1568C6.63467 12.9268 6.81301 13.2568 7.03134 13.4734C7.24801 13.6901 7.57634 13.8684 8.34467 13.9734C8.45134 13.9868 8.56301 14.0001 8.67967 14.0101ZM6.49301 5.51011C6.99163 5.3214 7.44445 5.02885 7.82143 4.65187C8.19842 4.27488 8.49096 3.82206 8.67967 3.32344C8.56301 3.33344 8.45134 3.34677 8.34634 3.36177C7.57634 3.46511 7.24634 3.64344 7.02967 3.86177C6.81301 4.07844 6.63467 4.40677 6.52967 5.17511L6.49301 5.51011ZM15.168 8.25011C15.0575 8.25011 14.9515 8.29401 14.8734 8.37215C14.7952 8.45029 14.7513 8.55627 14.7513 8.66677C14.7513 8.77728 14.7952 8.88326 14.8734 8.9614C14.9515 9.03954 15.0575 9.08344 15.168 9.08344C15.2785 9.08344 15.3845 9.03954 15.4626 8.9614C15.5408 8.88326 15.5847 8.77728 15.5847 8.66677C15.5847 8.55627 15.5408 8.45029 15.4626 8.37215C15.3845 8.29401 15.2785 8.25011 15.168 8.25011ZM12.2513 8.66677C12.2513 7.89323 12.5586 7.15136 13.1056 6.60438C13.6526 6.0574 14.3945 5.75011 15.168 5.75011C15.9416 5.75011 16.6834 6.0574 17.2304 6.60438C17.7774 7.15136 18.0847 7.89323 18.0847 8.66677C18.0847 9.44032 17.7774 10.1822 17.2304 10.7292C16.6834 11.2761 15.9416 11.5834 15.168 11.5834C14.3945 11.5834 13.6526 11.2761 13.1056 10.7292C12.5586 10.1822 12.2513 9.44032 12.2513 8.66677ZM9.64134 21.0801C12.7513 20.4784 16.0797 20.6134 18.7747 22.2201C19.1513 22.4451 19.508 22.7268 19.8163 23.0734C20.443 23.7784 20.7663 24.6518 20.7813 25.5284C21.0997 25.3234 21.4197 25.0951 21.743 24.8501L24.7563 22.5751C25.511 22.0203 26.4231 21.7211 27.3597 21.7211C28.2963 21.7211 29.2084 22.0203 29.963 22.5751C31.3547 23.6251 31.9113 25.5134 30.913 27.1134C30.2047 28.2484 29.138 29.8201 28.0513 30.8268C26.9513 31.8434 25.3897 32.7001 24.208 33.2701C22.7713 33.9634 21.2213 34.3468 19.713 34.5901C16.6297 35.0901 13.423 35.0134 10.3763 34.3851C8.8052 34.0618 7.2054 33.8982 5.60134 33.8968H1.83467C1.50315 33.8968 1.18521 33.7651 0.950789 33.5307C0.716369 33.2962 0.584673 32.9783 0.584673 32.6468C0.584673 32.3153 0.716369 31.9973 0.950789 31.7629C1.18521 31.5285 1.50315 31.3968 1.83467 31.3968H5.60134C7.37134 31.3968 9.15967 31.5818 10.8813 31.9368C13.6583 32.5066 16.5154 32.5693 19.3147 32.1218C20.6947 31.8984 21.9847 31.5668 23.1213 31.0184C24.2597 30.4684 25.5397 29.7451 26.3513 28.9934C27.173 28.2318 28.0913 26.9134 28.793 25.7901C29.0047 25.4501 28.9747 24.9618 28.4563 24.5701C27.8397 24.1034 26.878 24.1034 26.263 24.5701L23.2513 26.8451C22.048 27.7534 20.568 28.7251 18.733 29.0184C18.5408 29.0489 18.348 29.0756 18.1547 29.0984C16.9869 29.2332 15.8081 29.2443 14.638 29.1318C14.4717 29.1203 14.3093 29.0756 14.1605 29.0004C14.0117 28.9253 13.8794 28.8211 13.7715 28.694C13.6635 28.5669 13.5821 28.4195 13.532 28.2605C13.4819 28.1015 13.4641 27.934 13.4796 27.768C13.4952 27.602 13.5438 27.4408 13.6226 27.2939C13.7014 27.147 13.8088 27.0173 13.9385 26.9125C14.0682 26.8077 14.2175 26.7299 14.3777 26.6837C14.5379 26.6375 14.7058 26.6238 14.8713 26.6434C15.7959 26.7332 16.7271 26.7316 17.6513 26.6384L17.7013 26.6334C17.8568 26.5369 17.989 26.4071 18.0882 26.2534C18.1875 26.0996 18.2514 25.9257 18.2753 25.7443C18.2992 25.5628 18.2826 25.3784 18.2265 25.2041C18.1705 25.0299 18.0765 24.8703 17.9513 24.7368C17.8185 24.5906 17.6639 24.4658 17.493 24.3668C15.5247 23.1918 12.8947 22.9968 10.1163 23.5334C7.40259 24.0794 4.82996 25.1771 2.55801 26.7584C2.42406 26.8534 2.27271 26.9211 2.11261 26.9576C1.95251 26.9941 1.78678 26.9987 1.6249 26.9712C1.46301 26.9436 1.30814 26.8845 1.16912 26.7971C1.0301 26.7097 0.909663 26.5957 0.814673 26.4618C0.719684 26.3278 0.652007 26.1765 0.615508 26.0164C0.579009 25.8563 0.574402 25.6905 0.60195 25.5287C0.629498 25.3668 0.688662 25.2119 0.776063 25.0729C0.863464 24.9339 0.977391 24.8134 1.11134 24.7184C3.67408 22.9317 6.57798 21.6931 9.64134 21.0801Z" fill="#B0D6E8"/>
</svg>
