<svg width="31" height="31" viewBox="0 0 31 31" fill="none" xmlns="http://www.w3.org/2000/svg">
<path d="M4.41798 22.1067C4.41798 22.1067 1.57965 26.34 3.23965 27.9984C4.89798 29.6584 9.13131 26.82 9.13131 26.82" stroke="#B0D6E8" stroke-width="3.33333" stroke-linecap="round" stroke-linejoin="round"/>
<path fill-rule="evenodd" clip-rule="evenodd" d="M30.3447 0.89335C30.5437 1.09245 30.689 1.33872 30.7671 1.60918C30.8452 1.87963 30.8536 2.16547 30.7913 2.44002L30.263 4.77668C29.637 7.53827 28.2421 10.0663 26.2397 12.0684L18.4997 19.8083C20.2113 21.9283 20.7663 23.9417 20.333 25.8617C19.8813 27.8617 18.3997 29.3383 17.4797 30.2567L17.3797 30.3567C17.2005 30.5356 16.983 30.6713 16.7436 30.7535C16.5042 30.8358 16.2491 30.8624 15.9979 30.8314C15.7467 30.8004 15.5058 30.7126 15.2935 30.5746C15.0813 30.4366 14.9033 30.2521 14.773 30.035L11.4513 24.4933C11.3814 24.3769 11.2974 24.2694 11.2013 24.1733L6.918 19.8933L5.65133 19.1333L11.4163 12.7284C11.4202 12.7312 11.4241 12.734 11.428 12.7367L19.168 5.00002C21.1705 2.99727 23.6991 1.60237 26.4613 0.976683L28.798 0.446683C29.0727 0.384665 29.3586 0.393258 29.6291 0.471658C29.8995 0.550058 30.1457 0.694043 30.3447 0.89335ZM10.038 11.77C8.423 10.8284 6.87133 10.5667 5.37633 10.9033C3.37633 11.3567 1.89966 12.8367 0.981331 13.7583L0.881331 13.8567C0.702456 14.0358 0.566739 14.2534 0.484481 14.4928C0.402223 14.7322 0.375586 14.9872 0.40659 15.2384C0.437595 15.4897 0.525426 15.7306 0.663419 15.9428C0.801412 16.1551 0.98594 16.3331 1.203 16.4634L4.19633 18.26L10.038 11.77Z" fill="#B0D6E8"/>
</svg>
