<svg width="41" height="40" viewBox="0 0 41 40" fill="none" xmlns="http://www.w3.org/2000/svg">
<path d="M8.50134 35H28.5013C30.2695 35 31.9651 34.2976 33.2154 33.0474C34.4656 31.7971 35.168 30.1014 35.168 28.3333V8.33333C35.168 7.44928 34.8168 6.60143 34.1917 5.97631C33.5666 5.35119 32.7187 5 31.8347 5H15.168C14.284 5 13.4361 5.35119 12.811 5.97631C12.1859 6.60143 11.8347 7.44928 11.8347 8.33333V30C11.8347 32.7617 11.263 35 8.50134 35Z" stroke="#B0D6E8" stroke-width="3.33333" stroke-linecap="round" stroke-linejoin="round"/>
<path d="M20.168 15.0001C21.0885 15.0001 21.8347 14.2539 21.8347 13.3334C21.8347 12.4129 21.0885 11.6667 20.168 11.6667C19.2475 11.6667 18.5013 12.4129 18.5013 13.3334C18.5013 14.2539 19.2475 15.0001 20.168 15.0001Z" stroke="#B0D6E8" stroke-width="3.33333" stroke-linecap="round"/>
<path d="M18.5013 23.3333H28.5013M18.5013 28.3333H23.5013" stroke="#B0D6E8" stroke-width="3.33333" stroke-linecap="round"/>
</svg>
