<svg width="41" height="40" viewBox="0 0 41 40" fill="none" xmlns="http://www.w3.org/2000/svg">
<path d="M31.368 24.6001C31.9513 23.1834 32.268 21.6667 32.268 20.0001C32.268 18.8001 32.0847 17.6501 31.768 16.5834C30.6847 16.8334 29.5513 16.9667 28.368 16.9667C25.9446 16.9693 23.5561 16.3893 21.4039 15.2754C19.2516 14.1616 17.3987 12.5467 16.0013 10.5667C14.5079 14.1846 11.6875 17.0945 8.11801 18.7001C8.05134 19.1167 8.05134 19.5667 8.05134 20.0001C8.05134 21.5913 8.36475 23.1669 8.97367 24.6369C9.58259 26.107 10.4751 27.4427 11.6002 28.5679C13.8725 30.8402 16.9545 32.1167 20.168 32.1167C21.918 32.1167 23.6013 31.7334 25.118 31.0501C26.068 32.8667 26.5013 33.7667 26.468 33.7667C23.7347 34.6834 21.618 35.1334 20.168 35.1334C16.1347 35.1334 12.2847 33.5501 9.45134 30.7001C7.72642 28.9833 6.44513 26.8726 5.71801 24.5501H3.50134V16.9667H5.31801C5.86841 14.2876 7.13383 11.8074 8.97999 9.78939C10.8262 7.77136 13.1842 6.29075 15.8039 5.50467C18.4236 4.71859 21.2072 4.65636 23.8594 5.32458C26.5117 5.99281 28.9335 7.36656 30.868 9.30007C32.9677 11.3927 34.4002 14.0605 34.9847 16.9667H36.8347V24.5501H36.7347L30.8013 30.0001L21.968 29.0001V26.2167H30.018L31.368 24.6001ZM15.618 19.6167C16.118 19.6167 16.6013 19.8167 16.9513 20.1834C17.3031 20.538 17.5005 21.0173 17.5005 21.5167C17.5005 22.0162 17.3031 22.4955 16.9513 22.8501C16.6013 23.2001 16.118 23.4001 15.618 23.4001C14.568 23.4001 13.718 22.5667 13.718 21.5167C13.718 20.4667 14.568 19.6167 15.618 19.6167ZM24.7013 19.6167C25.7513 19.6167 26.5847 20.4667 26.5847 21.5167C26.5847 22.5667 25.7513 23.4001 24.7013 23.4001C23.6513 23.4001 22.8013 22.5667 22.8013 21.5167C22.8013 21.0128 23.0015 20.5296 23.3578 20.1732C23.7142 19.8169 24.1974 19.6167 24.7013 19.6167Z" fill="#B0D6E8"/>
</svg>
