<svg width="25" height="24" viewBox="0 0 25 24" fill="none" xmlns="http://www.w3.org/2000/svg">
<path d="M16.0039 14.255H15.2139L14.9339 13.985C15.9139 12.845 16.5039 11.365 16.5039 9.755C16.5039 6.165 13.5939 3.255 10.0039 3.255C6.41391 3.255 3.50391 6.165 3.50391 9.755C3.50391 13.345 6.41391 16.255 10.0039 16.255C11.6139 16.255 13.0939 15.665 14.2339 14.685L14.5039 14.965V15.755L19.5039 20.745L20.9939 19.255L16.0039 14.255ZM10.0039 14.255C7.51391 14.255 5.50391 12.245 5.50391 9.755C5.50391 7.26501 7.51391 5.255 10.0039 5.255C12.4939 5.255 14.5039 7.26501 14.5039 9.755C14.5039 12.245 12.4939 14.255 10.0039 14.255Z" fill="black"/>
</svg>
